<svg id="Layer_1" data-name="Layer 1" xmlns="http://www.w3.org/2000/svg" xmlns:xlink="http://www.w3.org/1999/xlink" viewBox="0 0 1080 1080"><defs><style>.cls-1{fill:url(#linear-gradient);}.cls-2{fill:url(#linear-gradient-2);}.cls-3{fill:#a32626;}</style><linearGradient id="linear-gradient" x1="206.53" y1="822.09" x2="387.56" y2="756.38" gradientTransform="translate(1.64 -0.76) rotate(0.17)" gradientUnits="userSpaceOnUse"><stop offset="0.32" stop-color="#c1272d"/><stop offset="1" stop-color="#ed1c24"/></linearGradient><linearGradient id="linear-gradient-2" x1="327.3" y1="456.04" x2="783.49" y2="605.59" gradientTransform="matrix(1, 0, 0, 1, 0, 0)" xlink:href="#linear-gradient"/></defs><path class="cls-1" d="M359.49,775.51l-.45-.36c-.67-.54-1.94-1.56-3.19-2.62-.2-.17-.86-.73-2.16-1.86l-2.42-2.11-2.2-1.95s-2-1.82-4-3.66c-11.41-10.61-21.44-22-21.44-22a290.69,290.69,0,0,1-23.26-30.25Q261.72,785.09,223.1,859.5l207.09-41a288.25,288.25,0,0,1-36-18.51A314.87,314.87,0,0,1,359.49,775.51Z"/><path class="cls-2" d="M845.25,425.4C823.48,336,768.73,275.57,683.48,242.75c-68-26.18-137.62-28.86-208-10.16-69.56,18.49-127.18,55.56-169,114.54a296.7,296.7,0,0,0-29.71,52.35c-33.24,75.69-25.68,154.75-24.07,169.33,5.09,46,17,90.17,40.41,130.37a268.66,268.66,0,0,0,31.17,42.59,306.51,306.51,0,0,0,78.81,63.64,297.51,297.51,0,0,0,43.39,20.05A344.32,344.32,0,0,0,504.85,841c.5.09,1,.14,1.5.26q9,1.58,18.16,2.67c24.18,2.91,82.17,9.22,148.31-14.44a289,289,0,0,0,126-88.74c13.9-17,64.1-78.46,57.44-120.42H694.34c-6.82,12.89-12.67,26.5-21.65,37.6-22.24,27.52-53.39,39.07-88,42.88C537.67,706,496.24,694,462.31,660.51c-36.08-35.63-50.06-80.2-50.12-130,0-28.44,4.51-56,16.63-81.73C456,391.08,502.09,363,565.59,362.94c60.23-.08,105.26,24,128.88,81.58a16.47,16.47,0,0,0,2,3.61H850.51C848.67,440.09,847,432.71,845.25,425.4Z"/><path class="cls-3" d="M845.8,425.4C824,336,769.28,275.57,684,242.75c-68-26.18-137.62-28.86-207.95-10.16C451.83,239,404.28,252.94,357,292.9c-10,8.45-61.31,53-88.8,132.36a317.18,317.18,0,0,0-14.66,143.55c50.08-65.68,114-127,186.28-167.84,33.34-18.85,76-34.15,117.47-37,47.31-3.27,93.21,9.61,122.38,51.78A151.64,151.64,0,0,1,695,444.52a17.77,17.77,0,0,0,2,3.68H851.08C849.24,440.13,847.59,432.73,845.8,425.4Z"/></svg>