<svg width="264" height="197" viewBox="0 0 264 197" fill="none" xmlns="http://www.w3.org/2000/svg">
<path d="M264 172.867H0V172.999H264V172.867Z" fill="#EBEBEB"/>
<path d="M45.1866 177.894H27.6992V178.026H45.1866V177.894Z" fill="#EBEBEB"/>
<path d="M112.819 176.463H90.3633V176.595H112.819V176.463Z" fill="#EBEBEB"/>
<path d="M59.4839 179.747H49.3516V179.879H59.4839V179.747Z" fill="#EBEBEB"/>
<path d="M237.545 181.912H229.504V182.044H237.545V181.912Z" fill="#EBEBEB"/>
<path d="M224.8 181.912H206.695V182.044H224.8V181.912Z" fill="#EBEBEB"/>
<path d="M175.207 178.11H162.625V178.242H175.207V178.11Z" fill="#EBEBEB"/>
<path d="M125.137 149.318H23.1907C22.3911 149.318 21.6242 149.001 21.0588 148.435C20.4934 147.87 20.1758 147.103 20.1758 146.304V2.98848C20.1827 2.19347 20.5035 1.43339 21.0681 0.873684C21.6327 0.313982 22.3956 -3.04793e-05 23.1907 2.21895e-09H125.137C125.937 2.21895e-09 126.703 0.317638 127.269 0.883038C127.834 1.44844 128.152 2.21528 128.152 3.01488V146.304C128.152 147.103 127.834 147.87 127.269 148.435C126.703 149.001 125.937 149.318 125.137 149.318ZM23.1907 0.1056C22.4265 0.106996 21.694 0.411175 21.1537 0.951517C20.6134 1.49186 20.3092 2.22432 20.3078 2.98848V146.304C20.3092 147.068 20.6134 147.8 21.1537 148.34C21.694 148.881 22.4265 149.185 23.1907 149.186H125.137C125.901 149.185 126.634 148.881 127.174 148.34C127.714 147.8 128.018 147.068 128.02 146.304V2.98848C128.018 2.22432 127.714 1.49186 127.174 0.951517C126.634 0.411175 125.901 0.106996 125.137 0.1056H23.1907Z" fill="#EBEBEB"/>
<path d="M239.347 149.318H137.39C136.591 149.317 135.825 148.999 135.26 148.434C134.694 147.869 134.376 147.103 134.375 146.304V2.98848C134.383 2.1939 134.704 1.43462 135.269 0.875209C135.833 0.315801 136.595 0.0013455 137.39 0H239.347C240.14 0.00274797 240.9 0.317988 241.462 0.877392C242.025 1.4368 242.344 2.19529 242.351 2.98848V146.304C242.351 147.101 242.035 147.867 241.472 148.432C240.909 148.997 240.144 149.316 239.347 149.318ZM137.39 0.1056C136.626 0.106996 135.893 0.411175 135.353 0.951517C134.813 1.49186 134.508 2.22432 134.507 2.98848V146.304C134.508 147.068 134.813 147.8 135.353 148.34C135.893 148.881 136.626 149.185 137.39 149.186H239.347C240.111 149.185 240.843 148.881 241.384 148.34C241.924 147.8 242.228 147.068 242.23 146.304V2.98848C242.228 2.22432 241.924 1.49186 241.384 0.951517C240.843 0.411175 240.111 0.106996 239.347 0.1056H137.39Z" fill="#EBEBEB"/>
<path d="M162.361 74.6433H219.316V17.5348L162.361 17.5348V74.6433Z" fill="#F0F0F0"/>
<path d="M162.361 17.5402H161.379V74.6486H162.361V17.5402Z" fill="#E0E0E0"/>
<path d="M167.392 71.0371H214.289V21.1411L167.392 21.1411V71.0371Z" fill="#FAFAFA"/>
<path d="M185.856 60.1919H200.709C203.929 60.1919 206.084 57.5836 205.519 54.3839L202.631 37.8417C202.31 36.2411 201.457 34.7961 200.211 33.7417C198.964 32.6872 197.398 32.0852 195.767 32.0337H180.951C177.73 32.0337 175.576 34.642 176.141 37.8417L179.029 54.3839C179.347 55.979 180.195 57.4199 181.434 58.4739C182.672 59.5278 184.23 60.1331 185.856 60.1919Z" fill="#F0F0F0"/>
<path d="M55.4259 91.9882H42.7539V170.159H55.4259V91.9882Z" fill="#F0F0F0"/>
<path d="M111.029 170.164H44.0469V172.862H111.029V170.164Z" fill="#F0F0F0"/>
<path d="M55.4229 170.164H112.141L112.141 91.9934H55.4229L55.4229 170.164Z" fill="#F5F5F5"/>
<path d="M57.7035 146.652H109.859V132.692H57.7035V146.652Z" fill="#F0F0F0"/>
<path d="M57.7035 164.921H109.859V150.96H57.7035V164.921Z" fill="#F0F0F0"/>
<path d="M103.688 131.836H63.8769C63.5329 131.836 63.2539 132.115 63.2539 132.459V133.13C63.2539 133.474 63.5329 133.753 63.8769 133.753H103.688C104.032 133.753 104.311 133.474 104.311 133.13V132.459C104.311 132.115 104.032 131.836 103.688 131.836Z" fill="#F5F5F5"/>
<path d="M103.688 150.11H63.8769C63.5329 150.11 63.2539 150.389 63.2539 150.733V151.404C63.2539 151.748 63.5329 152.027 63.8769 152.027H103.688C104.032 152.027 104.311 151.748 104.311 151.404V150.733C104.311 150.389 104.032 150.11 103.688 150.11Z" fill="#F5F5F5"/>
<path d="M57.7035 110.257H109.859V96.2966H57.7035V110.257Z" fill="#F0F0F0"/>
<path d="M57.7035 128.388H109.859V114.428H57.7035V128.388Z" fill="#F0F0F0"/>
<path d="M103.688 95.4465H63.8769C63.5329 95.4465 63.2539 95.7255 63.2539 96.0696V96.7401C63.2539 97.0842 63.5329 97.3632 63.8769 97.3632H103.688C104.032 97.3632 104.311 97.0842 104.311 96.7401V96.0696C104.311 95.7255 104.032 95.4465 103.688 95.4465Z" fill="#F5F5F5"/>
<path d="M103.688 113.568H63.8769C63.5329 113.568 63.2539 113.846 63.2539 114.191V114.861C63.2539 115.205 63.5329 115.484 63.8769 115.484H103.688C104.032 115.484 104.311 115.205 104.311 114.861V114.191C104.311 113.846 104.032 113.568 103.688 113.568Z" fill="#F5F5F5"/>
<path d="M110.088 13.2317H38.9609V75.673H110.088V13.2317Z" fill="#E6E6E6"/>
<path d="M117.714 10.8029H34.3585C34.2658 10.8029 34.1741 10.8212 34.0885 10.8568C34.003 10.8924 33.9254 10.9446 33.8601 11.0104C33.7948 11.0762 33.7432 11.1542 33.7082 11.24C33.6732 11.3258 33.6556 11.4177 33.6563 11.5104C33.6563 11.6966 33.7303 11.8752 33.8619 12.0069C33.9936 12.1386 34.1723 12.2126 34.3585 12.2126H117.714C117.901 12.2126 118.08 12.1388 118.212 12.0073C118.345 11.8757 118.42 11.6971 118.421 11.5104C118.421 11.3227 118.347 11.1428 118.214 11.0101C118.081 10.8774 117.902 10.8029 117.714 10.8029Z" fill="#E6E6E6"/>
<path d="M113.108 13.2317H40.3711V75.673H113.108V13.2317Z" fill="#F0F0F0"/>
<path d="M110.088 75.673H38.9609V77.6741H112.168L110.088 75.673Z" fill="#E6E6E6"/>
<path d="M118.134 75.6729H45.4023L47.4774 77.674H120.215L118.134 75.6729Z" fill="#F0F0F0"/>
<path d="M108.883 71.449V17.4557L44.5988 17.4557V71.449H108.883Z" fill="#FAFAFA"/>
<path d="M59.1953 71.449L83.9902 17.4557H95.7012L70.9011 71.449H59.1953Z" fill="white"/>
<path d="M73.4141 71.449L98.2142 17.4557H102.776L77.9813 71.449H73.4141Z" fill="white"/>
<path d="M108.883 71.449V17.4557H108.344V71.449H108.883Z" fill="#E6E6E6"/>
<g opacity="0.4">
<path d="M44.6495 9.54102H37.3789V61.0685H44.6495V9.54102Z" fill="#F0F0F0"/>
<path d="M47.4858 9.54102H41.8203V61.0685H47.4858V9.54102Z" fill="#E6E6E6"/>
<path d="M51.919 9.54102H44.6484V61.0685H51.919V9.54102Z" fill="#F0F0F0"/>
<path d="M54.7553 9.54102H49.0898V61.0685H54.7553V9.54102Z" fill="#E6E6E6"/>
<path d="M59.1924 9.54102H51.9219V61.0685H59.1924V9.54102Z" fill="#F0F0F0"/>
</g>
<g opacity="0.4">
<path d="M106.181 9.54102H101.988V61.0685H106.181V9.54102Z" fill="#F0F0F0"/>
<path d="M107.806 9.54102H104.543V61.0685H107.806V9.54102Z" fill="#E6E6E6"/>
<path d="M110.368 9.54102H106.176V61.0685H110.368V9.54102Z" fill="#F0F0F0"/>
<path d="M112.001 9.54102H108.738V61.0685H112.001V9.54102Z" fill="#E6E6E6"/>
<path d="M114.56 9.54102H110.367V61.0685H114.56V9.54102Z" fill="#F0F0F0"/>
</g>
<path d="M188.415 113.103C188.353 113.867 188.519 114.632 188.891 115.301C189.264 115.971 189.827 116.515 190.508 116.865C191.19 117.215 191.96 117.355 192.721 117.267C193.483 117.179 194.201 116.868 194.785 116.372C195.37 115.876 195.794 115.219 196.004 114.482C196.215 113.745 196.202 112.962 195.968 112.233C195.734 111.503 195.288 110.859 194.688 110.383C194.088 109.906 193.361 109.618 192.597 109.555C191.572 109.471 190.556 109.798 189.772 110.464C188.988 111.129 188.5 112.078 188.415 113.103Z" fill="#E0E0E0"/>
<path d="M199.192 119.275C201.312 118.963 202.778 116.991 202.466 114.871C202.154 112.75 200.183 111.284 198.062 111.596C195.942 111.908 194.476 113.88 194.788 116C195.1 118.121 197.071 119.587 199.192 119.275Z" fill="#E0E0E0"/>
<path d="M201.548 115.922C201.486 116.686 201.651 117.451 202.024 118.121C202.397 118.791 202.959 119.335 203.641 119.685C204.323 120.034 205.093 120.174 205.854 120.087C206.616 119.999 207.334 119.688 207.918 119.192C208.502 118.696 208.927 118.038 209.137 117.301C209.348 116.564 209.335 115.782 209.101 115.052C208.867 114.323 208.421 113.679 207.821 113.202C207.221 112.725 206.493 112.437 205.73 112.374C205.222 112.332 204.711 112.39 204.225 112.545C203.74 112.701 203.29 112.95 202.902 113.28C202.513 113.61 202.194 114.013 201.961 114.466C201.729 114.92 201.589 115.415 201.548 115.922Z" fill="#E0E0E0"/>
<path d="M181.208 115.136C181.146 115.899 181.312 116.664 181.684 117.334C182.057 118.004 182.619 118.548 183.301 118.898C183.983 119.248 184.753 119.388 185.514 119.3C186.276 119.212 186.994 118.901 187.578 118.405C188.163 117.909 188.587 117.251 188.797 116.514C189.008 115.778 188.995 114.995 188.761 114.265C188.527 113.536 188.081 112.892 187.481 112.415C186.881 111.939 186.154 111.651 185.39 111.587C184.365 111.504 183.349 111.831 182.565 112.496C181.781 113.162 181.293 114.111 181.208 115.136Z" fill="#E0E0E0"/>
<path d="M211.579 119.272C213.699 118.96 215.165 116.989 214.853 114.868C214.541 112.748 212.569 111.282 210.449 111.594C208.328 111.906 206.862 113.877 207.174 115.998C207.486 118.118 209.458 119.584 211.579 119.272Z" fill="#E0E0E0"/>
<path d="M182.369 115.121C183.998 113.728 184.189 111.278 182.796 109.649C181.403 108.02 178.953 107.829 177.324 109.222C175.695 110.615 175.504 113.065 176.898 114.694C178.291 116.323 180.741 116.514 182.369 115.121Z" fill="#E0E0E0"/>
<path d="M170.501 114.254C170.439 115.018 170.605 115.783 170.977 116.452C171.35 117.122 171.912 117.666 172.594 118.016C173.276 118.366 174.046 118.506 174.807 118.418C175.569 118.33 176.287 118.019 176.871 117.523C177.455 117.027 177.88 116.37 178.09 115.633C178.301 114.896 178.288 114.113 178.054 113.384C177.82 112.654 177.374 112.01 176.774 111.534C176.174 111.057 175.446 110.769 174.683 110.706C173.658 110.622 172.642 110.949 171.858 111.615C171.074 112.28 170.586 113.229 170.501 114.254Z" fill="#E0E0E0"/>
<path d="M166.07 115.299C166.07 115.299 166.736 131.176 192.249 131.176C217.762 131.176 218.427 115.299 218.427 115.299H166.07Z" fill="#F0F0F0"/>
<path d="M232.985 131.176H228.133V172.862H232.985V131.176Z" fill="#E6E6E6"/>
<path d="M234.278 131.176H231.422V172.862H234.278V131.176Z" fill="#F0F0F0"/>
<path d="M212.341 131.176H207.488V172.862H212.341V131.176Z" fill="#E6E6E6"/>
<path d="M213.247 131.176H210.391V172.862H213.247V131.176Z" fill="#F0F0F0"/>
<path d="M166.281 136.235H235.164V131.182H166.281V136.235Z" fill="#F0F0F0"/>
<path d="M145.231 131.176H140.379V172.862H145.231V131.176Z" fill="#E6E6E6"/>
<path d="M146.142 131.176H143.285V172.862H146.142V131.176Z" fill="#F0F0F0"/>
<path d="M139.512 136.235H164.207V131.182H139.512V136.235Z" fill="#E6E6E6"/>
<path d="M165.872 131.176H161.02V172.862H165.872V131.176Z" fill="#E6E6E6"/>
<path d="M167.169 131.176H164.312V172.862H167.169V131.176Z" fill="#F0F0F0"/>
<path d="M131.999 196.712C188.538 196.712 234.373 194.036 234.373 190.735C234.373 187.434 188.538 184.758 131.999 184.758C75.4594 184.758 29.625 187.434 29.625 190.735C29.625 194.036 75.4594 196.712 131.999 196.712Z" fill="#F5F5F5"/>
<path d="M187.695 185.492C187.696 186.547 187.322 187.568 186.64 188.373C185.959 189.179 185.013 189.716 183.973 189.89C171.162 192.051 158.081 192.051 145.27 189.89C144.234 189.711 143.294 189.172 142.618 188.367C141.941 187.562 141.571 186.543 141.574 185.492V142.724H187.716L187.695 185.492Z" fill="#D82E1D"/>
<path opacity="0.3" d="M141.547 143.495V149.498C144.324 150.528 153.443 151.283 164.62 151.283C175.798 151.283 184.933 150.528 187.694 149.498V143.495H141.547Z" fill="black"/>
<path d="M188.559 148.072C188.559 149.429 178.084 150.528 164.62 150.528C151.156 150.528 140.68 149.429 140.68 148.072L140.242 142.74H189.024L188.559 148.072Z" fill="#D82E1D"/>
<path d="M164.62 145.189C178.083 145.189 188.998 144.093 188.998 142.739C188.998 141.386 178.083 140.29 164.62 140.29C151.156 140.29 140.242 141.386 140.242 142.739C140.242 144.093 151.156 145.189 164.62 145.189Z" fill="#D82E1D"/>
<path opacity="0.3" d="M164.62 145.189C178.083 145.189 188.998 144.093 188.998 142.739C188.998 141.386 178.083 140.29 164.62 140.29C151.156 140.29 140.242 141.386 140.242 142.739C140.242 144.093 151.156 145.189 164.62 145.189Z" fill="black"/>
<path opacity="0.2" d="M147.735 182.482C147.261 182.481 146.806 182.292 146.471 181.956C146.136 181.621 145.947 181.166 145.945 180.692V156.172C145.947 155.697 146.136 155.243 146.471 154.908C146.806 154.572 147.261 154.383 147.735 154.382C148.209 154.385 148.663 154.574 148.998 154.909C149.333 155.244 149.522 155.698 149.525 156.172V180.692C149.522 181.166 149.333 181.62 148.998 181.955C148.663 182.29 148.209 182.479 147.735 182.482Z" fill="black"/>
<path opacity="0.2" d="M181.509 182.482C181.034 182.481 180.58 182.292 180.245 181.956C179.909 181.621 179.72 181.166 179.719 180.692V156.172C179.72 155.697 179.909 155.243 180.245 154.908C180.58 154.572 181.034 154.383 181.509 154.382C181.983 154.385 182.436 154.574 182.771 154.909C183.106 155.244 183.296 155.698 183.299 156.172V180.692C183.296 181.166 183.106 181.62 182.771 181.955C182.436 182.29 181.983 182.479 181.509 182.482Z" fill="black"/>
<path opacity="0.2" d="M170.247 182.482C169.773 182.479 169.319 182.29 168.984 181.955C168.649 181.62 168.46 181.166 168.457 180.692V156.172C168.46 155.698 168.649 155.244 168.984 154.909C169.319 154.574 169.773 154.385 170.247 154.382C170.721 154.383 171.176 154.572 171.511 154.908C171.846 155.243 172.035 155.697 172.037 156.172V180.692C172.035 181.166 171.846 181.621 171.511 181.956C171.176 182.292 170.721 182.481 170.247 182.482Z" fill="black"/>
<path opacity="0.2" d="M158.993 182.482C158.519 182.479 158.066 182.29 157.73 181.955C157.395 181.62 157.206 181.166 157.203 180.692V156.172C157.206 155.698 157.395 155.244 157.73 154.909C158.066 154.574 158.519 154.385 158.993 154.382C159.467 154.383 159.922 154.572 160.257 154.908C160.593 155.243 160.782 155.697 160.783 156.172V180.692C160.782 181.166 160.593 181.621 160.257 181.956C159.922 182.292 159.467 182.481 158.993 182.482Z" fill="black"/>
<path d="M101.841 44.4365C101.841 44.921 101.698 45.3947 101.428 45.7976C101.159 46.2005 100.777 46.5145 100.329 46.6999C99.8812 46.8854 99.3886 46.9339 98.9134 46.8393C98.4381 46.7448 98.0016 46.5115 97.659 46.1688C97.3163 45.8262 97.083 45.3897 96.9885 44.9144C96.894 44.4392 96.9425 43.9466 97.1279 43.4989C97.3133 43.0513 97.6273 42.6687 98.0302 42.3995C98.4331 42.1303 98.9068 41.9866 99.3913 41.9866C100.041 41.9866 100.664 42.2447 101.124 42.7041C101.583 43.1636 101.841 43.7867 101.841 44.4365Z" fill="#263238"/>
<path d="M97.4221 44.7902C97.3983 44.7909 97.3747 44.7848 97.3542 44.7726C97.3336 44.7605 97.3169 44.7428 97.306 44.7216C97.1441 44.4241 97.0423 44.0977 97.0066 43.7609C96.9708 43.4241 97.0018 43.0836 97.0976 42.7588C97.1935 42.434 97.3524 42.1312 97.5652 41.8678C97.7781 41.6044 98.0408 41.3855 98.3382 41.2236C98.6357 41.0617 98.9621 40.9599 99.2989 40.9242C99.6357 40.8884 99.9762 40.9194 100.301 41.0152C100.626 41.1111 100.929 41.27 101.192 41.4828C101.455 41.6957 101.674 41.9584 101.836 42.2558C101.852 42.2869 101.855 42.3227 101.845 42.356C101.835 42.3893 101.813 42.4176 101.783 42.4353C101.768 42.4437 101.751 42.449 101.734 42.4508C101.717 42.4527 101.699 42.4511 101.683 42.4462C101.666 42.4413 101.65 42.4332 101.637 42.4222C101.623 42.4113 101.612 42.3978 101.604 42.3825C101.311 41.8434 100.815 41.4429 100.226 41.2691C99.6377 41.0953 99.0041 41.1625 98.4649 41.4559C97.9258 41.7493 97.5253 42.2448 97.3515 42.8335C97.1777 43.4221 97.2449 44.0557 97.5383 44.5949C97.5467 44.6101 97.5519 44.6268 97.5538 44.6441C97.5557 44.6614 97.5541 44.6789 97.5492 44.6956C97.5443 44.7123 97.5361 44.7278 97.5252 44.7413C97.5143 44.7549 97.5008 44.7661 97.4855 44.7744C97.4659 44.7845 97.4442 44.7899 97.4221 44.7902Z" fill="#263238"/>
<path d="M95.0402 55.63C94.5629 55.6281 94.0955 55.4939 93.6899 55.2424C93.2843 54.9908 92.9564 54.6318 92.7425 54.2051C92.5286 53.7785 92.4372 53.3009 92.4784 52.8254C92.5195 52.3499 92.6917 51.8952 92.9757 51.5116C93.1782 51.2404 93.432 51.0118 93.7228 50.8388C94.0137 50.6658 94.3357 50.5517 94.6706 50.5031C94.6876 50.5001 94.7051 50.5007 94.722 50.5047C94.7388 50.5087 94.7547 50.5162 94.7685 50.5266C94.7824 50.537 94.7939 50.5501 94.8025 50.5651C94.8111 50.5802 94.8165 50.5968 94.8184 50.614C94.823 50.6483 94.8139 50.6829 94.7932 50.7106C94.7724 50.7382 94.7417 50.7566 94.7075 50.7618C94.1005 50.8508 93.5536 51.1772 93.1873 51.6693C92.8209 52.1614 92.665 52.779 92.754 53.386C92.8429 53.9931 93.1693 54.5399 93.6614 54.9063C94.1536 55.2727 94.7711 55.4285 95.3781 55.3396C95.4131 55.334 95.4489 55.3425 95.4776 55.3633C95.5064 55.3841 95.5256 55.4155 95.5312 55.4505C95.5368 55.4855 95.5283 55.5213 95.5075 55.55C95.4867 55.5787 95.4554 55.598 95.4204 55.6036C95.2943 55.6203 95.1673 55.6291 95.0402 55.63Z" fill="#263238"/>
<path d="M108.35 59.6217C107.855 59.621 107.37 59.4761 106.956 59.2046C106.927 59.1851 106.906 59.1551 106.898 59.1207C106.89 59.0862 106.896 59.0501 106.914 59.0198C106.934 58.9912 106.965 58.9715 106.999 58.9646C107.033 58.9577 107.069 58.9643 107.099 58.9828C107.613 59.3168 108.24 59.4327 108.84 59.305C109.44 59.1772 109.964 58.8163 110.298 58.3017C110.632 57.7871 110.748 57.1609 110.62 56.5608C110.493 55.9608 110.132 55.436 109.617 55.102C109.588 55.0826 109.567 55.0525 109.559 55.0181C109.551 54.9837 109.557 54.9476 109.575 54.9172C109.595 54.8887 109.626 54.8689 109.66 54.862C109.694 54.8552 109.73 54.8617 109.76 54.8803C110.332 55.253 110.734 55.8373 110.876 56.5052C111.019 57.1732 110.891 57.8705 110.52 58.4443C110.337 58.7298 110.099 58.9759 109.82 59.1681C109.541 59.3603 109.226 59.4948 108.894 59.5636C108.715 59.6012 108.533 59.6207 108.35 59.6217Z" fill="#263238"/>
<path d="M98.0184 52.0765C99.9313 52.0765 101.482 50.5258 101.482 48.6129C101.482 46.6999 99.9313 45.1492 98.0184 45.1492C96.1054 45.1492 94.5547 46.6999 94.5547 48.6129C94.5547 50.5258 96.1054 52.0765 98.0184 52.0765Z" fill="#263238"/>
<path d="M101.272 56.5236C103.066 54.7296 103.066 51.8211 101.272 50.0272C99.4779 48.2333 96.5694 48.2333 94.7755 50.0272C92.9816 51.8211 92.9816 54.7296 94.7755 56.5236C96.5694 58.3175 99.4779 58.3175 101.272 56.5236Z" fill="#263238"/>
<path d="M98.5051 64.1941C101.31 64.1941 103.584 61.92 103.584 59.1148C103.584 56.3095 101.31 54.0354 98.5051 54.0354C95.6999 54.0354 93.4258 56.3095 93.4258 59.1148C93.4258 61.92 95.6999 64.1941 98.5051 64.1941Z" fill="#263238"/>
<path d="M108.53 60.6262C109.175 57.896 107.484 55.1603 104.754 54.5159C102.023 53.8715 99.2877 55.5624 98.6433 58.2927C97.9989 61.0229 99.6899 63.7586 102.42 64.403C105.15 65.0474 107.886 63.3565 108.53 60.6262Z" fill="#263238"/>
<path d="M120.431 69.9389C120.431 70.3507 120.431 70.8734 120.468 71.3486C120.505 71.8238 120.505 72.3307 120.537 72.8217C120.605 73.8038 120.674 74.7965 120.78 75.7838C120.97 77.7656 121.235 79.7385 121.577 81.7027C121.667 82.1885 121.746 82.6848 121.846 83.1705L122.078 84.3691C122.137 84.5592 122.078 84.5222 122.005 84.5169C121.931 84.5117 122.005 84.612 122.316 84.612C123.113 84.532 123.89 84.3084 124.608 83.952C125.03 83.7619 125.463 83.556 125.896 83.3342C126.329 83.1125 126.767 82.859 127.163 82.6372L128.705 84.4166C128.337 84.8379 127.946 85.2381 127.533 85.6152C127.126 86.0023 126.696 86.3638 126.244 86.6976C125.771 87.0536 125.272 87.3731 124.75 87.6532C124.157 87.9772 123.52 88.2154 122.86 88.3608C122.453 88.4495 122.036 88.485 121.619 88.4664C121.111 88.4369 120.613 88.3115 120.151 88.0968C119.66 87.8663 119.223 87.5353 118.868 87.1252C118.563 86.7688 118.314 86.3683 118.129 85.9373C117.986 85.6075 117.869 85.2667 117.781 84.9182L117.575 84.1473C117.427 83.6193 117.305 83.1177 117.179 82.6003C116.685 80.5246 116.304 78.4236 116.038 76.3065C115.906 75.2505 115.801 74.1945 115.737 73.1121C115.706 72.5841 115.679 72.0561 115.663 71.4965C115.647 70.9368 115.663 70.4405 115.663 69.8121L120.431 69.9389Z" fill="#FFB573"/>
<path d="M117.87 64.247C122.374 67.6949 122.194 74.1946 122.194 74.1946L114.137 76.1218C114.137 76.1218 111.666 69.5851 112.669 67.1933C113.715 64.7011 115.336 62.304 117.87 64.247Z" fill="#D82E1D"/>
<path opacity="0.7" d="M117.87 64.247C122.374 67.6949 122.194 74.1946 122.194 74.1946L114.137 76.1218C114.137 76.1218 111.666 69.5851 112.669 67.1933C113.715 64.7011 115.336 62.304 117.87 64.247Z" fill="white"/>
<path d="M126.862 83.2445L128.193 81.0057L131.53 84.575C131.53 84.575 129.138 86.1062 126.656 85.0133L126.862 83.2445Z" fill="#FFB573"/>
<path d="M129.837 79.9338L134.119 82.4577L131.532 84.575L128.195 81.0057L129.837 79.9338Z" fill="#FFB573"/>
<path d="M92.6602 186.838L97.2643 187.282L100.126 176.495L95.5166 176.051L92.6602 186.838Z" fill="#FFB573"/>
<path d="M69.0586 177.772L73.1928 179.937L78.1085 170.19L73.9743 168.025L69.0586 177.772Z" fill="#FFB573"/>
<path d="M74.296 178.042L70.6 174.288C70.5386 174.222 70.4549 174.181 70.3652 174.173C70.2755 174.165 70.1861 174.191 70.1143 174.245L66.7192 176.743C66.6369 176.809 66.5694 176.892 66.5211 176.986C66.4727 177.08 66.4447 177.183 66.4387 177.288C66.4327 177.394 66.449 177.499 66.4864 177.598C66.5238 177.697 66.5815 177.787 66.6559 177.862C67.9653 179.15 68.6623 179.705 70.2885 181.358C71.2917 182.371 73.3509 184.763 74.7343 186.168C76.1176 187.572 77.5749 186.278 77.1261 185.571C75.1091 182.403 74.7712 180.412 74.6445 178.802C74.6216 178.515 74.4982 178.246 74.296 178.042Z" fill="#263238"/>
<path d="M97.9814 185.882H92.4004C92.3005 185.883 92.2038 185.917 92.1247 185.978C92.0456 186.039 91.9885 186.124 91.9621 186.22L90.7689 190.608C90.739 190.712 90.7341 190.822 90.7546 190.928C90.775 191.035 90.8202 191.135 90.8865 191.221C90.9528 191.307 91.0383 191.376 91.1362 191.423C91.2341 191.469 91.3416 191.492 91.45 191.49C93.4089 191.49 94.3382 191.49 96.7828 191.49H104.265C106.297 191.49 106.725 189.436 105.88 189.246C102.11 188.411 99.935 187.26 98.7734 186.162C98.5532 185.974 98.2709 185.874 97.9814 185.882Z" fill="#263238"/>
<path opacity="0.2" d="M100.121 176.5L98.6475 182.06H93.9219L95.5112 176.056L100.121 176.5Z" fill="black"/>
<path opacity="0.2" d="M73.968 168.025L78.1075 170.195L75.5731 175.217L71.4336 173.047L73.968 168.025Z" fill="black"/>
<path d="M116.508 63.5818C116.508 63.5818 118.546 64.4741 111.714 91.5077L92.7377 89.8656C93.725 82.1727 94.1421 77.4101 91.8242 61.2375C94.5294 60.9207 97.2539 60.7989 99.9765 60.8731C102.863 60.9168 105.742 61.1656 108.593 61.6176C111.263 62.1382 113.905 62.7938 116.508 63.5818Z" fill="#D82E1D"/>
<path opacity="0.7" d="M116.508 63.5818C116.508 63.5818 118.546 64.4741 111.714 91.5077L92.7377 89.8656C93.725 82.1727 94.1421 77.4101 91.8242 61.2375C94.5294 60.9207 97.2539 60.7989 99.9765 60.8731C102.863 60.9168 105.742 61.1656 108.593 61.6176C111.263 62.1382 113.905 62.7938 116.508 63.5818Z" fill="white"/>
<path d="M99.9781 60.72C99.9781 60.72 98.9221 60.72 97.6285 60.72C96.8629 61.8974 100.094 65.3347 104.202 68.7139C105.195 65.6357 106.758 65.6462 106.758 65.6462L99.9781 60.72Z" fill="white"/>
<path d="M108.589 61.549C108.589 61.549 109.069 61.6176 110.22 61.8816C110.98 63.059 111.408 66.0053 109.164 68.5713C108.282 65.4033 106.762 65.6885 106.762 65.6885L108.589 61.549Z" fill="white"/>
<path d="M101.666 51.2424C101.972 54.062 102.073 59.1624 99.9766 60.8731C99.9766 60.8731 102.215 63.1647 106.756 65.6885C110.051 63.4076 108.594 61.6176 108.594 61.6176C105.563 60.6144 105.843 58.3282 106.566 56.2162L101.666 51.2424Z" fill="#FFB573"/>
<path opacity="0.2" d="M103.668 53.2751L106.567 56.2161C106.389 56.7049 106.254 57.2085 106.165 57.7209C105.004 57.4516 103.314 56.2372 103.293 54.9911C103.313 54.4012 103.44 53.8198 103.668 53.2751Z" fill="black"/>
<path d="M112.556 42.0446C114.499 43.7658 115.069 47.9582 113.221 50.8041C112.666 47.9191 112.443 44.9802 112.556 42.0446Z" fill="#263238"/>
<path d="M101.078 45.3235C100.74 49.9646 100.502 51.9235 102.509 54.6004C105.529 58.6291 111.305 58.0219 113.021 53.5761C114.568 49.5686 114.858 42.6518 110.597 40.2124C109.661 39.6659 108.6 39.3687 107.516 39.3494C106.432 39.3301 105.361 39.5892 104.406 40.102C103.451 40.6149 102.643 41.3642 102.061 42.2784C101.478 43.1926 101.139 44.2411 101.078 45.3235Z" fill="#FFB573"/>
<path d="M100.46 49.0617C103.892 48.9297 105.793 44.4417 104.932 42.5462C108.824 44.5737 114.716 46.1682 114.061 43.5599C113.18 40.0382 108.919 37.4562 103.676 39.3359C100.64 40.6559 98.0418 43.5599 100.46 49.0617Z" fill="#263238"/>
<path d="M99.4135 49.0564C99.5602 49.9438 100.049 50.7383 100.776 51.2687C101.747 51.9604 102.634 51.1895 102.703 50.0649C102.766 49.0458 102.339 47.4618 101.198 47.2189C100.948 47.1693 100.69 47.183 100.447 47.2587C100.204 47.3345 99.9837 47.4698 99.8063 47.6525C99.6289 47.8351 99.5 48.0593 99.4314 48.3045C99.3628 48.5497 99.3567 48.8082 99.4135 49.0564Z" fill="#FFB573"/>
<path d="M111.713 91.5077C111.713 91.5077 116.006 119.518 113.614 137.512C111.803 151.108 100.119 180.444 100.119 180.444L92.5312 180.238C92.5312 180.238 100.367 151.805 101.988 140.638C104.76 121.514 97.8165 90.325 97.8165 90.325L111.713 91.5077Z" fill="#263238"/>
<path opacity="0.2" d="M104.311 97.2471L100.262 103.631C101.481 111.199 102.255 118.833 102.58 126.493C108.271 116.303 105.6 102.638 104.311 97.2471Z" fill="black"/>
<path d="M101.301 180.866L91.7656 180.608L92.3464 177.54L102.199 177.598L101.301 180.866Z" fill="#D82E1D"/>
<path d="M107.564 91.2067C107.564 91.2067 104.396 122.221 97.1571 139.096C91.3016 152.719 77.3413 174.509 77.3413 174.509L71.7656 171.246C71.7656 171.246 80.7416 147.016 85.1715 137.935C95.9797 115.669 85.9266 97.8067 92.7378 89.8867L107.564 91.2067Z" fill="#263238"/>
<path d="M77.9481 174.984L70.8359 171.083L71.9923 168.041L79.5691 172.318L77.9481 174.984Z" fill="#D82E1D"/>
<path d="M92.5502 88.7303L91.547 90.3566C91.4731 90.478 91.6157 90.6311 91.8374 90.647L111.738 92.3683C111.907 92.3683 112.06 92.3102 112.076 92.2046L112.398 90.5203C112.398 90.4041 112.276 90.2932 112.091 90.2774L92.8723 88.6142C92.8132 88.6052 92.7528 88.6111 92.6965 88.6314C92.6403 88.6517 92.59 88.6857 92.5502 88.7303Z" fill="#D82E1D"/>
<path d="M94.9466 91.101L94.4186 91.0588C94.3183 91.0588 94.2444 90.9901 94.2549 90.9268L94.6879 88.7408C94.6879 88.6722 94.7988 88.63 94.8991 88.6405L95.4271 88.6828C95.5327 88.6828 95.6066 88.7514 95.5907 88.8148L95.1631 91.0007C95.142 91.064 95.0416 91.1116 94.9466 91.101Z" fill="#263238"/>
<path d="M110.272 92.4263L109.744 92.3841C109.638 92.3841 109.564 92.3154 109.58 92.2521L110.013 90.0662C110.013 90.0028 110.119 89.9553 110.219 89.9658L110.747 90.0081C110.847 90.0081 110.921 90.0767 110.911 90.1401L110.478 92.326C110.467 92.3999 110.351 92.4369 110.272 92.4263Z" fill="#263238"/>
<path d="M102.607 91.7664L102.079 91.7189C101.978 91.7189 101.905 91.6503 101.915 91.5869L102.348 89.401C102.348 89.3376 102.454 89.2901 102.559 89.3007L103.087 89.3482C103.188 89.3482 103.261 89.4168 103.251 89.4802L102.818 91.6661C102.807 91.7295 102.712 91.7717 102.607 91.7664Z" fill="#263238"/>
<path d="M108.346 47.6309C108.293 48.0058 108.452 48.3384 108.695 48.3701C108.937 48.4018 109.18 48.1272 109.223 47.7523C109.265 47.3774 109.112 47.0448 108.869 47.0131C108.626 46.9814 108.394 47.256 108.346 47.6309Z" fill="#263238"/>
<path d="M112.583 48.2011C112.535 48.5759 112.694 48.9086 112.936 48.9403C113.179 48.9719 113.422 48.6974 113.464 48.3225C113.507 47.9476 113.359 47.615 113.116 47.5833C112.873 47.5516 112.635 47.8262 112.583 48.2011Z" fill="#263238"/>
<path d="M112.992 47.5886L113.932 47.4513C113.932 47.4513 113.383 48.0902 112.992 47.5886Z" fill="#263238"/>
<path d="M110.916 48.6129C111.136 49.5119 111.477 50.3769 111.93 51.1843C111.721 51.2953 111.491 51.3594 111.254 51.3722C111.018 51.385 110.782 51.3461 110.562 51.2582L110.916 48.6129Z" fill="#ED893E"/>
<path d="M108.367 52.3776C107.625 52.1356 107.002 51.6203 106.625 50.9361C106.616 50.9143 106.615 50.8897 106.622 50.8672C106.63 50.8447 106.646 50.826 106.667 50.8147C106.69 50.8037 106.716 50.8019 106.739 50.8098C106.763 50.8177 106.783 50.8347 106.794 50.8569C107.029 51.2683 107.357 51.6185 107.752 51.8791C108.148 52.1396 108.599 52.3032 109.07 52.3565C109.093 52.3565 109.116 52.3659 109.133 52.3828C109.15 52.3996 109.159 52.4224 109.159 52.4462C109.159 52.47 109.15 52.4929 109.133 52.5097C109.116 52.5265 109.093 52.536 109.07 52.536C108.83 52.5096 108.595 52.4565 108.367 52.3776Z" fill="#263238"/>
<path d="M106.419 45.4608C106.389 45.4481 106.362 45.4282 106.34 45.4027C106.323 45.386 106.309 45.3659 106.299 45.3437C106.29 45.3214 106.285 45.2975 106.285 45.2734C106.285 45.2492 106.29 45.2253 106.299 45.2031C106.309 45.1808 106.323 45.1608 106.34 45.144C106.599 44.9126 106.91 44.7476 107.247 44.6629C107.583 44.5783 107.935 44.5767 108.273 44.6582C108.296 44.6649 108.317 44.6761 108.336 44.6912C108.355 44.7063 108.37 44.7249 108.381 44.7461C108.393 44.7673 108.4 44.7905 108.402 44.8144C108.404 44.8383 108.401 44.8624 108.394 44.8853C108.381 44.932 108.349 44.9716 108.307 44.9953C108.264 45.0191 108.214 45.025 108.167 45.012C107.889 44.9502 107.601 44.9553 107.325 45.0269C107.05 45.0985 106.796 45.2346 106.583 45.4238C106.56 45.4415 106.534 45.4539 106.505 45.4603C106.477 45.4666 106.448 45.4668 106.419 45.4608Z" fill="#263238"/>
<path d="M114.361 46.5854C114.334 46.5747 114.309 46.5585 114.287 46.5379C114.102 46.3207 113.869 46.1501 113.605 46.04C113.342 45.9299 113.057 45.8835 112.772 45.9043C112.748 45.9097 112.723 45.9098 112.699 45.9048C112.675 45.8998 112.652 45.8897 112.632 45.8753C112.612 45.8608 112.595 45.8423 112.583 45.8209C112.571 45.7995 112.563 45.7757 112.561 45.7512C112.553 45.7029 112.565 45.6535 112.594 45.614C112.622 45.5744 112.666 45.5478 112.714 45.54C113.059 45.509 113.406 45.5608 113.726 45.6913C114.047 45.8217 114.332 46.0269 114.557 46.2897C114.582 46.3203 114.597 46.3582 114.6 46.398C114.602 46.4378 114.591 46.4773 114.569 46.5105C114.547 46.5438 114.515 46.569 114.478 46.5825C114.44 46.596 114.399 46.597 114.361 46.5854Z" fill="#263238"/>
<path d="M118.538 86.4231C118.88 85.3581 119.428 84.3708 120.152 83.5176C120.875 82.6645 121.759 81.9622 122.754 81.4508C123.749 80.9394 124.835 80.629 125.949 80.5373C127.064 80.4455 128.186 80.5742 129.251 80.916C130.316 81.2579 131.303 81.8061 132.157 82.5295C133.01 83.2529 133.712 84.1373 134.223 85.1321C134.735 86.1269 135.045 87.2127 135.137 88.3274C135.229 89.4422 135.1 90.5641 134.758 91.6292L131.474 101.904L115.254 96.6927L118.538 86.4231Z" fill="#D82E1D"/>
<path opacity="0.3" d="M118.538 86.4231C118.88 85.3581 119.428 84.3708 120.152 83.5176C120.875 82.6645 121.759 81.9622 122.754 81.4508C123.749 80.9394 124.835 80.629 125.949 80.5373C127.064 80.4455 128.186 80.5742 129.251 80.916C130.316 81.2579 131.303 81.8061 132.157 82.5295C133.01 83.2529 133.712 84.1373 134.223 85.1321C134.735 86.1269 135.045 87.2127 135.137 88.3274C135.229 89.4422 135.1 90.5641 134.758 91.6292L131.474 101.904L115.254 96.6927L118.538 86.4231Z" fill="black"/>
<path d="M102.532 81.2802L99.5642 90.5202C99.5207 90.653 99.504 90.7931 99.515 90.9323C99.5261 91.0716 99.5646 91.2072 99.6285 91.3315C99.6923 91.4557 99.7802 91.5661 99.8869 91.6561C99.9937 91.7462 100.117 91.8141 100.251 91.8561L115.246 96.6714L118.54 86.4177C119.232 84.2688 120.748 82.4823 122.756 81.4506C124.764 80.419 127.099 80.2267 129.248 80.9159L113.245 75.7732C111.094 75.0855 108.758 75.2791 106.749 76.3115C104.741 77.3439 103.224 79.1308 102.532 81.2802Z" fill="#D82E1D"/>
<path d="M110.579 88.2869L114.713 75.4195C114.727 75.3733 114.731 75.3246 114.725 75.2767C114.719 75.2288 114.702 75.1828 114.677 75.1417C114.651 75.1007 114.617 75.0656 114.577 75.0388C114.537 75.0121 114.491 74.9943 114.444 74.9866L110.22 74.3635L109.692 76.032L112.77 77.0194L109.285 87.8645L110.579 88.2869Z" fill="#263238"/>
<path d="M108.384 87.5794C108.289 87.8776 108.284 88.1974 108.37 88.4984C108.456 88.7993 108.629 89.068 108.868 89.2705C109.107 89.473 109.401 89.6001 109.712 89.6359C110.023 89.6717 110.337 89.6145 110.616 89.4715C110.894 89.3285 111.124 89.1062 111.277 88.8327C111.429 88.5591 111.497 88.2466 111.471 87.9345C111.446 87.6224 111.329 87.3248 111.135 87.0793C110.94 86.8338 110.678 86.6514 110.38 86.5551C110.182 86.491 109.973 86.4666 109.765 86.4834C109.557 86.5002 109.355 86.5579 109.169 86.653C108.984 86.7482 108.819 86.879 108.684 87.038C108.55 87.1969 108.448 87.3809 108.384 87.5794Z" fill="#263238"/>
<path d="M116.031 98.2079L136.834 104.887C136.909 104.912 136.989 104.921 137.068 104.915C137.148 104.908 137.225 104.886 137.295 104.85C137.366 104.814 137.429 104.764 137.48 104.703C137.531 104.642 137.57 104.572 137.594 104.496C137.62 104.421 137.63 104.341 137.624 104.262C137.618 104.182 137.596 104.105 137.559 104.034C137.523 103.963 137.473 103.9 137.411 103.849C137.35 103.798 137.28 103.759 137.203 103.736L115.249 96.6873C115.151 96.9925 115.179 97.3242 115.325 97.6094C115.472 97.8945 115.725 98.1098 116.031 98.2079Z" fill="#D82E1D"/>
<path opacity="0.2" d="M116.031 98.2079L124.531 100.938C124.607 100.962 124.687 100.972 124.767 100.966C124.847 100.959 124.924 100.937 124.995 100.901C125.066 100.865 125.13 100.815 125.181 100.754C125.233 100.693 125.273 100.623 125.297 100.547C125.345 100.394 125.331 100.229 125.258 100.086C125.185 99.944 125.059 99.8363 124.906 99.7866L115.249 96.6873C115.151 96.9925 115.179 97.3242 115.325 97.6094C115.472 97.8945 115.725 98.1098 116.031 98.2079Z" fill="black"/>
<path d="M94.0595 68.6928L93.7691 69.0149L93.4417 69.3898C93.2199 69.6432 92.9982 69.9178 92.787 70.1765C92.354 70.7045 91.9422 71.2694 91.5567 71.8397C89.9614 74.0979 88.7055 76.5777 87.8291 79.2C87.6179 79.8547 87.4225 80.5094 87.2694 81.18C87.2166 81.3754 87.2113 81.4546 87.1849 81.5443C87.1808 81.6217 87.1808 81.6993 87.1849 81.7766C87.1764 81.8591 87.1764 81.9423 87.1849 82.0248C87.1849 82.1198 87.3644 82.3416 87.7974 82.5528C88.3179 82.7869 88.8662 82.9537 89.4289 83.0491C90.787 83.265 92.1621 83.3552 93.5367 83.3184C94.9729 83.3184 96.4302 83.1917 97.8875 83.0386C99.3447 82.8854 100.823 82.6954 102.254 82.4789L102.83 84.7651C99.8826 85.7243 96.8502 86.3979 93.7743 86.7768C92.1549 86.9876 90.5174 87.023 88.8903 86.8824C87.9601 86.7951 87.0467 86.5783 86.1764 86.2382C85.6544 86.0289 85.164 85.7482 84.7191 85.404C84.1953 84.9932 83.7635 84.4769 83.4519 83.8886C82.9156 82.7851 82.7722 81.5314 83.0454 80.3352C83.1721 79.5274 83.3569 78.7512 83.5734 77.9381C83.9877 76.3772 84.539 74.856 85.2207 73.392C85.9043 71.9246 86.7004 70.5124 87.602 69.168C88.0561 68.4974 88.5419 67.848 89.0487 67.2091C89.3075 66.8923 89.5767 66.5808 89.8407 66.2693L90.2684 65.8099C90.4215 65.6462 90.543 65.5142 90.7542 65.3136L94.0595 68.6928Z" fill="#FFB573"/>
<path d="M101.103 82.9646L104.799 81.0057L104.963 84.9763C104.963 84.9763 102.323 86.0693 100.812 84.8654L101.103 82.9646Z" fill="#FFB573"/>
<path d="M107.846 80.7048L107.292 84.3639L104.968 84.9764L104.805 81.0058L107.846 80.7048Z" fill="#FFB573"/>
<path d="M91.8245 61.248C89.496 61.6599 86.2383 68.3338 86.2383 68.3338L92.1044 73.6138C92.1044 73.6138 96.7666 68.5239 96.5184 65.4931C96.3072 62.9323 94.7866 60.72 91.8245 61.248Z" fill="#D82E1D"/>
<path opacity="0.7" d="M91.8245 61.248C89.496 61.6599 86.2383 68.3338 86.2383 68.3338L92.1044 73.6138C92.1044 73.6138 96.7666 68.5239 96.5184 65.4931C96.3072 62.9323 94.7866 60.72 91.8245 61.248Z" fill="white"/>
<path d="M76.1102 180.08C76.0489 180.088 75.9868 180.088 75.9254 180.08C75.3394 180.048 74.7163 179.15 74.3942 178.622C74.3842 178.608 74.3789 178.59 74.3789 178.572C74.3789 178.554 74.3842 178.537 74.3942 178.522C74.4039 178.506 74.4184 178.494 74.4355 178.488C74.4527 178.481 74.4716 178.48 74.4893 178.485C74.6794 178.522 76.3214 178.892 76.5274 179.446C76.5487 179.506 76.5541 179.571 76.543 179.634C76.5319 179.697 76.5047 179.756 76.464 179.805C76.3795 179.933 76.2551 180.03 76.1102 180.08ZM74.6688 178.739C75.1387 179.462 75.6034 179.895 75.936 179.916C76.0118 179.918 76.0866 179.899 76.1532 179.863C76.2199 179.827 76.276 179.774 76.3161 179.71C76.3389 179.687 76.3545 179.658 76.3611 179.626C76.3676 179.594 76.3649 179.561 76.3531 179.531C76.2264 179.193 75.239 178.876 74.6688 178.739Z" fill="#D82E1D"/>
<path d="M75.9439 178.622C75.457 178.756 74.9461 178.778 74.4496 178.686C74.434 178.681 74.42 178.672 74.4089 178.66C74.3978 178.648 74.39 178.633 74.3863 178.617C74.3789 178.603 74.375 178.588 74.375 178.572C74.375 178.557 74.3789 178.541 74.3863 178.527C74.4285 178.49 75.3895 177.551 76.06 177.598C76.1429 177.599 76.2243 177.62 76.2977 177.659C76.3711 177.697 76.4344 177.752 76.4824 177.82C76.5401 177.882 76.5756 177.961 76.5832 178.045C76.5909 178.129 76.5702 178.213 76.5247 178.284C76.373 178.457 76.1691 178.576 75.9439 178.622ZM74.6714 178.538C75.1994 178.612 76.1867 178.48 76.3927 178.179C76.4243 178.131 76.4507 178.057 76.3557 177.936C76.3238 177.89 76.2813 177.852 76.2317 177.825C76.1821 177.798 76.1269 177.784 76.0706 177.783C75.6112 177.751 74.9459 178.29 74.6714 178.538Z" fill="#D82E1D"/>
<path d="M99.9498 186.59C99.4393 186.578 98.9314 186.512 98.4344 186.395C98.417 186.388 98.402 186.377 98.3913 186.362C98.3807 186.347 98.375 186.329 98.375 186.31C98.375 186.292 98.3807 186.274 98.3913 186.258C98.402 186.243 98.417 186.232 98.4344 186.226C98.6615 186.115 100.684 185.17 101.191 185.529C101.236 185.56 101.273 185.603 101.296 185.653C101.319 185.703 101.328 185.759 101.323 185.814C101.32 185.917 101.294 186.018 101.247 186.11C101.199 186.201 101.131 186.281 101.048 186.342C100.717 186.537 100.333 186.624 99.9498 186.59ZM98.7512 186.273C99.3479 186.384 100.457 186.532 100.916 186.189C100.975 186.142 101.023 186.084 101.058 186.018C101.092 185.951 101.112 185.878 101.117 185.803C101.121 185.78 101.119 185.756 101.109 185.734C101.1 185.713 101.084 185.694 101.064 185.682C100.779 185.486 99.5855 185.904 98.7354 186.273H98.7512Z" fill="#D82E1D"/>
<path d="M98.4507 186.384C98.4317 186.389 98.4116 186.389 98.3926 186.384C98.3799 186.372 98.3703 186.357 98.3648 186.34C98.3593 186.324 98.3579 186.306 98.3609 186.289C98.3609 186.204 98.8414 184.214 99.9449 184.341C100.219 184.377 100.293 184.509 100.309 184.62C100.378 185.148 99.1054 186.146 98.4982 186.4L98.4507 186.384ZM99.8341 184.499C99.1371 184.499 98.7305 185.661 98.5933 186.125C99.2533 185.777 100.177 184.948 100.119 184.626C100.119 184.599 100.119 184.525 99.9133 184.504L99.8341 184.499Z" fill="#D82E1D"/>
<path d="M108.77 47.0184L109.704 46.8811C109.704 46.8811 109.15 47.52 108.77 47.0184Z" fill="#263238"/>
<path d="M141.257 91.1908L120.813 95.4148C120.463 95.4804 120.101 95.4067 119.805 95.2094C119.509 95.012 119.302 94.7067 119.229 94.3588L118.273 89.9235L117.93 88.2868L118.532 86.4176C118.615 86.1493 118.716 85.8866 118.833 85.6309C118.846 85.5903 118.863 85.5514 118.885 85.5148C119.223 84.7456 119.677 84.0331 120.232 83.4028L121.288 83.181L138.817 79.5431C139.167 79.4774 139.528 79.5511 139.824 79.7484C140.12 79.9458 140.328 80.2511 140.401 80.5991L142.265 89.5751C142.342 89.9227 142.279 90.2865 142.09 90.5884C141.902 90.8904 141.603 91.1066 141.257 91.1908Z" fill="#D82E1D"/>
<path opacity="0.3" d="M140.242 80.1239L130.379 90.1559L128.267 89.3005L120.051 85.9688L118.895 85.4989C119.232 84.7297 119.686 84.0173 120.241 83.3869L121.297 83.1651L138.827 79.5272C139.095 79.4736 139.373 79.5018 139.626 79.6082C139.878 79.7145 140.093 79.8942 140.242 80.1239Z" fill="black"/>
<path d="M140.244 80.1239L128.269 89.3164L127.487 89.9183L119.963 86.1854L118.844 85.6574C118.857 85.6168 118.875 85.5778 118.897 85.5412C119.234 84.772 119.688 84.0596 120.243 83.4292L121.299 83.2075L138.829 79.5695C139.093 79.5116 139.368 79.5334 139.62 79.6321C139.872 79.7308 140.089 79.9019 140.244 80.1239Z" fill="#D82E1D"/>
<path opacity="0.2" d="M140.244 80.1239L128.269 89.3164L127.487 89.9183L119.963 86.1854L118.844 85.6574C118.857 85.6168 118.875 85.5778 118.897 85.5412C119.234 84.772 119.688 84.0596 120.243 83.4292L121.299 83.2075L138.829 79.5695C139.093 79.5116 139.368 79.5334 139.62 79.6321C139.872 79.7308 140.089 79.9019 140.244 80.1239Z" fill="white"/>
<path d="M166.215 109.708L159.984 116.424C159.738 116.686 159.399 116.84 159.04 116.853C158.681 116.866 158.332 116.736 158.068 116.493L142.787 102.263C142.524 102.018 142.369 101.678 142.356 101.319C142.343 100.959 142.474 100.61 142.719 100.346L148.97 93.6301C149.091 93.4985 149.237 93.3921 149.4 93.3173C149.562 93.2425 149.738 93.2007 149.917 93.1943C150.096 93.188 150.274 93.2171 150.441 93.2801C150.609 93.3432 150.762 93.4388 150.892 93.5615L166.167 107.791C166.365 107.975 166.504 108.214 166.565 108.478C166.626 108.741 166.607 109.017 166.51 109.269C166.444 109.435 166.343 109.584 166.215 109.708Z" fill="#D82E1D"/>
<path opacity="0.3" d="M166.49 109.296L152.593 107.031L149.367 93.3029C149.613 93.1895 149.888 93.1515 150.156 93.1938C150.423 93.2361 150.673 93.3567 150.872 93.5405L166.147 107.77C166.355 107.958 166.499 108.205 166.561 108.479C166.622 108.752 166.597 109.037 166.49 109.296Z" fill="black"/>
<path d="M166.49 109.296L152.958 105.262L149.367 93.3503C149.613 93.2368 149.888 93.1989 150.156 93.2412C150.423 93.2834 150.673 93.4041 150.872 93.5879L166.147 107.817C166.345 108.002 166.483 108.241 166.545 108.504C166.606 108.768 166.587 109.043 166.49 109.296Z" fill="#D82E1D"/>
<path opacity="0.2" d="M166.49 109.296L152.958 105.262L149.367 93.3503C149.613 93.2368 149.888 93.1989 150.156 93.2412C150.423 93.2834 150.673 93.4041 150.872 93.5879L166.147 107.817C166.345 108.002 166.483 108.241 166.545 108.504C166.606 108.768 166.587 109.043 166.49 109.296Z" fill="white"/>
<path d="M171.647 120.769L178.511 128.784C178.643 128.938 178.741 129.116 178.801 129.309C178.861 129.502 178.881 129.704 178.859 129.905C178.838 130.106 178.776 130.3 178.677 130.476C178.578 130.652 178.445 130.806 178.284 130.928L163.374 142.544C163.123 142.695 162.825 142.747 162.538 142.691C162.251 142.634 161.996 142.473 161.821 142.238L156.452 136.113C156.351 135.995 156.267 135.864 156.203 135.722C156.104 135.528 156.062 135.309 156.084 135.092C156.105 134.875 156.189 134.668 156.325 134.497L169.525 120.711C169.731 120.488 170.003 120.337 170.302 120.28C170.6 120.223 170.909 120.263 171.183 120.394C171.36 120.489 171.518 120.616 171.647 120.769Z" fill="#D82E1D"/>
<path opacity="0.3" d="M171.185 120.41L167.906 134.994L156.227 135.738C156.127 135.544 156.086 135.325 156.107 135.108C156.129 134.89 156.212 134.684 156.348 134.513L169.548 120.727C169.753 120.508 170.021 120.36 170.315 120.303C170.609 120.246 170.914 120.284 171.185 120.41Z" fill="black"/>
<path d="M171.184 120.41L165.687 135.886L156.215 135.738C156.115 135.544 156.074 135.325 156.095 135.108C156.117 134.89 156.201 134.684 156.337 134.513L169.537 120.727C169.742 120.506 170.012 120.356 170.308 120.299C170.605 120.243 170.911 120.281 171.184 120.41Z" fill="#D82E1D"/>
<path opacity="0.2" d="M171.184 120.41L165.687 135.886L156.215 135.738C156.115 135.544 156.074 135.325 156.095 135.108C156.117 134.89 156.201 134.684 156.337 134.513L169.537 120.727C169.742 120.506 170.012 120.356 170.308 120.299C170.605 120.243 170.911 120.281 171.184 120.41Z" fill="white"/>
</svg>
