<svg width="208" height="211" viewBox="0 0 208 211" fill="none" xmlns="http://www.w3.org/2000/svg">
<path d="M184.547 145.791H197.721V140.224H184.547V145.791Z" fill="#EBEBEB"/>
<path d="M191.9 152.811L198.541 152.671L201.815 152.616C202.905 152.592 203.989 152.616 205.074 152.587L204.85 152.811V147.243L205.098 147.492L198.512 147.462C196.318 147.462 194.119 147.403 191.925 147.378L192.059 147.243C192.059 148.154 192.019 149.069 191.994 149.995L191.9 152.811ZM191.9 152.811L191.81 150.079C191.785 149.154 191.751 148.214 191.746 147.268V147.094H191.885C194.079 147.064 196.278 147.015 198.472 147.01L205.059 146.98H205.307V147.229L205.278 152.796V153.019H205.059C203.949 153.019 202.835 153.019 201.725 152.995L198.412 152.94L191.9 152.811Z" fill="#EBEBEB"/>
<path d="M94.8677 98.1303L101.514 97.991L104.783 97.9363C105.872 97.9114 106.957 97.9363 108.041 97.9114L107.818 98.1303L107.793 92.5633L108.041 92.8121L101.455 92.7822C99.2606 92.7822 97.0617 92.7275 94.8677 92.6977L95.0021 92.5633C95.0021 93.4737 94.9622 94.3891 94.9374 95.3195L94.8677 98.1303ZM94.8677 98.1303L94.7981 95.3543C94.7732 94.4289 94.7433 93.4887 94.7334 92.5434V92.4091H94.8727C97.0667 92.3842 99.2656 92.3295 101.46 92.3245L108.046 92.2947H108.295V92.5434L108.27 98.1104V98.3393H108.051C106.942 98.3393 105.828 98.3393 104.723 98.3094L101.405 98.2547L94.8677 98.1303Z" fill="#EBEBEB"/>
<path d="M102.216 105.15H115.39V99.583H102.216V105.15Z" fill="#EBEBEB"/>
<path d="M87.4048 105.15L94.0514 105.011L97.325 104.956C98.4145 104.931 99.4941 104.956 100.579 104.931L100.36 105.15L100.33 99.5831L100.579 99.8318L93.9917 99.802C91.7978 99.802 89.6038 99.7472 87.4048 99.7174L87.5441 99.5831C87.5441 100.493 87.4994 101.409 87.4795 102.339L87.4048 105.15ZM87.4048 105.15L87.3352 102.394C87.3352 101.469 87.2805 100.528 87.2705 99.5831V99.4487H87.4048C89.6038 99.4487 91.7978 99.3691 93.9917 99.3642L100.579 99.3343H100.832V99.5831L100.807 105.15V105.374H100.584C99.4742 105.374 98.3598 105.374 97.2553 105.344L93.942 105.289L87.4048 105.15Z" fill="#EBEBEB"/>
<path d="M115.15 34.6396H128.324V29.0726H115.15V34.6396Z" fill="#EBEBEB"/>
<path d="M2.43218 152.811L9.07876 152.671L12.3523 152.616C13.4369 152.592 14.5214 152.616 15.606 152.587L15.387 152.811L15.3572 147.243L15.606 147.492L9.01906 147.462C6.82509 147.462 4.62615 147.403 2.43218 147.378L2.5665 147.243C2.5665 148.154 2.5267 149.069 2.50183 149.995L2.43218 152.811ZM2.43218 152.811L2.36253 150.079C2.33765 149.154 2.3078 148.214 2.29785 147.268V147.094H2.43218C4.62615 147.064 6.82509 147.015 9.01906 147.01L15.606 146.98H15.8547V147.229V152.796V153.019H15.6308C14.5214 153.019 13.407 153.019 12.3026 152.995L8.98921 152.94L2.43218 152.811Z" fill="#EBEBEB"/>
<path d="M9.78053 11.874L16.4271 11.7347L19.7007 11.68C20.7902 11.6551 21.8698 11.68 22.9543 11.6501L22.7354 11.874L22.7056 6.302L22.9543 6.55074L16.3674 6.52089C14.1734 6.52089 11.9795 6.4612 9.78053 6.43632L9.91983 6.302C9.91983 7.21242 9.87506 8.12782 9.85018 9.05814L9.78053 11.874ZM9.78053 11.874L9.72581 9.11784C9.72581 8.19249 9.67108 7.25222 9.66113 6.30697V6.17265H9.79546C11.9944 6.14777 14.1884 6.09305 16.3823 6.08807L22.9692 6.05822H23.223V6.302L23.1583 11.874V12.0979H22.9344C21.825 12.0979 20.7106 12.0979 19.6061 12.068L16.2928 12.0133L9.78053 11.874Z" fill="#EBEBEB"/>
<path d="M2.43218 18.8937H15.606V13.3266L2.43218 13.3266V18.8937Z" fill="#EBEBEB"/>
<path d="M191.9 11.874L198.541 11.7347L201.815 11.68C202.905 11.6551 203.989 11.68 205.074 11.6501L204.85 11.874V6.30697L205.098 6.55572L198.512 6.52587C196.318 6.52587 194.119 6.46617 191.925 6.44129L192.059 6.30697C192.059 7.21739 192.019 8.13279 191.994 9.06311L191.9 11.874ZM191.9 11.874L191.81 9.11784C191.785 8.19249 191.751 7.25222 191.746 6.30697V6.17265H191.885C194.079 6.14777 196.278 6.09305 198.472 6.08807L205.059 6.05822H205.307V6.302L205.293 11.874V12.0979H205.074C203.964 12.0979 202.85 12.0979 201.74 12.068L198.427 12.0133L191.9 11.874Z" fill="#EBEBEB"/>
<path d="M63.59 170.86H27.7949V210.495H63.59V170.86Z" fill="#EBEBEB"/>
<path d="M9.31771 210.5H27.7998L27.7998 170.86H9.31771L9.31771 210.5Z" fill="#DBDBDB"/>
<path d="M10.5859 207.789C11.959 204.97 13.3156 202.151 14.6555 199.332L18.6802 190.76L22.6602 182.198C23.9869 179.339 25.287 176.47 26.5606 173.591C25.1875 176.41 23.831 179.238 22.4911 182.073L18.4812 190.601L14.5013 199.162C13.1779 202.025 11.8728 204.9 10.5859 207.789Z" fill="#EBEBEB"/>
<path d="M10.5859 173.591C11.8728 176.473 13.1729 179.342 14.4863 182.198L18.4663 190.76L22.4762 199.287C23.8194 202.123 25.1759 204.942 26.5457 207.744C25.2588 204.865 23.9587 201.997 22.6453 199.138L18.6653 190.576L14.6555 182.049C13.3122 179.229 11.9557 176.41 10.5859 173.591Z" fill="#EBEBEB"/>
<path d="M63.59 110.996H27.7949V147.9H63.59V110.996Z" fill="#EBEBEB"/>
<path d="M9.31771 147.905H27.7998L27.7998 110.996H9.31771L9.31771 147.905Z" fill="#DBDBDB"/>
<path d="M42.6548 119.563H43.416H43.9831L44.3065 118.901L44.7642 119.563L45.3811 118.204L45.9681 119.563H47.6447H48.4059L48.6845 118.657L48.9432 119.563H49.4407V110.996H42.6548V119.563Z" fill="#DBDBDB"/>
<path d="M10.5859 145.552C11.959 142.932 13.3156 140.295 14.6555 137.642L18.6653 129.682L22.6453 121.722C23.972 119.068 25.2721 116.397 26.5457 113.707C25.1726 116.334 23.8161 118.967 22.4762 121.607L18.4663 129.542L14.4863 137.502C13.1729 140.186 11.8728 142.869 10.5859 145.552Z" fill="#EBEBEB"/>
<path d="M10.5859 113.727C11.8728 116.404 13.1729 119.068 14.4863 121.722L18.4663 129.682L22.4762 137.642C23.8194 140.295 25.1759 142.929 26.5457 145.542C25.2588 142.862 23.9587 140.191 22.6453 137.527L18.6653 129.567L14.6555 121.632C13.3122 118.989 11.9557 116.354 10.5859 113.727Z" fill="#EBEBEB"/>
<path d="M30.1529 145.612H34.1279V141.637H30.1529V145.612Z" fill="white"/>
<path d="M61.2072 147.905H25.4121V170.86H61.2072V147.905Z" fill="#DBDBDB"/>
<path d="M6.93002 170.86H25.4121L25.4121 147.905H6.93002L6.93002 170.86Z" fill="#C7C7C7"/>
<path d="M40.272 156.472H41.0282H41.6003L41.9237 155.81L42.3814 156.472L42.9983 155.114L43.5853 156.472H45.2569H46.0231L46.2967 155.567L46.5604 156.472H47.0579V147.905H40.272V156.472Z" fill="white"/>
<path d="M8.20312 169.482C9.57291 167.823 10.9294 166.15 12.2727 164.462L16.2825 159.417L20.2625 154.348C21.5693 152.656 22.8677 150.958 24.1579 149.253C22.7915 150.912 21.4349 152.585 20.0884 154.273L16.0785 159.323L12.0985 164.387C10.7885 166.089 9.48999 167.787 8.20312 169.482Z" fill="#DBDBDB"/>
<path d="M8.20312 149.268C9.49331 150.973 10.7934 152.671 12.1035 154.363L16.0835 159.432L20.0934 164.477C21.42 166.155 22.7732 167.823 24.1529 169.482C22.8694 167.777 21.5709 166.079 20.2575 164.387L16.2775 159.323L12.2677 154.273C10.9278 152.608 9.57291 150.94 8.20312 149.268Z" fill="#DBDBDB"/>
<path d="M200.576 175.825H164.781V210.5H200.576V175.825Z" fill="#DBDBDB"/>
<path d="M146.304 210.5H164.786V175.825H146.304V210.5Z" fill="#C7C7C7"/>
<path d="M179.641 184.392H180.397H180.969L181.293 183.73L181.751 184.392L182.367 183.034L182.954 184.392H184.626H185.392L185.671 183.481L185.929 184.392H186.427V175.825H179.641V184.392Z" fill="white"/>
<path d="M147.573 208.436C148.943 205.919 150.299 203.391 151.642 200.854L155.652 193.232L159.632 185.581C160.959 183.024 162.257 180.46 163.528 177.889C162.161 180.407 160.805 182.934 159.458 185.471L155.448 193.088L151.493 200.745C150.18 203.302 148.873 205.865 147.573 208.436Z" fill="#DBDBDB"/>
<path d="M147.573 177.889C148.863 180.46 150.163 183.024 151.473 185.581L155.428 193.232L159.438 200.854C160.781 203.391 162.138 205.919 163.508 208.436C162.224 205.862 160.926 203.298 159.612 200.745L155.632 193.088L151.622 185.471C150.292 182.934 148.943 180.407 147.573 177.889Z" fill="#DBDBDB"/>
<path d="M138.339 4.31198V88.9366H196.576V4.31198H138.339ZM194.427 86.7625H140.488V6.4363H194.427V86.7625Z" fill="#EBEBEB"/>
<path d="M194.427 6.43629H140.488V86.7625H194.427V6.43629Z" fill="white"/>
<path d="M140.488 50.1615L194.427 50.1615V48.0123L140.488 48.0123V50.1615Z" fill="#EBEBEB"/>
<path d="M134.379 95.0757L200.531 95.0757V88.9067L134.379 88.9067V95.0757Z" fill="#DBDBDB"/>
<path d="M136.135 97.5433L198.78 98.8567V95.0757H136.135V97.5433Z" fill="#EBEBEB"/>
<path d="M140.488 6.43629H194.427V61.6239H140.488V6.43629ZM192.437 8.42628H142.478V59.6339H192.437V8.42628Z" fill="#DBDBDB"/>
<path d="M177.214 6.43629H176.139V59.6339H177.214V6.43629Z" fill="#DBDBDB"/>
<path d="M158.776 6.43629H157.702V59.6339H158.776V6.43629Z" fill="#DBDBDB"/>
<path d="M10.9297 4.31198V88.9366H69.1669V4.31198H10.9297ZM67.0177 86.7625H13.0789V6.4363H67.0177V86.7625Z" fill="#EBEBEB"/>
<path d="M67.0175 6.43629H13.0786V86.7625H67.0175V6.43629Z" fill="white"/>
<path d="M13.0787 50.1615L67.0176 50.1615V48.0123L13.0787 48.0123V50.1615Z" fill="#EBEBEB"/>
<path d="M6.96962 95.0757L73.1221 95.0757V88.9067L6.96962 88.9067V95.0757Z" fill="#DBDBDB"/>
<path d="M8.72559 97.5433L71.3707 98.8567V95.0757H8.72559V97.5433Z" fill="#EBEBEB"/>
<path d="M13.0786 6.43629H67.0175V61.6239H13.0786V6.43629ZM65.0275 8.42628H15.0686V59.6339H65.0275V8.42628Z" fill="#DBDBDB"/>
<path d="M49.8036 6.43629H48.729V59.6339H49.8036V6.43629Z" fill="#DBDBDB"/>
<path d="M31.3666 6.43629H30.292V59.6339H31.3666V6.43629Z" fill="#DBDBDB"/>
<path d="M147.887 169.507H98.2959V210.481H147.887V169.507Z" fill="#D82E1D"/>
<path opacity="0.1" d="M147.887 169.507H98.2959V210.481H147.887V169.507Z" fill="black"/>
<path d="M167.538 169.511H147.887V210.485H167.538V169.511Z" fill="#D82E1D"/>
<path opacity="0.2" d="M167.538 169.511H147.887V210.485H167.538V169.511Z" fill="black"/>
<path d="M166.179 207.66C164.726 204.748 163.285 201.826 161.856 198.894L157.592 190.078L153.383 181.228C151.99 178.272 150.609 175.307 149.239 172.332C150.699 175.248 152.141 178.17 153.568 181.098L157.826 189.914L162.035 198.764C163.435 201.719 164.816 204.685 166.179 207.66Z" fill="#D82E1D"/>
<path d="M166.179 172.332C164.813 175.317 163.431 178.282 162.035 181.228L157.826 190.078L153.568 198.894C152.138 201.822 150.695 204.744 149.239 207.66C150.609 204.675 151.99 201.71 153.383 198.764L157.592 189.914L161.856 181.103C163.285 178.168 164.726 175.244 166.179 172.332Z" fill="#D82E1D"/>
<path d="M126.598 178.362H125.817H125.225L124.892 177.68L124.419 178.362L123.777 176.959L123.175 178.362H121.444H120.653L120.365 177.427L120.096 178.362H119.583V169.511H126.598V178.362Z" fill="white"/>
<path d="M150.877 128.537H113.878V169.506H150.877V128.537Z" fill="#D82E1D"/>
<path d="M169.98 128.537H150.876V169.511H169.98V128.537Z" fill="#D82E1D"/>
<path opacity="0.1" d="M169.98 128.537H150.876V169.511H169.98V128.537Z" fill="black"/>
<g opacity="0.1">
<path d="M148.166 166.686C145.449 163.77 142.756 160.848 140.086 157.92L132.111 149.084L124.256 140.234C121.649 137.278 119.068 134.313 116.515 131.338C119.234 134.254 121.927 137.177 124.594 140.109L132.554 148.92L140.41 157.77C143.026 160.739 145.612 163.711 148.166 166.686Z" fill="black"/>
<path d="M148.166 131.358C145.609 134.343 143.028 137.308 140.425 140.253L132.569 149.084L124.609 157.9C121.956 160.828 119.263 163.75 116.53 166.666C119.087 163.681 121.667 160.716 124.271 157.77L132.111 148.94L140.071 140.129C142.748 137.194 145.446 134.27 148.166 131.358Z" fill="black"/>
</g>
<path d="M167.294 162.576H163.946V167.303H167.294V162.576Z" fill="white"/>
<path d="M0 210.5L25.9396 210.376L51.8792 210.336L103.753 210.252L155.628 210.336L181.567 210.376L207.507 210.5L181.567 210.62L155.628 210.665L103.753 210.749L51.8792 210.665L25.9396 210.62L0 210.5Z" fill="#263238"/>
<path d="M123.514 69.3848C123.235 69.2057 122.956 69.0316 122.678 68.8624L122.872 68.5391L123.718 69.0714L123.514 69.3848Z" fill="#263238"/>
<path d="M111.365 119.234H111.007V118.861C111.671 118.876 112.336 118.851 112.997 118.787L113.037 119.16C112.494 119.199 111.927 119.234 111.365 119.234ZM115.056 118.826L114.977 118.463C115.624 118.317 116.259 118.122 116.877 117.881L117.012 118.229C116.375 118.473 115.722 118.669 115.056 118.816V118.826ZM118.852 117.334L118.668 117.01C119.24 116.677 119.784 116.297 120.295 115.876L120.534 116.16C120.007 116.599 119.445 116.993 118.852 117.339V117.334ZM122.002 114.747L121.728 114.493C122.174 114.002 122.585 113.48 122.957 112.931L123.265 113.14C122.884 113.709 122.461 114.249 122.002 114.757V114.747ZM124.28 111.369L123.942 111.21C124.225 110.61 124.457 109.988 124.633 109.349L124.992 109.448C124.811 110.11 124.573 110.754 124.28 111.374V111.369ZM125.355 107.429L124.982 107.399C124.982 107.13 125.016 106.856 125.016 106.593C125.015 106.224 124.993 105.855 124.952 105.488C124.565 105.462 124.179 105.414 123.798 105.344L123.862 104.976C124.47 105.086 125.086 105.142 125.703 105.145H125.832V105.518H125.698H125.325C125.365 105.878 125.385 106.24 125.385 106.603C125.39 106.871 125.375 107.155 125.355 107.434V107.429ZM127.877 105.269L127.792 104.906C128.432 104.755 129.052 104.528 129.638 104.23L129.807 104.563C129.194 104.876 128.546 105.114 127.877 105.274V105.269ZM121.817 104.807C121.174 104.575 120.55 104.292 119.952 103.961L120.136 103.638C120.715 103.958 121.319 104.23 121.942 104.454L121.817 104.807ZM124.494 103.493C124.276 102.871 123.989 102.276 123.638 101.717L123.952 101.518C124.32 102.099 124.621 102.72 124.847 103.369L124.494 103.493ZM131.519 103.414L131.28 103.13C131.785 102.704 132.246 102.229 132.658 101.712L132.947 101.946C132.522 102.487 132.043 102.984 131.519 103.429V103.414ZM118.265 102.817L118.161 102.717C117.668 102.285 117.276 101.75 117.012 101.15L117.36 101.011C117.602 101.56 117.963 102.049 118.415 102.444L118.514 102.533L118.265 102.817ZM134.101 100.275L133.782 100.081C134.131 99.5034 134.454 98.9114 134.738 98.3293L135.076 98.4935C134.787 99.0855 134.459 99.6875 134.101 100.275ZM122.4 100.2C121.945 99.7598 121.445 99.3695 120.907 99.0358L120.832 98.986L121.026 98.6677L121.106 98.7174C121.661 99.0674 122.176 99.4761 122.643 99.9363L122.4 100.2ZM117.459 99.2398L117.151 99.0308C117.364 98.7315 117.646 98.4883 117.974 98.322C118.301 98.1556 118.664 98.0711 119.031 98.0756V98.4488C118.726 98.447 118.424 98.5177 118.15 98.6552C117.877 98.7927 117.64 98.9931 117.459 99.2398ZM135.867 96.618L135.519 96.4886C135.749 95.8642 135.947 95.2282 136.111 94.5832L136.469 94.6727C136.308 95.3324 136.109 95.9819 135.872 96.618H135.867ZM136.862 92.6728L136.489 92.623C136.578 91.9631 136.629 91.2987 136.643 90.633H137.016C137.003 91.3153 136.951 91.9963 136.862 92.6728ZM136.573 88.643C136.513 87.9752 136.419 87.311 136.29 86.653L136.658 86.5784C136.788 87.2448 136.884 87.9173 136.946 88.5933L136.573 88.643ZM135.802 84.7327C135.613 84.1058 135.389 83.474 135.131 82.8472L135.479 82.7079C135.738 83.3397 135.976 83.9864 136.16 84.6232L135.802 84.7327ZM134.31 81.0263C134.011 80.4443 133.678 79.8572 133.315 79.2801L133.633 79.0861C133.991 79.6682 134.33 80.2652 134.628 80.8572L134.31 81.0263ZM132.215 77.6135C131.832 77.0762 131.419 76.5439 130.991 76.0265L131.28 75.7877C131.713 76.31 132.131 76.8523 132.519 77.3946L132.215 77.6135ZM129.668 74.519C129.215 74.0215 128.738 73.5589 128.25 73.1012L128.504 72.8275C129.001 73.2952 129.499 73.7778 129.937 74.2653L129.668 74.519ZM126.748 71.7679C126.25 71.345 125.708 70.9271 125.176 70.5291L125.395 70.2306C125.937 70.6286 126.474 71.0515 126.987 71.4843L126.748 71.7679Z" fill="#263238"/>
<path d="M108.922 119.055C108.587 119.014 108.255 118.954 107.927 118.876L108.016 118.513C108.016 118.513 108.374 118.602 108.971 118.687L108.922 119.055Z" fill="#263238"/>
<path d="M103.902 118.314C103.668 120.304 107.733 121.418 108.041 118.811C108.349 116.204 104.136 116.309 103.902 118.314Z" fill="#263238"/>
<path d="M109.226 121.607C108.848 122.359 107.509 122.463 106.126 121.498C105.187 120.781 104.393 119.891 103.788 118.876C104.958 118.754 106.14 118.857 107.271 119.18C108.907 119.732 109.624 120.846 109.226 121.607Z" fill="#EBEBEB"/>
<path d="M103.803 118.876C104.589 119.229 105.36 119.612 106.131 119.99C106.902 120.369 107.663 120.772 108.415 121.189C107.628 120.836 106.857 120.453 106.086 120.075C105.315 119.697 104.554 119.294 103.803 118.876Z" fill="#263238"/>
<path d="M107.415 121.592C107.236 121.385 107.07 121.168 106.917 120.941C106.767 120.715 106.631 120.481 106.509 120.239C106.688 120.446 106.854 120.664 107.007 120.891C107.158 121.115 107.294 121.35 107.415 121.592Z" fill="#263238"/>
<path d="M105.743 119.846C106.017 119.775 106.294 119.719 106.574 119.677C106.856 119.637 107.14 119.612 107.425 119.602C106.874 119.74 106.31 119.821 105.743 119.846Z" fill="#263238"/>
<path d="M105.31 120.175C105.139 119.962 105.017 119.714 104.952 119.448C105.123 119.661 105.246 119.909 105.31 120.175Z" fill="#263238"/>
<path d="M109.882 116.398C109.688 115.578 108.414 115.17 106.847 115.787C105.765 116.268 104.786 116.952 103.961 117.801C105.08 118.189 106.262 118.358 107.444 118.299C109.12 118.16 110.081 117.244 109.882 116.398Z" fill="#EBEBEB"/>
<path d="M103.961 117.801C104.807 117.642 105.648 117.443 106.484 117.249C107.32 117.055 108.155 116.846 108.971 116.612C108.13 116.772 107.29 116.971 106.454 117.165C105.618 117.359 104.792 117.568 103.961 117.801Z" fill="#263238"/>
<path d="M108.106 115.991C107.89 116.144 107.682 116.311 107.485 116.488C107.287 116.674 107.099 116.87 106.922 117.075C107.141 116.924 107.349 116.758 107.544 116.578C107.743 116.393 107.931 116.197 108.106 115.991Z" fill="#263238"/>
<path d="M106.066 117.304C106.57 117.566 107.101 117.775 107.648 117.926C107.145 117.661 106.615 117.453 106.066 117.304Z" fill="#263238"/>
<path d="M105.742 116.886C105.634 116.967 105.536 117.061 105.449 117.165C105.363 117.271 105.288 117.386 105.225 117.508C105.334 117.425 105.432 117.33 105.519 117.224C105.609 117.123 105.684 117.009 105.742 116.886Z" fill="#263238"/>
<path d="M103.902 118.314C104.045 118.33 104.179 118.389 104.288 118.482C104.398 118.575 104.477 118.698 104.517 118.836C104.556 118.974 104.554 119.12 104.51 119.257C104.466 119.394 104.383 119.514 104.271 119.604C104.158 119.693 104.022 119.747 103.879 119.759C103.736 119.771 103.593 119.741 103.467 119.671C103.342 119.602 103.239 119.497 103.173 119.37C103.107 119.242 103.08 119.098 103.096 118.956C103.119 118.764 103.216 118.589 103.367 118.469C103.518 118.349 103.71 118.293 103.902 118.314Z" fill="#455A64"/>
<path d="M104.071 116.866C104.166 116.877 104.258 116.907 104.341 116.954C104.425 117 104.498 117.063 104.558 117.138C104.617 117.213 104.661 117.299 104.687 117.391C104.713 117.483 104.721 117.579 104.71 117.675C104.699 117.77 104.669 117.862 104.623 117.945C104.576 118.029 104.513 118.102 104.438 118.162C104.363 118.221 104.277 118.265 104.185 118.291C104.093 118.317 103.997 118.325 103.902 118.314C103.71 118.291 103.534 118.194 103.414 118.042C103.295 117.89 103.24 117.697 103.262 117.505C103.285 117.313 103.382 117.138 103.534 117.018C103.686 116.898 103.879 116.844 104.071 116.866Z" fill="#455A64"/>
<path d="M58.9785 165.158C58.9785 165.158 48.3718 186.397 48.3668 186.397C47.4912 190.78 46.8047 194.645 46.6305 196.675C46.628 196.686 46.628 196.698 46.6305 196.71C46.5387 197.18 46.5575 197.666 46.6853 198.128C46.6827 198.139 46.6827 198.151 46.6853 198.163C47.8146 199.307 82.6694 207.331 83.9977 207.202C85.326 207.073 85.0425 203.327 83.938 201.939C82.8336 200.551 70.8588 191.491 70.8588 191.491L81.2266 170.218L58.9785 165.158Z" fill="#D3766A"/>
<path d="M83.4705 207.222C82.1621 207.351 47.8297 199.322 46.7053 198.182C46.7037 198.171 46.7037 198.159 46.7053 198.148C46.5751 197.686 46.5547 197.201 46.6456 196.73C46.6414 196.719 46.6414 196.706 46.6456 196.695C46.8148 194.665 47.5063 190.8 48.3769 186.412L50.9142 181.327L72.9086 187.357L70.8788 191.526C70.8788 191.526 82.3213 200.565 83.4307 201.973C84.5401 203.381 84.7839 207.098 83.4705 207.222Z" fill="#EBEBEB"/>
<path d="M83.9479 206.665C82.6195 206.764 47.6802 197.859 46.5658 196.675C46.1379 196.232 47.1379 191.063 48.5259 184.854L48.5707 184.66L71.1771 190.158L71.0726 190.536C71.0726 190.536 82.918 199.929 84.0076 201.361C85.0971 202.794 85.2712 206.57 83.9479 206.665Z" fill="#263238"/>
<path d="M83.8936 205.207C78.043 203.565 54.2825 197.476 48.3722 196.292C48.3224 196.292 48.3125 196.317 48.3722 196.332C54.1382 198.088 77.9485 203.983 83.8837 205.287C83.9981 205.331 84.018 205.242 83.8936 205.207Z" fill="white"/>
<path d="M72.9482 191.088C70.7393 190.063 67.814 189.695 65.625 190.899C65.5405 190.944 65.625 191.063 65.6847 191.058C68.0822 190.908 70.4889 191.015 72.8637 191.377C72.8985 191.379 72.9331 191.369 72.9616 191.349C72.9902 191.329 73.0111 191.3 73.0209 191.266C73.0308 191.233 73.0289 191.197 73.0157 191.164C73.0025 191.132 72.9787 191.105 72.9482 191.088Z" fill="white"/>
<path d="M74.3612 192.521C72.1573 191.501 69.232 191.133 67.038 192.332C66.9534 192.377 67.038 192.496 67.1027 192.496C69.5001 192.343 71.9071 192.45 74.2816 192.814C74.3178 192.818 74.3542 192.809 74.3842 192.788C74.4142 192.767 74.4359 192.736 74.4454 192.701C74.4549 192.666 74.4517 192.629 74.4363 192.596C74.4209 192.563 74.3943 192.536 74.3612 192.521Z" fill="white"/>
<path d="M75.7792 193.959C73.5703 192.934 70.645 192.566 68.456 193.765C68.3714 193.814 68.456 193.934 68.5206 193.929C70.9165 193.779 73.3215 193.885 75.6946 194.247C75.7294 194.249 75.764 194.24 75.7926 194.219C75.8211 194.199 75.842 194.17 75.8519 194.137C75.8617 194.103 75.8598 194.067 75.8466 194.035C75.8334 194.003 75.8096 193.976 75.7792 193.959Z" fill="white"/>
<path d="M84.7992 205.55C85.3613 205.948 84.6897 208.013 84.1972 208.068C83.7047 208.122 45.651 198.242 45.049 197.929C44.447 197.615 45.2729 195.357 46.044 195.441C46.8151 195.526 84.7992 205.55 84.7992 205.55Z" fill="#D82E1D"/>
<path d="M53.3419 190.043C51.133 188.133 48.158 191.566 50.3569 193.481C52.5559 195.396 55.5558 191.959 53.3419 190.043Z" fill="white"/>
<path d="M50.979 179.631L76.4709 186.058C76.4709 186.058 100.231 143.179 99.6991 132.279C98.9678 117.244 81.3165 71.0167 81.3165 71.0167H60.1827C60.1827 71.0167 74.2072 120.99 74.4013 129.398C74.4858 133.796 50.979 179.631 50.979 179.631Z" fill="#455A64"/>
<path d="M77.5599 180.884C76.2017 180.342 64.0677 176.84 55.0132 174.914C55.0033 174.918 54.9946 174.924 54.9885 174.932C54.9823 174.941 54.979 174.951 54.979 174.962C54.979 174.972 54.9823 174.982 54.9885 174.991C54.9946 174.999 55.0033 175.006 55.0132 175.009C57.8639 176.004 75.8535 180.745 77.54 180.979C77.5798 180.994 77.6196 180.924 77.5599 180.884Z" fill="#263238"/>
<path d="M76.1528 118.662C74.4712 111.608 72.6703 104.573 70.7798 97.5831C68.8893 90.5933 66.8645 83.5387 64.6406 76.6036C64.372 75.7529 64.0884 74.9121 63.8148 74.0663C63.8069 74.0393 63.7885 74.0165 63.7638 74.003C63.7391 73.9894 63.71 73.9863 63.6829 73.9942C63.6559 74.0021 63.6331 74.0205 63.6196 74.0452C63.606 74.0699 63.6029 74.099 63.6108 74.126C65.6008 81.0363 67.5908 87.9316 69.4763 94.8668C71.3618 101.802 73.1578 108.757 74.8493 115.762C75.2722 117.493 75.6851 119.219 76.0881 120.956C76.5564 122.735 76.9186 124.541 77.1726 126.363C77.3818 128.105 77.262 129.87 76.8194 131.567C76.3394 133.235 75.7117 134.857 74.9438 136.413C71.8958 143.03 68.8495 149.648 65.8048 156.268C62.7601 162.905 62.2676 164.417 59.3373 171.109C58.9741 171.939 58.6109 172.77 58.2627 173.596C58.2627 173.651 58.3174 173.7 58.3473 173.641C61.6805 167.084 62.1929 165.507 65.3123 158.83C68.4316 152.154 71.531 145.398 74.6254 138.677C76.0184 135.642 77.6552 132.547 77.8642 129.154C78.0731 125.612 76.9587 122.06 76.1528 118.662Z" fill="#263238"/>
<path d="M77.3066 173.556L78.1225 196.939C78.2569 201.416 78.4509 205.331 78.7444 207.346C78.742 207.358 78.742 207.37 78.7444 207.381C78.7611 207.859 78.887 208.327 79.1126 208.749L79.1424 208.779C80.5006 209.64 116.266 209.62 117.515 209.197C118.763 208.774 117.659 205.192 116.271 204.083C114.883 202.973 101.182 196.859 101.182 196.859L100.142 173.501L77.3066 173.556Z" fill="#D3766A"/>
<path d="M77.9536 192.153C77.9536 192.153 78.1228 196.939 78.1228 196.954C78.2571 201.431 78.4511 205.346 78.7446 207.361C78.7422 207.373 78.7422 207.385 78.7446 207.396C78.8126 207.865 78.9362 208.324 79.1128 208.764L79.1426 208.794C80.5008 209.655 116.266 209.635 117.515 209.212C118.763 208.789 117.659 205.207 116.271 204.098C114.883 202.988 101.182 196.874 101.182 196.874L101.077 192.003L77.9536 192.153Z" fill="#EBEBEB"/>
<path d="M117.534 209.172C116.271 209.575 80.2219 209.018 78.8588 208.123C78.3613 207.789 78.1125 202.536 78.0229 196.183V195.984L101.286 196.083V196.481C101.286 196.481 114.992 202.864 116.38 204.003C117.768 205.142 118.803 208.784 117.534 209.172Z" fill="#263238"/>
<path d="M117.151 207.789C111.077 207.545 86.5498 207.137 80.5251 207.361C80.4754 207.361 80.4754 207.396 80.5251 207.396C86.5399 207.769 111.072 207.983 117.151 207.894C117.275 207.864 117.28 207.789 117.151 207.789Z" fill="white"/>
<path d="M103.226 196.571C100.843 196.073 97.9079 196.406 96.0572 198.063C95.9825 198.128 96.0572 198.227 96.1567 198.207C98.4535 197.506 100.818 197.051 103.211 196.849C103.24 196.84 103.265 196.822 103.284 196.798C103.302 196.774 103.313 196.745 103.315 196.715C103.316 196.685 103.309 196.655 103.293 196.629C103.277 196.603 103.254 196.583 103.226 196.571Z" fill="white"/>
<path d="M104.938 197.635C102.55 197.138 99.6199 197.476 97.7692 199.153C97.6946 199.217 97.7692 199.317 97.8637 199.292C100.162 198.59 102.529 198.136 104.923 197.939C104.959 197.934 104.993 197.917 105.017 197.891C105.042 197.864 105.056 197.829 105.058 197.793C105.06 197.757 105.049 197.721 105.027 197.692C105.005 197.663 104.974 197.643 104.938 197.635Z" fill="white"/>
<path d="M106.644 198.705C104.261 198.207 101.331 198.541 99.4754 200.197C99.4058 200.262 99.4754 200.362 99.5749 200.342C101.872 199.641 104.237 199.186 106.629 198.983C106.658 198.974 106.684 198.956 106.702 198.932C106.721 198.909 106.731 198.88 106.733 198.849C106.735 198.819 106.727 198.789 106.711 198.763C106.695 198.737 106.672 198.717 106.644 198.705Z" fill="white"/>
<path d="M118.106 207.889C118.748 208.147 118.574 210.311 118.106 210.476C117.639 210.64 78.3064 209.859 77.6647 209.699C77.0229 209.54 77.2816 207.147 78.0627 207.033C78.8437 206.918 118.106 207.889 118.106 207.889Z" fill="#D82E1D"/>
<path d="M83.9135 200.103C81.3216 198.754 79.2221 202.784 81.8191 204.132C84.416 205.481 86.5105 201.451 83.9135 200.103Z" fill="white"/>
<path d="M81.0523 70.9769C80.9578 71.4097 75.6893 92.24 75.0326 92.6281C74.2864 93.0708 94.1764 119.831 96.5345 132.97C98.027 141.373 101.51 190.352 101.51 190.352H76.147C76.147 190.352 73.6595 148.756 72.8337 135.05C72.5103 129.732 52.5606 105.145 50.6651 88.7525C50.0681 83.5885 53.7795 70.957 53.7795 70.957L81.0523 70.9769Z" fill="#455A64"/>
<path d="M75.5056 170.561C75.2071 163.671 74.9334 156.766 74.431 149.885C74.1474 145.985 73.5902 142.209 73.2021 138.323C73.2021 138.119 73.0181 138.07 73.023 138.279C73.2021 145.199 73.7743 152.044 74.1424 158.96C74.5106 165.875 74.8638 167.487 75.2568 174.382C75.4757 178.282 75.6697 182.183 75.9732 186.078C75.9765 186.088 75.9828 186.097 75.9913 186.103C75.9998 186.109 76.01 186.112 76.0205 186.112C76.031 186.112 76.0412 186.109 76.0497 186.103C76.0581 186.097 76.0645 186.088 76.0677 186.078C76.0827 179.153 75.809 177.477 75.5056 170.561Z" fill="#263238"/>
<path d="M96.56 133.299C96.343 131.479 95.9904 129.678 95.5053 127.911C94.9828 126.198 94.2947 124.54 93.4506 122.961C91.7243 119.647 89.7592 116.443 87.8637 113.225C85.9682 110.006 83.9931 106.717 81.9932 103.503C80.8688 101.699 79.7395 99.8965 78.6052 98.0956C77.451 96.2797 76.2322 94.4987 75.0431 92.7077C75.0339 92.6925 75.019 92.6816 75.0018 92.6774C74.9845 92.6732 74.9663 92.6761 74.9511 92.6853C74.9359 92.6945 74.925 92.7094 74.9208 92.7267C74.9166 92.7439 74.9195 92.7622 74.9287 92.7773C76.869 96.031 78.7893 99.2896 80.7295 102.543C82.6698 105.797 84.5802 109.06 86.4906 112.324C88.401 115.588 90.2567 118.752 92.0576 122.015C92.9444 123.565 93.7079 125.182 94.3411 126.851C94.9301 128.581 95.3581 130.361 95.6197 132.169C96.2963 136.383 96.8485 140.627 97.6943 144.801C97.6975 144.811 97.7039 144.819 97.7124 144.826C97.7208 144.832 97.731 144.835 97.7415 144.835C97.752 144.835 97.7622 144.832 97.7707 144.826C97.7792 144.819 97.7855 144.811 97.7888 144.801C97.5251 140.96 97.0674 137.114 96.56 133.299Z" fill="#263238"/>
<path d="M99.2763 186.004C97.8286 185.815 86.7791 185.432 77.5356 185.83C77.4759 185.83 77.4809 185.919 77.5356 185.924C80.5455 186.188 97.5649 186.307 99.2614 186.108C99.3062 186.103 99.3261 186.014 99.2763 186.004Z" fill="#263238"/>
<path d="M78.3409 91.2052C75.7568 92.1467 73.2598 93.3119 70.8784 94.6877C70.8579 94.6969 70.842 94.7139 70.8341 94.7349C70.8261 94.7559 70.8269 94.7792 70.8361 94.7996C70.8454 94.8201 70.8623 94.836 70.8833 94.844C70.9043 94.8519 70.9276 94.8511 70.948 94.8419C73.4654 93.7574 76.0375 92.7226 78.4951 91.5037C78.5347 91.4832 78.5645 91.4479 78.5781 91.4055C78.5916 91.363 78.5877 91.3169 78.5672 91.2773C78.5468 91.2377 78.5115 91.2079 78.469 91.1944C78.4266 91.1808 78.3805 91.1847 78.3409 91.2052Z" fill="#263238"/>
<path d="M79.1026 73.9619C79.1026 73.8773 78.9434 73.8574 78.9434 73.9619C78.9439 76.7731 78.8028 79.5825 78.5206 82.3795C78.4012 83.678 77.3564 90.837 75.1077 90.3395C74.7296 90.25 74.5406 89.8818 74.4809 89.3097C74.4871 88.5671 74.5874 87.8282 74.7794 87.1108C75.0281 85.6183 75.2271 84.1258 75.3565 82.5885C75.6202 79.7639 75.5902 76.9196 75.2669 74.1012C75.2627 74.0852 75.2534 74.0712 75.2403 74.0611C75.2273 74.0511 75.2113 74.0456 75.1948 74.0456C75.1783 74.0456 75.1623 74.0511 75.1493 74.0611C75.1362 74.0712 75.1269 74.0852 75.1226 74.1012C75.1878 78.0166 74.9583 81.9313 74.4361 85.8123C74.1525 87.6779 73.2123 90.4888 75.1674 90.7873C77.1226 91.0858 78.441 86.3745 78.6798 85.0859C79.3021 81.4119 79.4442 77.6725 79.1026 73.9619Z" fill="#263238"/>
<path d="M75.1676 90.4938C74.9683 90.9795 74.8021 91.4781 74.6701 91.9863C74.527 92.3765 74.4561 92.7896 74.4612 93.2052C74.4636 93.2222 74.4711 93.238 74.4828 93.2506C74.4944 93.2632 74.5096 93.272 74.5263 93.2758C74.543 93.2795 74.5605 93.2782 74.5764 93.2718C74.5923 93.2654 74.6059 93.2543 74.6154 93.24C74.8504 92.8733 75.0267 92.4721 75.1378 92.051C75.3119 91.5883 75.491 91.1356 75.6353 90.6679C75.6584 90.6059 75.6559 90.5373 75.6284 90.4771C75.6008 90.4169 75.5505 90.3701 75.4885 90.347C75.4265 90.324 75.3579 90.3264 75.2977 90.354C75.2375 90.3815 75.1907 90.4318 75.1676 90.4938Z" fill="#263238"/>
<path d="M76.2272 141.736C75.9884 138.194 76.0033 134.458 74.4959 131.174C73.6953 129.574 72.7739 128.038 71.7398 126.577C70.7116 125.005 69.6967 123.425 68.6951 121.836C64.7151 115.483 60.8744 109.001 57.377 102.359C55.6904 99.1602 54.1383 95.8569 53.2925 92.3246C52.4677 88.6076 52.3111 84.7734 52.8298 81.0015C52.9492 80.0613 53.0786 79.126 53.2328 78.1907C53.2333 78.178 53.2294 78.1655 53.2217 78.1554C53.2141 78.1453 53.2031 78.1382 53.1908 78.1353C53.1785 78.1323 53.1655 78.1338 53.1541 78.1393C53.1427 78.1449 53.1336 78.1542 53.1283 78.1658C52.3098 81.7527 52.0298 85.4414 52.2975 89.1108C52.6803 92.619 53.6684 96.0343 55.2178 99.205C56.7601 102.543 58.5958 105.757 60.4067 108.956C62.274 112.273 64.196 115.541 66.1728 118.762C68.1628 121.976 70.2124 125.125 72.2671 128.289C73.3152 129.781 74.132 131.423 74.6899 133.159C75.1423 134.971 75.4024 136.825 75.466 138.692C75.9635 146.522 77.9535 172.556 78.66 180.347C78.7446 181.342 78.8341 182.337 78.9286 183.332C78.9258 183.342 78.9254 183.353 78.9274 183.364C78.9295 183.374 78.9339 183.384 78.9404 183.393C78.9469 183.401 78.9553 183.408 78.9649 183.413C78.9745 183.418 78.9851 183.42 78.9958 183.42C79.0065 183.42 79.0171 183.418 79.0267 183.413C79.0363 183.408 79.0447 183.401 79.0512 183.393C79.0577 183.384 79.0621 183.374 79.0642 183.364C79.0662 183.353 79.0658 183.342 79.063 183.332C78.7645 175.511 76.7396 149.542 76.2272 141.736Z" fill="#263238"/>
<path d="M64.0535 77.8424C64.0535 77.7876 63.964 77.8075 63.964 77.8424C63.8894 80.0164 63.964 82.2651 63.1133 84.3099C62.3471 86.1954 60.8049 87.5187 59.0785 88.5088C58.0746 89.0721 57.0398 89.5787 55.9791 90.0261C55.9045 90.0609 55.9343 90.1803 56.0189 90.1555C58.0089 89.5187 60.0636 88.8271 61.7302 87.4938C63.5113 86.0611 64.2923 83.9865 64.3769 81.7477C64.4074 80.4382 64.299 79.1291 64.0535 77.8424Z" fill="#263238"/>
<path d="M75.0925 42.4055C77.9382 51.1416 85.6246 66.0218 88.3708 67.8178C90.8036 69.4048 102.251 67.6337 107.276 66.4248C109.146 65.972 104.938 51.7137 102.943 52.2361C100.55 52.8629 93.4204 54.4699 92.903 54.0719C92.3856 53.6739 85.1968 44.8184 80.1024 39.6046C75.4657 34.8833 74.0179 39.1021 75.0925 42.4055Z" fill="#D3766A"/>
<path d="M106.176 66.5342C107.136 66.4148 115.26 66.0367 118.987 64.0119C120.977 62.9323 126.056 59.3603 125.549 58.0767C125.086 56.9076 123.454 57.5444 123.454 57.5444C123.454 57.5444 125.698 55.9176 125.041 54.2957C124.385 52.6739 121.673 53.8928 121.673 53.8928C121.673 53.8928 123.857 52.052 123.086 50.4849C122.315 48.9178 119.798 50.5943 119.798 50.5943C119.798 50.5943 121.872 49.0073 120.693 47.9825C119.27 46.7487 115.773 50.1118 113.41 50.8978C112.872 51.0769 102.286 53.7535 102.286 53.7535L106.176 66.5342Z" fill="#D3766A"/>
<path d="M119.708 50.5496C117.131 53.0122 115.574 53.644 112.131 54.3405C112.066 54.3405 112.071 54.4599 112.131 54.45C115.564 54.0769 117.628 53.5644 119.822 50.669C119.942 50.5247 119.827 50.4302 119.708 50.5496Z" fill="#263238"/>
<path d="M121.589 53.8331C118.688 56.1614 117.007 56.8579 113.455 57.8529C113.405 57.8529 113.425 57.9573 113.48 57.9474C117.042 57.2608 119.091 56.7036 121.683 53.9973C121.803 53.8779 121.723 53.7286 121.589 53.8331Z" fill="#263238"/>
<path d="M123.28 57.5842C120.295 59.6339 118.5 60.4847 114.927 61.007C114.91 61.007 114.894 61.0139 114.882 61.026C114.87 61.0381 114.863 61.0546 114.863 61.0717C114.863 61.0889 114.87 61.1053 114.882 61.1175C114.894 61.1296 114.91 61.1364 114.927 61.1364C118.624 60.9573 120.897 59.9175 123.32 57.6837C123.499 57.5444 123.465 57.4599 123.28 57.5842Z" fill="#263238"/>
<path d="M99.5098 54.2112C99.5098 54.2112 102.47 50.8631 104.092 49.679C105.714 48.495 113.395 46.306 113.962 47.9378C114.693 50.0472 110.509 52.1814 108.325 52.9575C108.325 52.9575 110.022 57.833 107.33 60.0121C104.639 62.1911 99.5098 54.2112 99.5098 54.2112Z" fill="#D3766A"/>
<path d="M113.977 48.5894C113.256 50.9923 110.321 51.8281 108.256 52.7385C108.226 52.7517 108.198 52.7718 108.177 52.7973C108.156 52.8228 108.14 52.8529 108.133 52.8853C108.125 52.9176 108.125 52.9513 108.133 52.9837C108.14 53.0161 108.155 53.0463 108.176 53.0719C108.754 55.1614 108.953 58.2757 107.49 60.0368C107.45 60.0866 107.515 60.1562 107.565 60.1115C109.39 58.4399 109.44 55.3604 108.664 53.1117C110.798 52.2112 113.704 51.2411 113.997 48.5993C114.002 48.5894 113.982 48.5894 113.977 48.5894Z" fill="#263238"/>
<path d="M106.171 68.9869L102.42 51.9028L93.1367 53.5893C89.4751 49.3954 82.1569 41.0125 79.2068 38.4952C75.7243 35.54 73.4457 37.7589 74.7293 42.2364C77.6297 52.4699 86.112 67.4944 88.3309 68.9123C91.5497 70.9769 106.171 68.9869 106.171 68.9869Z" fill="#D82E1D"/>
<path opacity="0.1" d="M92.9179 58.7882C93.3775 58.8881 93.8457 58.9431 94.3159 58.9524C95.3109 59.0867 95.7487 60.5543 94.8432 61.1115C94.3678 61.4044 93.8302 61.5817 93.2738 61.6292C92.7174 61.6768 92.1576 61.5932 91.6393 61.3851C90.6443 60.9971 89.8036 60.0319 90.0175 58.8976C90.0545 58.6862 90.1457 58.4879 90.282 58.3221C90.4184 58.1563 90.5954 58.0287 90.7957 57.9515C90.9961 57.8744 91.213 57.8504 91.4253 57.882C91.6376 57.9135 91.8382 57.9995 92.0075 58.1315C92.2832 58.3865 92.5889 58.6071 92.9179 58.7882ZM90.3508 54.7236C89.9926 56.4151 92.6095 57.8678 93.9477 56.9674C94.0556 56.8857 94.1437 56.7807 94.2054 56.6603C94.2671 56.5398 94.3009 56.4071 94.3043 56.2718C94.3076 56.1365 94.2804 56.0022 94.2247 55.8789C94.169 55.7555 94.0863 55.6464 93.9826 55.5594C93.5895 55.241 93.2612 55.1913 92.9129 54.9027C92.7912 54.8077 92.6839 54.6954 92.5945 54.5694C92.3972 54.2974 92.1446 54.0702 91.8533 53.9028C91.7017 53.838 91.5374 53.8085 91.3728 53.8164C91.2081 53.8243 91.0475 53.8695 90.9028 53.9485C90.7582 54.0276 90.6333 54.1384 90.5377 54.2726C90.4421 54.4069 90.3782 54.5611 90.3508 54.7236ZM86.1768 54.8132C85.6395 55.5147 86.0425 56.5694 86.5151 57.2062C86.7278 57.5233 87.0209 57.7783 87.3644 57.9453C87.7079 58.1122 88.0895 58.185 88.4703 58.1564C88.609 58.1368 88.7392 58.0776 88.845 57.9858C88.9509 57.8939 89.0279 57.7734 89.0668 57.6388C89.1058 57.5042 89.1049 57.3612 89.0644 57.227C89.0238 57.0929 88.9454 56.9733 88.8384 56.8828C88.5392 56.6552 88.3001 56.3581 88.1419 56.0171C87.9081 55.4898 87.7539 54.8082 87.1469 54.5794C86.9812 54.5112 86.7982 54.4971 86.624 54.5391C86.4498 54.5811 86.2933 54.677 86.1768 54.8132ZM97.1964 65.8776C96.4949 67.2954 98.6292 68.9073 99.9227 68.6287C100.356 68.5342 100.773 67.9671 100.39 67.5591C100.082 67.2308 99.7138 66.9721 99.4252 66.6238C99.072 66.2009 98.8779 65.6587 98.3257 65.4447C98.1179 65.3578 97.8847 65.3542 97.6743 65.4348C97.464 65.5155 97.2928 65.674 97.1964 65.8776ZM77.1571 48.49C77.0348 48.257 76.8654 48.052 76.6596 47.888C76.9382 48.6011 77.2318 49.3158 77.5402 50.0322C77.5568 49.4927 77.4242 48.9591 77.1571 48.49ZM79.9282 46.9975C79.8308 45.7685 79.3506 44.6011 78.5551 43.6593C77.9581 42.8881 76.9233 41.6693 75.8288 41.9329C75.7125 41.9693 75.611 42.0421 75.5393 42.1407C75.4676 42.2393 75.4296 42.3583 75.4308 42.4802C75.3612 43.321 76.3263 44.2214 76.7442 44.8931C77.2417 45.7388 77.6347 46.6741 78.172 47.5149C78.2844 47.6877 78.4496 47.8196 78.643 47.8908C78.8365 47.962 79.0478 47.9688 79.2454 47.91C79.4429 47.8512 79.6162 47.7301 79.7393 47.5648C79.8624 47.3994 79.9286 47.1986 79.9282 46.9925V46.9975ZM79.6048 52.3456C79.7993 52.3355 79.9853 52.2634 80.1357 52.1399C80.2862 52.0163 80.393 51.8478 80.4406 51.659C80.5179 51.2728 80.4922 50.873 80.366 50.4999C80.2916 50.1445 80.1193 49.8171 79.8685 49.5546C79.7787 49.4715 79.6689 49.4132 79.5497 49.3853C79.4306 49.3574 79.3063 49.3609 79.1889 49.3955C79.0716 49.4301 78.9652 49.4946 78.8803 49.5827C78.7953 49.6708 78.7347 49.7794 78.7044 49.8979C78.6645 50.1884 78.6645 50.483 78.7044 50.7735C78.7044 50.8979 78.7044 51.0222 78.7044 51.1516C78.7018 51.339 78.7219 51.5261 78.7641 51.7088C78.8176 51.8905 78.9283 52.0502 79.0798 52.164C79.2312 52.2778 79.4154 52.3398 79.6048 52.3406V52.3456Z" fill="#030402"/>
<path d="M102.923 67.4944C102.495 66.4994 101.431 62.0816 101.197 60.9821C100.963 59.8826 100.097 55.435 99.8438 54.3057C99.8438 54.241 99.9134 54.2062 99.9283 54.2659C100.197 55.3803 101.396 59.7682 101.66 60.8627C101.923 61.9572 102.913 66.37 102.983 67.4795C102.984 67.4834 102.984 67.4875 102.984 67.4914C102.983 67.4954 102.982 67.4993 102.98 67.5027C102.975 67.5097 102.968 67.5148 102.961 67.5168C102.953 67.5187 102.944 67.5175 102.937 67.5133C102.93 67.5091 102.925 67.5023 102.923 67.4944Z" fill="#263238"/>
<path opacity="0.1" d="M94.3016 69.8426C91.6898 69.8426 89.3963 69.5938 88.3316 68.9123C86.0979 67.4695 77.6155 52.4948 74.6952 42.2413C73.9589 39.6742 74.4017 37.8434 75.5658 37.3111L94.3016 69.8426Z" fill="black"/>
<path d="M52.2028 73.3201C52.2675 73.4147 83.3114 77.3947 83.6448 77.1061C83.8203 76.2419 83.9449 75.3681 84.0179 74.4893C84.0179 74.4893 81.1722 40.6892 79.6996 38.7041C78.4111 36.9729 74.5007 35.7192 71.8391 36.8485C66.2522 39.2166 52.8744 69.4148 53.0187 70.6784C53.0088 70.6635 52.1232 73.2007 52.2028 73.3201Z" fill="#D82E1D"/>
<path opacity="0.1" d="M63.3968 69.2058C63.8755 69.4383 64.3753 69.6248 64.8892 69.7629C65.924 70.1759 66.0186 71.9022 64.8892 72.2504C64.2889 72.4409 63.6524 72.4884 63.0304 72.389C62.4085 72.2897 61.8184 72.0463 61.3073 71.6783C60.3123 70.9818 59.6705 69.6883 60.2078 68.5341C60.3064 68.3145 60.4598 68.1239 60.6534 67.9808C60.8469 67.8376 61.0741 67.7467 61.3129 67.7167C61.5518 67.6867 61.7944 67.7187 62.0173 67.8096C62.2402 67.9005 62.436 68.0472 62.5858 68.2356C62.8644 68.559 63.0336 68.9869 63.3968 69.2058ZM61.6953 64.0666C60.8446 65.8228 63.3072 68.1162 65.0136 67.4944C65.1566 67.4372 65.2843 67.3477 65.3868 67.2328C65.4892 67.1179 65.5636 66.9808 65.6042 66.8323C65.6447 66.6838 65.6501 66.5279 65.6202 66.3769C65.5902 66.2259 65.5257 66.0839 65.4315 65.9621C65.0932 65.5093 64.745 65.3651 64.4365 64.9671C64.3301 64.8295 64.2446 64.6769 64.1828 64.5143C64.0357 64.167 63.8209 63.8524 63.551 63.589C62.959 63.0169 62.0087 63.4198 61.6953 64.0666ZM58.8198 62.196C57.8894 62.5442 57.6506 63.7979 57.7203 64.6835C57.7346 65.1137 57.8628 65.5324 58.0918 65.8968C58.3208 66.2613 58.6424 66.5585 59.0237 66.7581C59.1677 66.8224 59.3271 66.8436 59.4829 66.8192C59.6386 66.7948 59.7839 66.7258 59.9013 66.6205C60.0186 66.5153 60.103 66.3783 60.1441 66.2261C60.1853 66.0739 60.1815 65.9131 60.1332 65.7631C59.9752 65.3653 59.9204 64.934 59.974 64.5094C60.0585 63.8726 60.3123 63.1263 59.8894 62.5542C59.7717 62.3893 59.6048 62.2658 59.4127 62.2015C59.2206 62.1371 59.013 62.1352 58.8198 62.196ZM69.0185 68.1162C68.783 68.0961 68.5487 68.1668 68.3637 68.3139C68.1787 68.461 68.0569 68.6733 68.0235 68.9072C67.998 69.1586 68.0611 69.411 68.2019 69.6208C68.3427 69.8307 68.5523 69.9847 68.7946 70.0565C69.1339 70.1684 69.5001 70.1684 69.8394 70.0565C70.013 69.9878 70.1561 69.8589 70.2423 69.6933C70.3422 69.5331 70.3827 69.343 70.3568 69.156C70.3292 68.9816 70.2493 68.8196 70.1275 68.6917C70.0058 68.5637 69.848 68.4758 69.6752 68.4396C69.6439 68.3983 69.6071 68.3615 69.5657 68.3301C69.4078 68.2075 69.2177 68.1332 69.0185 68.1162ZM61.3918 56.1116C60.556 56.9673 60.8943 58.9125 61.8495 59.5692C61.9725 59.6627 62.1178 59.7224 62.271 59.7423C62.4242 59.7623 62.5799 59.7418 62.7228 59.683C62.8656 59.6242 62.9906 59.529 63.0852 59.4069C63.1799 59.2848 63.241 59.1401 63.2624 58.9871C63.2771 58.7901 63.2771 58.5922 63.2624 58.3951C63.2624 58.1812 63.2326 58.0469 63.2624 57.8976C63.3368 57.4722 63.3519 57.0386 63.3072 56.6091C63.2685 56.4054 63.1728 56.2168 63.0312 56.0654C62.8895 55.914 62.7077 55.8059 62.5071 55.7538C62.3064 55.7017 62.095 55.7076 61.8976 55.771C61.7001 55.8343 61.5247 55.9524 61.3918 56.1116ZM55.994 68.4894C54.8447 69.8525 56.7402 72.1907 58.2277 72.2355C58.7252 72.2355 59.3372 71.738 59.0287 71.1908C58.78 70.753 58.4466 70.3649 58.2277 69.9122C57.9591 69.355 57.8944 68.7033 57.3472 68.3252C57.1431 68.1752 56.8895 68.1086 56.638 68.1391C56.3866 68.1697 56.1563 68.2949 55.994 68.4894ZM83.441 68.0565C83.2537 68.0846 83.079 68.1677 82.939 68.2952C82.7991 68.4228 82.7002 68.5891 82.6549 68.7729C82.4957 69.3252 82.4758 69.8177 82.0629 70.2654C81.616 70.617 81.2149 71.0231 80.8689 71.4743C80.8112 71.587 80.7837 71.7128 80.7891 71.8393C80.7946 71.9657 80.8328 72.0887 80.8999 72.196C80.9671 72.3033 81.061 72.3913 81.1725 72.4514C81.2839 72.5116 81.409 72.5417 81.5356 72.539C82.4043 72.4322 83.1997 71.9981 83.7594 71.3251C83.6599 70.3798 83.5604 69.2704 83.446 68.0366L83.441 68.0565ZM80.9535 63.9522C80.6749 64.6288 80.7246 65.3949 80.4908 66.1014C80.2856 66.749 80.0414 67.3837 79.7595 68.0018C79.5505 68.4496 79.9684 69.156 80.5107 68.9172C81.3926 68.5786 82.1141 67.9194 82.5306 67.0715C82.9087 66.2904 83.3266 64.977 82.9634 64.1462C82.6002 63.3154 81.3664 62.9522 80.9435 63.9323L80.9535 63.9522ZM78.1177 70.7331C77.7043 71.2672 77.1754 71.7009 76.5705 72.0017C76.4264 72.0464 76.2934 72.1213 76.1804 72.2213C76.0674 72.3213 75.977 72.4442 75.9151 72.5819C75.8532 72.7195 75.8213 72.8687 75.8215 73.0196C75.8216 73.1705 75.8539 73.3197 75.916 73.4572C75.9782 73.5947 76.0689 73.7174 76.1821 73.8172C76.2953 73.9169 76.4284 73.9915 76.5727 74.0359C76.7169 74.0804 76.8689 74.0936 77.0186 74.0749C77.1683 74.0561 77.3124 74.0057 77.4411 73.927C77.9559 73.7063 78.416 73.3755 78.7891 72.9577C79.1621 72.54 79.439 72.0455 79.6003 71.5092C79.8341 70.6485 78.67 70.0863 78.1078 70.7132L78.1177 70.7331ZM73.5706 46.3556C73.8486 46.4144 74.1385 46.3634 74.3797 46.2131C74.6208 46.0629 74.7944 45.8251 74.8641 45.5497C75.1427 44.48 74.1875 43.3806 73.4313 42.7139C72.6751 42.0473 71.6105 41.4403 70.5508 41.7836C70.4097 41.8293 70.2827 41.9103 70.1817 42.0189C70.0807 42.1275 70.0091 42.2601 69.9737 42.4041C69.9383 42.5481 69.9403 42.6988 69.9795 42.8418C70.0187 42.9848 70.0937 43.1155 70.1976 43.2214C70.6602 43.7985 71.302 44.2164 71.7945 44.7835C72.2871 45.3507 72.695 46.1914 73.5607 46.3357L73.5706 46.3556ZM77.3864 50.5794C77.8043 49.9774 77.4809 49.0869 77.1824 48.5148C77.0235 48.1992 76.7764 47.9365 76.471 47.7586C76.2655 47.6271 76.0164 47.5821 75.7779 47.6333C75.5394 47.6845 75.3308 47.8279 75.1974 48.0322C75.0617 48.3151 75.0403 48.6394 75.1377 48.9376C75.1793 49.0937 75.2359 49.2453 75.3069 49.3904V49.4351V49.4749C75.3958 49.95 75.5971 50.3969 75.8939 50.7784C75.9967 50.8818 76.122 50.9601 76.26 51.0071C76.398 51.0541 76.545 51.0685 76.6896 51.0493C76.8341 51.03 76.9722 50.9776 77.0931 50.896C77.214 50.8145 77.3144 50.7062 77.3864 50.5794ZM79.9535 47.0173C79.8561 45.7884 79.3759 44.6209 78.5804 43.6791C77.9834 42.9079 76.9486 41.6891 75.8541 41.9528C75.7378 41.9891 75.6363 42.062 75.5646 42.1605C75.4929 42.2591 75.4549 42.3781 75.4561 42.5C75.3865 43.3408 76.3516 44.2412 76.7695 44.9129C77.267 45.7586 77.6601 46.6939 78.1973 47.5347C78.3145 47.698 78.4802 47.8202 78.6708 47.8839C78.8614 47.9477 79.0673 47.9496 79.2591 47.8895C79.4509 47.8295 79.6188 47.7104 79.739 47.5493C79.8593 47.3883 79.9256 47.1934 79.9286 46.9924L79.9535 47.0173ZM76.1974 55.5345C76.3793 55.5742 76.5677 55.5742 76.7496 55.5345C77.0254 55.4496 77.2585 55.2628 77.4013 55.0121C77.535 54.7453 77.6016 54.4498 77.5954 54.1514C77.5864 53.8687 77.5096 53.5923 77.3715 53.3455L77.2073 53.1415L76.9884 52.9823C76.8515 52.9117 76.7004 52.8728 76.5464 52.8687C76.3924 52.8645 76.2394 52.8951 76.0989 52.9582C75.9583 53.0213 75.8338 53.1153 75.7346 53.2332C75.6353 53.351 75.564 53.4897 75.5258 53.639C75.443 53.9288 75.3847 54.225 75.3517 54.5246L75.3964 54.7982C75.4313 54.9355 75.4996 55.062 75.5954 55.1663C75.7457 55.34 75.9482 55.4604 76.1725 55.5096L76.1974 55.5345ZM79.6301 52.3654C79.8246 52.3554 80.0106 52.2833 80.161 52.1597C80.3115 52.0361 80.4183 51.8676 80.4659 51.6789C80.5433 51.2926 80.5175 50.8928 80.3913 50.5197C80.3169 50.1644 80.1446 49.8369 79.8938 49.5744C79.804 49.4913 79.6942 49.433 79.575 49.4051C79.4559 49.3772 79.3316 49.3808 79.2142 49.4154C79.0969 49.45 78.9905 49.5145 78.9056 49.6025C78.8206 49.6906 78.76 49.7992 78.7297 49.9177C78.6898 50.2082 78.6898 50.5028 78.7297 50.7933C78.7297 50.9177 78.7297 51.0421 78.7297 51.1714C78.7271 51.3589 78.7472 51.5459 78.7894 51.7286C78.8451 51.9027 78.9535 52.0551 79.0997 52.1647C79.2459 52.2744 79.4226 52.3358 79.6053 52.3405L79.6301 52.3654Z" fill="#030402"/>
<path d="M77.884 44.0025C75.9885 43.8284 73.5607 39.7787 73.098 37.2066C73.0682 37.0275 73.8244 35.5301 74.6552 33.6694C75.1527 32.5401 75.69 31.2665 76.088 30.0725L82.9734 34.4057C82.0443 35.7574 81.2841 37.2176 80.7098 38.7539C80.6583 38.916 80.6217 39.0826 80.6003 39.2514C80.6021 39.2795 80.6021 39.3078 80.6003 39.3359C80.4262 40.3309 79.7197 44.1716 77.884 44.0025Z" fill="#D3766A"/>
<path d="M80.5998 39.2613C80.6014 39.2895 80.6014 39.3177 80.5998 39.3459C80.3346 39.2939 80.0735 39.2224 79.8188 39.1319C75.5104 37.5797 76.2716 31.9282 76.5751 30.366L78.2915 31.4506L82.9928 34.4356C82.0642 35.7866 81.3056 37.247 80.7342 38.7837C80.6749 38.9385 80.63 39.0983 80.5998 39.2613Z" fill="#263238"/>
<path d="M76.8092 22.0976C75.3864 24.6597 75.1376 32.8884 76.7147 35.0724C78.9932 38.2365 83.5702 39.4703 86.4706 36.5649C89.2815 33.7192 89.4109 22.9881 87.5801 20.9185C84.8737 17.844 78.9086 18.3116 76.8092 22.0976Z" fill="#D3766A"/>
<path d="M83.4156 28.7492C83.4156 28.7492 83.3708 28.7492 83.3708 28.7989C83.3708 29.3661 83.2713 30.0128 82.7539 30.182V30.2168C83.3857 30.1471 83.5051 29.2865 83.4156 28.7492Z" fill="#263238"/>
<path d="M82.9332 28.1422C82.0228 28.0427 81.8885 29.8635 82.7293 29.9581C83.57 30.0526 83.6944 28.2268 82.9332 28.1422Z" fill="#263238"/>
<path d="M86.6797 28.9432C86.6797 28.9432 86.7195 28.9731 86.7195 28.998C86.6548 29.5601 86.6797 30.2168 87.1722 30.4407C87.1722 30.4407 87.1722 30.4805 87.1722 30.4755C86.5504 30.3362 86.5304 29.4656 86.6797 28.9432Z" fill="#263238"/>
<path d="M87.2319 28.396C88.1423 28.396 88.0677 30.2218 87.2319 30.2218C86.3961 30.2218 86.4657 28.391 87.2319 28.396Z" fill="#263238"/>
<path d="M83.6695 27.7741C83.4158 27.8289 83.172 27.8338 82.9232 27.8637C82.6655 27.9311 82.3928 27.9119 82.1471 27.809C82.0756 27.7618 82.0217 27.6923 81.9938 27.6113C81.9659 27.5303 81.9656 27.4424 81.9929 27.3612C82.0745 27.2128 82.1938 27.0887 82.3389 27.0013C82.4839 26.9139 82.6495 26.8665 82.8188 26.8637C83.1624 26.7976 83.5183 26.8653 83.8138 27.0528C83.8752 27.099 83.9224 27.1616 83.9498 27.2335C83.9772 27.3053 83.9837 27.3834 83.9687 27.4588C83.9536 27.5343 83.9175 27.6039 83.8646 27.6596C83.8116 27.7154 83.744 27.7551 83.6695 27.7741Z" fill="#263238"/>
<path d="M88.0476 26.6995C87.806 26.6317 87.5685 26.5503 87.3362 26.4557C87.0745 26.4064 86.8365 26.2716 86.6596 26.0726C86.6153 25.9997 86.5967 25.9141 86.6066 25.8294C86.6165 25.7447 86.6544 25.6657 86.7143 25.605C86.8502 25.5011 87.0118 25.4361 87.1817 25.4168C87.3517 25.3975 87.5237 25.4247 87.6794 25.4955C88.0155 25.5875 88.306 25.8 88.4953 26.0925C88.5347 26.1619 88.5531 26.2413 88.5483 26.3209C88.5435 26.4005 88.5158 26.4771 88.4684 26.5413C88.421 26.6055 88.3561 26.6546 88.2814 26.6827C88.2067 26.7108 88.1255 26.7166 88.0476 26.6995Z" fill="#263238"/>
<path d="M83.0031 33.2366C83.7356 33.0612 84.4993 33.0612 85.2319 33.2366C85.2965 33.2366 85.3612 33.1073 85.3761 33.0476L85.4159 31.8536C85.5702 31.9431 86.3463 32.3511 86.3463 32.1322C86.4272 30.1916 86.3089 28.2478 85.993 26.3313C85.9896 26.3202 85.9826 26.3105 85.9732 26.3036C85.9638 26.2966 85.9525 26.2929 85.9408 26.2929C85.9291 26.2929 85.9178 26.2966 85.9084 26.3036C85.899 26.3105 85.892 26.3202 85.8886 26.3313C85.809 28.1273 86.0378 29.9183 85.9831 31.7242C85.7085 31.5721 85.4137 31.4598 85.1075 31.3909C85.0428 31.3909 85.1075 32.6595 85.1075 32.8486C84.4227 32.6127 83.6729 32.6537 83.018 32.963C82.7593 33.1272 82.6548 33.3461 83.0031 33.2366Z" fill="#263238"/>
<path d="M81.5302 34.4207C81.6546 34.5599 81.7789 34.749 81.9779 34.7788C82.1871 34.7888 82.3959 34.7532 82.5899 34.6744C82.5899 34.6744 82.6247 34.6744 82.5899 34.7042C82.5042 34.8098 82.3911 34.8898 82.263 34.9354C82.1349 34.9811 81.9967 34.9906 81.8635 34.9629C81.7548 34.9282 81.6584 34.8627 81.5861 34.7744C81.5137 34.6862 81.4684 34.5789 81.4556 34.4654C81.4655 34.4107 81.5103 34.4008 81.5302 34.4207Z" fill="#263238"/>
<path opacity="0.2" d="M79.2118 19.4857C79.1372 20.7643 78.8337 24.7294 78.2168 25.5353C77.5999 26.3413 76.2964 28.2169 75.6348 28.5203C75.7243 25.8786 76.1323 23.3662 76.8138 22.0528C77.3726 21.0005 78.1999 20.1148 79.2118 19.4857Z" fill="#263238"/>
<path d="M86.3014 23.3613C85.9535 23.7153 85.5208 23.9744 85.0444 24.1138C84.568 24.2531 84.0639 24.2681 83.58 24.1573C83.0849 24.0471 82.6265 23.8111 82.2492 23.4721C81.8718 23.1331 81.5883 22.7025 81.4259 22.222C81.4259 22.1921 81.3711 22.222 81.3811 22.222C81.5075 22.7408 81.7738 23.2151 82.151 23.5931C82.5282 23.9712 83.0018 24.2386 83.5203 24.3662C84.038 24.465 84.5726 24.425 85.0698 24.2502C85.567 24.0755 86.0091 23.7722 86.3511 23.3712C86.381 23.3762 86.3412 23.3314 86.3014 23.3613Z" fill="#263238"/>
<path d="M83.8036 15.9883C83.0391 15.9366 82.2738 16.0781 81.5783 16.3998C80.8827 16.7215 80.2793 17.213 79.8236 17.8291C79.4354 18.4561 79.2706 19.196 79.356 19.9285H79.4207C79.4301 19.2857 79.6131 18.6575 79.9503 18.1101C80.2874 17.5628 80.7662 17.1167 81.336 16.8191C81.9589 16.4705 82.6539 16.2706 83.3668 16.2352C84.0797 16.1999 84.7911 16.3299 85.4454 16.6152C86.0889 16.8805 86.6177 17.3652 86.9379 17.9833C86.9677 18.048 87.0971 18.0181 87.0722 17.9534C86.6643 16.8689 85.3459 16.063 83.8036 15.9883Z" fill="#263238"/>
<path d="M93.3065 20.3265C93.0901 19.4843 92.5825 18.7458 91.8737 18.242C90.8787 17.5306 89.7146 17.5405 88.5504 17.5803C88.5156 17.5803 88.5206 17.6301 88.5504 17.6251C89.5402 17.5218 90.5388 17.7066 91.426 18.1574C92.148 18.5908 92.6982 19.2604 92.9831 20.0529C93.2542 20.8657 93.2229 21.7491 92.8947 22.5406C92.5666 23.3321 91.9638 23.9786 91.1971 24.3612C90.7509 24.571 90.2664 24.6871 89.7736 24.7025C89.2807 24.7179 88.79 24.6323 88.3315 24.4508C88.2967 24.4508 88.2668 24.4856 88.3017 24.5055C88.922 24.7795 89.6066 24.8746 90.2781 24.7801C90.9497 24.6855 91.5814 24.4051 92.102 23.9704C92.6225 23.5357 93.0112 22.9642 93.224 22.3203C93.4369 21.6764 93.4654 20.9858 93.3065 20.3265Z" fill="#263238"/>
<path d="M76.3117 23.7145C76.3117 23.7145 74.9386 20.5852 76.4062 18.9435C77.2371 18.0181 79.7345 18.3365 79.7345 18.3365C80.4805 17.3895 81.5721 16.7775 82.7693 16.6351C84.9035 16.3017 87.3363 17.7445 87.3363 17.7445C87.3363 17.7445 89.4158 16.7495 91.2019 17.9584C93.6894 19.6449 93.0675 23.5901 90.3511 24.6647C88.4407 25.4259 86.0627 23.605 86.0627 23.605C85.8239 23.605 83.2468 24.9184 81.5504 22.5802C81.5504 22.5802 79.9385 23.809 78.65 22.7642C78.4049 23.1436 78.0491 23.4382 77.6307 23.6082C77.2124 23.7782 76.7519 23.8153 76.3117 23.7145Z" fill="#263238"/>
<path d="M77.1227 28.9134C77.1227 28.9134 75.8192 25.993 74.5307 26.4259C73.2422 26.8587 73.869 30.8287 75.1426 31.6048C75.2979 31.7128 75.4732 31.7885 75.6582 31.8274C75.8432 31.8664 76.0341 31.8678 76.2197 31.8316C76.4052 31.7954 76.5817 31.7224 76.7385 31.6167C76.8953 31.5111 77.0293 31.3751 77.1326 31.2168L77.1227 28.9134Z" fill="#D3766A"/>
<path d="M74.7397 27.5502V27.5851C75.6253 28.1572 75.9586 29.1472 76.1327 30.1372C76.0953 30.0306 76.0351 29.9333 75.9564 29.8521C75.8777 29.771 75.7823 29.7079 75.6768 29.6672C75.5713 29.6265 75.4583 29.6092 75.3454 29.6165C75.2326 29.6238 75.1227 29.6555 75.0233 29.7094C74.9935 29.7094 75.0233 29.7641 75.0233 29.7641C75.2045 29.7432 75.3877 29.78 75.5467 29.8693C75.7058 29.9587 75.8325 30.096 75.9089 30.2616C76.0439 30.5307 76.1474 30.8145 76.2173 31.1074C76.2173 31.2019 76.4064 31.187 76.3964 31.1074C76.6501 29.8238 76.0283 27.9283 74.7397 27.5502Z" fill="#263238"/>
<path d="M146.08 34.7095L92.5176 51.1157L102.175 82.6441L155.737 66.2378L146.08 34.7095Z" fill="#D82E1D"/>
<path opacity="0.2" d="M146.08 34.7095L92.5176 51.1157L102.175 82.6441L155.737 66.2378L146.08 34.7095Z" fill="black"/>
<path opacity="0.2" d="M146.077 34.7098L128.077 40.2232L137.734 71.7515L155.734 66.2381L146.077 34.7098Z" fill="black"/>
<path d="M145.215 36.3161C144.608 39.1088 144.018 41.9014 143.444 44.694L141.748 53.0918L140.106 61.5244C139.568 64.3303 139.044 67.1412 138.534 69.957C139.141 67.1677 139.731 64.3751 140.305 61.5791L142.001 53.1813L143.643 44.7686C144.18 41.9495 144.704 39.132 145.215 36.3161Z" fill="#D82E1D"/>
<path d="M154.056 65.181C152.066 63.138 150.058 61.1032 148.031 59.0767L141.962 53.0271L135.852 47.0223C133.809 45.0323 131.756 43.0423 129.693 41.0523C131.683 43.0987 133.692 45.1335 135.718 47.1566L141.788 53.2062L147.897 59.211C149.943 61.2209 151.996 63.2109 154.056 65.181Z" fill="#D82E1D"/>
<path d="M102.805 55.1787L103.1 55.0884L101.831 50.9451L101.536 51.0355L102.805 55.1787Z" fill="#263238"/>
<path d="M102.104 55.3891L102.399 55.2988L101.13 51.1556L100.835 51.2459L102.104 55.3891Z" fill="#263238"/>
<path d="M101.397 55.6147L101.692 55.5243L100.423 51.3811L100.128 51.4715L101.397 55.6147Z" fill="#263238"/>
<path d="M100.698 55.8178L100.993 55.7275L99.7243 51.584L99.4294 51.6743L100.698 55.8178Z" fill="#263238"/>
<path d="M99.9917 56.037L100.287 55.9467L99.0175 51.8035L98.7226 51.8938L99.9917 56.037Z" fill="#263238"/>
<path d="M99.29 56.2477L99.585 56.1573L98.3159 52.0141L98.021 52.1045L99.29 56.2477Z" fill="#263238"/>
<path d="M98.5796 56.4794L98.8745 56.3891L97.6054 52.2459L97.3105 52.3362L98.5796 56.4794Z" fill="#263238"/>
<path d="M97.876 56.6885L98.1709 56.5982L96.9011 52.4552L96.6062 52.5456L97.876 56.6885Z" fill="#263238"/>
<path d="M97.1665 56.912L97.4614 56.8216L96.1923 52.6784L95.8974 52.7688L97.1665 56.912Z" fill="#263238"/>
<path d="M104.813 50.3755L103.589 50.4054L106.241 49.5845L105.206 50.2511L105.674 51.7735C106.515 51.6292 107.082 52.3307 107.51 53.7237L104.858 54.5595C104.43 53.1715 104.505 52.271 105.281 51.9178L104.813 50.3755Z" fill="#263238"/>
<path d="M107.48 51.4352L108.172 51.2213L107.55 49.1915L109.321 48.6492L109.943 50.679L110.639 50.4651L109.704 53.062L107.48 51.4352Z" fill="#263238"/>
<path opacity="0.1" d="M92.52 51.1167L93.311 53.7037L130.335 47.5944L128.076 40.2264L92.52 51.1167Z" fill="black"/>
<path d="M162.678 69.8127L144.674 75.325L137.733 71.753L155.738 66.2357L162.678 69.8127Z" fill="#D82E1D"/>
<path opacity="0.2" d="M162.678 69.8127L144.674 75.325L137.733 71.753L155.738 66.2357L162.678 69.8127Z" fill="black"/>
<path d="M98.4253 89.4938L116.43 83.9766L120.176 77.131L102.171 82.6433L98.4253 89.4938Z" fill="#D82E1D"/>
<path opacity="0.1" d="M98.4253 89.4938L116.43 83.9766L120.176 77.131L102.171 82.6433L98.4253 89.4938Z" fill="black"/>
<path d="M68.7938 46.2512C71.4256 55.0519 78.7438 70.1311 81.4602 71.9719C83.8531 73.6186 95.3404 72.1211 100.365 71.0316C102.246 70.6286 98.3751 56.2708 96.3851 56.7434C93.9772 57.3155 86.8083 58.7334 86.3008 58.3404C85.7934 57.9474 78.8383 48.8879 73.8633 43.5746C69.3461 38.7389 67.7988 42.9229 68.7938 46.2512Z" fill="#D3766A"/>
<path d="M95.3511 57.9126C95.3511 57.9126 99.1569 53.6241 101.853 51.9874C104.7 50.3582 107.899 49.4448 111.177 49.3257C114.714 49.1864 123.365 51.2859 123.191 53.8828C123.037 56.236 114.306 53.6391 114.306 53.6391C114.306 53.6391 123.644 54.8181 122.937 57.619C122.231 60.42 112.266 56.8231 112.266 56.8231C112.266 56.8231 121.833 58.2459 120.669 61.0269C119.773 63.1214 110.565 60.3752 110.565 60.3752C110.565 60.3752 118.783 61.6587 117.952 63.8577C117.037 66.2805 108.376 64.2806 108.376 64.2806C105.336 69.4943 101.749 70.748 99.0972 71.3102C98.4356 71.4246 95.3511 57.9126 95.3511 57.9126Z" fill="#D3766A"/>
<path d="M111.102 53.0221C112.201 53.1216 113.321 53.2161 114.41 53.4102C115.5 53.6042 116.579 53.843 117.649 54.1415C119.05 54.5016 120.405 55.0207 121.688 55.6887C119.325 54.6688 115.435 53.9027 114.345 53.6987C113.256 53.4947 112.176 53.251 111.092 53.0569C111.062 53.0669 111.072 53.0221 111.102 53.0221Z" fill="#263238"/>
<path d="M110.321 56.9474C111.719 57.1315 113.121 57.2658 114.514 57.5146C115.907 57.7633 117.196 58.1215 118.564 58.4648C118.669 58.4897 118.619 58.5394 118.514 58.5145C117.131 58.226 115.838 58.0668 114.455 57.7981C113.072 57.5295 111.699 57.2011 110.311 56.9773C110.291 56.9773 110.296 56.9424 110.321 56.9474Z" fill="#263238"/>
<path d="M109.042 60.1911C111.199 60.4253 113.327 60.8821 115.39 61.5543C115.495 61.5841 115.425 61.6388 115.316 61.614C113.216 61.1165 111.569 60.7185 109.037 60.2657C108.997 60.2608 108.997 60.1861 109.042 60.1911Z" fill="#263238"/>
<path d="M99.2266 73.5788L95.8834 56.4051L86.5653 57.8678C83.0032 53.5893 75.8889 45.0323 72.9836 42.4453C69.5757 39.4056 67.2424 41.5747 68.4115 46.077C71.0881 56.3703 79.2073 71.5739 81.4062 73.0664C84.5604 75.2056 99.2266 73.5788 99.2266 73.5788Z" fill="#D82E1D"/>
<path opacity="0.1" d="M92.918 58.7882C93.3776 58.8881 93.8457 58.9431 94.316 58.9524C95.311 59.0867 95.7488 60.5543 94.8433 61.1115C94.3678 61.4044 93.8303 61.5817 93.2739 61.6292C92.7175 61.6767 92.1577 61.5931 91.6394 61.3851C90.6444 60.9971 89.8036 60.0319 90.0176 58.8976C90.0546 58.6862 90.1458 58.4879 90.2821 58.3221C90.4185 58.1563 90.5955 58.0287 90.7958 57.9515C90.9961 57.8744 91.213 57.8504 91.4254 57.882C91.6377 57.9135 91.8383 57.9995 92.0076 58.1315C92.2833 58.3865 92.589 58.6071 92.918 58.7882ZM91.923 57.0271C92.2351 57.1775 92.5789 57.2506 92.9253 57.2403C93.2716 57.2299 93.6104 57.1363 93.913 56.9673C94.0245 56.8929 94.1138 56.7898 94.1717 56.6689L91.923 57.0271ZM87.0823 57.7832C87.4784 58.0726 87.9674 58.2055 88.4554 58.1564C88.6237 58.1333 88.7785 58.052 88.8931 57.9265C89.0076 57.8011 89.0745 57.6395 89.0823 57.4698L87.0823 57.7832ZM97.6293 65.4497C97.4324 65.5322 97.2729 65.6846 97.1816 65.8776C96.7637 66.7183 97.3457 67.6238 98.1765 68.1661L97.6293 65.4497ZM82.6446 68.7531C82.4854 69.3053 82.4655 69.7978 82.0526 70.2456C81.608 70.6039 81.2102 71.0168 80.8686 71.4744C80.8108 71.5871 80.7833 71.7128 80.7888 71.8393C80.7942 71.9658 80.8324 72.0887 80.8996 72.196C80.9668 72.3033 81.0607 72.3914 81.1721 72.4515C81.2835 72.5116 81.4086 72.5418 81.5352 72.5391C82.402 72.4324 83.1971 72.004 83.7629 71.3387C84.3287 70.6734 84.6238 69.8198 84.5899 68.9471C84.5619 68.7235 84.4588 68.516 84.2975 68.3585C84.1363 68.2011 83.9263 68.1031 83.7021 68.0806C83.4778 68.058 83.2526 68.1123 83.0632 68.2345C82.8738 68.3567 82.7315 68.5395 82.6596 68.7531H82.6446ZM80.9283 63.9323C80.6497 64.6089 80.6994 65.3751 80.4656 66.0815C80.2604 66.7292 80.0162 67.3638 79.7343 67.982C79.5253 68.4297 79.9432 69.1362 80.4855 68.8974C81.3674 68.5588 82.0888 67.8996 82.5053 67.0517C82.8834 66.2706 83.3013 64.9572 82.9382 64.1264C82.575 63.2955 81.3661 62.9523 80.9432 63.9323H80.9283ZM73.5454 46.3358C73.8233 46.3946 74.1133 46.3435 74.3544 46.1933C74.5956 46.043 74.7692 45.8053 74.8389 45.5298C75.1175 44.4602 74.1623 43.3607 73.4061 42.6941C72.6499 42.0275 71.5852 41.4205 70.5256 41.7638C70.3845 41.8095 70.2574 41.8905 70.1564 41.9991C70.0554 42.1077 69.9839 42.2403 69.9485 42.3843C69.9131 42.5283 69.9151 42.679 69.9543 42.822C69.9934 42.965 70.0685 43.0957 70.1723 43.2015C70.635 43.7786 71.2768 44.1965 71.7693 44.7637C72.2618 45.3308 72.6947 46.1915 73.5603 46.3358H73.5454ZM77.3861 50.5795C77.804 49.9775 77.4806 49.087 77.1821 48.5148C77.0231 48.1992 76.776 47.9365 76.4707 47.7586C76.2652 47.6272 76.0161 47.5821 75.7776 47.6334C75.5391 47.6846 75.3304 47.828 75.1971 48.0323C75.0614 48.3151 75.04 48.6395 75.1374 48.9377C75.1789 49.0938 75.2356 49.2454 75.3065 49.3904V49.4352V49.475C75.3954 49.9501 75.5967 50.397 75.8936 50.7785C75.9963 50.8819 76.1216 50.9602 76.2596 51.0072C76.3976 51.0542 76.5447 51.0686 76.6892 51.0493C76.8337 51.0301 76.9718 50.9776 77.0927 50.8961C77.2136 50.8146 77.314 50.7062 77.3861 50.5795ZM76.197 55.5545C76.379 55.5942 76.5673 55.5942 76.7493 55.5545C77.025 55.4696 77.2581 55.2828 77.401 55.0321C77.5347 54.7652 77.6013 54.4698 77.595 54.1714C77.586 53.8887 77.5092 53.6123 77.3711 53.3655L77.207 53.1615L76.9881 53.0023C76.8511 52.9316 76.7001 52.8928 76.546 52.8886C76.392 52.8845 76.2391 52.9151 76.0985 52.9782C75.9579 53.0413 75.8334 53.1353 75.7342 53.2531C75.635 53.371 75.5636 53.5097 75.5254 53.659C75.4426 53.9487 75.3844 54.245 75.3513 54.5445L75.3961 54.8182C75.4309 54.9554 75.4993 55.0819 75.5951 55.1863C75.7482 55.3526 75.9503 55.4659 76.1722 55.5097L76.197 55.5545ZM80.3711 50.5048L79.3761 49.3855C79.2171 49.3665 79.0567 49.4068 78.9255 49.4985C78.7943 49.5903 78.7014 49.7271 78.6646 49.883C78.6248 50.1735 78.6248 50.4681 78.6646 50.7586C78.6646 50.8829 78.6646 51.0073 78.6646 51.1367C78.6621 51.3241 78.6821 51.5112 78.7243 51.6939C78.7787 51.8832 78.895 52.0488 79.0547 52.1643C79.2143 52.2797 79.4081 52.3383 79.6049 52.3307C79.7993 52.3206 79.9854 52.2485 80.1358 52.125C80.2862 52.0014 80.3931 51.8329 80.4407 51.6441C80.5154 51.2646 80.4914 50.8724 80.3711 50.5048Z" fill="#030402"/>
<path d="M96.0126 72.0018C95.6096 70.9819 94.6644 66.5541 94.4405 65.4447C94.2166 64.3353 93.4753 59.8777 93.2515 58.7384C93.2515 58.6787 93.3211 58.6389 93.336 58.7036C93.5748 59.823 94.6743 64.2358 94.9081 65.3402C95.142 66.4447 96.0325 70.8724 96.0723 71.9868C96.0743 71.9947 96.073 72.0031 96.0688 72.0101C96.0646 72.0171 96.0578 72.0222 96.0499 72.0241C96.042 72.0261 96.0336 72.0249 96.0266 72.0207C96.0196 72.0165 96.0146 72.0097 96.0126 72.0018Z" fill="#263238"/>
<path d="M92.9382 74.0614C91.4108 74.151 89.8835 74.1858 88.3562 74.1759C86.8232 74.1826 85.2913 74.0945 83.7693 73.9122C82.9893 73.835 82.2268 73.6334 81.5106 73.3152C80.8668 72.8606 80.3077 72.2965 79.8589 71.6486C78.9571 70.4037 78.141 69.0989 77.4162 67.7432C75.9237 65.0617 74.6401 62.2707 73.3865 59.4947C72.1328 56.7186 70.9935 53.863 69.9487 50.9874C71.2174 53.7685 72.4711 56.5544 73.7745 59.3156C75.0779 62.0767 76.3963 64.8279 77.8192 67.5193C78.5293 68.8618 79.3132 70.1639 80.1674 71.4197C80.5661 72.0449 81.0712 72.5955 81.6599 73.0465C82.3382 73.3594 83.062 73.5626 83.8041 73.6485C86.8341 74.0156 89.8874 74.1537 92.9382 74.0614Z" fill="#263238"/>
<path d="M70.9187 53.4152C70.7143 53.2088 70.5295 52.984 70.3665 52.7436C70.1976 52.5055 70.0683 52.2417 69.9834 51.9625C70.0583 52.0861 70.1397 52.2056 70.2272 52.3207L70.471 52.6739C70.6347 52.912 70.7842 53.1595 70.9187 53.4152Z" fill="#263238"/>
<path d="M78.7744 48.8034C80.0331 50.067 81.1624 51.4551 82.3315 52.7834C83.5007 54.1117 84.62 55.5147 85.814 56.838L86.2568 57.3355C86.3364 57.4101 86.411 57.4947 86.4856 57.5643C86.5603 57.634 86.5603 57.629 86.5951 57.6589C86.5951 57.6589 86.6299 57.6589 86.6498 57.6589C87.0279 57.6589 87.5055 57.5743 87.9334 57.5196L90.5801 57.1266C92.3412 56.8679 94.1073 56.5992 95.8735 56.3604L95.9431 56.7982L95.8386 56.3654H95.8635C94.1173 56.7385 92.381 57.0718 90.6099 57.3952C89.7293 57.5544 88.8488 57.6937 87.9632 57.828C87.5105 57.9066 87.0538 57.9597 86.5951 57.9872C86.5588 57.9919 86.522 57.9919 86.4856 57.9872C86.4369 57.9726 86.3914 57.949 86.3513 57.9176C86.3011 57.8786 86.253 57.8371 86.2071 57.7932L85.9633 57.5544C85.8041 57.3902 85.6548 57.2261 85.5056 57.0569C84.3365 55.6987 83.2022 54.3256 82.0878 52.9326L80.4211 50.8382C79.8739 50.1864 79.3764 49.47 78.7744 48.8034Z" fill="#263238"/>
<path d="M79.4258 48.9527C79.6131 49.1828 79.7796 49.4293 79.9233 49.689C80.0635 49.9455 80.1626 50.2225 80.2168 50.5098C80.1571 50.3755 80.0825 50.2561 80.0128 50.1268L79.8089 49.7437C79.667 49.4871 79.5392 49.223 79.4258 48.9527Z" fill="#263238"/>
<path d="M19.7555 179.044C19.5714 174.388 19.6361 169.727 19.9495 165.079C20.6356 155.499 22.0981 145.99 24.3225 136.647C25.5414 131.383 27.0439 126.199 28.611 121.035C28.6558 120.881 28.9045 120.926 28.8647 121.085C24.024 139.313 20.049 158.129 20.3227 177.073C20.4023 182.377 21.0142 187.586 21.5166 192.854C21.5166 192.998 21.2977 193.053 21.2679 192.909C20.2679 188.387 19.9446 183.65 19.7555 179.044Z" fill="#D82E1D"/>
<path d="M28.865 121.06C28.865 121.06 36.1982 139.676 34.5564 144.049C32.9147 148.422 29.5267 149.358 29.5267 149.358C29.5267 149.358 34.0042 155.766 30.8799 161.795C27.7556 167.825 20.7807 167.516 20.313 174.332C20.313 174.312 19.925 145.825 28.865 121.06Z" fill="#D82E1D"/>
<path d="M21.114 162.551C21.1017 162.519 21.1017 162.484 21.114 162.452C22.0811 149.743 24.4691 137.182 28.2332 125.005C28.2332 124.97 28.3029 124.98 28.2929 125.005C26.8402 130.448 25.5567 135.92 24.4423 141.423C25.4222 140.492 26.6194 139.822 27.9248 139.472C27.9248 139.472 27.9596 139.472 27.9248 139.507C26.547 140.017 25.3093 140.846 24.3129 141.925C24.1006 143 23.8934 144.079 23.691 145.164C25.3278 143.333 27.6014 142.423 29.875 141.557C29.9048 141.557 29.9247 141.597 29.875 141.607C27.5069 142.572 25.1437 143.816 23.5418 145.855C22.978 148.943 22.4805 152.043 22.0493 155.154C23.2349 153.918 24.7543 153.054 26.4223 152.666C26.4721 152.666 26.5019 152.731 26.4223 152.746C24.7007 153.243 23.1607 154.23 21.9896 155.586H21.9597C21.8138 156.681 21.6762 157.777 21.5468 158.875C22.4918 158.095 23.5592 157.476 24.7059 157.044C24.7358 157.044 24.7507 157.079 24.7059 157.089C23.5829 157.587 22.5545 158.275 21.6662 159.124C21.6662 159.124 21.6662 159.124 21.6264 159.124C21.507 160.163 21.3826 161.208 21.2782 162.253C22.9304 160.257 25.0735 158.726 27.4969 157.81C27.5018 157.808 27.507 157.807 27.5123 157.807C27.5176 157.807 27.5228 157.809 27.5277 157.811C27.5325 157.813 27.5369 157.816 27.5406 157.82C27.5443 157.823 27.5472 157.828 27.5491 157.833C27.5511 157.838 27.5521 157.843 27.552 157.848C27.5519 157.853 27.5508 157.859 27.5488 157.863C27.5467 157.868 27.5437 157.873 27.5399 157.876C27.5361 157.88 27.5317 157.883 27.5268 157.885C25.1331 158.939 23.0302 160.558 21.3976 162.601C21.3808 162.625 21.3566 162.643 21.3288 162.652C21.301 162.661 21.271 162.661 21.2433 162.651C21.0841 164.253 20.9399 165.86 20.8254 167.467H20.7856C20.8652 165.84 20.9797 164.193 21.114 162.551Z" fill="#263238"/>
<path d="M27.004 137.642C28.3316 136.814 29.8493 136.342 31.4118 136.269C31.4466 136.269 31.4516 136.318 31.4118 136.323C29.9025 136.603 28.437 137.081 27.0537 137.746C27.0407 137.749 27.0272 137.747 27.0153 137.741C27.0035 137.735 26.9939 137.725 26.9882 137.713C26.9825 137.701 26.981 137.688 26.9838 137.675C26.9867 137.662 26.9938 137.65 27.004 137.642Z" fill="#263238"/>
<path d="M26.1137 157.348C27.1348 156.765 28.2576 156.381 29.4221 156.218C29.4619 156.218 29.4668 156.273 29.4221 156.278C28.2813 156.507 27.1779 156.894 26.1435 157.427C26.1087 157.447 26.0689 157.372 26.1137 157.348Z" fill="#263238"/>
<path d="M0.478024 144.353C3.57872 146.498 6.42604 148.988 8.96536 151.776C11.591 154.721 13.6186 158.15 14.9353 161.87C17.718 169.623 19.2153 177.778 19.3681 186.013C19.4634 190.575 19.0243 195.131 18.0596 199.59C18.0512 199.621 18.0314 199.648 18.0041 199.666C17.9769 199.683 17.9441 199.689 17.9123 199.684C17.8805 199.678 17.852 199.661 17.8323 199.635C17.8126 199.61 17.8032 199.578 17.8059 199.545C19.0075 191.676 18.9673 183.667 17.6865 175.81C16.4229 168.108 14.4478 159.731 9.55241 153.472C6.86094 150.079 3.53764 147.388 0.274049 144.607C0.0800244 144.467 0.298924 144.229 0.478024 144.353Z" fill="#D82E1D"/>
<path d="M18.2731 180.471C16.5094 177.615 14.4355 174.962 12.0892 172.561C8.41768 168.895 5.32821 166.288 4.85062 163.86C4.37302 161.432 8.52713 159.651 8.52713 159.651C8.52713 159.651 3.44767 160.561 2.05965 158.427C0.671623 156.293 0 143.96 0 143.96C0 143.96 9.22861 150.577 13.5419 159.795C17.8552 169.014 18.2731 180.471 18.2731 180.471Z" fill="#D82E1D"/>
<path d="M3.29873 155.552C3.90663 155.465 4.52223 155.445 5.1345 155.492C5.20913 155.492 5.20415 155.621 5.1345 155.621C4.52755 155.621 3.9206 155.591 3.30868 155.621C3.25893 155.611 3.25893 155.552 3.29873 155.552Z" fill="#263238"/>
<path d="M9.9451 167.492C10.9217 167.512 11.8869 167.706 12.7958 168.064C12.7958 168.064 12.7958 168.108 12.7958 168.104C11.8555 167.88 10.9053 167.785 9.95505 167.631C9.86053 167.631 9.8655 167.492 9.9451 167.492Z" fill="#263238"/>
<path d="M11.94 163.367C12.3456 163.364 12.7505 163.401 13.1489 163.477C13.1887 163.477 13.1837 163.551 13.1489 163.551C12.7449 163.571 12.34 163.551 11.94 163.492C11.9265 163.488 11.9146 163.48 11.9061 163.468C11.8976 163.457 11.8931 163.444 11.8931 163.429C11.8931 163.415 11.8976 163.402 11.9061 163.391C11.9146 163.379 11.9265 163.371 11.94 163.367Z" fill="#263238"/>
<path d="M45.3469 157.452C42.3428 158.47 39.4639 159.825 36.765 161.492C33.9705 163.277 31.5465 165.584 29.6259 168.288C25.5819 173.92 22.4848 180.174 20.457 186.804C19.3286 190.474 18.6307 194.262 18.3774 198.093C18.3774 198.122 18.389 198.15 18.4095 198.17C18.43 198.191 18.4579 198.202 18.4869 198.202C18.5159 198.202 18.5438 198.191 18.5643 198.17C18.5848 198.15 18.5963 198.122 18.5963 198.093C19.437 191.456 21.3121 184.991 24.1534 178.934C26.9543 172.994 30.4915 166.671 35.8994 162.74C38.8446 160.596 42.1529 159.198 45.4513 157.716C45.6454 157.636 45.5459 157.392 45.3469 157.452Z" fill="#D82E1D"/>
<path d="M22.6011 182.566C24.6874 180.66 26.9782 178.992 29.4317 177.591C33.2525 175.471 36.3519 174.074 37.3022 172.223C38.2524 170.372 35.3122 167.964 35.3122 167.964C35.3122 167.964 39.2076 169.875 40.8245 168.462C42.4413 167.049 45.8343 157.223 45.8343 157.223C45.8343 157.223 36.8395 160.427 31.2178 166.914C25.596 173.402 22.6011 182.566 22.6011 182.566Z" fill="#D82E1D"/>
<path d="M30.0694 173.531C30.9523 173.469 31.839 173.578 32.6812 173.85C32.6812 173.85 32.6812 173.894 32.6812 173.889C31.8205 173.745 30.9514 173.655 30.0793 173.621C30.0675 173.622 30.0555 173.619 30.0462 173.611C30.0369 173.604 30.0309 173.593 30.0296 173.581C30.0283 173.569 30.0317 173.557 30.0392 173.548C30.0466 173.538 30.0575 173.533 30.0694 173.531Z" fill="#263238"/>
<path d="M37.9193 163.233C38.3219 163.204 38.7266 163.227 39.1232 163.303C39.1308 163.305 39.1374 163.311 39.1421 163.317C39.1467 163.324 39.1492 163.332 39.1492 163.34C39.1492 163.348 39.1467 163.356 39.1421 163.363C39.1374 163.369 39.1308 163.374 39.1232 163.377C38.7302 163.332 38.3372 163.347 37.9392 163.337C37.9269 163.337 37.9152 163.332 37.906 163.324C37.8967 163.316 37.8905 163.305 37.8882 163.293C37.8859 163.281 37.8877 163.268 37.8933 163.258C37.899 163.247 37.9081 163.238 37.9193 163.233Z" fill="#263238"/>
<path d="M10.9946 210.5H31.3025L28.4071 189.282L27.6658 183.844H14.6313L13.8901 189.282L10.9946 210.5Z" fill="#455A64"/>
<path d="M13.8896 189.282H28.4067L27.6654 183.844H14.6309L13.8896 189.282Z" fill="#263238"/>
<path d="M12.761 186.561H29.5317V181.954H12.761V186.561Z" fill="#455A64"/>
<path d="M119.176 11.1625C119.176 13.2099 118.607 15.217 117.533 16.9598C116.458 18.7026 114.921 20.1127 113.092 21.0326C111.262 21.9526 109.214 22.3462 107.174 22.1697C105.134 21.9932 103.184 21.2534 101.54 20.0329L96.1221 21.4159L98.3757 16.3763C97.5825 14.8945 97.1377 13.2513 97.075 11.5717C97.0123 9.89213 97.3334 8.22036 98.014 6.68354C98.6945 5.14672 99.7165 3.78532 101.002 2.70285C102.288 1.62038 103.804 0.845351 105.434 0.4367C107.064 0.0280481 108.766 -0.00346594 110.411 0.344553C112.055 0.692573 113.598 1.41096 114.923 2.44509C116.248 3.47922 117.32 4.80186 118.057 6.31244C118.794 7.82301 119.177 9.48174 119.176 11.1625Z" fill="white"/>
<path d="M119.176 11.1575C119.175 13.2075 118.611 15.2178 117.544 16.9683C117.285 17.4096 116.999 17.8349 116.688 18.2419C116.358 18.6316 116.004 19.0005 115.629 19.3464C114.886 20.0461 114.049 20.6373 113.141 21.1026C112.231 21.5674 111.259 21.9023 110.256 22.0976C109.752 22.1978 109.241 22.261 108.728 22.2866C108.217 22.3289 107.703 22.3289 107.191 22.2866C105.122 22.126 103.138 21.3941 101.46 20.1722L101.609 20.2021L96.2064 21.6249L95.7686 21.7394L95.9526 21.3215L98.1864 16.2718V16.4808C97.3739 14.9702 96.9198 13.2929 96.8594 11.5788C96.799 9.86457 97.1339 8.15949 97.8382 6.59549C98.5432 5.03587 99.5927 3.65639 100.908 2.56077C102.221 1.4813 103.762 0.713287 105.414 0.314355C107.067 -0.0845762 108.789 -0.104067 110.45 0.257347C112.096 0.631827 113.638 1.36953 114.962 2.41649C116.279 3.46027 117.343 4.7891 118.073 6.30309C118.803 7.81708 119.18 9.47683 119.176 11.1575ZM119.176 11.1575C119.175 8.63021 118.299 6.18106 116.698 4.22589C115.097 2.27072 112.868 0.930048 110.39 0.431473C108.76 0.106976 107.077 0.158016 105.47 0.580722C103.868 0.994537 102.382 1.77067 101.127 2.84932C99.883 3.93964 98.8916 5.28755 98.2212 6.79946C97.56 8.30711 97.2504 9.94541 97.3158 11.5904C97.3925 13.219 97.8273 14.8106 98.5894 16.2519L98.6441 16.3564L98.5944 16.4609L96.3208 21.4956L96.0671 21.1971L101.495 19.8538H101.579L101.644 19.9036C103.253 21.1255 105.17 21.8749 107.181 22.0677C107.678 22.1043 108.177 22.1043 108.674 22.0677C110.194 22.0155 111.685 21.6371 113.047 20.9583C113.955 20.5162 114.793 19.9429 115.534 19.2568C115.91 18.9161 116.264 18.5522 116.594 18.1673C116.911 17.7715 117.205 17.3579 117.474 16.9285C118.56 15.1975 119.149 13.2009 119.176 11.1575Z" fill="#263238"/>
<path d="M108.892 12.3565V13.5753C108.896 13.6971 108.874 13.8183 108.829 13.9316C108.784 14.0448 108.717 14.1476 108.631 14.2338C108.544 14.3199 108.442 14.3876 108.328 14.4326C108.215 14.4777 108.094 14.4991 107.972 14.4957C107.851 14.4957 107.732 14.4719 107.621 14.4256C107.509 14.3792 107.408 14.3114 107.323 14.2258C107.238 14.1403 107.171 14.0388 107.125 13.9272C107.079 13.8155 107.056 13.696 107.057 13.5753V11.6301C107.057 11.6301 107.057 11.6301 107.057 11.5903C107.057 11.5505 107.057 11.5903 107.057 11.5555C107.063 11.3142 107.161 11.0845 107.331 10.9133C107.502 10.7422 107.731 10.6427 107.972 10.6351C108.256 10.6489 108.54 10.605 108.806 10.5058C109.073 10.4067 109.316 10.2545 109.522 10.0584C109.728 9.8623 109.892 9.62645 110.004 9.36513C110.116 9.10381 110.174 8.82246 110.174 8.53815C110.174 8.25385 110.116 7.9725 110.004 7.71118C109.892 7.44986 109.728 7.21401 109.522 7.01793C109.316 6.82185 109.073 6.66962 108.806 6.57048C108.54 6.47135 108.256 6.42736 107.972 6.4412C107.609 6.44005 107.251 6.53462 106.936 6.7154C106.621 6.89618 106.359 7.15679 106.176 7.47102C106.115 7.577 106.033 7.66985 105.936 7.74424C105.839 7.81863 105.728 7.8731 105.61 7.90453C105.491 7.93596 105.368 7.94373 105.247 7.92739C105.125 7.91105 105.008 7.87093 104.903 7.80932C104.799 7.74783 104.708 7.66642 104.636 7.56978C104.564 7.47314 104.511 7.36317 104.482 7.2462C104.452 7.12922 104.446 7.00755 104.463 6.88818C104.481 6.76881 104.522 6.6541 104.584 6.55065C104.911 5.9871 105.373 5.51364 105.929 5.17279C106.484 4.83193 107.116 4.63434 107.766 4.59777C108.417 4.5612 109.067 4.68678 109.657 4.96324C110.247 5.23971 110.759 5.65839 111.147 6.18172C111.536 6.70504 111.788 7.31661 111.882 7.96153C111.975 8.60644 111.907 9.26451 111.684 9.87665C111.46 10.4888 111.088 11.0358 110.601 11.4686C110.114 11.9015 109.527 12.2065 108.892 12.3565ZM108.892 16.4608V16.7991C108.895 16.9205 108.873 17.0412 108.828 17.1538C108.783 17.2664 108.715 17.3687 108.629 17.4543C108.543 17.5399 108.44 17.6071 108.327 17.6519C108.214 17.6966 108.093 17.7179 107.972 17.7145C107.729 17.7145 107.496 17.6181 107.325 17.4464C107.153 17.2747 107.057 17.0419 107.057 16.7991V16.4608C107.059 16.2184 107.156 15.9865 107.327 15.8146C107.498 15.6427 107.73 15.5443 107.972 15.5405C108.093 15.5391 108.214 15.562 108.326 15.6078C108.438 15.6536 108.54 15.7213 108.626 15.8071C108.712 15.8928 108.779 15.9948 108.825 16.107C108.871 16.2193 108.894 16.3396 108.892 16.4608Z" fill="#D82E1D"/>
</svg>
