<svg width="317" height="330" viewBox="0 0 317 330" fill="none" xmlns="http://www.w3.org/2000/svg">
<path d="M98.6444 310.733C145.748 335.344 222.127 335.344 269.231 310.733C316.335 286.122 316.335 246.23 269.231 221.619C222.127 197.009 145.748 197.017 98.6444 221.619C51.5407 246.221 51.5407 286.087 98.6444 310.733Z" fill="#F5F5F5"/>
<path d="M130.239 210.653C130.02 210.355 130.143 190.427 123.386 184.502C116.63 178.577 110.669 183.277 114.582 190.374C117.207 195.057 124.463 203.345 124.471 211.283L130.239 210.653Z" fill="#C32020"/>
<path opacity="0.6" d="M130.239 210.653C130.02 210.355 130.143 190.427 123.386 184.502C116.63 178.577 110.669 183.277 114.582 190.374C117.207 195.057 124.463 203.345 124.471 211.283L130.239 210.653Z" fill="white"/>
<path d="M127.866 211.117C127.777 211.117 127.691 211.084 127.624 211.024C127.558 210.964 127.516 210.882 127.508 210.793C125.477 191.687 117.828 184.843 117.749 184.773C117.677 184.71 117.633 184.622 117.626 184.527C117.62 184.431 117.651 184.337 117.714 184.265C117.777 184.194 117.865 184.149 117.961 184.143C118.056 184.136 118.15 184.168 118.222 184.23C118.545 184.511 126.168 191.293 128.225 210.714C128.235 210.81 128.207 210.907 128.146 210.982C128.085 211.057 127.997 211.106 127.901 211.117H127.866Z" fill="white"/>
<path d="M128.934 231.745C126.458 220.499 122.922 213.97 108.927 206.767C96.0354 200.124 84.9465 193.105 97.8383 190.558C108.542 188.44 129.144 205.437 129.88 220.315L128.934 231.745Z" fill="#C32020"/>
<path d="M127.56 217.611C127.486 217.612 127.414 217.591 127.353 217.551C127.292 217.51 127.245 217.452 127.218 217.383C122.991 206.111 109.487 195.206 97.7851 193.569C97.6905 193.554 97.6056 193.502 97.5483 193.426C97.4911 193.349 97.4662 193.253 97.4788 193.158C97.4852 193.11 97.501 193.065 97.5253 193.024C97.5495 192.982 97.5817 192.946 97.62 192.918C97.6584 192.889 97.702 192.869 97.7484 192.857C97.7948 192.846 97.8429 192.844 97.8901 192.851C109.845 194.523 123.586 205.638 127.901 217.13C127.932 217.22 127.927 217.319 127.886 217.406C127.845 217.493 127.772 217.56 127.682 217.593L127.56 217.611Z" fill="white"/>
<path d="M231.955 248.803C231.587 249.293 231.526 250.422 231.149 251.954C230.769 253.08 230.682 254.285 230.896 255.455C231.775 256.923 233.17 258.012 234.808 258.509C236.821 259.139 239.298 258.614 241.696 257.179C244.094 255.744 245.905 254.002 249.327 253.031C252.75 252.059 254.447 251.28 256.067 249.967C257.966 248.444 260.495 244.243 256.872 243.272C253.248 242.3 245.363 245.731 238.195 246.046L231.955 248.803Z" fill="#263238"/>
<path d="M231.955 244.322V249.696C232.172 250.301 232.554 250.834 233.058 251.233C233.563 251.632 234.169 251.882 234.808 251.954C235.397 252.048 236.001 251.985 236.558 251.77C237.429 251.436 238.183 250.856 238.73 250.101C239.277 249.346 239.593 248.448 239.639 247.517L239.849 244.322H231.955Z" fill="#FFA8A7"/>
<path d="M242.213 211.134C242.257 217.812 240.34 246.676 240.34 246.676C240.34 246.676 237.61 250.134 231.676 246.676L229.654 214.46L242.213 211.134Z" fill="#C32020"/>
<path opacity="0.5" d="M242.213 211.134C242.257 217.812 240.34 246.676 240.34 246.676C240.34 246.676 237.61 250.134 231.676 246.676L229.654 214.46L242.213 211.134Z" fill="black"/>
<path d="M224.884 271.716C225.637 266.141 231.422 255.656 241.355 251.228C251.289 246.799 263.306 248.051 265.59 249.976C267.874 251.901 268.469 255.927 263.691 257.223C258.912 258.518 255.157 260.724 258.116 263.218C261.074 265.712 261.993 269.152 257.153 270.088C252.313 271.025 246.598 267.576 245.25 270.657C243.902 273.738 246.747 276.101 241.355 277.212C235.964 278.324 229.339 274.158 225.602 280.302L224.884 271.716Z" fill="#C32020"/>
<path d="M225.208 275.935C225.162 275.943 225.114 275.943 225.068 275.935C225.024 275.917 224.984 275.89 224.951 275.856C224.917 275.822 224.891 275.783 224.873 275.739C224.855 275.695 224.846 275.648 224.846 275.6C224.847 275.553 224.857 275.506 224.875 275.462C232.245 257.958 253.547 250.081 260.978 250.554C261.074 250.56 261.163 250.605 261.227 250.677C261.291 250.749 261.324 250.843 261.319 250.939C261.317 250.987 261.305 251.034 261.284 251.077C261.264 251.12 261.234 251.159 261.199 251.191C261.163 251.223 261.121 251.247 261.075 251.262C261.03 251.278 260.982 251.284 260.934 251.28C255.035 250.921 233.216 257.564 225.541 275.742C225.509 275.802 225.461 275.853 225.402 275.887C225.343 275.921 225.276 275.937 225.208 275.935Z" fill="white"/>
<path d="M254.378 265.222C254.328 265.23 254.278 265.23 254.229 265.222C254.133 265.17 244.129 260.741 234.887 262.815C234.841 262.827 234.793 262.829 234.746 262.822C234.699 262.814 234.654 262.797 234.614 262.772C234.574 262.746 234.54 262.713 234.513 262.674C234.486 262.635 234.467 262.591 234.458 262.544C234.448 262.498 234.446 262.451 234.454 262.404C234.463 262.358 234.48 262.313 234.505 262.273C234.556 262.193 234.636 262.136 234.729 262.115C244.208 259.988 254.43 264.513 254.526 264.557C254.605 264.589 254.67 264.647 254.709 264.722C254.749 264.796 254.761 264.883 254.743 264.965C254.725 265.048 254.679 265.122 254.612 265.174C254.545 265.225 254.462 265.252 254.378 265.248V265.222Z" fill="white"/>
<path d="M172.195 184.169L140.889 202.242L215.247 245.171L238.729 231.614L246.553 227.098L172.195 184.169Z" fill="#C32020"/>
<path d="M246.553 227.098V231.623L223.071 245.18L223.062 240.655L246.553 227.098Z" fill="#C32020"/>
<path opacity="0.2" d="M246.553 227.098V231.623L223.071 245.18L223.062 240.655L246.553 227.098Z" fill="black"/>
<path d="M175.548 206.767C175.548 206.767 202.969 198.488 207.73 197.184C212.491 195.879 221.645 193.683 224.315 194.882C226.984 196.081 228.341 197.464 228.586 201.323C228.638 202.05 228.586 205.577 228.586 205.577C228.586 205.577 215.335 209.673 204.483 209.673C193.63 209.673 175.548 206.767 175.548 206.767Z" fill="#C32020"/>
<path opacity="0.6" d="M175.548 206.767C175.548 206.767 202.969 198.488 207.73 197.184C212.491 195.879 221.645 193.683 224.315 194.882C226.984 196.081 228.341 197.464 228.586 201.323C228.638 202.05 228.586 205.577 228.586 205.577C228.586 205.577 215.335 209.673 204.483 209.673C193.63 209.673 175.548 206.767 175.548 206.767Z" fill="black"/>
<path d="M198.985 160.171L197.165 170L187.082 171.164L188.535 157.598L198.985 160.171Z" fill="#FFA8A7"/>
<path d="M208.386 152.32C208.386 152.32 209.707 156.373 209.305 156.626C208.58 156.78 207.836 156.821 207.099 156.749L208.386 152.32Z" fill="#F28F8F"/>
<path d="M205.759 139.324C207.51 141.153 209.146 144.207 208.385 151.953C207.589 160.442 205.05 162.709 204.009 163.199C202.407 163.943 197.007 162.648 195.204 161.344C192.999 159.716 188.833 155.655 187.748 150.658C186.47 144.776 188.106 138.09 192.404 136.733C198.495 134.816 204.324 137.775 205.759 139.324Z" fill="#FFA8A7"/>
<path d="M209.76 143.498C208.728 145.441 206.785 150.281 201.262 151.647C201.262 151.647 200.956 148.356 198.225 148.321C195.494 148.286 194.567 151.655 195.923 154.001C197.28 156.346 198.986 155.813 198.986 155.813C198.986 155.813 198.706 160.442 195.372 162.096C195.372 162.096 191.355 163.926 187.696 161.589C186.051 160.539 184.143 155.979 183.163 152.32C181.08 144.584 181.456 138.658 186.375 137.442C187.408 134.195 189.079 133.153 192.169 132.952C198.838 132.506 203.144 137.442 208.684 137.442C211.572 137.442 210.933 141.284 209.76 143.498Z" fill="#263238"/>
<path d="M186.506 138.002L183.163 136.567C183.257 136.348 183.392 136.149 183.563 135.983C183.733 135.817 183.934 135.685 184.156 135.597C184.377 135.508 184.613 135.464 184.851 135.467C185.089 135.469 185.324 135.519 185.543 135.613C185.762 135.706 185.961 135.842 186.127 136.013C186.294 136.183 186.425 136.384 186.513 136.605C186.602 136.826 186.646 137.063 186.643 137.301C186.641 137.539 186.591 137.774 186.497 137.993L186.506 138.002Z" fill="#263238"/>
<path d="M175.619 203.468C175.619 208.719 175.12 214.215 177.317 218.075C179.513 221.934 189.465 229.881 200.667 227.991C207.984 226.757 231.641 217.742 231.641 217.742C231.641 217.742 242.143 213.882 242.213 211.134C242.283 207.073 242.003 201.367 232.822 201.612C224.455 201.831 199.626 205.901 199.626 205.901L175.619 203.468Z" fill="#C32020"/>
<path opacity="0.5" d="M175.619 203.468C175.619 208.719 175.12 214.215 177.317 218.075C179.513 221.934 189.465 229.881 200.667 227.991C207.984 226.757 231.641 217.742 231.641 217.742C231.641 217.742 242.143 213.882 242.213 211.134C242.283 207.073 242.003 201.367 232.822 201.612C224.455 201.831 199.626 205.901 199.626 205.901L175.619 203.468Z" fill="black"/>
<path d="M177.57 169.422C178.445 166.674 181.946 163.681 185.447 164.328C191.862 165.519 198.881 167.602 200.736 168.144C200.736 168.144 199.861 182.288 207.152 186.524L208.106 204.527C208.106 204.527 206.312 208.106 203.546 209.874C200.544 211.773 196.378 214.635 188.842 214.005C186.235 213.8 183.701 213.044 181.407 211.789C179.113 210.534 177.11 208.808 175.531 206.723C175.531 206.723 175.618 189.709 175.907 182.095C176.169 175.671 176.948 171.312 177.57 169.422Z" fill="#C32020"/>
<path opacity="0.2" d="M177.57 169.422C178.445 166.674 181.946 163.681 185.447 164.328C191.862 165.519 198.881 167.602 200.736 168.144C200.736 168.144 199.861 182.288 207.152 186.524L208.106 204.527C208.106 204.527 206.312 208.106 203.546 209.874C200.544 211.773 196.378 214.635 188.842 214.005C186.235 213.8 183.701 213.044 181.407 211.789C179.113 210.534 177.11 208.808 175.531 206.723C175.531 206.723 175.618 189.709 175.907 182.095C176.169 175.671 176.948 171.312 177.57 169.422Z" fill="black"/>
<path d="M207.352 190.051C207.352 190.051 203.563 186.121 202.232 181.561C202.232 181.561 202.232 188.23 207.431 191.836L207.352 190.051Z" fill="#C32020"/>
<path opacity="0.4" d="M207.352 190.051C207.352 190.051 203.563 186.121 202.232 181.561C202.232 181.561 202.232 188.23 207.431 191.836L207.352 190.051Z" fill="black"/>
<path d="M232.271 177.133L236.341 171.286C236.341 171.286 237.312 169.877 237.671 169.291C238.03 168.704 238.275 166.744 237.076 166.245C234.905 165.37 230.389 163.208 229.068 163.199C228.525 163.199 226.258 166.998 222.372 172.118C220.044 175.181 216.832 179.434 216.832 179.811C216.832 180.187 216.001 180.572 219.379 182.296C221.801 183.485 224.308 184.491 226.88 185.307L232.271 177.133Z" fill="#C32020"/>
<path opacity="0.6" d="M232.271 177.133L236.341 171.286C236.341 171.286 237.312 169.877 237.671 169.291C238.03 168.704 238.275 166.744 237.076 166.245C234.905 165.37 230.389 163.208 229.068 163.199C228.525 163.199 226.258 166.998 222.372 172.118C220.044 175.181 216.832 179.434 216.832 179.811C216.832 180.187 216.001 180.572 219.379 182.296C221.801 183.485 224.308 184.491 226.88 185.307L232.271 177.133Z" fill="black"/>
<path d="M234.862 170.787C232.367 174.376 227.046 183.25 226.889 183.495C226.731 183.74 219.012 180.406 216.937 179.504C216.886 179.6 216.851 179.704 216.832 179.811C216.832 180.178 216.001 180.572 219.379 182.296C221.801 183.485 224.308 184.491 226.88 185.307L232.271 177.133L236.341 171.286C236.341 171.286 237.312 169.877 237.671 169.291C238.03 168.704 238.275 166.744 237.076 166.245C237.312 166.368 237.347 167.199 234.862 170.787Z" fill="#263238"/>
<path d="M228.278 165.063L235.98 168.188L227.386 181.325L219.71 178.034L228.278 165.063Z" fill="#C32020"/>
<path opacity="0.8" d="M228.278 165.063L235.98 168.188L227.386 181.325L219.71 178.034L228.278 165.063Z" fill="white"/>
<path d="M200.754 168.144C204.71 169.334 207.125 169.553 211.501 176.284C215.877 183.014 225.461 196.361 226.38 197.971C227.701 200.203 228.27 202.855 227.132 204.912C226.065 206.82 222.966 205.988 218.625 202.172C214.424 198.488 206.11 188.073 206.11 188.073C203.371 181.724 201.567 175.011 200.754 168.144Z" fill="#FFA8A7"/>
<path d="M226.197 205.901C228.201 205.323 231.22 197.875 233.531 189.429C235.841 180.983 237.032 179.102 237.032 176.441C237.032 173.78 236.909 170.385 236.909 170.385L232.953 176.082C232.794 174.965 232.457 173.881 231.955 172.87C231.448 171.829 230.494 171.015 229.715 171.636C229.295 171.969 230.398 173.387 230.161 176.599C230.091 177.878 230.171 179.162 230.398 180.423L223.028 198.26L226.197 205.901Z" fill="#FFA8A7"/>
<path d="M200.753 168.144C202.717 168.561 204.634 169.171 206.477 169.965C208.256 170.665 209.769 171.908 210.801 173.518C213.864 178.603 218.24 185.841 218.24 185.841C218.24 185.841 218.993 192.142 211.334 194.348L207.256 189.972C205.59 188.19 204.221 186.151 203.204 183.933C201.48 180.117 199.51 174.096 200.753 168.144Z" fill="#C32020"/>
<path opacity="0.2" d="M200.753 168.144C202.717 168.561 204.634 169.171 206.477 169.965C208.256 170.665 209.769 171.908 210.801 173.518C213.864 178.603 218.24 185.841 218.24 185.841C218.24 185.841 218.993 192.142 211.334 194.348L207.256 189.972C205.59 188.19 204.221 186.151 203.204 183.933C201.48 180.117 199.51 174.096 200.753 168.144Z" fill="black"/>
<path d="M211.073 84.6057L129.408 37.4582C127.351 36.268 125.644 37.0031 125.303 39.0774C125.493 37.7747 125.958 36.5271 126.665 35.4168C127.373 34.3066 128.307 33.3588 129.408 32.6359L132.803 30.6666C134.096 30.0108 135.525 29.6691 136.974 29.6691C138.423 29.6691 139.852 30.0108 141.144 30.6666L222.819 77.814C224.048 78.5886 225.062 79.6601 225.768 80.9298L214.023 87.7126C213.323 86.4407 212.307 85.3706 211.073 84.6057Z" fill="#37474F"/>
<path d="M226.984 278.77C226.906 280.218 226.487 281.626 225.762 282.881C225.036 284.136 224.025 285.201 222.809 285.991L219.413 287.978C218.237 288.568 216.948 288.903 215.633 288.96C214.318 289.017 213.005 288.796 211.781 288.31C213.751 289.054 215.282 287.943 215.282 285.562V91.8261C215.23 90.3759 214.808 88.963 214.057 87.7214L225.802 80.9385C226.55 82.1844 226.969 83.5999 227.019 85.052L226.984 278.77Z" fill="#263238"/>
<path d="M211.074 84.6057L129.408 37.4583C127.106 36.1279 125.242 37.2045 125.242 39.8651V233.583C125.321 235.03 125.739 236.437 126.463 237.691C127.187 238.945 128.195 240.012 129.408 240.804L211.074 287.978C213.384 289.299 215.239 288.223 215.239 285.562V91.8261C215.163 90.3796 214.745 88.9716 214.021 87.7169C213.297 86.4622 212.287 85.3962 211.074 84.6057ZM211.327 258.098C211.327 259.7 210.216 260.347 208.824 259.542L131.657 214.985C130.92 214.508 130.308 213.863 129.871 213.101C129.434 212.34 129.186 211.486 129.145 210.609V67.3116C129.145 65.7099 130.266 65.0623 131.657 65.8675L134.729 67.6179L208.824 110.407C209.56 110.884 210.171 111.53 210.606 112.291C211.042 113.053 211.289 113.907 211.327 114.783V258.098Z" fill="#455A64"/>
<path d="M170.235 68.3793C170.664 68.6558 171.021 69.03 171.276 69.4713C171.532 69.9125 171.679 70.4082 171.706 70.9174C171.706 71.8539 171.049 72.239 170.235 71.7926C169.809 71.5142 169.455 71.1392 169.201 70.6983C168.947 70.2573 168.801 69.7627 168.774 69.2545C168.774 68.3005 169.43 67.9067 170.235 68.3793Z" fill="#263238"/>
<path d="M170.235 244.147C171.916 245.251 173.314 246.735 174.316 248.478C175.318 250.222 175.896 252.177 176.002 254.186C176.002 257.879 173.377 259.384 170.208 257.529C168.523 256.43 167.12 254.949 166.113 253.206C165.107 251.464 164.525 249.509 164.415 247.499C164.441 243.797 167.04 242.3 170.235 244.147Z" fill="#263238"/>
<path d="M184.099 83.2929C184.953 83.8489 185.665 84.5981 186.175 85.48C186.686 86.3618 186.982 87.3515 187.04 88.369C187.04 90.242 185.718 90.9947 184.099 90.067C183.246 89.5091 182.535 88.758 182.026 87.8746C181.517 86.9912 181.222 86.0003 181.167 84.982C181.167 83.1091 182.48 82.3564 184.099 83.2929Z" fill="#263238"/>
<path d="M176.922 82.6539C176.922 83.9055 175.995 84.4044 174.839 83.7129L155.532 72.5628C154.931 72.1869 154.428 71.6734 154.064 71.0647C153.701 70.456 153.487 69.7695 153.441 69.062C153.441 67.8104 154.377 67.3116 155.532 68.003L174.839 79.1531C175.44 79.529 175.942 80.0426 176.305 80.6515C176.667 81.2603 176.879 81.9468 176.922 82.6539Z" fill="#263238"/>
<path d="M140.891 71.1975L131.648 65.8675C130.266 65.0623 129.145 65.7099 129.145 67.3116V210.653C129.186 211.529 129.434 212.382 129.869 213.143C130.304 213.904 130.914 214.55 131.648 215.029L140.891 220.368V71.1975Z" fill="#263238"/>
<g opacity="0.15">
<path d="M211.326 114.757V242.913L134.728 198.706V67.6354L208.823 110.424C209.553 110.897 210.16 111.537 210.595 112.29C211.031 113.043 211.281 113.888 211.326 114.757Z" fill="white"/>
</g>
<path d="M135.21 68.4756L208.587 110.844C209.239 111.278 209.783 111.857 210.174 112.536C210.566 113.215 210.796 113.975 210.845 114.757V242.082L135.21 198.418V68.4756ZM134.728 67.6004V198.706L211.326 242.922V114.757C211.288 113.88 211.041 113.026 210.605 112.265C210.17 111.504 209.559 110.858 208.823 110.38L134.728 67.5916V67.6004Z" fill="white"/>
<path d="M211.335 258.098V247.438L140.889 206.767L129.879 213.112C130.293 213.876 130.895 214.521 131.63 214.985L208.814 259.542C210.206 260.347 211.335 259.7 211.335 258.098Z" fill="#37474F"/>
<path d="M211.336 251.954L187.854 265.511V260.995L211.336 247.438V251.954Z" fill="#C32020"/>
<path opacity="0.2" d="M211.336 251.954L187.854 265.511V260.995L211.336 247.438V251.954Z" fill="black"/>
<path d="M113.496 218.066L187.854 260.995V265.511L113.496 222.582V218.066Z" fill="#C32020"/>
<path opacity="0.2" d="M113.496 218.066L187.854 260.995V265.511L113.496 222.582V218.066Z" fill="black"/>
<path d="M140.89 202.242L113.496 218.066L187.854 260.995L211.335 247.438V242.913L140.89 202.242Z" fill="#C32020"/>
<path d="M140.89 202.242L113.496 218.066L187.854 260.995L211.335 247.438V242.913L140.89 202.242Z" fill="#C32020"/>
<path d="M141.573 166.499C139.245 166.499 137.468 166.639 133.171 172.87C129.53 178.122 117.618 194.593 116.91 195.372C116.201 196.151 122.283 198.925 122.283 198.925L138.37 182.76L141.573 166.499Z" fill="#FFA8A7"/>
<path d="M119.325 194.042C119.325 194.042 120.603 193.359 123.832 193.385C125.836 193.385 127.088 193.525 127.333 192.878C127.657 191.906 128.445 190.121 128.856 190.129V194.882L119.325 194.042Z" fill="#F28F8F"/>
<path d="M113.672 265.283C108.289 272.39 104.088 274.035 102.618 275.576C101.147 277.116 101.996 280.153 105.593 280.827C109.19 281.501 113.085 280.678 115.404 278.359C117.724 276.04 119.325 273.02 121.688 271.357C124.051 269.694 125.268 269.222 125.627 267.226C125.986 265.231 124.183 259.297 124.183 259.297L113.672 265.283Z" fill="#263238"/>
<path d="M116.253 254.448C116.752 257.03 117.312 259.288 115.553 262.395C114.981 263.393 114.353 264.358 113.671 265.283C110.529 269.511 107.973 272.81 107.544 273.388C107.116 273.965 109.759 275.803 112.796 274.543C115.833 273.283 118.449 268.784 120.427 266.071C121.303 264.863 122.178 263.769 122.861 262.92C123.785 261.791 124.265 260.362 124.208 258.903L124.042 254.781L116.253 254.448Z" fill="#FFA8A7"/>
<path d="M126.772 275.383C121.39 282.499 117.189 284.135 115.718 285.684C114.248 287.234 115.106 290.253 118.694 290.936C122.283 291.618 126.186 290.778 128.505 288.468C130.825 286.157 132.426 283.12 134.798 281.466C137.17 279.812 138.378 279.322 138.728 277.326C139.078 275.331 137.292 269.397 137.292 269.397L126.772 275.383Z" fill="#263238"/>
<path d="M129.355 264.548C129.863 267.13 130.414 269.388 128.655 272.495C128.088 273.496 127.46 274.46 126.773 275.383C123.631 279.611 121.076 282.91 120.647 283.488C120.218 284.065 122.861 285.912 125.898 284.652C128.935 283.391 131.552 278.893 133.53 276.18C134.405 274.972 135.28 273.869 135.963 273.029C136.887 271.896 137.366 270.464 137.311 269.003L137.153 264.881L129.355 264.548Z" fill="#FFA8A7"/>
<path d="M164.45 201.332C168.572 209.804 166.944 218.197 155.803 223.694C149.58 226.766 137.537 232.192 137.537 232.192C137.537 232.192 139.288 237.005 139.349 245.119C139.41 252.26 137.511 267.795 137.511 267.795C137.511 267.795 132.855 269.957 129.52 267.795C129.52 267.795 128.041 258.168 126.895 248.462C125.503 236.27 124.33 229.102 124.952 226.477C125.503 224.157 130.352 220.762 134.054 218.162L121.136 224.236C121.136 224.236 123.91 228.07 124.567 234.975C125.363 243.324 124.357 257.678 124.357 257.678C123.121 258.282 121.774 258.623 120.401 258.68C119.027 258.738 117.656 258.509 116.375 258.01C116.375 258.01 107.281 222.608 108.647 217.698C110.607 210.653 137.441 199.923 138.806 197.157L164.45 201.332Z" fill="#C32020"/>
<path opacity="0.2" d="M164.45 201.332C168.572 209.804 166.944 218.197 155.803 223.694C149.58 226.766 137.537 232.192 137.537 232.192C137.537 232.192 139.288 237.005 139.349 245.119C139.41 252.26 137.511 267.795 137.511 267.795C137.511 267.795 132.855 269.957 129.52 267.795C129.52 267.795 128.041 258.168 126.895 248.462C125.503 236.27 124.33 229.102 124.952 226.477C125.503 224.157 130.352 220.762 134.054 218.162L121.136 224.236C121.136 224.236 123.91 228.07 124.567 234.975C125.363 243.324 124.357 257.678 124.357 257.678C123.121 258.282 121.774 258.623 120.401 258.68C119.027 258.738 117.656 258.509 116.375 258.01C116.375 258.01 107.281 222.608 108.647 217.698C110.607 210.653 137.441 199.923 138.806 197.157L164.45 201.332Z" fill="black"/>
<path d="M155.296 166.516C163.698 167.304 165.037 165.956 167.549 172.765L159.847 192.396L164.451 201.332C163.366 202.951 150.535 209.848 139.262 201.621C137.284 194.42 135.706 187.116 134.536 179.741C133.661 173.535 139.157 166.691 141.879 166.42C142.861 166.303 143.849 166.248 144.837 166.254L155.296 166.516Z" fill="#C32020"/>
<path opacity="0.6" d="M155.296 166.516C163.698 167.304 165.037 165.956 167.549 172.765L159.847 192.396L164.451 201.332C163.366 202.951 150.535 209.848 139.262 201.621C137.284 194.42 135.706 187.116 134.536 179.741C133.661 173.535 139.157 166.691 141.879 166.42C142.861 166.303 143.849 166.248 144.837 166.254L155.296 166.516Z" fill="white"/>
<path d="M126.002 194.024C127.753 194.077 127.683 192.956 128.12 191.862C128.637 190.576 129.109 189.429 129.109 189.429L130.265 193.595L131.849 201.315C131.849 201.315 127.201 201.253 123.788 201.315C120.375 201.376 116.498 200.238 116.104 197.814C115.859 196.308 116.979 194.199 120.48 193.867C122.322 193.778 124.168 193.83 126.002 194.024Z" fill="#FFA8A7"/>
<path d="M129.294 184.169C127.543 184.782 127.998 187.714 128.734 190.996C129.469 194.278 130.685 199.792 131.062 201.244C131.438 202.697 131.937 203.599 134.107 203.599C136.278 203.599 139.814 203.835 141.345 203.599C142.877 203.362 143.096 202.006 142.781 198.916C142.411 195.39 141.862 191.884 141.135 188.414C140.523 185.482 140.146 183.924 138.326 183.924C136.208 183.898 131.132 183.53 129.294 184.169Z" fill="#263238"/>
<path d="M129.18 193.035C129.355 193.805 130.93 194.444 132.366 194.505C134.443 194.587 136.523 194.446 138.571 194.085C140.032 193.691 140.96 196.212 139.551 198.514C138.142 200.816 134.956 201.516 131.07 201.306C129.904 200.157 129.131 198.668 128.865 197.052C128.747 195.705 128.854 194.348 129.18 193.035Z" fill="#FFA8A7"/>
<path d="M159.882 192.396C159.882 192.396 159.007 193.849 156.285 193.849C158.692 192.212 160.784 188.974 162.744 185.097L159.882 192.396Z" fill="#C32020"/>
<path opacity="0.1" d="M159.882 192.396C159.882 192.396 159.007 193.849 156.285 193.849C158.692 192.212 160.784 188.974 162.744 185.097L159.882 192.396Z" fill="white"/>
<path d="M163.689 167.4C168.327 168.275 170.261 172.652 170.401 181.229C170.542 189.806 169.439 218.232 169.342 219.493C169.243 220.459 169.402 221.434 169.804 222.318C170.205 223.202 170.834 223.964 171.627 224.525C174.935 226.888 178.926 228.787 180.878 230.109C183.451 231.859 180.878 234.712 177.718 234.905C174.76 235.089 170.025 232.524 168.817 231.518C169.416 232.312 169.88 233.199 170.191 234.144C170.708 236.157 170.191 237.338 169.264 236.918C168.739 236.682 168.1 235.885 166.288 233.671C163.146 229.811 162.472 228.078 162.437 223.282C162.437 220.035 162.166 203.293 161.903 196.921C161.737 193.018 161.772 184.537 161.842 179.268C161.912 173.999 162.717 168.144 163.689 167.4Z" fill="#FFA8A7"/>
<path d="M134.937 150.57C134.937 150.57 131.988 145.861 134.062 141.337C136.136 136.812 144.617 130.904 154.288 135.105C163.478 139.105 162.664 149.677 162.699 154.465C162.76 158.998 134.937 150.57 134.937 150.57Z" fill="#263238"/>
<path d="M137.634 141.057C138.973 138.431 147.48 134.239 155.567 138.343C163.654 142.448 162.717 153.502 162.717 161.099V175.102C162.717 177.098 158.035 179.846 153.536 178.253L153.86 157.799C153.86 157.799 155.12 145.31 151.235 142.317C147.349 139.324 137.634 141.057 137.634 141.057Z" fill="#263238"/>
<path d="M153.86 152.04C154.385 152.355 155.138 151.34 155.786 150.658C156.433 149.975 158.56 149.056 159.61 151.279C160.661 153.502 158.245 156.574 156.81 157.572C156.408 157.921 155.906 158.134 155.376 158.179C154.846 158.225 154.315 158.101 153.86 157.825L153.72 166.455C153.72 166.455 151.594 171.129 146.5 171.82C141.406 172.511 142.448 168.319 144.119 166.245V163.085C142.846 163.358 141.536 163.423 140.242 163.278C139.577 163.103 137.984 161.186 136.96 159.042C135.814 156.626 133.897 152.347 135.604 145.109C137.433 137.337 145.782 137.101 150.771 140.234C155.76 143.367 153.86 152.04 153.86 152.04Z" fill="#FFA8A7"/>
<path d="M144.128 163.086C144.128 163.086 148.855 162.132 150.5 161.256C151.473 160.753 152.269 159.965 152.784 158.998C152.532 159.951 152.092 160.844 151.489 161.624C150.281 163.164 144.128 164.302 144.128 164.302V163.086Z" fill="#F28F8F"/>
<path d="M144.181 151.839C144.188 152.026 144.25 152.208 144.359 152.36C144.468 152.512 144.62 152.629 144.795 152.696C144.971 152.762 145.162 152.776 145.345 152.734C145.528 152.693 145.694 152.599 145.824 152.463C145.953 152.328 146.04 152.157 146.073 151.972C146.106 151.788 146.084 151.597 146.01 151.425C145.935 151.253 145.812 151.107 145.655 151.005C145.497 150.902 145.314 150.849 145.126 150.85C144.999 150.852 144.873 150.88 144.757 150.931C144.64 150.982 144.535 151.056 144.447 151.147C144.359 151.239 144.29 151.348 144.245 151.467C144.199 151.585 144.177 151.712 144.181 151.839Z" fill="#263238"/>
<path d="M145.187 148.259L147.209 149.38C147.352 149.102 147.383 148.78 147.295 148.48C147.207 148.18 147.007 147.926 146.736 147.769C146.603 147.697 146.457 147.652 146.306 147.638C146.155 147.624 146.002 147.64 145.858 147.686C145.713 147.731 145.579 147.806 145.464 147.904C145.349 148.003 145.255 148.124 145.187 148.259Z" fill="#263238"/>
<path d="M155.54 133.285L156.092 136.628C156.545 136.549 156.949 136.294 157.216 135.919C157.483 135.544 157.592 135.078 157.518 134.624C157.48 134.404 157.397 134.195 157.276 134.008C157.155 133.821 156.997 133.66 156.813 133.535C156.628 133.41 156.421 133.324 156.202 133.281C155.983 133.238 155.758 133.239 155.54 133.285Z" fill="#263238"/>
<path d="M159.584 134.939L156.486 136.287C156.677 136.702 157.023 137.026 157.45 137.189C157.877 137.353 158.351 137.343 158.77 137.162C158.972 137.072 159.154 136.943 159.305 136.782C159.456 136.621 159.573 136.431 159.649 136.223C159.725 136.016 159.759 135.795 159.747 135.574C159.736 135.354 159.681 135.138 159.584 134.939Z" fill="#263238"/>
<path d="M144.828 157.685L142.666 158.499C142.712 158.645 142.787 158.78 142.887 158.896C142.987 159.012 143.11 159.106 143.247 159.174C143.385 159.241 143.534 159.279 143.687 159.287C143.84 159.294 143.993 159.27 144.136 159.217C144.426 159.1 144.66 158.875 144.789 158.59C144.918 158.305 144.931 157.981 144.828 157.685Z" fill="#F28F8F"/>
<path d="M135.744 149.056L137.591 147.629C137.503 147.505 137.391 147.4 137.262 147.32C137.132 147.24 136.988 147.186 136.838 147.164C136.687 147.141 136.534 147.148 136.386 147.186C136.239 147.224 136.101 147.292 135.98 147.384C135.734 147.579 135.572 147.862 135.528 148.173C135.484 148.484 135.561 148.8 135.744 149.056Z" fill="#263238"/>
<path d="M136.313 151.568C136.321 151.753 136.384 151.931 136.493 152.08C136.602 152.23 136.752 152.344 136.926 152.409C137.099 152.474 137.288 152.487 137.468 152.445C137.648 152.404 137.813 152.311 137.94 152.177C138.068 152.043 138.154 151.875 138.187 151.693C138.22 151.511 138.199 151.323 138.126 151.153C138.054 150.983 137.933 150.838 137.778 150.736C137.624 150.634 137.443 150.579 137.258 150.579C137.002 150.586 136.759 150.693 136.582 150.879C136.405 151.064 136.308 151.312 136.313 151.568Z" fill="#263238"/>
<path d="M140.25 151.139L141.021 156.784L137.905 156.346L140.25 151.139Z" fill="#F28F8F"/>
<path d="M137.591 140.216C137.591 140.216 141.87 149.38 154.622 148.093C154.622 148.093 156.092 141.704 151.06 139.236C146.028 136.768 140.006 136.628 137.591 140.216Z" fill="#263238"/>
<path d="M150.761 146.947C152.258 147.139 152.695 149.424 152.328 151.323C151.96 153.222 153.763 153.379 155.172 151.323C156.079 149.747 156.592 147.975 156.669 146.159L150.761 146.947Z" fill="#263238"/>
<path d="M134.09 218.189C134.09 218.189 141.862 212.937 144.128 211.896C144.128 211.896 139.752 211.021 137.634 208.15C137.99 209.509 138.615 210.783 139.472 211.896L121.172 224.262L134.09 218.189Z" fill="#C32020"/>
<path opacity="0.4" d="M134.09 218.189C134.09 218.189 141.862 212.937 144.128 211.896C144.128 211.896 139.752 211.021 137.634 208.15C137.99 209.509 138.615 210.783 139.472 211.896L121.172 224.262L134.09 218.189Z" fill="black"/>
<path d="M314.497 139.796L260.794 108.796C259.411 108 258.291 108.639 258.291 110.24V185.797C258.332 186.673 258.581 187.526 259.016 188.286C259.451 189.047 260.061 189.694 260.794 190.173L314.497 221.173C315.88 221.969 317 221.322 317 219.729V144.129C316.952 143.26 316.701 142.416 316.266 141.663C315.831 140.91 315.225 140.271 314.497 139.796Z" fill="#E0E0E0"/>
<path d="M245.145 172.056L262.203 181.911V168.354L245.512 170.28C243.928 170.463 243.762 171.26 245.145 172.056Z" fill="#E0E0E0"/>
<path d="M268.208 124.366L307.084 146.815C307.685 147.191 308.187 147.705 308.549 148.314C308.912 148.923 309.123 149.609 309.167 150.316C309.167 151.559 308.239 152.067 307.084 151.366L268.208 128.926C267.608 128.549 267.106 128.035 266.744 127.427C266.382 126.818 266.17 126.132 266.125 125.425C266.151 124.174 267.026 123.701 268.208 124.366Z" fill="#F0F0F0"/>
<path d="M268.19 137.915L307.066 160.364C307.668 160.74 308.171 161.253 308.534 161.862C308.898 162.47 309.112 163.157 309.158 163.864C309.158 165.107 308.222 165.615 307.066 164.915L268.19 142.474C267.592 142.096 267.091 141.582 266.729 140.973C266.367 140.365 266.154 139.68 266.107 138.974C266.15 137.722 267.026 137.249 268.19 137.915Z" fill="#F0F0F0"/>
<path d="M268.208 151.445L307.084 173.894C307.679 174.266 308.178 174.773 308.54 175.373C308.902 175.974 309.117 176.652 309.167 177.351C309.167 178.603 308.239 179.102 307.084 178.41L268.208 155.996C267.613 155.625 267.114 155.118 266.752 154.517C266.39 153.916 266.175 153.239 266.125 152.539C266.151 151.288 267.026 150.815 268.208 151.445Z" fill="#F0F0F0"/>
<path d="M268.208 165.037L307.084 187.478C307.684 187.854 308.185 188.368 308.547 188.977C308.91 189.586 309.122 190.272 309.167 190.978C309.167 192.23 308.239 192.729 307.084 192.037L268.208 169.588C267.607 169.212 267.105 168.699 266.742 168.09C266.38 167.481 266.168 166.795 266.125 166.087C266.151 164.845 267.026 164.372 268.208 165.037Z" fill="#F0F0F0"/>
<path d="M268.208 178.577L307.084 201.026C307.685 201.402 308.187 201.915 308.549 202.524C308.912 203.133 309.123 203.819 309.167 204.527C309.167 205.769 308.239 206.277 307.084 205.577L268.208 183.137C267.608 182.76 267.106 182.246 266.744 181.637C266.382 181.028 266.17 180.342 266.125 179.636C266.151 178.402 267.026 177.929 268.208 178.577Z" fill="#F0F0F0"/>
<path d="M262.203 49.2298V84.1156C262.247 84.9905 262.496 85.8428 262.931 86.6032C263.366 87.3636 263.974 88.0106 264.706 88.4916L306.664 112.709C308.047 113.514 309.167 112.866 309.167 111.264V76.3437C309.126 75.4683 308.877 74.6152 308.442 73.8545C308.007 73.0938 307.398 72.4471 306.664 71.9677L264.706 47.7507C263.332 46.9893 262.203 47.6282 262.203 49.2298Z" fill="#F0F0F0"/>
<path d="M249.846 64.7997L266.151 66.6814V80.2384L249.137 66.5501C248.951 66.4279 248.813 66.2448 248.746 66.0322C248.68 65.8195 248.689 65.5905 248.773 65.384C248.857 65.1775 249.009 65.0064 249.205 64.8999C249.401 64.7934 249.627 64.758 249.846 64.7997Z" fill="#F0F0F0"/>
<path d="M309.167 66.6727C310.877 67.7864 312.3 69.2878 313.32 71.0549C314.341 72.8221 314.93 74.805 315.04 76.8426C315.04 80.5885 312.414 82.0939 309.167 80.2297C307.457 79.1141 306.034 77.611 305.014 75.8425C303.993 74.074 303.404 72.0898 303.294 70.051C303.294 66.3226 305.929 64.7998 309.167 66.6727Z" fill="#C32020"/>
<path opacity="0.7" d="M309.167 66.6727C310.877 67.7864 312.3 69.2878 313.32 71.0549C314.341 72.8221 314.93 74.805 315.04 76.8426C315.04 80.5885 312.414 82.0939 309.167 80.2297C307.457 79.1141 306.034 77.611 305.014 75.8425C303.993 74.074 303.404 72.0898 303.294 70.051C303.294 66.3226 305.929 64.7998 309.167 66.6727Z" fill="white"/>
<path d="M272.12 59.1722L299.251 74.8384C299.85 75.2158 300.352 75.7299 300.714 76.3384C301.076 76.9469 301.288 77.6326 301.334 78.3392C301.334 79.582 300.398 80.0896 299.251 79.3894L272.12 63.7232C271.521 63.3458 271.02 62.8317 270.658 62.2232C270.295 61.6147 270.083 60.929 270.037 60.2224C270.037 58.9796 270.973 58.507 272.12 59.1722Z" fill="#E6E6E6"/>
<path d="M272.12 70.1385L299.251 85.8047C299.85 86.1822 300.352 86.6962 300.714 87.3048C301.076 87.9133 301.288 88.5989 301.334 89.3056C301.334 90.5483 300.398 91.056 299.251 90.3558L272.12 74.6896C271.521 74.3121 271.02 73.7981 270.658 73.1896C270.295 72.581 270.083 71.8954 270.037 71.1888C270.037 69.946 270.973 69.4734 272.12 70.1385Z" fill="#E6E6E6"/>
<path d="M272.12 81.1048L299.251 96.771C299.85 97.1485 300.352 97.6625 300.714 98.2711C301.076 98.8796 301.288 99.5653 301.334 100.272C301.334 101.515 300.398 102.022 299.251 101.322L272.12 85.6559C271.521 85.2785 271.02 84.7644 270.658 84.1559C270.295 83.5474 270.083 82.8617 270.037 82.1551C270.037 80.9123 270.973 80.4397 272.12 81.1048Z" fill="#E6E6E6"/>
<path d="M95.3357 94.5568L41.6418 63.5569C40.2589 62.7605 39.1387 63.4082 39.1387 65.001V140.593C39.1793 141.468 39.4275 142.322 39.8627 143.082C40.2979 143.843 40.9077 144.49 41.6418 144.969L95.3357 175.951C96.7185 176.747 97.8388 176.1 97.8388 174.507V98.9328C97.7981 98.0573 97.55 97.2039 97.1148 96.443C96.6796 95.6822 96.0698 95.0357 95.3357 94.5568Z" fill="#E0E0E0"/>
<path d="M49.0461 79.1706L87.9228 101.611C88.524 101.987 89.0273 102.5 89.391 103.109C89.7546 103.718 89.9684 104.404 90.0146 105.112C90.0146 106.363 89.0781 106.862 87.9228 106.171L49.0461 83.7217C48.447 83.3442 47.9459 82.8302 47.5838 82.2217C47.2218 81.6131 47.009 80.9275 46.9631 80.2209C46.9631 78.9781 47.8996 78.5055 49.0461 79.1706Z" fill="#F0F0F0"/>
<path d="M49.0371 92.7188L87.9138 115.159C88.5129 115.537 89.014 116.051 89.3761 116.659C89.7382 117.268 89.9509 117.953 89.9968 118.66C89.9968 119.912 89.0603 120.41 87.9138 119.71L49.0371 97.2699C48.4365 96.8941 47.9343 96.3804 47.572 95.7716C47.2097 95.1627 46.9979 94.4762 46.9541 93.7691C46.9541 92.5263 47.8818 92.0537 49.0371 92.7188Z" fill="#F0F0F0"/>
<path d="M49.0461 106.276L87.9228 128.69C88.524 129.066 89.0273 129.579 89.391 130.188C89.7546 130.797 89.9684 131.483 90.0146 132.191C90.0146 133.433 89.0781 133.941 87.9228 133.241L49.0461 110.801C48.448 110.422 47.9476 109.908 47.5857 109.299C47.2237 108.691 47.0104 108.006 46.9631 107.3C46.9631 106.083 47.8996 105.611 49.0461 106.276Z" fill="#F0F0F0"/>
<path d="M49.0461 119.833L87.9228 142.282C88.5188 142.653 89.0188 143.159 89.3823 143.76C89.7457 144.361 89.9624 145.039 90.0146 145.739C90.0146 146.99 89.0781 147.489 87.9228 146.798L49.0461 124.314C48.4527 123.941 47.9551 123.433 47.5934 122.833C47.2316 122.233 47.0157 121.556 46.9631 120.857C46.9631 119.64 47.8996 119.168 49.0461 119.833Z" fill="#F0F0F0"/>
<path d="M49.0461 133.398L87.9228 155.821C88.524 156.197 89.0273 156.711 89.391 157.319C89.7546 157.928 89.9684 158.615 90.0146 159.322C90.0146 160.565 89.0781 161.073 87.9228 160.372L49.0461 137.932C48.447 137.555 47.9459 137.041 47.5838 136.432C47.2218 135.824 47.009 135.138 46.9631 134.431C46.9631 133.206 47.8996 132.733 49.0461 133.398Z" fill="#F0F0F0"/>
<path d="M93.9263 166.087L109.199 174.901C109.39 175.008 109.612 175.045 109.828 175.007C110.043 174.97 110.24 174.859 110.383 174.694C110.527 174.528 110.61 174.319 110.617 174.1C110.624 173.881 110.556 173.666 110.424 173.492L93.9263 152.531V166.087Z" fill="#E0E0E0"/>
<path d="M0 164.468V199.354C0.0413636 200.229 0.289814 201.083 0.724948 201.843C1.16008 202.604 1.76949 203.251 2.50309 203.73L44.4605 227.947C45.8433 228.744 46.9636 228.105 46.9636 226.503V191.582C46.9222 190.707 46.6738 189.854 46.2387 189.093C45.8035 188.332 45.1941 187.686 44.4605 187.206L2.50309 163.024C1.12027 162.219 0 162.867 0 164.468Z" fill="#F0F0F0"/>
<path d="M59.8375 217.427L43.051 199.984V213.585L58.8048 219.055C59.0189 219.156 59.2625 219.175 59.4898 219.109C59.7171 219.043 59.9125 218.897 60.0393 218.697C60.1661 218.497 60.2156 218.258 60.1784 218.024C60.1413 217.79 60.02 217.578 59.8375 217.427Z" fill="#F0F0F0"/>
<path d="M46.9639 181.911C48.6738 183.025 50.0968 184.526 51.1172 186.293C52.1376 188.061 52.7267 190.043 52.8366 192.081C52.8366 195.818 50.211 197.332 46.9639 195.468C45.2551 194.353 43.8328 192.852 42.8125 191.085C41.7923 189.318 41.2026 187.336 41.0913 185.298C41.0913 181.552 43.7257 180.038 46.9639 181.911Z" fill="#C32020"/>
<path opacity="0.7" d="M46.9639 181.911C48.6738 183.025 50.0968 184.526 51.1172 186.293C52.1376 188.061 52.7267 190.043 52.8366 192.081C52.8366 195.818 50.211 197.332 46.9639 195.468C45.2551 194.353 43.8328 192.852 42.8125 191.085C41.7923 189.318 41.2026 187.336 41.0913 185.298C41.0913 181.552 43.7257 180.038 46.9639 181.911Z" fill="white"/>
<path d="M9.91621 174.411L37.0476 190.077C37.6467 190.454 38.1479 190.968 38.5099 191.577C38.872 192.185 39.0847 192.871 39.1306 193.578C39.1306 194.821 38.1942 195.328 37.0389 194.628L9.90746 178.962C9.3069 178.586 8.80464 178.072 8.44237 177.463C8.0801 176.855 7.86827 176.168 7.82446 175.461C7.83321 174.201 8.76094 173.746 9.91621 174.411Z" fill="#E6E6E6"/>
<path d="M9.91621 185.377L37.0476 201.043C37.6467 201.421 38.1479 201.935 38.5099 202.543C38.872 203.152 39.0847 203.837 39.1306 204.544C39.1306 205.787 38.1942 206.294 37.0389 205.594L9.90746 189.928C9.3069 189.552 8.80464 189.039 8.44237 188.43C8.0801 187.821 7.86827 187.134 7.82446 186.427C7.83321 185.184 8.76094 184.703 9.91621 185.377Z" fill="#E6E6E6"/>
<path d="M9.91621 196.343L37.0476 212.01C37.6467 212.387 38.1479 212.901 38.5099 213.51C38.872 214.118 39.0847 214.804 39.1306 215.51C39.1306 216.753 38.1942 217.261 37.0389 216.561L9.90746 200.894C9.3069 200.519 8.80464 200.005 8.44237 199.396C8.0801 198.787 7.86827 198.101 7.82446 197.394C7.83321 196.151 8.76094 195.678 9.91621 196.343Z" fill="#E6E6E6"/>
<path d="M31.3069 1.78482V36.6706C31.3475 37.5461 31.5957 38.3995 32.0309 39.1603C32.4661 39.9212 33.0759 40.5677 33.81 41.0466L75.7674 65.2723C77.1502 66.0688 78.2705 65.4211 78.2705 63.8195V28.9162C78.2298 28.0407 77.9817 27.1873 77.5465 26.4265C77.1113 25.6656 76.5015 25.0191 75.7674 24.5402L33.81 0.340724C32.4709 -0.455714 31.3069 0.19194 31.3069 1.78482Z" fill="#F0F0F0"/>
<path d="M91.1085 54.7523L74.322 37.3007V50.8577L90.0757 56.3277C90.2814 56.4079 90.5083 56.4149 90.7185 56.3477C90.9288 56.2805 91.1095 56.1431 91.2305 55.9585C91.3515 55.774 91.4054 55.5534 91.3832 55.3338C91.361 55.1142 91.264 54.909 91.1085 54.7523Z" fill="#F0F0F0"/>
<path d="M78.27 19.2277C79.9733 20.3453 81.3895 21.8484 82.4037 23.6153C83.4179 25.3821 84.0016 27.3631 84.1076 29.3976C84.1076 33.1435 81.482 34.6488 78.2349 32.7846C76.5261 31.6699 75.1039 30.1682 74.0836 28.4013C73.0633 26.6344 72.4736 24.652 72.3623 22.6147C72.3973 18.8776 75.0317 17.3547 78.27 19.2277Z" fill="#C32020"/>
<path opacity="0.7" d="M78.27 19.2277C79.9733 20.3453 81.3895 21.8484 82.4037 23.6153C83.4179 25.3821 84.0016 27.3631 84.1076 29.3976C84.1076 33.1435 81.482 34.6488 78.2349 32.7846C76.5261 31.6699 75.1039 30.1682 74.0836 28.4013C73.0633 26.6344 72.4736 24.652 72.3623 22.6147C72.3973 18.8776 75.0317 17.3547 78.27 19.2277Z" fill="white"/>
<path d="M41.2217 11.7271L68.3531 27.3934C68.9522 27.7708 69.4533 28.2849 69.8154 28.8934C70.1775 29.5019 70.3902 30.1876 70.4361 30.8942C70.4361 32.137 69.4996 32.6446 68.3531 31.9444L41.2217 16.2782C40.6211 15.9024 40.1188 15.3887 39.7566 14.7798C39.3943 14.171 39.1825 13.4845 39.1387 12.7774C39.1387 11.5346 40.0664 11.062 41.2217 11.7271Z" fill="#E6E6E6"/>
<path d="M41.2217 22.6935L68.3531 38.3597C68.9522 38.7372 69.4533 39.2512 69.8154 39.8598C70.1775 40.4683 70.3902 41.1539 70.4361 41.8606C70.4361 43.1033 69.4996 43.611 68.3531 42.9108L41.2217 27.2446C40.6211 26.8687 40.1188 26.3551 39.7566 25.7462C39.3943 25.1374 39.1825 24.4509 39.1387 23.7438C39.1387 22.501 40.0664 22.0284 41.2217 22.6935Z" fill="#E6E6E6"/>
<path d="M41.2217 33.6599L68.3531 49.3261C68.9522 49.7035 69.4533 50.2176 69.8154 50.8261C70.1775 51.4347 70.3902 52.1203 70.4361 52.8269C70.4361 54.0697 69.4996 54.5773 68.3531 53.8772L41.2217 38.211C40.6211 37.8351 40.1188 37.3214 39.7566 36.7126C39.3943 36.1037 39.1825 35.4173 39.1387 34.7101C39.1387 33.4673 40.0664 32.9947 41.2217 33.6599Z" fill="#E6E6E6"/>
</svg>
