<svg width="151" height="183" viewBox="0 0 151 183" fill="none" xmlns="http://www.w3.org/2000/svg">
<path d="M75.5 170.969C117.198 170.969 151 137.163 151 95.4609C151 53.7591 117.198 19.9531 75.5 19.9531C33.8025 19.9531 0 53.7591 0 95.4609C0 137.163 33.8025 170.969 75.5 170.969Z" fill="#FED7D7"/>
<path d="M47.8906 92.4653H61.0759" stroke="#EE781D" stroke-width="3" stroke-miterlimit="10"/>
<path d="M47.8906 96.2661H61.0759" stroke="#EE781D" stroke-width="3" stroke-miterlimit="10"/>
<path d="M47.8906 100.067H61.0759" stroke="#EE781D" stroke-width="3" stroke-miterlimit="10"/>
<path d="M53.7143 139.165C57.4177 139.165 60.4199 136.162 60.4199 132.459C60.4199 128.755 57.4177 125.752 53.7143 125.752C50.011 125.752 47.0088 128.755 47.0088 132.459C47.0088 136.162 50.011 139.165 53.7143 139.165Z" fill="#EE781D"/>
<path d="M44.3385 125.998C46.2675 125.998 47.8313 124.434 47.8313 122.504C47.8313 120.575 46.2675 119.011 44.3385 119.011C42.4095 119.011 40.8457 120.575 40.8457 122.504C40.8457 124.434 42.4095 125.998 44.3385 125.998Z" fill="#EE781D"/>
<path d="M52.4691 115.291C53.5819 115.291 54.484 114.389 54.484 113.276C54.484 112.163 53.5819 111.261 52.4691 111.261C51.3562 111.261 50.4541 112.163 50.4541 113.276C50.4541 114.389 51.3562 115.291 52.4691 115.291Z" fill="#EE781D"/>
<path d="M61.8386 124.321C64.506 124.321 66.6684 122.158 66.6684 119.49C66.6684 116.823 64.506 114.66 61.8386 114.66C59.1712 114.66 57.0088 116.823 57.0088 119.49C57.0088 122.158 59.1712 124.321 61.8386 124.321Z" fill="#EE781D"/>
<path d="M70.2546 45.8494C83.9649 26.5274 92.4765 9.01654 89.2656 6.7377L85.5868 4.12676C82.3758 1.84784 68.6584 15.664 54.948 34.986C41.2377 54.3079 32.7262 71.8186 35.9372 74.0976L39.6161 76.7085C42.8269 78.9874 56.5442 65.1713 70.2546 45.8494Z" fill="#9B2C2C"/>
<path d="M66.5775 43.2377C80.2878 23.9157 88.7992 6.40483 85.5883 4.12598C82.3774 1.84713 68.66 15.6633 54.9497 34.9852C41.2394 54.3072 32.728 71.8181 35.9389 74.0969C39.1498 76.3758 52.8672 62.5596 66.5775 43.2377Z" fill="#F56565"/>
<path d="M63.5154 28.8157C67.3296 31.5228 56.0945 47.3563 52.2803 44.6492C48.4661 41.9422 47.8891 36.2033 50.9916 31.831C54.094 27.4587 59.7011 26.1087 63.5154 28.8157Z" fill="#9B2C2C"/>
<path d="M36.4785 88.7847L46.5478 176.88H46.6569C46.6569 179.883 61.3048 182.318 79.3736 182.318C97.4424 182.318 112.09 179.883 112.09 176.88H112.2L122.269 88.7847H36.4785Z" fill="#F56565"/>
<path d="M79.3737 95.9149C103.064 95.9149 122.269 92.7227 122.269 88.7851C122.269 84.8474 103.064 81.6553 79.3737 81.6553C55.6833 81.6553 36.4785 84.8474 36.4785 88.7851C36.4785 92.7227 55.6833 95.9149 79.3737 95.9149Z" fill="#9B2C2C"/>
<path d="M81.5516 108.571H79.6257C79.1453 108.571 78.7559 108.96 78.7559 109.441V171.692C78.7559 172.173 79.1453 172.562 79.6257 172.562H81.5516C82.032 172.562 82.4215 172.173 82.4215 171.692V109.441C82.4215 108.96 82.032 108.571 81.5516 108.571Z" fill="#9B2C2C"/>
<path d="M100.132 172.647L97.8148 172.326C97.445 172.275 97.1657 171.629 97.1911 170.883L99.2711 109.743C99.2964 108.997 99.6168 108.434 99.9867 108.485L102.304 108.806C102.674 108.857 102.953 109.503 102.928 110.249L100.848 171.389C100.822 172.135 100.502 172.698 100.132 172.647Z" fill="#9B2C2C"/>
<path d="M59.7103 172.647L62.0275 172.326C62.3974 172.275 62.6767 171.629 62.6513 170.883L60.5713 109.743C60.5459 108.997 60.2255 108.434 59.8557 108.485L57.5385 108.806C57.1686 108.857 56.8893 109.503 56.9147 110.249L58.9947 171.389C59.02 172.135 59.3405 172.698 59.7103 172.647Z" fill="#9B2C2C"/>
<path d="M98.2081 77.5067L95.1901 87.7397L69.1028 80.0445C68.964 80.0035 68.8346 79.9356 68.722 79.8447C68.6094 79.7537 68.5159 79.6415 68.4467 79.5144C68.3775 79.3872 68.334 79.2477 68.3187 79.1038C68.3034 78.9599 68.3166 78.8143 68.3575 78.6755L80.5664 37.2781C80.6074 37.1393 80.6752 37.0099 80.7662 36.8973C80.8571 36.7847 80.9694 36.6912 81.0965 36.622C81.2236 36.5528 81.3631 36.5093 81.507 36.494C81.6509 36.4787 81.7964 36.4919 81.9352 36.5328L117.24 46.947C117.379 46.9879 117.508 47.0558 117.621 47.1468C117.733 47.2377 117.827 47.35 117.896 47.4771C117.965 47.6042 118.009 47.7437 118.024 47.8877C118.039 48.0316 118.026 48.1771 117.985 48.3159L108.482 80.5374L98.2081 77.5067Z" fill="#C53030"/>
<path d="M95.1904 87.7398L98.2084 77.5068L108.482 80.5373L95.1904 87.7398Z" fill="white"/>
<path d="M97.2612 49.6316L84.2598 45.7964L82.5092 51.7322L95.5106 55.5674L97.2612 49.6316Z" fill="white"/>
<path d="M99.6201 53.5537L109.577 56.4909" stroke="white" stroke-width="3" stroke-miterlimit="10"/>
<path d="M76.7617 71.686L86.7189 74.6232" stroke="white" stroke-width="3" stroke-miterlimit="10"/>
<path d="M81.1436 56.3623L107.337 64.0888" stroke="white" stroke-width="3" stroke-miterlimit="10"/>
<path d="M79.6406 61.458L105.834 69.1845" stroke="white" stroke-width="3" stroke-miterlimit="10"/>
<path d="M78.1377 66.5532L104.331 74.2797" stroke="white" stroke-width="3" stroke-miterlimit="10"/>
</svg>
