<svg width="1440" height="960" viewBox="0 0 1440 960" fill="none" xmlns="http://www.w3.org/2000/svg">
<g clip-path="url(#clip0_31_5)">
<rect width="1440" height="960" fill="url(#paint0_linear_31_5)"/>
<g filter="url(#filter0_f_31_5)">
<path d="M104.75 339.5C49.25 339.5 8.5 301.75 8.5 248.5C8.5 195.25 49.25 157.5 104.75 157.5C137 157.5 163 169.25 180 190.5L148.5 219C137.5 205.75 124 198.5 107.25 198.5C78.5 198.5 58.5 218.5 58.5 248.5C58.5 278.5 78.5 298.5 107.25 298.5C124 298.5 137.5 291.25 148.5 278L180 306.5C163 327.75 137 339.5 104.75 339.5Z" fill="white"/>
</g>
<g filter="url(#filter1_f_31_5)">
<path d="M374.15 785.7H402.65V867H375.5V858.3C369.35 865.05 360.65 868.35 351.35 868.35C331.4 868.35 316.85 856.95 316.85 831.15V785.7H345.35V826.5C345.35 839.1 350.3 844.05 358.85 844.05C367.25 844.05 374.15 838.5 374.15 824.85V785.7Z" fill="white"/>
</g>
<path d="M992.18 764.41C1005.41 764.41 1016.12 774.13 1016.12 789.61C1016.12 805.09 1005.41 814.81 992.18 814.81C986.51 814.81 981.92 813.1 978.59 809.68V831.46H961.49V765.22H977.78V770.08C981.02 766.21 985.79 764.41 992.18 764.41ZM988.58 801.22C994.34 801.22 998.84 796.99 998.84 789.61C998.84 782.23 994.34 778 988.58 778C982.82 778 978.32 782.23 978.32 789.61C978.32 796.99 982.82 801.22 988.58 801.22Z" fill="white"/>
<g filter="url(#filter2_f_31_5)">
<path d="M510.46 46.99C515.53 40.62 523.72 37.37 534.12 37.37V59.6C531.91 59.34 530.35 59.21 528.53 59.21C518.52 59.21 511.63 64.28 511.63 76.63V109H486.93V38.54H510.46V46.99Z" fill="white"/>
</g>
<path d="M930.22 139.81C921.94 139.81 913.39 137.74 908.62 134.77L913.75 123.07C918.25 125.86 924.82 127.57 930.76 127.57C936.52 127.57 938.41 126.31 938.41 124.24C938.41 117.67 909.61 125.14 909.61 105.61C909.61 96.43 918.07 89.41 933.37 89.41C940.21 89.41 947.77 90.85 952.63 93.55L947.5 105.16C942.64 102.46 937.78 101.56 933.46 101.56C927.7 101.56 925.63 103.18 925.63 104.98C925.63 111.73 954.34 104.44 954.34 123.79C954.34 132.79 946.06 139.81 930.22 139.81Z" fill="white"/>
<g filter="url(#filter3_f_31_5)">
<path d="M1168.82 422.37C1185.33 422.37 1197.94 431.86 1197.94 453.7V494H1173.24V457.73C1173.24 447.59 1168.82 443.3 1161.67 443.3C1153.74 443.3 1147.63 448.24 1147.63 459.94V494H1122.93V397.54H1147.63V430.04C1153.09 424.97 1160.5 422.37 1168.82 422.37Z" fill="white"/>
</g>
<g filter="url(#filter4_f_31_5)">
<path d="M1351.6 756.7C1404.4 756.7 1434.7 780.1 1434.7 831.7V922H1381.6V901C1373.5 916.6 1357.3 924.7 1333.6 924.7C1294.6 924.7 1273 902.8 1273 874.6C1273 844.6 1294.9 826 1345.3 826H1377.7C1376.8 809.5 1365.7 800.2 1343.2 800.2C1327.6 800.2 1310.2 805.6 1299.1 814.3L1279.9 775.6C1298.5 763.3 1326.1 756.7 1351.6 756.7ZM1349.5 888.7C1362.1 888.7 1373.2 882.7 1377.7 869.8V855.7H1353.1C1334.8 855.7 1328.2 862.3 1328.2 872.2C1328.2 881.8 1336 888.7 1349.5 888.7Z" fill="white"/>
</g>
<path d="M182.28 562.41C198.12 562.41 207.21 569.43 207.21 584.91V612H191.28V605.7C188.85 610.38 183.99 612.81 176.88 612.81C165.18 612.81 158.7 606.24 158.7 597.78C158.7 588.78 165.27 583.2 180.39 583.2H190.11C189.84 578.25 186.51 575.46 179.76 575.46C175.08 575.46 169.86 577.08 166.53 579.69L160.77 568.08C166.35 564.39 174.63 562.41 182.28 562.41ZM181.65 602.01C185.43 602.01 188.76 600.21 190.11 596.34V592.11H182.73C177.24 592.11 175.26 594.09 175.26 597.06C175.26 599.94 177.6 602.01 181.65 602.01Z" fill="white"/>
<g filter="url(#filter5_f_31_5)">
<path d="M1314.3 3.35C1336.35 3.35 1354.2 19.55 1354.2 45.35C1354.2 71.15 1336.35 87.35 1314.3 87.35C1304.85 87.35 1297.2 84.5 1291.65 78.8V115.1H1263.15V4.69999H1290.3V12.8C1295.7 6.35 1303.65 3.35 1314.3 3.35ZM1308.3 64.7C1317.9 64.7 1325.4 57.65 1325.4 45.35C1325.4 33.05 1317.9 26 1308.3 26C1298.7 26 1291.2 33.05 1291.2 45.35C1291.2 57.65 1298.7 64.7 1308.3 64.7Z" fill="white"/>
</g>
</g>
<defs>
<filter id="filter0_f_31_5" x="-16.5" y="132.5" width="221.5" height="232" filterUnits="userSpaceOnUse" color-interpolation-filters="sRGB">
<feFlood flood-opacity="0" result="BackgroundImageFix"/>
<feBlend mode="normal" in="SourceGraphic" in2="BackgroundImageFix" result="shape"/>
<feGaussianBlur stdDeviation="12.5" result="effect1_foregroundBlur_31_5"/>
</filter>
<filter id="filter1_f_31_5" x="308.85" y="777.7" width="101.8" height="98.65" filterUnits="userSpaceOnUse" color-interpolation-filters="sRGB">
<feFlood flood-opacity="0" result="BackgroundImageFix"/>
<feBlend mode="normal" in="SourceGraphic" in2="BackgroundImageFix" result="shape"/>
<feGaussianBlur stdDeviation="4" result="effect1_foregroundBlur_31_5"/>
</filter>
<filter id="filter2_f_31_5" x="482.93" y="33.37" width="55.1899" height="79.63" filterUnits="userSpaceOnUse" color-interpolation-filters="sRGB">
<feFlood flood-opacity="0" result="BackgroundImageFix"/>
<feBlend mode="normal" in="SourceGraphic" in2="BackgroundImageFix" result="shape"/>
<feGaussianBlur stdDeviation="2" result="effect1_foregroundBlur_31_5"/>
</filter>
<filter id="filter3_f_31_5" x="1118.93" y="393.54" width="83.01" height="104.46" filterUnits="userSpaceOnUse" color-interpolation-filters="sRGB">
<feFlood flood-opacity="0" result="BackgroundImageFix"/>
<feBlend mode="normal" in="SourceGraphic" in2="BackgroundImageFix" result="shape"/>
<feGaussianBlur stdDeviation="2" result="effect1_foregroundBlur_31_5"/>
</filter>
<filter id="filter4_f_31_5" x="1248" y="731.7" width="211.7" height="218" filterUnits="userSpaceOnUse" color-interpolation-filters="sRGB">
<feFlood flood-opacity="0" result="BackgroundImageFix"/>
<feBlend mode="normal" in="SourceGraphic" in2="BackgroundImageFix" result="shape"/>
<feGaussianBlur stdDeviation="12.5" result="effect1_foregroundBlur_31_5"/>
</filter>
<filter id="filter5_f_31_5" x="1255.15" y="-4.64999" width="107.05" height="127.75" filterUnits="userSpaceOnUse" color-interpolation-filters="sRGB">
<feFlood flood-opacity="0" result="BackgroundImageFix"/>
<feBlend mode="normal" in="SourceGraphic" in2="BackgroundImageFix" result="shape"/>
<feGaussianBlur stdDeviation="4" result="effect1_foregroundBlur_31_5"/>
</filter>
<linearGradient id="paint0_linear_31_5" x1="246" y1="5.95115e-07" x2="992.5" y2="960" gradientUnits="userSpaceOnUse">
<stop stop-color="#E03321"/>
<stop offset="1" stop-color="#952419"/>
</linearGradient>
<clipPath id="clip0_31_5">
<rect width="1440" height="960" fill="white"/>
</clipPath>
</defs>
</svg>
