<svg width="256" height="223" viewBox="0 0 256 223" fill="none" xmlns="http://www.w3.org/2000/svg">
<path d="M197.828 133.051V133.013C192.639 131.29 184.677 131.875 183.494 132.581C182.237 133.423 181.156 134.503 180.314 135.76C177.519 139.726 175.516 144.194 174.413 148.918L117.973 154.165C115.893 149.675 112.758 145.649 109.61 143.22C108.71 142.467 107.674 141.895 106.557 141.535C106.066 141.476 105.568 141.493 105.082 141.586C103.034 135.652 100.134 129.929 96.5093 129.566C88.878 128.803 75.5612 131.36 71.93 138.762C68.2987 146.165 67.1604 164.645 67.1604 164.645L64.6166 167.189C62.7613 163.575 60.1807 160.381 57.0361 157.809C56.1396 157.051 55.1022 156.479 53.9835 156.124C53.3476 155.945 50.8038 156.34 48.1392 157.211C48.0311 157.109 47.9293 157.007 47.8149 156.912C45.2711 154.782 40.0563 153.618 37.1437 159.049C34.231 164.48 37.7287 174.763 39.4712 177.091C40.3175 178.28 41.3787 179.3 42.6001 180.099C44.6542 185.186 48.3236 191.673 53.9708 191.972C55.9051 192.076 57.8392 191.763 59.642 191.054C61.4447 190.345 63.074 189.257 64.4194 187.864C68.0825 184.048 68.4768 178.687 67.0968 173.44L67.6882 172.575C67.6882 172.575 69.0046 174.452 74.0477 173.695C75.5096 173.544 76.8956 172.969 78.0351 172.041C80.4008 178.076 84.2228 184.124 90.2961 185.027C92.9026 185.426 95.5645 185.259 98.1005 184.537C100.637 183.815 102.987 182.555 104.993 180.843C106.159 179.836 107.176 178.669 108.014 177.377C111.414 177.189 114.618 175.721 116.98 173.269C119.095 171.014 120.304 168.059 120.376 164.97L127.887 164.092C132.602 166.195 137.745 167.158 142.902 166.903C147.839 166.586 152.513 164.562 156.123 161.179L173.236 159.717C173.523 166.35 175.907 172.436 181.504 175.787C183.646 177.066 186.041 177.865 188.522 178.13C191.003 178.394 193.512 178.118 195.876 177.32C203.768 174.674 205.638 162.947 206.147 155.818C206.935 144.371 203.285 134.673 197.828 133.051Z" fill="#263238" stroke="#263238" stroke-width="0.75" stroke-linecap="round" stroke-linejoin="round"/>
<path d="M93.3424 181.345C92.6862 182.184 91.8493 182.864 90.894 183.335" stroke="white" stroke-width="0.5" stroke-linecap="round" stroke-linejoin="round"/>
<path d="M96.4267 166.273C96.4267 166.273 97.1835 174.541 94.3662 179.787" stroke="white" stroke-width="0.5" stroke-linecap="round" stroke-linejoin="round"/>
<path d="M98.6588 175.405C97.9402 178.585 96.5093 181.669 93.7366 183.037" stroke="white" stroke-width="0.5" stroke-linecap="round" stroke-linejoin="round"/>
<path d="M102.112 165.644C102.112 165.644 103.384 179.386 96.5856 182.706" stroke="white" stroke-width="0.5" stroke-linecap="round" stroke-linejoin="round"/>
<path d="M104.961 165.326C104.961 165.326 106.233 179.075 99.4283 182.388" stroke="white" stroke-width="0.5" stroke-linecap="round" stroke-linejoin="round"/>
<path d="M190.757 174.96C190.026 175.883 189.118 176.651 188.086 177.218" stroke="white" stroke-width="0.5" stroke-linecap="round" stroke-linejoin="round"/>
<path d="M195.87 157.796C195.87 157.796 195.463 167.202 191.971 173.186" stroke="white" stroke-width="0.5" stroke-linecap="round" stroke-linejoin="round"/>
<path d="M196.779 168.213C195.634 171.831 193.803 175.342 190.909 176.868" stroke="white" stroke-width="0.5" stroke-linecap="round" stroke-linejoin="round"/>
<path d="M201.517 157.096C201.517 157.096 200.836 172.766 193.733 176.518" stroke="white" stroke-width="0.5" stroke-linecap="round" stroke-linejoin="round"/>
<path d="M204.353 156.753C204.353 156.753 203.673 172.416 196.569 176.175" stroke="white" stroke-width="0.5" stroke-linecap="round" stroke-linejoin="round"/>
<path d="M55.7643 189.848C55.2231 190.677 54.5094 191.38 53.672 191.908" stroke="white" stroke-width="0.5" stroke-linecap="round" stroke-linejoin="round"/>
<path d="M56.769 176.474C56.769 176.474 58.5624 183.469 56.54 188.36" stroke="white" stroke-width="0.5" stroke-linecap="round" stroke-linejoin="round"/>
<path d="M60.095 183.984C59.8088 186.814 58.8231 189.663 56.3619 191.228" stroke="white" stroke-width="0.5" stroke-linecap="round" stroke-linejoin="round"/>
<path d="M62.1364 175.113C62.1364 175.113 65.1253 186.719 59.0457 190.541" stroke="white" stroke-width="0.5" stroke-linecap="round" stroke-linejoin="round"/>
<path d="M64.82 174.426C64.82 174.426 67.8153 186.032 61.7292 189.86" stroke="white" stroke-width="0.5" stroke-linecap="round" stroke-linejoin="round"/>
<path d="M86.7411 161.561C88.2546 170.216 87.3071 177.618 84.6361 178.095C81.9651 178.572 78.5628 171.92 77.0492 163.265C75.5357 154.61 76.4832 147.207 79.1606 146.73C81.8379 146.253 85.2275 152.899 86.7411 161.561Z" fill="#D82E1D" stroke="#263238" stroke-linecap="round" stroke-linejoin="round"/>
<path d="M85.3929 161.745C85.8126 165.065 85.4247 167.844 84.5153 167.958C83.6059 168.073 82.5375 165.478 82.1178 162.159C81.6981 158.839 82.1178 156.053 82.9954 155.939C83.873 155.824 84.9732 158.425 85.3929 161.745Z" fill="#D82E1D" stroke="#263238" stroke-linecap="round" stroke-linejoin="round"/>
<path d="M79.0144 153.809C79.1046 152.694 79.2811 151.589 79.5422 150.502" stroke="#263238" stroke-width="0.75" stroke-linecap="round" stroke-linejoin="round"/>
<path d="M83.2308 174.973C81.471 171.449 80.2124 167.697 79.4914 163.825C79.0125 161.086 78.8186 158.305 78.9127 155.526" stroke="#263238" stroke-width="0.75" stroke-linecap="round" stroke-linejoin="round"/>
<path d="M49.3145 187.284C51.2369 186.751 51.397 181.273 49.672 175.049C47.947 168.824 44.9901 164.21 43.0676 164.743C41.1452 165.276 40.9851 170.754 42.7101 176.978C44.4351 183.202 47.392 187.816 49.3145 187.284Z" fill="#D82E1D" stroke="#263238" stroke-linecap="round" stroke-linejoin="round"/>
<path d="M49.0422 175.297C49.6464 177.663 49.6146 179.711 48.9659 179.876C48.3172 180.041 47.3124 178.254 46.7083 175.895C46.1041 173.535 46.1359 171.475 46.7846 171.316C47.4333 171.157 48.4381 172.931 49.0422 175.297Z" stroke="#263238" stroke-width="0.75" stroke-linecap="round" stroke-linejoin="round"/>
<path d="M43.7128 170.127C43.6774 169.312 43.705 168.496 43.7955 167.685" stroke="#263238" stroke-width="0.75" stroke-linecap="round" stroke-linejoin="round"/>
<path d="M48.6669 185.065C47.0767 182.673 45.8287 180.07 44.9593 177.332C44.3651 175.394 43.9729 173.399 43.7892 171.38" stroke="#263238" stroke-width="0.75" stroke-linecap="round" stroke-linejoin="round"/>
<path d="M185.637 68.8207C178.934 54.9888 176.041 53.7869 171.583 53.5579C167.125 53.329 156.6 52.0189 144.873 53.895C144.873 53.895 112.16 53.3226 86.8492 68.6553C60.4256 84.6621 47.5667 98.7229 45.767 106.011C43.9673 113.299 37.824 132.288 34.9114 143.176C31.9987 154.063 30.0146 163.653 33.7285 172.467C35.9734 177.797 38.3646 179.399 41.4362 179.374C40.9662 178.53 40.552 177.657 40.1961 176.76C37.1436 169.199 37.5124 158.381 40.9974 157.682C44.4824 156.982 46.5619 164.225 48.6669 172.124C49.0848 173.865 49.6507 175.567 50.3585 177.211C55.5669 175.246 63.9106 170.852 75.0015 166.286C73.9486 159.349 73.925 152.294 74.9315 145.351C76.5723 134.495 83.5104 132.097 86.5312 138.705C89.0305 144.149 89.9589 156.333 90.207 160.442C94.6586 158.909 98.3852 157.898 100.681 157.758C100.681 157.758 138.634 149.185 166.61 148.498C194.585 147.812 208.582 147.144 208.582 147.144C208.582 147.144 192.34 82.6271 185.637 68.8207Z" fill="white"/>
<mask id="mask0_374_696" style="mask-type:luminance" maskUnits="userSpaceOnUse" x="31" y="52" width="178" height="128">
<path d="M185.637 68.8207C178.934 54.9888 176.041 53.7869 171.583 53.5579C167.125 53.329 156.6 52.0189 144.873 53.895C144.873 53.895 112.16 53.3226 86.8492 68.6553C60.4256 84.6621 47.5667 98.7229 45.767 106.011C43.9673 113.299 37.824 132.288 34.9114 143.176C31.9987 154.063 30.0146 163.653 33.7285 172.467C35.9734 177.797 38.3646 179.399 41.4362 179.374C40.9662 178.53 40.552 177.657 40.1961 176.76C37.1436 169.199 37.5124 158.381 40.9974 157.682C44.4824 156.982 46.5619 164.225 48.6669 172.124C49.0848 173.865 49.6507 175.567 50.3585 177.211C55.5669 175.246 63.9106 170.852 75.0015 166.286C73.9486 159.349 73.925 152.294 74.9315 145.351C76.5723 134.495 83.5104 132.097 86.5312 138.705C89.0305 144.149 89.9589 156.333 90.207 160.442C94.6586 158.909 98.3852 157.898 100.681 157.758C100.681 157.758 138.634 149.185 166.61 148.498C194.585 147.812 208.582 147.144 208.582 147.144C208.582 147.144 192.34 82.6271 185.637 68.8207Z" fill="white"/>
</mask>
<g mask="url(#mask0_374_696)">
<path d="M96.1975 135.557C96.1975 135.557 92.35 140.823 87.6694 141.948C89.3229 148.015 90.0034 156.995 90.2132 160.391C94.1879 159.023 97.5648 158.063 99.8796 157.783C100.217 155.799 100.42 154.534 100.42 154.534L96.1975 135.557Z" fill="#D82E1D"/>
<path opacity="0.2" d="M48.8321 172.696C50.6001 172.874 51.7766 173.638 55.3697 172.741C61.7291 171.157 57.1567 158.884 67.7071 153.872C69.7551 152.84 71.9838 152.213 74.27 152.028C74.3649 149.782 74.5772 147.543 74.906 145.319C75.1861 143.135 75.831 141.013 76.8138 139.042C73.933 138.158 73.4115 137.312 68.502 139.646C57.9453 144.657 59.5288 157.586 53.2011 159.17C48.1517 160.442 47.8719 158.413 44.0371 159.354C45.8305 161.898 47.2168 166.852 48.6159 172.073C48.724 172.308 48.7749 172.48 48.8321 172.696Z" fill="#D82E1D"/>
<g style="mix-blend-mode:multiply">
<path opacity="0.2" d="M38.447 161.828C35.4899 163.863 33.7283 166.915 32.7235 169.491C32.9961 170.507 33.3317 171.505 33.7283 172.48C35.9732 177.809 38.3644 179.412 41.436 179.386C40.966 178.543 40.5518 177.67 40.1959 176.773C38.2562 171.959 37.7348 165.834 38.447 161.828Z" fill="#D82E1D"/>
</g>
<g style="mix-blend-mode:multiply" opacity="0.2">
<path d="M171.583 53.5577L170.432 53.4878C124.052 65.3546 105.183 121.254 98.6904 148.193C99.0402 150.87 99.4218 153.497 99.8351 156.053C100.624 155.901 100.077 157.758 100.681 157.726C100.681 157.726 138.634 149.153 166.61 148.466C194.585 147.78 208.582 147.112 208.582 147.112C208.582 147.112 192.34 82.6269 185.637 68.8205C178.934 55.0141 176.041 53.7613 171.583 53.5577Z" fill="#D82E1D"/>
</g>
</g>
<path d="M185.637 68.8207C178.934 54.9888 176.041 53.7869 171.583 53.5579C167.125 53.329 156.6 52.0189 144.873 53.895C144.873 53.895 112.16 53.3226 86.8492 68.6553C60.4256 84.6621 47.5667 98.7229 45.767 106.011C43.9673 113.299 37.824 132.288 34.9114 143.176C31.9987 154.063 30.0146 163.653 33.7285 172.467C35.9734 177.797 38.3646 179.399 41.4362 179.374C40.9662 178.53 40.552 177.657 40.1961 176.76C37.1436 169.199 37.5124 158.381 40.9974 157.682C44.4824 156.982 46.5619 164.225 48.6669 172.124C49.0848 173.865 49.6507 175.567 50.3585 177.211C55.5669 175.246 63.9106 170.852 75.0015 166.286C73.9486 159.349 73.925 152.294 74.9315 145.351C76.5723 134.495 83.5104 132.097 86.5312 138.705C89.0305 144.149 89.9589 156.333 90.207 160.442C94.6586 158.909 98.3852 157.898 100.681 157.758C100.681 157.758 138.634 149.185 166.61 148.498C194.585 147.812 208.582 147.144 208.582 147.144C208.582 147.144 192.34 82.6271 185.637 68.8207Z" stroke="#263238" stroke-linecap="round" stroke-linejoin="round"/>
<path opacity="0.2" d="M46.8099 138.622C47.2465 138.986 47.7779 139.216 48.3413 139.287C48.9047 139.358 49.4767 139.267 49.9897 139.023C51.9929 138.222 52.1964 135.207 52.1964 135.207L55.1981 135.01L55.8022 125.592L49.1884 128.193C49.1884 128.193 47.4141 137.42 46.8099 138.622Z" fill="#D82E1D"/>
<path d="M38.1358 166.165C36.2368 167.174 34.4413 168.367 32.7748 169.726C33.0385 170.658 33.357 171.573 33.7287 172.467C35.9736 177.797 38.3648 179.399 41.4364 179.374C40.9664 178.53 40.5522 177.657 40.1963 176.76C38.8926 173.377 38.1951 169.79 38.1358 166.165Z" fill="#263238" stroke="#263238" stroke-width="0.75" stroke-linecap="round" stroke-linejoin="round"/>
<path d="M48.2662 160.912C48.0941 160.911 47.9254 160.864 47.7777 160.776C47.63 160.687 47.5088 160.561 47.4267 160.41C47.311 160.19 47.2861 159.934 47.3575 159.696C47.4288 159.458 47.5907 159.258 47.8083 159.138C47.9609 159.055 60.3365 151.386 70.5879 145.936C70.6986 145.877 70.8198 145.84 70.9445 145.828C71.0693 145.816 71.1952 145.829 71.3151 145.865C71.435 145.902 71.5464 145.962 71.6432 146.042C71.7399 146.121 71.82 146.219 71.8789 146.33C71.9378 146.441 71.9743 146.562 71.9863 146.686C71.9984 146.811 71.9857 146.937 71.9491 147.057C71.9125 147.177 71.8527 147.288 71.7729 147.385C71.6932 147.482 71.5953 147.562 71.4846 147.621C61.2395 153.065 48.8703 160.728 48.7177 160.81C48.5785 160.883 48.423 160.918 48.2662 160.912Z" fill="#263238" stroke="#263238" stroke-miterlimit="10"/>
<path d="M64.4449 97.1647L64.0061 108.084C63.9107 109.572 64.7756 110.291 65.9139 109.648L83.4979 98.2013C84.1443 97.7506 84.6655 97.1429 85.0126 96.4354C85.3597 95.7279 85.5212 94.9437 85.482 94.1567L85.3739 81.9783C85.2467 80.8717 84.4963 80.4202 83.5742 80.8972C80.2673 82.6079 73.8824 88.395 66.251 93.7815C65.7339 94.1913 65.3067 94.7031 64.996 95.2852C64.6853 95.8672 64.4977 96.507 64.4449 97.1647Z" fill="#D82E1D" stroke="#263238" stroke-linecap="round" stroke-linejoin="round"/>
<path d="M76.3242 94.0867L84.9159 96.1853" stroke="#263238" stroke-linecap="round" stroke-linejoin="round"/>
<path d="M64.572 109.699L69.8758 97.9854" stroke="#263238" stroke-linecap="round" stroke-linejoin="round"/>
<path d="M64.5465 96.8023L72.3432 97.7753C73.1509 97.8962 74.1557 97.2284 74.887 96.071L85.0622 81.5015" stroke="#263238" stroke-linecap="round" stroke-linejoin="round"/>
<path d="M108.077 76.878L109.883 104.224C109.93 105.013 110.137 105.785 110.492 106.491C110.847 107.198 111.342 107.825 111.947 108.334C112.553 108.842 113.255 109.223 114.012 109.451C114.769 109.679 115.565 109.751 116.351 109.661L177.096 101.775C177.933 101.679 178.739 101.402 179.459 100.963C180.178 100.525 180.794 99.9356 181.263 99.2359C181.732 98.5363 182.044 97.7431 182.177 96.9111C182.309 96.0792 182.26 95.2284 182.031 94.4175L174.362 67.3007C173.999 66.0121 173.202 64.8884 172.105 64.1201C171.009 63.3517 169.681 62.9858 168.346 63.0844C158.501 63.8093 134.889 65.927 112.599 70.8938C111.26 71.1978 110.072 71.9652 109.245 73.0602C108.418 74.1553 108.004 75.5075 108.077 76.878Z" fill="#D82E1D" stroke="#263238" stroke-linecap="round" stroke-linejoin="round"/>
<path d="M153.229 85.3552L180.963 98.4939" stroke="#263238" stroke-linecap="round" stroke-linejoin="round"/>
<path d="M112.185 108.459L135.607 87.4983" stroke="#263238" stroke-linecap="round" stroke-linejoin="round"/>
<path d="M108.281 76.1594L141.89 89.9785C143.152 90.494 144.537 90.632 145.876 90.3757C147.215 90.1194 148.45 89.48 149.433 88.5349L173.389 65.9143" stroke="#263238" stroke-linecap="round" stroke-linejoin="round"/>
<path d="M175.403 105.646C181.112 105.506 185.628 100.843 185.49 95.2323C185.352 89.6214 180.612 85.1868 174.903 85.3273C169.193 85.4679 164.677 90.1303 164.815 95.7412C164.953 101.352 169.694 105.787 175.403 105.646Z" fill="#263238" stroke="#263238" stroke-width="0.75" stroke-linecap="round" stroke-linejoin="round"/>
<path d="M174.038 100.338H174.006C173.805 100.339 173.607 100.292 173.428 100.201C173.249 100.11 173.094 99.9786 172.975 99.8166L168.912 94.2075C168.714 93.9343 168.632 93.5935 168.685 93.2602C168.738 92.9268 168.922 92.6282 169.195 92.4301C169.468 92.2319 169.809 92.1504 170.142 92.2034C170.475 92.2565 170.774 92.4398 170.972 92.7131L174.006 96.8976L181.256 86.8814C181.454 86.6082 181.752 86.4249 182.086 86.3718C182.419 86.3187 182.76 86.4002 183.033 86.5984C183.306 86.7966 183.49 87.0952 183.543 87.4285C183.596 87.7619 183.514 88.1027 183.316 88.3759L175.049 99.8229C174.932 99.9812 174.779 100.11 174.604 100.2C174.428 100.289 174.234 100.336 174.038 100.338Z" fill="white" stroke="#263238" stroke-linecap="round" stroke-linejoin="round"/>
<path d="M135.626 127.748C135.626 127.748 157.249 123.601 172.066 123.894L172.956 127.455C172.956 127.455 141.846 128.93 135.919 131.907L135.626 127.748Z" fill="#263238" stroke="#263238" stroke-width="0.75" stroke-linecap="round" stroke-linejoin="round"/>
<path d="M135.919 131.894L136.555 135.455C136.621 135.852 136.839 136.207 137.164 136.445C137.488 136.683 137.893 136.784 138.291 136.727C143.716 135.951 162.756 133.338 172.632 133.579C172.875 133.587 173.117 133.537 173.337 133.433C173.558 133.329 173.75 133.175 173.9 132.983C174.049 132.791 174.151 132.566 174.197 132.327C174.243 132.088 174.232 131.842 174.165 131.608L172.982 127.468" stroke="#263238" stroke-linecap="round" stroke-linejoin="round"/>
<path d="M57.0169 125.604L56.896 110.914L57.6274 95.8103C57.6328 95.6658 57.5946 95.523 57.5176 95.4006C57.4407 95.2782 57.3286 95.1819 57.196 95.1242C57.0635 95.0665 56.9166 95.0501 56.7746 95.0772C56.6325 95.1043 56.502 95.1736 56.4 95.2761C53.6654 98.0742 48.9849 102.31 47.5985 105.782C45.7988 110.278 43.6683 132.409 43.6683 132.409L57.0169 125.604Z" fill="#263238" stroke="#263238" stroke-width="0.75" stroke-linecap="round" stroke-linejoin="round"/>
<path d="M40.0817 122.654H37.9513C36.866 122.654 35.9862 123.533 35.9862 124.619V135.595C35.9862 136.68 36.866 137.56 37.9513 137.56H40.0817C41.167 137.56 42.0468 136.68 42.0468 135.595V124.619C42.0468 123.533 41.167 122.654 40.0817 122.654Z" fill="#263238" stroke="#263238" stroke-width="0.75" stroke-linecap="round" stroke-linejoin="round"/>
<path d="M41.4235 112.402C42.4319 112.595 43.4169 112.896 44.3615 113.299C45.1448 113.684 45.8567 114.2 46.4665 114.825L49.6463 110.621C49.6463 110.621 44.9848 108.669 44.1008 107.48L43.2232 106.284L41.4235 112.402Z" fill="white"/>
<mask id="mask1_374_696" style="mask-type:luminance" maskUnits="userSpaceOnUse" x="41" y="106" width="9" height="9">
<path d="M41.4235 112.402C42.4319 112.595 43.4169 112.896 44.3615 113.299C45.1448 113.684 45.8567 114.2 46.4665 114.825L49.6463 110.621C49.6463 110.621 44.9848 108.669 44.1008 107.48L43.2232 106.284L41.4235 112.402Z" fill="white"/>
</mask>
<g mask="url(#mask1_374_696)">
<g style="mix-blend-mode:multiply" opacity="0.5">
<path d="M44.0944 107.48L43.2741 106.342L43.1787 106.405L41.4235 112.383C41.4235 112.383 41.7605 112.447 42.2375 112.561L46.7845 109.267C45.7907 108.832 44.8804 108.227 44.0944 107.48Z" fill="#D82E1D"/>
</g>
</g>
<path d="M41.4235 112.402C42.4319 112.595 43.4169 112.896 44.3615 113.299C45.1448 113.684 45.8567 114.2 46.4665 114.825L49.6463 110.621C49.6463 110.621 44.9848 108.669 44.1008 107.48L43.2232 106.284L41.4235 112.402Z" stroke="#263238" stroke-width="0.75" stroke-linecap="round" stroke-linejoin="round"/>
<path d="M48.1392 108.834L44.2535 113.789L44.7814 115.474L50.702 109.324L48.1392 108.834Z" fill="#D82E1D" stroke="#263238" stroke-linecap="round" stroke-linejoin="round"/>
<path d="M41.9197 94.8371C39.2932 92.8021 32.4504 94.0994 31.1086 98.9199C30.2819 101.89 30.7397 106.341 30.7397 106.341L38.5365 104.688L39.1724 105.648C40.4443 107.556 43.198 106.284 43.9102 105.648C44.2981 105.311 44.2727 104.319 44.171 103.499L44.4826 103.429C44.4826 103.429 44.5398 96.8785 41.9197 94.8371Z" fill="#263238" stroke="#263238" stroke-width="0.75" stroke-linecap="round" stroke-linejoin="round"/>
<path d="M39.0069 104.103C35.5848 103.722 32.1208 104.051 28.8317 105.069C23.7441 106.774 22.9619 108.249 26.6059 108.16C30.2499 108.071 39.0069 104.103 39.0069 104.103Z" fill="#263238" stroke="#263238" stroke-width="0.75" stroke-linecap="round" stroke-linejoin="round"/>
<path d="M32.7238 102.253C33.3174 102.253 33.7985 101.595 33.7985 100.783C33.7985 99.9722 33.3174 99.3145 32.7238 99.3145C32.1302 99.3145 31.649 99.9722 31.649 100.783C31.649 101.595 32.1302 102.253 32.7238 102.253Z" fill="#D82E1D"/>
<path d="M56.8962 110.914C56.8962 110.914 49.9326 109.146 47.7895 110.774C45.6463 112.402 45.0994 115.092 45.7862 118.355C46.4731 121.617 48.1456 130.196 48.1456 130.196L57.0171 125.604L56.8962 110.914Z" fill="#263238" stroke="#263238" stroke-width="0.75" stroke-linecap="round" stroke-linejoin="round"/>
<path d="M45.8434 128.829C45.8434 128.829 45.4681 132.123 45.0293 132.587C44.5905 133.051 33.0163 123.328 32.3104 122.412C31.6045 121.496 32.0878 118.227 32.3104 117.204C32.533 116.18 32.1578 115.62 31.0385 116.326C29.9192 117.032 30.2181 119.97 30.2181 119.97C30.2181 119.97 26.8031 119.15 26.1226 119.054C25.4422 118.959 24.8507 119.805 24.9525 120.479C25.0542 121.153 25.9509 121.21 25.9509 121.21C25.7215 122.186 25.7857 123.208 26.1354 124.148C26.7331 125.382 27.4072 126.158 28.6791 126.463C29.9914 126.668 31.32 126.749 32.6475 126.705C32.6475 126.705 38.5618 132.339 40.2788 134.444C41.9959 136.549 45.6144 139.411 47.4141 138.896C49.2139 138.381 50.9309 129.395 50.9309 129.395L45.8434 128.829Z" fill="white"/>
<mask id="mask2_374_696" style="mask-type:luminance" maskUnits="userSpaceOnUse" x="24" y="116" width="27" height="23">
<path d="M45.8434 128.829C45.8434 128.829 45.4681 132.123 45.0293 132.587C44.5905 133.051 33.0163 123.328 32.3104 122.412C31.6045 121.496 32.0878 118.227 32.3104 117.204C32.533 116.18 32.1578 115.62 31.0385 116.326C29.9192 117.032 30.2181 119.97 30.2181 119.97C30.2181 119.97 26.8031 119.15 26.1226 119.054C25.4422 118.959 24.8507 119.805 24.9525 120.479C25.0542 121.153 25.9509 121.21 25.9509 121.21C25.7215 122.186 25.7857 123.208 26.1354 124.148C26.7331 125.382 27.4072 126.158 28.6791 126.463C29.9914 126.668 31.32 126.749 32.6475 126.705C32.6475 126.705 38.5618 132.339 40.2788 134.444C41.9959 136.549 45.6144 139.411 47.4141 138.896C49.2139 138.381 50.9309 129.395 50.9309 129.395L45.8434 128.829Z" fill="white"/>
</mask>
<g mask="url(#mask2_374_696)">
<g style="mix-blend-mode:multiply" opacity="0.5">
<path d="M45.0293 132.587L48.4125 133.713C48.5198 134.422 48.3698 135.147 47.9896 135.756C47.6094 136.365 47.0241 136.817 46.3393 137.032C44.8448 137.528 42.1611 135.83 40.2533 134.4L40.3105 134.47C42.0594 136.581 45.6461 139.436 47.4459 138.921C49.2456 138.406 50.9626 129.42 50.9626 129.42L45.8433 128.784C45.8433 128.784 45.4681 132.123 45.0293 132.587Z" fill="#D82E1D"/>
</g>
</g>
<path d="M45.8434 128.829C45.8434 128.829 45.4681 132.123 45.0293 132.587C44.5905 133.051 33.0163 123.328 32.3104 122.412C31.6045 121.496 32.0878 118.227 32.3104 117.204C32.533 116.18 32.1578 115.62 31.0385 116.326C29.9192 117.032 30.2181 119.97 30.2181 119.97C30.2181 119.97 26.8031 119.15 26.1226 119.054C25.4422 118.959 24.8507 119.805 24.9525 120.479C25.0542 121.153 25.9509 121.21 25.9509 121.21C25.7215 122.186 25.7857 123.208 26.1354 124.148C26.7331 125.382 27.4072 126.158 28.6791 126.463C29.9914 126.668 31.32 126.749 32.6475 126.705C32.6475 126.705 38.5618 132.339 40.2788 134.444C41.9959 136.549 45.6144 139.411 47.4141 138.896C49.2139 138.381 50.9309 129.395 50.9309 129.395L45.8434 128.829Z" stroke="#263238" stroke-width="0.75" stroke-linecap="round" stroke-linejoin="round"/>
<path d="M34.2756 124.199L32.6476 126.73L33.4807 127.296L35.1469 124.911L34.2756 124.199Z" fill="#263238" stroke="#263238" stroke-miterlimit="10"/>
<path d="M33.7158 126.584C34.067 126.584 34.3517 126.299 34.3517 125.948C34.3517 125.597 34.067 125.312 33.7158 125.312C33.3646 125.312 33.0798 125.597 33.0798 125.948C33.0798 126.299 33.3646 126.584 33.7158 126.584Z" fill="white" stroke="#263238" stroke-width="0.75" stroke-linecap="round" stroke-linejoin="round"/>
<path d="M32.158 107.155C32.158 107.155 32.5459 108.116 33.1946 109.801C33.8432 111.486 37.3282 115.041 39.0325 115.245C40.7369 115.448 42.7783 109.254 43.1026 107.976C43.2107 107.556 43.3188 106.882 43.3188 106.882C43.3188 106.882 45.462 105.871 44.9659 104.65C44.4699 103.429 43.4651 102.869 42.9881 103.244C42.5112 103.62 42.4285 105.203 41.7162 105.216C41.004 105.229 40.6161 105.006 39.9865 104.167C39.3569 103.327 32.8321 105.07 32.158 107.155Z" fill="white"/>
<mask id="mask3_374_696" style="mask-type:luminance" maskUnits="userSpaceOnUse" x="32" y="103" width="14" height="13">
<path d="M32.158 107.155C32.158 107.155 32.5459 108.116 33.1946 109.801C33.8432 111.486 37.3282 115.041 39.0325 115.245C40.7369 115.448 42.7783 109.254 43.1026 107.976C43.2107 107.556 43.3188 106.882 43.3188 106.882C43.3188 106.882 45.462 105.871 44.9659 104.65C44.4699 103.429 43.4651 102.869 42.9881 103.244C42.5112 103.62 42.4285 105.203 41.7162 105.216C41.004 105.229 40.6161 105.006 39.9865 104.167C39.3569 103.327 32.8321 105.07 32.158 107.155Z" fill="white"/>
</mask>
<g mask="url(#mask3_374_696)">
<path opacity="0.5" d="M39.9739 104.167C39.3379 103.334 32.8322 105.076 32.1581 107.156L32.5269 108.097C35.0138 106.597 37.7163 105.488 40.5399 104.809C40.3289 104.616 40.1392 104.4 39.9739 104.167Z" fill="#D82E1D"/>
<g style="mix-blend-mode:multiply">
<path opacity="0.5" d="M44.8831 104.478C44.3617 103.384 43.4395 102.888 42.9753 103.244C42.6843 103.624 42.4685 104.056 42.3394 104.516C43.1841 104.422 44.036 104.409 44.8831 104.478Z" fill="#D82E1D"/>
</g>
</g>
<path d="M32.158 107.155C32.158 107.155 32.5459 108.116 33.1946 109.801C33.8432 111.486 37.3282 115.041 39.0325 115.245C40.7369 115.448 42.7783 109.254 43.1026 107.976C43.2107 107.556 43.3188 106.882 43.3188 106.882C43.3188 106.882 45.462 105.871 44.9659 104.65C44.4699 103.429 43.4651 102.869 42.9881 103.244C42.5112 103.62 42.4285 105.203 41.7162 105.216C41.004 105.229 40.6161 105.006 39.9865 104.167C39.3569 103.327 32.8321 105.07 32.158 107.155Z" stroke="#263238" stroke-width="0.75" stroke-linecap="round" stroke-linejoin="round"/>
<path d="M34.4663 107.613C34.5808 108.001 34.5426 108.357 34.39 108.402C34.2373 108.447 34.0148 108.167 33.9003 107.766C33.7858 107.365 33.824 107.022 33.9766 106.977C34.1292 106.933 34.3518 107.238 34.4663 107.613Z" fill="#263238" stroke="#263238" stroke-miterlimit="10"/>
<path d="M33.2833 106.532C34.1737 106.278 34.5552 106.946 34.6633 107.563L34.8287 108.294L35.382 111.124L36.2214 110.768" stroke="#263238" stroke-width="0.5" stroke-linecap="round" stroke-linejoin="round"/>
<path d="M36.9083 106.749C37.1017 106.536 37.3425 106.373 37.611 106.271C37.8795 106.169 38.1682 106.133 38.4537 106.163" stroke="#263238" stroke-width="0.5" stroke-linecap="round" stroke-linejoin="round"/>
<path d="M37.6459 104.987C37.2841 105.063 36.9521 105.242 36.6902 105.503C36.4283 105.763 36.2477 106.095 36.1705 106.456" stroke="#263238" stroke-width="0.5" stroke-linecap="round" stroke-linejoin="round"/>
<path d="M36.9784 111.683C36.9784 111.683 38.8226 111.314 38.9689 109.992" stroke="#263238" stroke-width="0.5" stroke-linecap="round" stroke-linejoin="round"/>
<path d="M52.6352 133.598L43.325 131.004C43.325 131.004 44.1453 115.105 45.5826 112.415C47.8211 108.237 52.9532 110.119 53.9198 115.372C54.8229 120.332 52.6352 133.598 52.6352 133.598Z" fill="#D82E1D" stroke="#263238" stroke-linecap="round" stroke-linejoin="round"/>
<path d="M43.5476 129.236C43.5476 129.236 48.6352 130.406 51.7322 131.423" stroke="#263238" stroke-width="0.5" stroke-linecap="round" stroke-linejoin="round"/>
<path d="M51.6051 109.636C51.6051 109.636 54.6322 109.871 56.61 111.499" stroke="#D82E1D" stroke-width="0.5" stroke-linecap="round" stroke-linejoin="round"/>
<path d="M104.948 150.304C104.948 150.304 91.39 155.087 90.1499 156.391C88.9098 157.694 89.037 162.782 91.9623 165.256C94.8877 167.729 115.74 162.12 130.647 160.486C145.554 158.852 178.279 156.448 191.634 155.799C204.989 155.15 211.062 156.912 212.233 152.747C213.403 148.581 213.257 144.129 210.713 143.226C208.169 142.323 161.821 134.902 104.948 150.304Z" fill="#263238" stroke="#263238" stroke-width="0.75" stroke-linecap="round" stroke-linejoin="round"/>
<path d="M89.1832 159.17C89.1832 159.17 89.8192 164.683 93.2088 165.529C96.5984 166.375 136.879 158.744 160.619 157.898C184.359 157.052 205.135 156.416 205.135 156.416" stroke="white" stroke-width="0.5" stroke-linecap="round" stroke-linejoin="round"/>
<path d="M108.859 161.968C124.605 158.152 156.994 152.759 211.495 154.292" stroke="white" stroke-width="0.5" stroke-linecap="round" stroke-linejoin="round"/>
<path d="M95.9496 165.326C95.9496 165.326 99.5681 164.448 105.069 162.947" stroke="white" stroke-width="0.5" stroke-linecap="round" stroke-linejoin="round"/>
<path d="M99.2694 165.955C99.4405 168.319 99.3766 170.695 99.0786 173.046" stroke="white" stroke-width="0.5" stroke-linecap="round" stroke-linejoin="round"/>
<path d="M98.6906 64.261C98.6906 64.261 95.6572 67.8159 95.4219 71.002" stroke="#263238" stroke-width="0.75" stroke-linecap="round" stroke-linejoin="round"/>
<path d="M95.1037 73.5713C95.1037 73.5713 92.8206 109.89 98.8621 148.543" stroke="#263238" stroke-width="0.75" stroke-linecap="round" stroke-linejoin="round"/>
<path d="M95.8226 115.537C95.8226 115.537 90.894 117.254 90.8304 119.48C90.665 125.464 91.2946 138.234 92.5983 139.474C93.902 140.714 97.953 137.433 97.953 137.433C97.953 137.433 103.677 137.929 104.312 136.644C104.948 135.36 102.564 117.28 102.207 115.703C101.851 114.125 95.8226 115.537 95.8226 115.537Z" fill="#D82E1D" stroke="#263238" stroke-linecap="round" stroke-linejoin="round"/>
<path d="M198.77 124.148C200.052 124.775 201.446 125.142 202.871 125.229C201.294 119.302 199.507 112.701 197.663 106.113C195.997 105.998 193.847 105.998 193.892 106.749C193.924 108.033 197.161 123.22 198.77 124.148Z" fill="#D82E1D" stroke="#263238" stroke-linecap="round" stroke-linejoin="round"/>
<path d="M95.1165 117.407C95.1165 117.407 95.3327 128.854 96.1785 133.306" stroke="#263238" stroke-width="0.75" stroke-linecap="round" stroke-linejoin="round"/>
<path d="M154.565 120.053C154.565 120.053 182.941 115.48 216.004 121.324" stroke="#263238" stroke-linecap="round" stroke-linejoin="round"/>
<path d="M240.952 137.98C242.904 138.565 244.825 139.182 246.675 139.843" stroke="#263238" stroke-linecap="round" stroke-linejoin="round"/>
<path d="M190.006 129.344C190.006 129.344 212.506 130.711 234.052 136.098" stroke="#263238" stroke-linecap="round" stroke-linejoin="round"/>
<path d="M121.527 181.739C140.053 178.908 158.875 178.573 177.491 180.741" stroke="#263238" stroke-linecap="round" stroke-linejoin="round"/>
<path d="M119.2 178.744C119.2 178.744 132.517 177.078 136.847 176.747" stroke="#263238" stroke-linecap="round" stroke-linejoin="round"/>
<path d="M208.385 55.2305C210.293 55.5039 212.201 55.8664 213.93 56.2798" stroke="#263238" stroke-linecap="round" stroke-linejoin="round"/>
<path d="M180.969 54.601C188.805 54.0475 196.672 54.1006 204.499 54.76" stroke="#263238" stroke-linecap="round" stroke-linejoin="round"/>
<path d="M78.3656 131.639C78.3656 131.639 97.3677 122.641 124.86 120.141" stroke="#263238" stroke-linecap="round" stroke-linejoin="round"/>
<path d="M110.367 115.137C110.367 115.137 121.871 112.141 139.372 111.136" stroke="#263238" stroke-linecap="round" stroke-linejoin="round"/>
<path d="M78.0542 178.674C80.3636 182.81 84.0902 185.972 88.5473 187.577" stroke="#263238" stroke-linecap="round" stroke-linejoin="round"/>
<path d="M77.4182 181.536C77.4182 181.536 80.28 185.988 84.0957 187.895" stroke="#263238" stroke-linecap="round" stroke-linejoin="round"/>
<path d="M171.22 165.637C171.22 165.637 173.128 174.54 180.759 178.356" stroke="#263238" stroke-linecap="round" stroke-linejoin="round"/>
<path d="M172.174 173.587C173.687 175.802 175.776 177.561 178.216 178.674" stroke="#263238" stroke-linecap="round" stroke-linejoin="round"/>
<path d="M46.3585 190.732C46.3585 190.732 48.2664 193.911 54.9438 193.911" stroke="#263238" stroke-linecap="round" stroke-linejoin="round"/>
<path d="M45.0865 192.639C47.5193 194.663 50.5179 195.884 53.6718 196.137" stroke="#263238" stroke-linecap="round" stroke-linejoin="round"/>
<path d="M131.054 184.792C114.164 185.711 97.3985 188.219 80.9794 192.284L81.3737 192.875C81.3737 192.875 95.3645 189.905 121.222 196.265C147.08 202.624 148.784 207.712 177.185 207.712C205.587 207.712 233.149 200.932 233.149 200.932L229.702 199.025C204.2 188.233 169.249 182.655 131.054 184.792Z" fill="#D82E1D"/>
<path opacity="0.5" d="M131.054 184.792C114.164 185.711 97.3985 188.219 80.9794 192.284L81.3737 192.875C81.3737 192.875 95.3645 189.905 121.222 196.265C147.08 202.624 148.784 207.712 177.185 207.712C205.587 207.712 233.149 200.932 233.149 200.932L229.702 199.025C204.2 188.233 169.249 182.655 131.054 184.792Z" fill="white"/>
<path d="M68.8326 199.343C68.8326 199.343 102.22 194.255 131.155 213.651" stroke="#263238" stroke-linecap="round" stroke-linejoin="round"/>
<path d="M103.81 206.656C103.81 206.656 117.483 210.789 125.75 219.693" stroke="#263238" stroke-linecap="round" stroke-linejoin="round"/>
<path d="M184.575 190.439C184.575 190.439 203.971 192.347 221.46 202.84" stroke="#263238" stroke-linecap="round" stroke-linejoin="round"/>
<path d="M245.054 206.872C248.547 209.009 251.872 211.41 255 214.052" stroke="#263238" stroke-linecap="round" stroke-linejoin="round"/>
<path d="M17.5182 221.874C40.6985 202.16 82.5819 187.533 131.054 184.792C175.297 182.28 215.202 190.204 241.073 204.506" stroke="#263238" stroke-linecap="round" stroke-linejoin="round"/>
<path d="M158.819 190.121C158.819 190.121 178.851 191.075 192.206 195.527" stroke="#263238" stroke-linecap="round" stroke-linejoin="round"/>
<path d="M67.9933 39.1474C67.9933 39.1474 67.3574 30.3522 54.4794 30.0342C41.6015 29.7163 45.0483 38.8357 41.5951 41.0361C38.142 43.2365 37.1944 39.7642 33.7348 41.9773C30.2753 44.1904 31.827 48.5785 29.0225 49.208C26.218 49.8376 22.4213 46.3781 18.9682 48.5721C15.515 50.7661 15.5086 52.6549 13.9378 52.6549C12.367 52.6549 9.22545 51.383 7.34305 52.6549C5.46064 53.9268 3.25391 55.4658 3.25391 55.4658H82.7473C82.7473 55.4658 83.6885 52.6358 80.2035 50.7534C76.7185 48.871 75.1731 50.4354 73.9203 48.8455C72.6675 47.2557 77.418 43.2365 67.9933 39.1474Z" fill="#D82E1D"/>
<path d="M115.225 5.48672C115.225 5.48672 114.843 0.195639 107.098 0.0048547C99.3518 -0.185929 101.425 5.30229 99.3455 6.62506C97.2659 7.94783 96.6999 5.86828 94.6204 7.19105C92.5408 8.51382 93.4884 11.1594 91.784 11.5346C90.0797 11.9098 87.8157 9.8366 85.7362 11.1594C83.6566 12.4821 83.6566 13.6141 82.7091 13.6141C81.7615 13.6141 79.8728 12.8637 78.7408 13.6141C77.6088 14.3645 76.286 15.3185 76.286 15.3185H124.109C124.109 15.3185 124.675 13.6141 122.596 12.4821C120.516 11.3502 119.575 12.2913 118.818 11.3501C118.061 10.4089 120.898 7.94784 115.225 5.48672Z" fill="#D82E1D"/>
<path opacity="0.7" d="M67.9933 39.1474C67.9933 39.1474 67.3574 30.3522 54.4794 30.0342C41.6015 29.7163 45.0483 38.8357 41.5951 41.0361C38.142 43.2365 37.1944 39.7642 33.7348 41.9773C30.2753 44.1904 31.827 48.5785 29.0225 49.208C26.218 49.8376 22.4213 46.3781 18.9682 48.5721C15.515 50.7661 15.5086 52.6549 13.9378 52.6549C12.367 52.6549 9.22545 51.383 7.34305 52.6549C5.46064 53.9268 3.25391 55.4658 3.25391 55.4658H82.7473C82.7473 55.4658 83.6885 52.6358 80.2035 50.7534C76.7185 48.871 75.1731 50.4354 73.9203 48.8455C72.6675 47.2557 77.418 43.2365 67.9933 39.1474Z" fill="white"/>
<path opacity="0.8" d="M115.225 5.48672C115.225 5.48672 114.843 0.195639 107.098 0.0048547C99.3518 -0.185929 101.425 5.30229 99.3455 6.62506C97.2659 7.94783 96.6999 5.86828 94.6204 7.19105C92.5408 8.51382 93.4884 11.1594 91.784 11.5346C90.0797 11.9098 87.8157 9.8366 85.7362 11.1594C83.6566 12.4821 83.6566 13.6141 82.7091 13.6141C81.7615 13.6141 79.8728 12.8637 78.7408 13.6141C77.6088 14.3645 76.286 15.3185 76.286 15.3185H124.109C124.109 15.3185 124.675 13.6141 122.596 12.4821C120.516 11.3502 119.575 12.2913 118.818 11.3501C118.061 10.4089 120.898 7.94784 115.225 5.48672Z" fill="white"/>
</svg>
