<svg width="233" height="248" viewBox="0 0 233 248" fill="none" xmlns="http://www.w3.org/2000/svg">
<path d="M227.823 108.551C227.823 108.551 227.823 108.501 227.823 108.416V108.044C227.823 107.707 227.823 107.228 227.823 106.62C227.823 105.37 227.823 103.568 227.778 101.304L227.863 101.389L200.469 101.439C200.531 101.378 200.328 101.58 200.61 101.304V104.976C200.61 106.181 200.61 107.374 200.61 108.54L200.474 108.399L219.997 108.461L225.757 108.501H227.317H227.722C227.771 108.496 227.82 108.496 227.868 108.501H227.745H227.35H225.824L220.036 108.63L200.418 108.692H200.283V108.557C200.283 107.391 200.283 106.198 200.283 104.993V101.31L200.424 101.169L227.818 101.22H227.919V101.31C227.919 103.596 227.885 105.415 227.874 106.676C227.874 107.279 227.874 107.746 227.874 108.084C227.874 108.23 227.874 108.349 227.874 108.439C227.862 108.478 227.845 108.516 227.823 108.551Z" fill="#E0E0E0"/>
<path d="M126.874 222.722L120.68 225.386L121.097 188.644C121.288 184.247 119.267 182.372 118.169 181.122C108.196 169.781 93.3252 178.008 93.1957 189.5L92.8241 222.334L86.7935 222.266L87.3903 187.918C87.4354 184.05 90.4423 177.338 93.4773 174.933C110.257 161.639 127.426 175.373 127.262 189.9L126.874 222.722Z" fill="#F5F5F5"/>
<path d="M126.874 222.722V222.063C126.874 221.63 126.874 220.993 126.874 220.16C126.874 218.471 126.908 216.021 126.93 212.84C126.953 209.658 126.992 205.801 127.031 201.302C127.054 199.05 127.076 196.653 127.099 194.112C127.099 191.567 127.33 188.858 126.806 186.076C126.282 183.163 125.101 180.408 123.354 178.019C123.124 177.709 122.904 177.394 122.662 177.09C122.42 176.786 122.144 176.527 121.885 176.217C121.356 175.63 120.791 175.075 120.196 174.556C119.908 174.28 119.571 174.06 119.255 173.807C118.94 173.553 118.63 173.294 118.275 173.092C117.593 172.637 116.882 172.227 116.147 171.864C114.642 171.107 113.05 170.54 111.406 170.175L110.133 169.967L109.497 169.86L108.849 169.82L107.543 169.736C107.104 169.736 106.665 169.764 106.225 169.781C102.585 169.946 99.0617 171.115 96.0449 173.159C92.8702 175.309 90.3817 178.327 88.8768 181.853C88.121 183.672 87.6243 185.589 87.4016 187.546C87.2326 189.517 87.2777 191.55 87.2383 193.582C87.1482 201.73 87.0524 210.165 86.9567 218.809C86.9567 219.961 86.9436 221.11 86.9173 222.255L86.7765 222.108L92.8072 222.176L92.6664 222.317C92.7377 215.785 92.8109 209.403 92.886 203.172C92.9198 200.071 92.9554 197.013 92.993 193.999C92.993 192.497 93.0099 191.005 93.0437 189.523C93.0759 188.042 93.3225 186.574 93.7757 185.164C94.6999 182.421 96.4407 180.026 98.7646 178.3C99.0399 178.083 99.3275 177.882 99.6261 177.698L100.527 177.135C101.138 176.811 101.773 176.532 102.425 176.301C103.069 176.067 103.73 175.878 104.401 175.738C104.733 175.665 105.071 175.637 105.403 175.581L105.904 175.513H106.411C107.734 175.44 109.061 175.551 110.353 175.845C111.612 176.148 112.827 176.611 113.968 177.225C117.214 179.027 119.635 182.015 120.725 185.564C121.043 186.665 121.232 187.798 121.288 188.943C121.288 189.224 121.288 189.506 121.316 189.782C121.344 190.057 121.316 190.345 121.316 190.609C121.316 191.172 121.316 191.702 121.316 192.242C121.316 193.318 121.316 194.376 121.277 195.412C121.22 199.557 121.175 203.363 121.13 206.798C121.035 213.662 120.961 219.034 120.911 222.604L120.871 222.564L125.421 222.637H126.547H126.913H125.438L120.866 222.609H120.826V222.57C120.826 219 120.905 213.628 120.967 206.764C121.001 203.329 121.04 199.517 121.08 195.373C121.08 194.337 121.08 193.278 121.113 192.203C121.113 191.64 121.113 191.122 121.113 190.57C121.113 190.3 121.113 190.007 121.113 189.748L121.08 188.92C120.996 186.612 120.311 184.367 119.092 182.405C117.821 180.305 116.021 178.575 113.872 177.388C112.751 176.787 111.556 176.333 110.319 176.037C109.043 175.751 107.733 175.644 106.428 175.721H105.933L105.443 175.795C105.111 175.845 104.778 175.873 104.452 175.947C103.129 176.229 101.85 176.689 100.651 177.315L99.7669 177.844C99.4747 178.015 99.1926 178.203 98.9222 178.407C96.6382 180.106 94.9303 182.464 94.029 185.164C93.5856 186.549 93.3466 187.99 93.3196 189.444C93.3196 190.923 93.3027 192.415 93.2689 193.92C93.2351 196.923 93.2013 199.981 93.1675 203.093C93.1 209.287 93.0268 215.689 92.9536 222.238V222.378H92.8128L86.7765 222.311H86.6358V222.17C86.6358 221.044 86.6489 219.895 86.6752 218.724C86.7765 210.086 86.8723 201.651 86.968 193.498C87.0074 191.46 86.968 189.449 87.1313 187.433C87.361 185.451 87.8671 183.51 88.6347 181.667C89.4198 179.907 90.4346 178.257 91.6528 176.763C92.887 175.307 94.309 174.021 95.8816 172.94C98.9377 170.867 102.508 169.682 106.197 169.516C106.642 169.516 107.087 169.465 107.532 169.477L109.046 169.567L109.88 169.663L111.141 169.871L111.704 169.995C113.268 170.361 114.781 170.917 116.209 171.65C116.955 172.016 117.675 172.432 118.366 172.895C118.72 173.103 119.024 173.385 119.351 173.621C119.678 173.858 120.01 174.1 120.308 174.376C120.904 174.905 121.468 175.469 121.997 176.065L122.786 176.949C123.028 177.259 123.247 177.58 123.478 177.895C125.241 180.311 126.43 183.098 126.953 186.043C127.476 188.858 127.212 191.583 127.228 194.129C127.245 196.674 127.161 199.095 127.133 201.347C127.071 205.852 127.014 209.726 126.969 212.896C126.924 216.066 126.891 218.527 126.862 220.182C126.862 221.005 126.862 221.641 126.829 222.069C126.795 222.497 126.874 222.722 126.874 222.722Z" fill="#E0E0E0"/>
<path d="M79.9051 200.819L134.521 201.439C135.079 201.445 135.612 201.673 136.003 202.073C136.393 202.472 136.609 203.01 136.603 203.569L136.124 245.78C136.118 246.288 135.911 246.773 135.548 247.128C135.185 247.483 134.695 247.679 134.188 247.673L79.4032 247.051L79.9277 200.82L79.9051 200.819Z" fill="#E0E0E0"/>
<path d="M79.9059 200.701L127.937 201.181C128.543 201.187 129.122 201.434 129.547 201.867C129.971 202.3 130.206 202.884 130.2 203.49L129.789 244.595C129.782 245.342 129.478 246.055 128.945 246.578C128.411 247.101 127.692 247.39 126.946 247.383L79.5226 246.908C78.8954 246.902 78.2964 246.647 77.8573 246.199C77.4182 245.751 77.1751 245.147 77.1813 244.52L77.5969 202.964C77.603 202.358 77.8496 201.779 78.2826 201.354C78.7157 200.93 79.2996 200.695 79.9059 200.701Z" fill="#EBEBEB"/>
<path d="M110.713 220.205C110.723 219.341 110.56 218.484 110.232 217.685C109.904 216.885 109.419 216.16 108.806 215.552C108.192 214.944 107.463 214.465 106.661 214.144C105.859 213.823 105 213.667 104.137 213.684C102.475 213.734 100.895 214.416 99.72 215.591C98.5447 216.767 97.8626 218.346 97.8131 220.008C97.7871 221.417 98.225 222.795 99.0593 223.93C99.8937 225.066 101.078 225.896 102.43 226.292L98.1228 235.144L109.244 235.476L105.955 226.314C107.304 225.951 108.499 225.158 109.357 224.056C110.216 222.954 110.692 221.602 110.713 220.205Z" fill="#E0E0E0"/>
<path d="M129.481 243.258C129.402 243.258 129.481 235.211 129.622 225.29C129.762 215.368 129.965 207.316 130.044 207.316C130.123 207.316 130.044 215.362 129.903 225.29C129.762 235.217 129.56 243.263 129.481 243.258Z" fill="#FAFAFA"/>
<path d="M117.746 202.665C117.746 202.744 110.668 202.823 101.935 202.84C93.2014 202.857 86.1178 202.806 86.1178 202.727C86.1178 202.648 93.1957 202.575 101.935 202.558C110.674 202.541 117.746 202.575 117.746 202.665Z" fill="white"/>
<path d="M97.5653 223.532C97.455 223.413 97.3655 223.276 97.3006 223.127C97.0985 222.735 96.9362 222.324 96.8164 221.899C96.4134 220.485 96.4509 218.982 96.9237 217.59C97.3965 216.198 98.2822 214.983 99.4628 214.106C99.8138 213.841 100.191 213.613 100.589 213.425C100.729 213.347 100.881 213.294 101.039 213.267C101.039 213.312 100.426 213.577 99.5811 214.264C98.4717 215.15 97.6395 216.335 97.1834 217.679C96.7273 219.024 96.6664 220.471 97.0078 221.849C97.2837 222.935 97.6103 223.499 97.5653 223.532Z" fill="white"/>
<path d="M100.099 226.618C100.06 226.686 99.6825 226.523 99.2545 226.258C98.8266 225.993 98.5169 225.723 98.5563 225.655C98.5957 225.588 98.9786 225.751 99.4065 226.016C99.8345 226.28 100.099 226.551 100.099 226.618Z" fill="white"/>
<path d="M105.46 171.228C105.101 171.297 104.738 171.344 104.373 171.369C103.389 171.5 102.418 171.709 101.467 171.994C98.309 172.91 95.4768 174.707 93.3021 177.174C91.1273 179.641 89.6998 182.676 89.1865 185.924C89.0171 186.903 88.9323 187.894 88.9331 188.886C88.9331 189.584 88.9331 189.979 88.9331 189.979C88.9028 189.888 88.8876 189.793 88.888 189.697C88.888 189.511 88.8317 189.241 88.8261 188.886C88.7863 187.885 88.8429 186.881 88.995 185.891C89.4648 182.588 90.8915 179.494 93.0989 176.993C95.3063 174.491 98.1978 172.691 101.417 171.814C102.38 171.531 103.368 171.342 104.367 171.25C104.716 171.211 104.992 171.217 105.178 171.211C105.272 171.207 105.367 171.213 105.46 171.228Z" fill="white"/>
<path d="M88.6348 194.962C88.5066 194.409 88.4723 193.838 88.5334 193.273C88.495 192.704 88.554 192.133 88.708 191.583C88.8777 192.706 88.853 193.848 88.6348 194.962Z" fill="white"/>
<path d="M123.338 38.115H95.9436V45.3619H123.338V38.115Z" fill="#F5F5F5"/>
<path d="M221.843 163.266H194.449V170.513H221.843V163.266Z" fill="#F5F5F5"/>
<path d="M210.261 178.149C210.257 178.104 210.257 178.058 210.261 178.013V177.642C210.261 177.304 210.261 176.825 210.261 176.217C210.261 174.967 210.233 173.171 210.216 170.902L210.3 170.986L182.906 171.043C182.968 170.981 182.765 171.178 183.041 170.902V178.137L182.906 178.002L202.428 178.064L208.189 178.104H209.748H210.154H210.3H210.171H209.782H208.256L202.524 178.143L182.872 178.284H182.732V170.913L182.872 170.772L210.266 170.829H210.351V170.913C210.351 173.199 210.317 175.018 210.306 176.279C210.306 176.882 210.306 177.349 210.306 177.687C210.306 177.833 210.306 177.952 210.306 178.042C210.293 178.078 210.278 178.114 210.261 178.149Z" fill="#E0E0E0"/>
<path d="M42.2478 26.7634C42.2429 26.7203 42.2429 26.6769 42.2478 26.6338C42.2478 26.5381 42.2478 26.4142 42.2478 26.2622C42.2478 25.9187 42.2478 25.4457 42.2478 24.832C42.2478 23.5819 42.2478 21.7857 42.2028 19.5165L42.2873 19.6009L14.8538 19.6629C14.9158 19.6009 14.713 19.8036 14.989 19.5221V26.7634L14.8538 26.6282L34.3759 26.6902L40.1363 26.7296H41.696H42.1014H42.2478C42.2048 26.7349 42.1613 26.7349 42.1183 26.7296H41.7298H40.1982L34.4717 26.769L14.8538 26.8309H14.7131V19.5277L14.8538 19.387L42.2478 19.4433H42.3323V19.5277C42.3323 21.8195 42.2985 23.6326 42.2873 24.8939C42.2873 25.4964 42.2873 25.9694 42.2873 26.3016C42.2873 26.448 42.2873 26.5663 42.2873 26.662C42.2768 26.6968 42.2636 26.7307 42.2478 26.7634Z" fill="#E0E0E0"/>
<path d="M205.598 16.3576C205.598 16.3576 205.598 16.3069 205.598 16.2225V15.8508C205.598 15.513 205.598 15.0344 205.598 14.4262C205.598 13.1762 205.598 11.3743 205.553 9.11071L205.638 9.19517L178.244 9.24585L178.385 9.11071V12.7933C178.385 14.0058 178.385 15.1939 178.385 16.3576L178.249 16.2225L197.772 16.2844L203.532 16.3182H205.092H205.503C205.55 16.3136 205.597 16.3136 205.644 16.3182H205.52H205.125H203.6L197.867 16.3576L178.249 16.4195H178.114V16.2844C178.114 15.1188 178.114 13.9307 178.114 12.7201V9.12197L178.255 8.9812L205.649 9.03751H205.734V9.12197C205.734 11.4081 205.7 13.2269 205.689 14.4882C205.689 15.0907 205.689 15.558 205.689 15.8959V16.2506C205.664 16.2905 205.634 16.3265 205.598 16.3576Z" fill="#E0E0E0"/>
<path d="M209.337 9.11083C209.333 9.06399 209.333 9.01689 209.337 8.97005C209.337 8.8687 209.337 8.73919 209.337 8.58716C209.337 8.23242 209.337 7.74816 209.337 7.1344C209.337 5.86183 209.304 4.07123 209.281 1.86394L209.382 1.95966L192.924 1.99908L193.059 1.86394V5.58592C193.059 6.79655 193.059 7.9734 193.059 9.09957L192.929 8.96442L204.703 9.02636L208.132 9.06578H209.056H209.388C209.289 9.07383 209.189 9.07383 209.09 9.06578H208.189L204.81 9.09957L192.946 9.1615H192.811V9.03199C192.811 7.90583 192.811 6.72898 192.811 5.51835V1.8752C192.777 1.8752 193.076 1.61055 192.952 1.73443L209.411 1.77385H209.512V1.8752C209.512 4.12754 209.467 5.91814 209.456 7.2076C209.456 7.8101 209.456 8.28309 209.456 8.63784C209.456 8.99258 209.337 9.11646 209.337 9.11083Z" fill="#E0E0E0"/>
<path d="M32.7318 189.152C32.7294 189.108 32.7294 189.065 32.7318 189.022C32.7318 188.926 32.7318 188.802 32.7318 188.65C32.7318 188.307 32.7318 187.834 32.7318 187.226C32.7318 185.976 32.7318 184.174 32.6868 181.905L32.7713 181.989L5.37724 182.045L5.51801 181.905V185.582C5.51801 186.79 5.51801 187.978 5.51801 189.146L5.38287 189.011L24.905 189.073L30.6653 189.112H32.2251H32.6361H32.7769C32.7769 189.112 32.7375 189.112 32.653 189.112H32.2589H30.7329L25.0007 189.152L5.38287 189.213H5.24773V189.152C5.24773 187.986 5.24773 186.798 5.24773 185.587V181.91C5.52927 181.634 5.32656 181.837 5.3885 181.775L32.7825 181.826H32.867V181.91C32.867 184.202 32.8332 186.015 32.8219 187.282C32.8219 187.885 32.8219 188.352 32.8219 188.69V189.045C32.7375 189.152 32.7375 189.152 32.7318 189.152Z" fill="#E0E0E0"/>
<path d="M36.4707 181.915C36.4662 181.87 36.4662 181.825 36.4707 181.78C36.4707 181.673 36.4707 181.549 36.4707 181.397C36.4707 181.037 36.4707 180.553 36.4707 179.945C36.4707 178.672 36.4369 176.876 36.4144 174.669L36.5157 174.77L20.0568 174.809C19.9329 174.933 20.2257 174.64 20.1919 174.669V178.396C20.1919 179.612 20.1919 180.784 20.1919 181.91L20.0624 181.78L31.8365 181.842L35.2657 181.882H36.1891H36.5213C36.422 181.89 36.3222 181.89 36.2229 181.882H35.322L31.9435 181.921L20.0793 181.983H19.9442V181.848C19.9442 180.722 19.9442 179.55 19.9442 178.334V174.607L20.0849 174.466L36.4707 174.567H36.572V174.669C36.572 176.921 36.527 178.717 36.5157 180.001C36.5157 180.603 36.5157 181.082 36.5157 181.437C36.5157 181.792 36.4707 181.927 36.4707 181.915Z" fill="#E0E0E0"/>
<path d="M118.996 129.571C118.991 129.528 118.991 129.485 118.996 129.442V129.07C118.996 128.727 118.996 128.254 118.996 127.646C118.996 126.39 118.968 124.594 118.951 122.325L119.036 122.409L91.6417 122.465C91.7037 122.403 91.501 122.606 91.7769 122.325V129.56L91.6417 129.425L111.164 129.487L116.924 129.526H118.484H118.889H119.036H118.906H118.518H116.986L111.26 129.56L91.6417 129.622H91.501V122.246L91.6417 122.105L119.036 122.161H119.12V122.246C119.12 124.538 119.086 126.351 119.075 127.618C119.075 128.214 119.075 128.687 119.075 129.02V129.38C119.059 129.447 119.032 129.512 118.996 129.571Z" fill="#E0E0E0"/>
<path d="M122.712 122.325C122.704 122.28 122.704 122.234 122.712 122.19C122.712 122.083 122.712 121.959 122.712 121.801L122.684 120.348C122.684 119.081 122.684 117.285 122.634 115.078L122.735 115.179L106.27 115.219L106.411 115.078V118.806C106.411 120.016 106.411 121.193 106.411 122.319L106.276 122.19L118.05 122.252L121.485 122.285H122.408H122.741C122.639 122.293 122.538 122.293 122.437 122.285H121.541L118.163 122.325L106.299 122.387H106.169V122.252C106.169 121.125 106.169 119.949 106.169 118.738V115.01C106.169 115.039 106.439 114.746 106.31 114.87L122.774 114.909H122.876V115.01C122.876 117.263 122.836 119.059 122.825 120.343C122.825 120.945 122.825 121.424 122.797 121.773C122.769 122.122 122.718 122.33 122.712 122.325Z" fill="#E0E0E0"/>
<path d="M10.141 216.518L0.0224228 230.257L17.0613 242.937C18.1875 241.248 11.7852 231.406 11.7852 231.406L18.6323 222.869L10.141 216.518Z" fill="#455A64"/>
<path d="M7.08921 226.755C6.88884 226.682 6.66854 226.686 6.47092 226.766C6.2733 226.846 6.1124 226.996 6.01935 227.188C5.94021 227.387 5.93984 227.608 6.01832 227.807C6.09681 228.006 6.24823 228.167 6.44166 228.258C6.65396 228.333 6.88641 228.326 7.0943 228.24C7.30219 228.154 7.47085 227.994 7.56783 227.791C7.63004 227.575 7.60612 227.343 7.5011 227.145C7.39607 226.946 7.21814 226.796 7.00475 226.726" fill="white"/>
<path d="M0 230.29L1.07549 228.814L16.9939 241.63C16.9939 241.63 17.5006 242.531 16.9939 242.999L0 230.29Z" fill="#263238"/>
<path d="M12.157 231.529C12.095 231.614 11.6502 231.344 11.0308 231.304C10.4114 231.265 9.94405 231.456 9.90463 231.366C9.86522 231.276 10.3382 230.887 11.0702 230.944C11.8022 231 12.202 231.467 12.157 231.529Z" fill="#263238"/>
<path d="M13.3676 233.602C13.3226 233.697 12.8609 233.568 12.3147 233.709C11.7685 233.849 11.4137 234.165 11.3293 234.097C11.2448 234.03 11.5489 233.534 12.2302 233.359C12.9115 233.185 13.424 233.523 13.3676 233.602Z" fill="#263238"/>
<path d="M12.7876 236.496C12.6976 236.456 12.8946 235.932 13.4465 235.657C13.9983 235.381 14.5219 235.471 14.505 235.566C14.4882 235.662 14.0658 235.724 13.621 235.978C13.1762 236.231 12.8777 236.546 12.7876 236.496Z" fill="#263238"/>
<path d="M13.4747 229.412C13.379 229.463 13.0862 229.063 12.5906 228.748C12.0951 228.432 11.6221 228.303 11.6278 228.185C11.6334 228.066 12.1909 228.044 12.7877 228.427C13.3846 228.81 13.5648 229.378 13.4747 229.412Z" fill="#263238"/>
<path d="M51.3364 159.004C51.6404 160.727 52.1247 175.385 52.4344 183.116C52.7441 190.847 51.9727 194.648 51.0886 196.382C50.2046 198.116 16.8644 222.684 14.3249 228.568L5.87862 221.76C5.87862 221.76 18.2665 199.524 23.5482 195.481C28.8299 191.438 38.9936 187.727 38.9936 187.727L36.105 145.389L49.9512 144.635L51.3364 159.004Z" fill="#263238"/>
<path d="M20.3499 230.105L20.2035 247.15L41.4374 247.442C41.3417 245.415 30.4122 241.186 30.4122 241.186L30.9753 230.257L20.3499 230.105Z" fill="#455A64"/>
<path d="M23.8579 240.201C23.653 240.26 23.4771 240.393 23.3639 240.574C23.2507 240.754 23.208 240.971 23.2441 241.181C23.2964 241.388 23.4256 241.567 23.6056 241.682C23.7856 241.797 24.0027 241.84 24.2126 241.8C24.429 241.736 24.6141 241.594 24.7325 241.402C24.8509 241.21 24.8944 240.981 24.8545 240.758C24.7791 240.548 24.6247 240.375 24.4239 240.276C24.2232 240.177 23.992 240.16 23.7791 240.229" fill="white"/>
<path d="M20.1978 247.211V245.381L40.6095 246.439C40.6095 246.439 41.5443 246.873 41.426 247.537L20.1978 247.211Z" fill="#263238"/>
<path d="M30.7387 241.108C30.7387 241.215 30.2151 241.254 29.7027 241.581C29.1902 241.907 28.9087 242.335 28.813 242.296C28.7173 242.256 28.8806 241.654 29.5112 241.271C30.1419 240.888 30.7838 241.012 30.7387 241.108Z" fill="#263238"/>
<path d="M32.9909 242.081C32.9909 242.182 32.5573 242.351 32.2026 242.785C31.8479 243.218 31.7352 243.686 31.6395 243.675C31.5438 243.663 31.4762 243.083 31.9323 242.548C32.3884 242.013 32.9909 241.963 32.9909 242.081Z" fill="#263238"/>
<path d="M34.2017 244.745C34.106 244.745 33.9708 244.244 34.2411 243.681C34.5114 243.118 35.0069 242.898 35.0463 242.983C35.0857 243.067 34.7873 243.371 34.5677 243.838C34.3481 244.306 34.303 244.734 34.2017 244.745Z" fill="#263238"/>
<path d="M30.6035 238.602C30.5585 238.697 30.0855 238.545 29.4774 238.602C28.8692 238.658 28.43 238.81 28.3512 238.72C28.2724 238.63 28.7397 238.269 29.4323 238.241C30.1249 238.213 30.6542 238.523 30.6035 238.602Z" fill="#263238"/>
<path d="M52.8679 142.883C52.8679 143.88 54.4839 169.111 46.2347 187.367C46.2347 187.367 43.3799 193.076 42.8562 195.571C42.3326 198.065 31.6621 239.441 31.6621 239.441L19.3306 238.99C19.3306 238.99 17.3598 218.263 19.3306 206.264C21.3014 194.264 24.9614 195.672 24.9614 187.924C24.9614 180.176 23.1202 164.111 23.1202 164.111C23.1202 164.111 20.4286 159.725 19.5108 151.217C18.7619 144.308 22.0165 136.903 22.0165 136.903L25.2317 131.21L52.4343 129.786L52.8679 142.883Z" fill="#263238"/>
<path d="M52.8678 142.883C52.8678 142.883 52.8678 142.59 52.8678 142.021C52.8678 141.452 52.834 140.608 52.8115 139.499C52.7608 137.274 52.6763 133.997 52.575 129.763V129.701H52.5074L25.3048 131.086H25.2485L25.2147 131.137C24.2181 132.905 23.1201 134.836 21.9939 136.83C21.1563 138.85 20.5024 140.942 20.04 143.08C19.5292 145.331 19.3003 147.636 19.3587 149.944C19.5301 152.353 19.9068 154.744 20.4848 157.089C21.0424 159.552 21.9189 161.931 23.0919 164.167V164.111C23.5593 168.312 23.9928 172.664 24.3589 177.146C24.539 179.399 24.6967 181.651 24.8093 183.965C24.8656 185.091 24.9107 186.274 24.9163 187.44C24.9163 188.003 24.9163 188.605 24.8825 189.185C24.8424 189.767 24.771 190.346 24.6686 190.919C24.4381 192.075 24.0297 193.188 23.4579 194.219C22.8948 195.272 22.3318 196.314 21.7687 197.412C20.7489 199.64 20.0057 201.985 19.5557 204.394C18.576 209.237 18.3789 214.27 18.3226 219.344C18.3226 226.039 18.6379 232.616 19.1897 238.973V239.108H19.3193L31.6508 239.559H31.769L31.7972 239.44C35.3728 225.583 38.7062 212.632 41.6455 200.987L42.7098 196.68C42.8956 195.965 43.0138 195.255 43.2334 194.579C43.453 193.904 43.7008 193.234 43.9598 192.58C44.4891 191.274 45.086 190.007 45.6491 188.774L46.0883 187.856C46.2442 187.556 46.3834 187.248 46.5049 186.933C46.7583 186.308 47.0117 185.694 47.2651 185.08C49.0162 180.539 50.3194 175.837 51.156 171.043C52.3619 164.212 52.9836 157.291 53.0142 150.355C53.048 145.501 52.8509 142.866 52.8509 142.866C52.8509 142.866 52.8509 143.029 52.8509 143.35C52.8509 143.671 52.8509 144.161 52.8847 144.792C52.9185 146.059 52.941 147.928 52.8847 150.355C52.8326 157.285 52.2054 164.199 51.0096 171.026C50.1537 175.805 48.8335 180.49 47.068 185.013L46.3135 186.854C46.1896 187.169 46.0488 187.468 45.8968 187.772C45.7448 188.076 45.5984 188.386 45.452 188.695C44.8889 189.928 44.292 191.195 43.7627 192.507C43.4981 193.166 43.2447 193.836 43.0251 194.523C42.8055 195.21 42.676 195.936 42.4958 196.635C42.141 198.054 41.7863 199.484 41.4203 200.942C38.4303 212.576 35.1025 225.527 31.5382 239.384L31.6846 239.277L19.353 238.821L19.4994 238.956C18.9364 232.61 18.6098 226.039 18.6323 219.355C18.6886 214.287 18.8857 209.276 19.8598 204.467C20.3084 202.081 21.0439 199.757 22.0502 197.547C22.557 196.46 23.1764 195.43 23.7395 194.36C24.3074 193.301 24.71 192.162 24.9332 190.981C25.04 190.395 25.1133 189.803 25.1528 189.208C25.1528 188.645 25.2091 188.025 25.1866 187.445C25.1866 186.274 25.1359 185.108 25.0796 183.954C24.967 181.645 24.8037 179.371 24.6179 177.129C24.2425 172.625 23.8164 168.276 23.3397 164.083V164.049C22.1662 161.842 21.286 159.491 20.7213 157.056C20.1466 154.727 19.7698 152.353 19.5952 149.961C19.5345 147.675 19.7577 145.39 20.2596 143.159C20.7133 141.042 21.3521 138.969 22.1685 136.965L25.378 131.266L25.2879 131.323L52.4905 129.853L52.4173 129.791C52.5525 134.02 52.6538 137.297 52.7214 139.521C52.7608 140.647 52.789 141.469 52.8115 142.044C52.834 142.618 52.8678 142.883 52.8678 142.883Z" fill="#455A64"/>
<path d="M44.0217 91.2143C44.0217 91.2143 36.7016 89.9192 37.383 99.3396C37.8109 104.97 39.4664 114.633 40.3842 120.799C40.6995 122.933 41.3977 126.75 44.2188 128.992L64.4335 142.979L70.8132 135.349L52.7608 118.158L49.9454 101.153L44.0217 91.2143Z" fill="#455A64"/>
<path d="M44.8833 57.2607C46.0436 58.195 46.9615 59.3952 47.5595 60.7596C48.1574 62.1241 48.4176 63.6125 48.3181 65.0989C48.2055 66.5404 47.8057 68.1789 48.746 69.2769C49.6864 70.375 51.4882 70.3355 52.3779 71.4504C53.4196 72.7681 52.5468 74.7276 52.941 76.3662C53.1419 77.1315 53.6085 77.8005 54.2574 78.2533C54.9063 78.7062 55.6951 78.9135 56.4828 78.8381C54.6348 80.3503 52.4061 81.3244 50.0411 81.6535L48.1942 79.3505C48.8812 80.1614 48.6953 81.4508 48.0365 82.2785C47.3209 83.049 46.398 83.5964 45.3788 83.8552C42.953 84.6015 40.3877 84.7779 37.8826 84.3706C35.3775 83.9633 33.0001 82.9834 30.9357 81.5071" fill="#263238"/>
<path d="M17.8385 69.9695C18.1989 68.8434 18.807 67.8467 19.0492 66.7149C19.5672 64.2768 18.3791 61.5289 19.5616 59.3329C20.4062 57.7731 22.1968 57.0073 23.8973 56.4837C25.5978 55.96 27.4109 55.5208 28.6779 54.2764C29.6013 53.3642 30.1306 52.1029 31.0541 51.1907C32.3717 49.8843 34.32 49.4395 36.1669 49.3269C38.074 49.1426 39.9964 49.4549 41.7471 50.2334C42.6164 50.6301 43.3802 51.2256 43.9769 51.9719C44.5736 52.7183 44.9864 53.5945 45.1819 54.5298C45.3283 55.442 45.2157 56.4049 45.5085 57.2889C45.8238 58.2574 46.584 59.0119 47.0569 59.9185C47.5307 60.8921 47.6677 61.9954 47.4466 63.0553C47.2254 64.1152 46.6586 65.0717 45.835 65.7746L32.7828 82.6333C30.0405 83.6694 23.3962 82.4193 21.279 80.381C19.1618 78.3426 16.932 72.7568 17.8385 69.9695Z" fill="#263238"/>
<path d="M45.4914 63.6341C44.9283 59.8052 42.0397 55.2836 38.2389 55.9818L26.5042 59.9234C25.3781 60.1374 26.1776 62.0237 26.2902 63.1893L28.841 89.6542C28.841 89.6542 27.2531 90.7804 26.69 90.5664C26.658 90.5552 26.6232 90.5543 26.5906 90.5638C26.558 90.5733 26.5291 90.5927 26.5081 90.6193C26.487 90.646 26.4748 90.6785 26.4731 90.7124C26.4714 90.7463 26.4803 90.78 26.4986 90.8086C27.9232 92.8638 34.5619 101.8 41.4372 99.0577C42.9688 98.444 41.2739 93.6184 41.4372 91.8334L41.2345 87.2668C41.0825 84.9356 41.0093 83.9784 41.0093 84.0009C41.0093 84.0234 45.863 82.8071 46.3867 76.3148C46.6514 73.0996 46.0883 67.8854 45.4914 63.6341Z" fill="#FFBF9D"/>
<path d="M44.675 69.5243C44.6925 69.7386 44.6258 69.9513 44.4892 70.1174C44.3526 70.2834 44.1567 70.3898 43.943 70.414C43.8389 70.4307 43.7326 70.4263 43.6302 70.4012C43.5278 70.3761 43.4315 70.3307 43.347 70.2677C43.2624 70.2047 43.1914 70.1254 43.1381 70.0344C43.0847 69.9435 43.0502 69.8428 43.0365 69.7383C43.019 69.5239 43.0857 69.3112 43.2223 69.1452C43.3589 68.9791 43.5548 68.8727 43.7685 68.8486C43.8726 68.8319 43.9789 68.8362 44.0813 68.8613C44.1837 68.8865 44.28 68.9319 44.3645 68.9949C44.4491 69.0579 44.5201 69.1372 44.5734 69.2281C44.6268 69.3191 44.6613 69.4198 44.675 69.5243Z" fill="#263238"/>
<path d="M36.6792 70.0255C36.6982 70.2392 36.6329 70.452 36.4972 70.6182C36.3615 70.7844 36.1661 70.891 35.9529 70.9151C35.8489 70.9311 35.7428 70.9262 35.6407 70.9007C35.5386 70.8753 35.4426 70.8298 35.3582 70.7669C35.2739 70.704 35.2029 70.625 35.1493 70.5345C35.0958 70.4439 35.0608 70.3437 35.0463 70.2394C35.0289 70.0251 35.0955 69.8124 35.2321 69.6464C35.3687 69.4803 35.5646 69.3739 35.7783 69.3498C35.8821 69.3331 35.9881 69.3375 36.0902 69.3627C36.1922 69.3878 36.2881 69.4333 36.3722 69.4964C36.4563 69.5594 36.5268 69.6388 36.5796 69.7297C36.6323 69.8206 36.6662 69.9212 36.6792 70.0255Z" fill="#263238"/>
<path d="M44.9678 66.8102C44.8778 66.9622 44.112 66.478 43.1547 66.6188C42.1975 66.7595 41.5837 67.4127 41.4655 67.2945C41.3472 67.1762 41.4655 66.9791 41.7414 66.6807C42.0878 66.2918 42.5615 66.039 43.0775 65.9678C43.5935 65.8966 44.118 66.0116 44.5568 66.2922C44.8721 66.5118 45.0129 66.7426 44.9678 66.8102Z" fill="#263238"/>
<path d="M36.3695 67.5254C36.2569 67.6662 35.508 67.12 34.4776 67.165C33.4471 67.2101 32.7151 67.79 32.5969 67.6605C32.4786 67.531 32.6475 67.3565 32.9685 67.0974C33.3898 66.7497 33.9147 66.5516 34.4607 66.5344C35.0041 66.513 35.5391 66.6735 35.981 66.9905C36.302 67.2213 36.4202 67.4578 36.3695 67.5254Z" fill="#263238"/>
<path d="M39.596 73.59C40.0507 73.4045 40.5277 73.2795 41.015 73.2184C41.2346 73.179 41.4486 73.117 41.4711 72.9594C41.474 72.724 41.4031 72.4936 41.2684 72.3006C41.015 71.7713 40.7503 71.2138 40.4688 70.6113C39.3426 68.2295 38.5262 66.27 38.6219 66.2249C38.7176 66.1799 39.703 68.0718 40.8179 70.448C41.0882 71.0393 41.3472 71.5742 41.5893 72.1373C41.754 72.3986 41.8199 72.7101 41.7751 73.0157C41.7494 73.0981 41.705 73.1734 41.6454 73.2359C41.5858 73.2984 41.5127 73.3464 41.4317 73.3761C41.3097 73.4178 41.1829 73.4443 41.0544 73.4549C40.5753 73.5575 40.0858 73.6028 39.596 73.59Z" fill="#263238"/>
<path d="M41.0093 84.0128C37.994 84.2897 34.9609 83.7244 32.2478 82.3799C32.2478 82.3799 34.7535 86.7156 41.122 85.6232L41.0093 84.0128Z" fill="#FF9A6C"/>
<path d="M36.8988 76.169C36.9993 75.9465 37.1542 75.7528 37.3493 75.606C37.5881 75.4924 37.8592 75.4665 38.1151 75.5328C38.4954 75.5883 38.8473 75.7662 39.1174 76.0395C39.25 76.1775 39.3434 76.3483 39.3879 76.5344C39.4324 76.7205 39.4265 76.9151 39.3708 77.0981C39.2694 77.4698 38.7176 77.6612 38.3403 77.74C37.9495 77.7971 37.551 77.7154 37.2142 77.5092C37.0677 77.4424 36.9397 77.3408 36.8416 77.2132C36.7434 77.0856 36.678 76.9359 36.6511 76.7772C36.6761 76.5555 36.7618 76.3451 36.8988 76.169Z" fill="#FF9A6C"/>
<path d="M37.079 74.9243C37.2198 74.9243 37.2986 75.8647 38.1714 76.4841C39.0442 77.1035 40.0577 76.9176 40.0746 77.0471C40.0915 77.1767 39.8663 77.2499 39.4327 77.2949C38.8701 77.3464 38.3075 77.1968 37.8448 76.8726C37.3984 76.5645 37.091 76.0933 36.9889 75.5606C36.9326 75.1721 37.0115 74.9243 37.079 74.9243Z" fill="#263238"/>
<path d="M36.2907 64.0626C36.2175 64.3047 35.3278 64.2596 34.2974 64.468C33.2669 64.6763 32.4504 65.0311 32.2984 64.8114C32.2308 64.7157 32.3547 64.4792 32.6757 64.2202C33.1056 63.8999 33.6033 63.6825 34.1305 63.5849C34.6577 63.4873 35.2002 63.512 35.7163 63.6571C36.1105 63.7698 36.3188 63.9443 36.2907 64.0626Z" fill="#263238"/>
<path d="M44.4216 63.5837C44.2583 63.7977 43.5488 63.6457 42.7323 63.702C41.9158 63.7583 41.1951 63.9554 41.0149 63.7583C40.9361 63.6626 41.0149 63.4486 41.3246 63.2346C41.7318 62.9663 42.2055 62.8162 42.6929 62.8011C43.1772 62.7662 43.6615 62.8697 44.0893 63.0995C44.3821 63.2684 44.4948 63.4711 44.4216 63.5837Z" fill="#263238"/>
<path d="M23.9085 60.8473C24.4716 59.9351 25.5639 59.4677 26.5775 59.0792C30.9548 57.389 35.5179 56.2265 40.1703 55.6162C40.7334 56.5678 40.2154 57.8685 39.3426 58.5611C38.4698 59.2537 37.3436 59.5296 36.3019 59.9182C35.2602 60.3067 34.1847 60.9148 33.7512 61.9453C33.3176 62.9757 33.6836 64.3327 33.2782 65.4477C32.5856 67.3734 29.8997 67.9928 29.2296 69.9129C28.7116 71.3713 29.5562 72.9198 29.7927 74.4514C29.9008 75.2287 29.8419 76.0201 29.6199 76.7728C29.3979 77.5256 29.0179 78.2223 28.5052 78.8165C27.9925 79.4107 27.359 79.8887 26.6469 80.2186C25.9349 80.5486 25.1606 80.7228 24.3758 80.7297C24.0605 75.2153 23.7433 69.7046 23.4242 64.1976C23.3285 63.0489 23.2834 61.8101 23.9085 60.8473Z" fill="#263238"/>
<path d="M12.8045 74.7723C13.6773 73.9896 14.7696 73.3139 15.1131 72.199C15.6199 70.5717 14.3135 68.6628 15.1582 67.1819C15.924 65.8305 18.1819 65.9037 18.897 64.5241C19.4601 63.443 18.8126 62.4914 19.0209 61.5454C19.2293 60.5994 20.5807 59.7717 21.5379 59.8843L29.0494 70.7913C29.7477 74.4513 30.4515 76.4221 29.6688 78.5393C29.1512 79.6793 28.7603 80.8727 28.5033 82.098C28.3343 83.3368 28.6553 84.7388 29.6632 85.4765C25.1585 85.8312 20.9467 83.4775 17.0501 81.197L12.9452 78.787C12.4959 78.572 12.1084 78.2466 11.8191 77.8411C11.2053 76.8388 11.9373 75.5493 12.8045 74.7723Z" fill="#263238"/>
<path d="M16.9545 80.088C17.1117 80.1385 17.2742 80.1706 17.4388 80.1837C17.9085 80.2286 18.3825 80.1943 18.8409 80.0823C19.5726 79.9071 20.246 79.5441 20.7948 79.0294C21.5196 78.3318 21.9744 77.4003 22.0786 76.3998C22.1463 75.8195 22.0965 75.2317 21.9322 74.6711C21.7303 74.0737 21.4501 73.5056 21.0988 72.9818C20.7264 72.4501 20.436 71.8655 20.2373 71.2475C20.1318 70.9316 20.0988 70.596 20.1407 70.2655C20.1826 69.935 20.2984 69.6183 20.4794 69.3387C20.8849 68.7756 21.645 68.6574 22.3545 68.3758C22.7377 68.2381 23.071 67.9891 23.3118 67.6607C23.5334 67.3095 23.6415 66.8986 23.6214 66.4839C23.5241 65.6888 23.3525 64.9046 23.109 64.1414C23.0226 63.771 23.0226 63.3857 23.109 63.0153C23.2082 62.6417 23.4379 62.3161 23.7566 62.0974C24.4418 61.7024 25.2181 61.4928 26.0089 61.4893C26.8274 61.4623 27.6257 61.2278 28.3288 60.808C29.013 60.3909 29.5685 59.7926 29.9336 59.0793C30.2333 58.3944 30.4233 57.6667 30.4967 56.9227C30.5748 56.234 30.722 55.5549 30.9359 54.8956C31.1731 54.296 31.5337 53.7531 31.9945 53.3021C32.8444 52.4956 33.9415 51.9996 35.1084 51.8944C36.0812 51.8112 37.0577 52.0065 37.9238 52.4574C38.5752 52.7908 39.1623 53.2369 39.6581 53.7751C40.0724 54.2448 40.4313 54.7606 40.7279 55.3123C40.7279 55.3123 40.7279 55.2729 40.6885 55.194C40.6423 55.0822 40.5897 54.9732 40.5309 54.8674C40.3159 54.4587 40.0531 54.0769 39.7482 53.73C39.2528 53.1702 38.6618 52.703 38.0026 52.3505C37.1275 51.8694 36.133 51.6486 35.1365 51.7142C33.9137 51.8037 32.7587 52.3106 31.865 53.15C31.3726 53.6257 30.9885 54.2018 30.7388 54.8393C30.5156 55.5108 30.3609 56.2031 30.2771 56.9058C30.199 57.6253 30.009 58.3283 29.714 58.9892C29.3707 59.6538 28.8529 60.2125 28.2162 60.6053C27.5453 60.9988 26.7864 61.2176 26.0089 61.2415C25.1616 61.2397 24.3294 61.4653 23.5989 61.8947C23.2335 62.1433 22.9697 62.5151 22.8557 62.9421C22.757 63.3586 22.757 63.7924 22.8557 64.209C23.0941 64.9578 23.2637 65.7268 23.3624 66.5064C23.3856 66.8685 23.2951 67.2288 23.1034 67.5368C22.8859 67.8225 22.5907 68.0395 22.2532 68.1618C21.9209 68.3026 21.5606 68.3983 21.2115 68.5447C20.8479 68.682 20.5273 68.9132 20.2824 69.2148C20.0835 69.5257 19.9561 69.8769 19.9093 70.243C19.8626 70.6092 19.8977 70.9811 20.0121 71.332C20.2229 71.9698 20.5265 72.5732 20.913 73.1226C21.256 73.6205 21.5306 74.1621 21.7295 74.733C21.889 75.2655 21.9426 75.8241 21.8872 76.3772C21.7949 77.3403 21.3686 78.2406 20.6822 78.9224C20.1567 79.4311 19.509 79.7957 18.8015 79.981C18.1989 80.1383 17.5712 80.1747 16.9545 80.088Z" fill="#455A64"/>
<path d="M10.9519 72.3344C10.8783 72.445 10.8284 72.5696 10.8055 72.7004C10.7306 73.0866 10.7987 73.4869 10.997 73.8266C11.1344 74.0691 11.3273 74.2756 11.56 74.4291C11.8501 74.6046 12.184 74.6944 12.5229 74.6881C12.9349 74.6791 13.3364 74.5573 13.6839 74.3359C14.0314 74.1145 14.3115 73.802 14.4937 73.4325C14.7079 73.0083 14.8179 72.5393 14.8147 72.0642C14.8011 71.5536 14.6942 71.0498 14.4993 70.5776C14.1446 69.6035 13.4914 68.6519 13.4802 67.5144C13.4589 67.2344 13.4943 66.9529 13.5843 66.6868C13.6742 66.4208 13.8169 66.1756 14.0038 65.966C14.4604 65.589 15.047 65.4069 15.6368 65.4592C16.2931 65.5071 16.9527 65.4385 17.585 65.2565C17.9164 65.1216 18.1964 64.885 18.3846 64.5808C18.5659 64.2784 18.6792 63.9403 18.7168 63.5897C18.7493 62.9173 18.6944 62.2435 18.5535 61.5852C18.4527 60.9673 18.4893 60.3348 18.6605 59.7326C18.9797 58.5831 19.7273 57.5997 20.7496 56.9848C21.7199 56.4905 22.7972 56.2429 23.886 56.264C24.8536 56.2662 25.8154 56.1142 26.7352 55.8136C27.483 55.5391 28.1684 55.118 28.751 54.5748C29.1972 54.1626 29.577 53.6839 29.8772 53.1558C30.1413 52.7177 30.3226 52.2348 30.4121 51.7312C30.2445 52.2066 30.0353 52.6664 29.7871 53.1051C29.0777 54.2891 27.985 55.195 26.6901 55.6728C25.778 55.9518 24.8284 56.0886 23.8747 56.0782C22.7542 56.0467 21.6435 56.2943 20.6426 56.799C19.5676 57.4293 18.774 58.4465 18.424 59.6425C18.2439 60.2776 18.2035 60.9442 18.3058 61.5964C18.4376 62.2332 18.4924 62.8836 18.4691 63.5334C18.4558 63.8424 18.3579 64.1418 18.1861 64.399C18.0143 64.6561 17.7753 64.8612 17.495 64.9918C16.8932 65.1626 16.266 65.2255 15.6424 65.1776C14.9893 65.1205 14.34 65.3228 13.8349 65.7407C13.6287 65.9756 13.4724 66.25 13.3756 66.5471C13.2788 66.8443 13.2435 67.1581 13.2718 67.4694C13.2967 68.054 13.4364 68.628 13.6829 69.1586C13.9025 69.6654 14.1446 70.1384 14.3304 70.6114C14.5194 71.0598 14.6262 71.5385 14.6457 72.0247C14.6534 72.4688 14.557 72.9085 14.3642 73.3086C14.2008 73.6538 13.9459 73.9475 13.6273 74.158C13.3086 74.3685 12.9383 74.4876 12.5567 74.5023C12.2437 74.5135 11.9337 74.4375 11.6614 74.2827C11.4283 74.1467 11.2343 73.9527 11.0983 73.7196C10.9009 73.4063 10.8193 73.0338 10.8675 72.6667C10.8956 72.4639 10.9688 72.3401 10.9519 72.3344Z" fill="#263238"/>
<path d="M58.3805 75.0201C58.5144 75.4009 58.5144 75.8161 58.3805 76.1969C58.3062 76.4156 58.1836 76.6146 58.0217 76.7794C57.8599 76.9441 57.6631 77.0703 57.4458 77.1485C57.1561 77.234 56.8483 77.2371 56.5569 77.1575C56.2655 77.078 56.0021 76.9189 55.796 76.6981C55.5595 76.4381 55.4219 76.1032 55.4074 75.7521C55.3966 75.3692 55.4558 74.9876 55.582 74.6259C55.8185 73.8658 56.3084 73.038 56.2352 72.0414C56.1996 71.5361 56.059 71.0437 55.8225 70.5958C55.5859 70.1479 55.2585 69.7542 54.8612 69.4399C54.4452 69.1069 53.9693 68.8565 53.4592 68.7023C52.938 68.5579 52.4007 68.4803 51.86 68.4714C51.336 68.4671 50.8137 68.4124 50.3003 68.3081C49.8209 68.2093 49.3921 67.944 49.0896 67.5592C48.8218 67.1643 48.6715 66.7016 48.6561 66.2247C48.631 65.76 48.6689 65.2941 48.7687 64.8395C49.0158 63.982 49.1521 63.0964 49.1741 62.2043C49.1287 61.4122 48.8484 60.6516 48.3689 60.0195C47.9634 59.518 47.4666 59.0976 46.9049 58.7807C46.4944 58.5378 46.1012 58.2669 45.728 57.9699C45.422 57.7079 45.1729 57.3859 44.996 57.0239C44.996 57.0239 44.996 57.0239 44.996 57.1028C45.0182 57.1789 45.0484 57.2525 45.0861 57.3224C45.2265 57.5961 45.4176 57.8406 45.6492 58.0431C46.0142 58.3608 46.4039 58.6489 46.8148 58.9046C47.352 59.2242 47.8254 59.6403 48.2112 60.1321C48.6576 60.7381 48.9125 61.4636 48.9432 62.2156C48.9098 63.0875 48.7679 63.9519 48.5209 64.7888C48.412 65.265 48.3684 65.7537 48.3914 66.2416C48.4124 66.7671 48.5801 67.2762 48.8757 67.7113C49.2113 68.1456 49.6902 68.4469 50.2271 68.5615C50.7553 68.67 51.2926 68.7284 51.8318 68.7361C52.353 68.7429 52.8713 68.8148 53.3747 68.95C53.8525 69.0986 54.299 69.3333 54.6923 69.6426C55.0624 69.9344 55.368 70.2997 55.59 70.7154C55.8119 71.1312 55.9453 71.5884 55.9818 72.0583C56.0606 72.9648 55.6101 73.7475 55.3624 74.564C55.2322 74.9557 55.175 75.3679 55.1934 75.7802C55.218 76.1737 55.3793 76.5462 55.6496 76.8332C55.8809 77.0755 56.1757 77.2478 56.5003 77.3305C56.8249 77.4131 57.1662 77.4028 57.4852 77.3006C57.7182 77.2102 57.9276 77.0679 58.0974 76.8844C58.2671 76.701 58.3929 76.4813 58.465 76.242C58.5671 75.9485 58.5827 75.6319 58.51 75.3298C58.4855 75.2197 58.4417 75.1148 58.3805 75.0201Z" fill="#263238"/>
<path d="M52.9974 119.126V112.898C53.6956 109.401 53.3634 105.257 51.736 102.064C50.5555 100.007 49.2505 98.0227 47.8282 96.1239L41.6343 88.0774C38.222 90.5606 32.8784 88.7644 28.2949 87.0977C28.2949 87.0977 23.7902 89.6034 21.6617 91.9571C19.4488 94.4346 27.0167 125.432 27.0167 125.432C23.5875 132.291 19.1617 138.383 18.4916 144.634L54.3037 146.013L52.7834 129.594L52.9974 119.126Z" fill="#455A64"/>
<path d="M52.5019 129.769C52.4663 129.536 52.4569 129.3 52.4737 129.065C52.4737 128.553 52.4737 127.939 52.4737 127.156C52.5019 125.467 52.5357 123.288 52.5751 120.861C52.6145 118.434 52.6877 116.176 52.7665 114.566C52.806 113.76 52.8454 113.107 52.8792 112.657C52.8831 112.423 52.9133 112.191 52.9693 111.964C52.992 112.196 52.992 112.43 52.9693 112.662C52.9693 113.175 52.9693 113.789 52.9693 114.571C52.9411 116.26 52.9017 118.44 52.8623 120.866C52.8229 123.293 52.7553 125.551 52.6765 127.162C52.637 127.967 52.5976 128.62 52.5582 129.071C52.567 129.305 52.5481 129.539 52.5019 129.769Z" fill="#263238"/>
<path d="M68.8595 135.434C68.8595 135.434 72.3506 135.625 74.4904 136.976C76.6301 138.328 80.1212 140.434 81.5571 143.041C82.2159 144.24 80.3408 144.494 79.4117 143.801C78.4826 143.108 77.0693 141.791 76.3654 141.633L75.6616 141.47C76.3042 142.924 77.0202 144.345 77.8069 145.727C78.5333 146.853 79.164 148.722 76.9792 148.807C76.9792 148.807 75.5095 150.721 74.023 149.302C74.023 149.302 72.8631 151.042 70.9936 148.632C70.9936 148.632 69.9012 150.012 69.4508 149.483C69.0003 148.953 67.5081 148.12 67.0745 146.397C66.424 144.391 65.6722 142.42 64.8222 140.49L68.8595 135.434Z" fill="#FFBF9D"/>
<path d="M147.021 87.0425C147.41 87.0425 163.396 85.3532 163.396 85.3532C163.396 85.3532 164.753 78.8553 164.68 77.166C164.606 75.4768 163.469 64.2995 163.469 64.2995L169.454 61.4841C169.454 61.4841 177.456 88.4671 175.71 90.7082C173.965 92.9492 170.682 94.9595 170.4 94.9707C170.119 94.982 154.91 101.728 144.33 98.2197C133.749 94.7117 147.021 87.0425 147.021 87.0425Z" fill="#FFBF9D"/>
<path d="M133.012 101.609C135.365 103.946 139.42 105.889 146.188 104.199C159.567 100.855 169.595 98.0053 173.582 95.8656C177.568 93.7259 176.014 84.1647 176.352 83.7312C177.36 82.4248 176.251 79.6207 174.815 79.1815C170.721 77.9427 163.598 78.4326 163.238 78.8042C161.138 81.0115 163.052 83.6918 163.052 83.6918L145.411 86.006C143.242 85.9043 141.068 86.0422 138.93 86.4171" fill="#455A64"/>
<path d="M138.93 86.417L139.352 86.3269C139.634 86.2762 140.05 86.203 140.602 86.1354C142.198 85.9344 143.809 85.8666 145.416 85.9327L163.052 83.5678L162.968 83.7648C162.388 82.9125 162.104 81.8942 162.157 80.865C162.205 80.3326 162.379 79.8193 162.664 79.3672C162.807 79.14 162.969 78.9253 163.148 78.7252C163.218 78.6731 163.296 78.6313 163.379 78.6014L163.581 78.5507C163.717 78.5169 163.846 78.5056 163.976 78.4775C166.161 78.2256 168.365 78.1803 170.558 78.3424C171.71 78.4125 172.854 78.5706 173.982 78.8153C174.263 78.8773 174.545 78.9617 174.838 79.0349C175.138 79.1307 175.413 79.2923 175.643 79.5079C176.09 79.9333 176.432 80.458 176.639 81.0395C176.863 81.622 176.942 82.2498 176.87 82.8695C176.819 83.192 176.698 83.4994 176.516 83.7705C176.465 83.8268 176.47 83.9788 176.465 84.1252V84.5757C176.504 85.7863 176.561 87.0195 176.527 88.2583C176.536 90.0168 176.248 91.7643 175.676 93.4274C175.383 94.2605 174.878 95.0035 174.212 95.584C173.868 95.8535 173.489 96.0769 173.086 96.2484C172.715 96.4455 172.321 96.5975 171.96 96.7777C170.417 97.4365 168.869 97.9771 167.343 98.467C165.817 98.9568 164.319 99.4298 162.838 99.8634C156.948 101.553 151.577 102.921 147.106 104.041C146.038 104.324 144.955 104.548 143.862 104.712C142.883 104.848 141.894 104.901 140.906 104.869C139.319 104.835 137.753 104.495 136.294 103.867C135.38 103.463 134.527 102.933 133.761 102.29C133.491 102.072 133.238 101.833 133.006 101.575C133.006 101.575 133.265 101.823 133.8 102.245C134.576 102.864 135.432 103.376 136.345 103.766C137.794 104.364 139.344 104.683 140.912 104.706C141.889 104.729 142.867 104.669 143.834 104.526C144.919 104.355 145.994 104.125 147.055 103.839C151.56 102.713 156.886 101.327 162.759 99.6044C164.229 99.1708 165.727 98.7091 167.264 98.2023C168.801 97.6955 170.327 97.1606 171.853 96.5131C172.225 96.3385 172.613 96.1865 172.979 95.9894C173.355 95.8239 173.709 95.612 174.032 95.3587C174.661 94.8126 175.136 94.112 175.412 93.326C175.967 91.6849 176.243 89.9624 176.228 88.2301C176.262 86.997 176.228 85.7751 176.166 84.5588V84.0971C176.166 84.0182 176.166 83.9394 176.166 83.8549C176.162 83.81 176.162 83.7647 176.166 83.7198C176.179 83.685 176.194 83.6511 176.211 83.6184L176.24 83.5734C176.398 83.3425 176.502 83.0788 176.544 82.802C176.61 82.2294 176.534 81.6494 176.324 81.1127C176.135 80.575 175.823 80.089 175.412 79.6938C175.212 79.5067 174.974 79.3664 174.714 79.2827C174.432 79.2095 174.151 79.1307 173.875 79.0631C172.762 78.8219 171.633 78.6657 170.496 78.5957C168.326 78.4298 166.144 78.4713 163.981 78.7196C163.852 78.7196 163.722 78.7534 163.598 78.7872L163.418 78.8266C163.379 78.8419 163.341 78.8608 163.306 78.8829C163.136 79.0678 162.983 79.2676 162.849 79.4798C162.581 79.8941 162.419 80.3677 162.376 80.8593C162.328 81.8271 162.592 82.7848 163.131 83.5903L163.244 83.7648H163.047L145.399 86.0172C143.801 85.9361 142.199 85.9812 140.608 86.1523C140.045 86.2086 139.634 86.2706 139.352 86.31C139.07 86.3494 138.93 86.417 138.93 86.417Z" fill="#263238"/>
<path d="M91.1648 104.755L83.979 91.8451L219.891 16.1974C221.457 15.3259 223.305 15.1121 225.028 15.603C226.752 16.094 228.21 17.2495 229.081 18.8153L229.697 19.9223C230.569 21.4882 230.783 23.3362 230.292 25.0597C229.801 26.7832 228.645 28.2411 227.08 29.1126L91.1675 104.76L91.1648 104.755Z" fill="#D82E1D"/>
<path d="M205.133 36.4783L188.492 6.579C188.411 6.43427 188.36 6.2751 188.341 6.11056C188.322 5.94602 188.335 5.77934 188.381 5.62004C188.426 5.46074 188.502 5.31193 188.605 5.18213C188.708 5.05232 188.836 4.94405 188.98 4.86349L196.616 0.613379C196.761 0.532824 196.92 0.481561 197.085 0.462522C197.249 0.443483 197.416 0.457039 197.575 0.502417C197.735 0.547794 197.883 0.624109 198.013 0.726996C198.143 0.829879 198.251 0.957321 198.332 1.10205L214.973 31.0013L205.133 36.4783Z" fill="#D82E1D"/>
<path d="M172.395 22.5556L184.524 44.3466C185.014 45.227 186.125 45.5434 187.006 45.0534L193.657 41.351C194.538 40.861 194.854 39.75 194.364 38.8696L182.236 17.0786C181.746 16.1982 180.635 15.8818 179.754 16.3718L173.102 20.0742C172.222 20.5642 171.905 21.6752 172.395 22.5556Z" fill="#D82E1D"/>
<path d="M183.104 21.2831L190.613 34.7739L205.895 26.2682L198.386 12.7774L183.104 21.2831Z" fill="#D82E1D"/>
<path d="M217.902 17.3325C217.942 17.4001 191.268 32.3218 158.339 50.6558C125.41 68.9898 98.6522 83.799 98.6522 83.7257C98.6522 83.6525 125.28 68.7365 158.221 50.3968C191.161 32.0572 217.863 17.2593 217.902 17.3325Z" fill="#263238"/>
<path d="M36.1218 129.696C46.1447 147.714 67.2772 155.034 83.3251 146.11C99.373 137.185 104.272 115.337 94.249 97.3409C84.2261 79.3447 63.0992 72.0021 47.0456 80.927C30.9921 89.8519 26.1046 111.7 36.1218 129.696ZM85.555 102.183C92.5766 114.796 89.1474 130.095 77.897 136.351C66.6466 142.607 51.8431 137.477 44.8215 124.853C37.7998 112.229 41.229 96.9411 52.4738 90.6796C63.7186 84.4181 78.5333 89.5703 85.555 102.183Z" fill="#D82E1D"/>
<path d="M106.857 78.9556L114.273 92.2792C115.259 94.0508 117.495 94.6877 119.267 93.7016L119.867 93.3675C121.639 92.3814 122.275 90.1458 121.289 88.3741L113.874 75.0506C112.887 73.2789 110.652 72.6421 108.88 73.6282L108.28 73.9623C106.508 74.9484 105.871 77.184 106.857 78.9556Z" fill="#D82E1D"/>
<path d="M121.1 71.0281L128.515 84.3517C129.501 86.1233 131.737 86.7602 133.509 85.7741L134.109 85.44C135.881 84.4539 136.517 82.2183 135.531 80.4466L128.116 67.1231C127.129 65.3514 124.894 64.7146 123.122 65.7007L122.522 66.0348C120.75 67.0209 120.113 69.2565 121.1 71.0281Z" fill="#D82E1D"/>
<path d="M113.715 74.8458C113.788 74.8064 115.505 77.8302 117.561 81.6028C119.616 85.3755 121.221 88.4499 121.147 88.4894C121.074 88.5288 119.357 85.5106 117.302 81.7324C115.246 77.9541 113.641 74.8458 113.715 74.8458Z" fill="#263238"/>
<path d="M107.177 79.4909C107.251 79.4515 108.929 82.3401 110.933 85.9326C112.938 89.525 114.498 92.4812 114.43 92.5206C114.362 92.56 112.679 89.6714 110.697 86.1071C108.715 82.5428 107.11 79.5303 107.177 79.4909Z" fill="#263238"/>
<path d="M128.045 67.0014C128.119 66.9619 129.87 69.9688 131.959 73.7189C134.048 77.4691 135.681 80.5491 135.608 80.5886C135.534 80.628 133.789 77.6155 131.7 73.8653C129.611 70.1152 127.978 67.0408 128.045 67.0014Z" fill="#263238"/>
<path d="M121.17 71.1513C121.238 71.1118 122.955 74.1018 124.993 77.8294C127.032 81.5571 128.636 84.5864 128.563 84.6484C128.49 84.7103 126.784 81.6978 124.74 77.9702C122.696 74.2426 121.097 71.1907 121.17 71.1513Z" fill="#263238"/>
<path d="M162.01 50.8414C162.666 50.9186 163.327 50.749 163.864 50.3657C164.402 49.9824 164.777 49.4127 164.918 48.7677C165.059 48.1226 164.954 47.4484 164.625 46.8762C164.295 46.304 163.765 45.8749 163.137 45.6723C163.543 45.2564 163.808 44.7234 163.894 44.1485C163.981 43.5737 163.884 42.9862 163.618 42.4693C163.352 41.9524 162.93 41.5323 162.412 41.2684C161.894 41.0044 161.307 40.9101 160.732 40.9987C160.708 40.427 160.537 39.8711 160.235 39.3851C159.933 38.8991 159.511 38.4995 159.008 38.2252C158.506 37.9509 157.942 37.8111 157.369 37.8196C156.797 37.828 156.237 37.9844 155.743 38.2734C155.099 37.7469 154.298 37.4509 153.466 37.4325C152.635 37.4142 151.821 37.6745 151.154 38.172C150.594 38.0651 150.014 38.1415 149.501 38.39C148.988 38.6384 148.569 39.0456 148.305 39.5512C148.041 40.0568 147.948 40.6339 148.038 41.1969C148.128 41.7599 148.398 42.2788 148.806 42.6767" fill="#263238"/>
<path d="M150.585 40.7954H151.148C153.988 40.7978 156.722 41.8693 158.807 43.7965C160.891 45.7237 162.174 48.3654 162.399 51.1956C162.821 56.6519 163.215 62.6825 163.17 65.6105C163.063 71.6918 157.016 72.5928 157.016 72.5928L157.506 79.8791L142.792 79.4004L141.57 52.9918C141.052 46.6909 144.279 41.1445 150.585 40.7954Z" fill="#FFBF9D"/>
<path d="M157.067 72.5929C154.252 72.5853 151.498 71.7704 149.133 70.2449C149.133 70.2449 151.081 74.834 157.129 74.3047L157.067 72.5929Z" fill="#FF9A6C"/>
<path d="M159.071 56.9114C159.073 57.137 158.986 57.3542 158.829 57.5164C158.672 57.6785 158.458 57.7726 158.232 57.7785C158.122 57.7862 158.012 57.7719 157.908 57.7366C157.803 57.7013 157.707 57.6457 157.624 57.5729C157.541 57.5001 157.474 57.4116 157.426 57.3126C157.377 57.2135 157.349 57.1059 157.343 56.9959C157.342 56.7701 157.43 56.5531 157.586 56.3904C157.743 56.2276 157.956 56.1318 158.182 56.1231C158.292 56.1155 158.403 56.1299 158.508 56.1655C158.612 56.2012 158.709 56.2573 158.792 56.3307C158.875 56.4041 158.942 56.4932 158.99 56.5929C159.038 56.6926 159.066 56.8009 159.071 56.9114Z" fill="#263238"/>
<path d="M161.087 54.1749C160.98 54.2875 160.321 53.8032 159.398 53.8032C158.474 53.8032 157.782 54.2649 157.68 54.1523C157.579 54.0397 157.742 53.8989 158.041 53.6793C158.445 53.4018 158.925 53.2562 159.415 53.2627C159.899 53.2606 160.371 53.4146 160.76 53.7019C161.042 53.9215 161.138 54.1298 161.087 54.1749Z" fill="#263238"/>
<path d="M150.676 56.5061C150.68 56.7351 150.594 56.9566 150.436 57.1223C150.277 57.2879 150.06 57.3842 149.831 57.3901C149.721 57.3977 149.611 57.3835 149.506 57.3482C149.402 57.3129 149.306 57.2572 149.223 57.1844C149.14 57.1117 149.073 57.0232 149.024 56.9241C148.976 56.8251 148.948 56.7174 148.941 56.6074C148.94 56.3813 149.027 56.1634 149.183 56.0004C149.34 55.8373 149.554 55.742 149.78 55.7346C149.89 55.7262 150 55.7395 150.104 55.7737C150.209 55.808 150.305 55.8625 150.388 55.9342C150.472 56.0059 150.54 56.0933 150.589 56.1915C150.638 56.2896 150.668 56.3965 150.676 56.5061Z" fill="#263238"/>
<path d="M151.931 54.3213C151.824 54.434 151.165 53.9497 150.242 53.9497C149.319 53.9497 148.626 54.4114 148.525 54.2988C148.423 54.1862 148.587 54.0454 148.885 53.8258C149.289 53.5482 149.769 53.4027 150.259 53.4091C150.743 53.4071 151.215 53.5611 151.605 53.8483C151.886 54.0679 151.982 54.2707 151.931 54.3213Z" fill="#263238"/>
<path d="M155.287 61.2414C155.779 61.0869 156.288 60.9961 156.802 60.9711C157.039 60.9711 157.264 60.9035 157.309 60.7402C157.329 60.4951 157.274 60.2497 157.151 60.0364L156.453 58.2233C155.484 55.6387 154.764 53.5159 154.888 53.4821C155.011 53.4483 155.862 55.5036 156.83 58.0825C157.061 58.7188 157.286 59.3269 157.5 59.9069C157.646 60.1955 157.688 60.5257 157.618 60.8416C157.583 60.925 157.529 60.9993 157.461 61.0588C157.393 61.1183 157.312 61.1615 157.224 61.1851C157.095 61.2236 156.96 61.2426 156.825 61.2414C156.314 61.3052 155.798 61.3052 155.287 61.2414Z" fill="#263238"/>
<path d="M152.748 50.74C152.624 50.9765 151.83 50.74 150.845 50.6837C149.859 50.6274 149.037 50.8132 148.947 50.5654C148.908 50.4472 149.082 50.2389 149.437 50.0474C149.894 49.8213 150.402 49.7166 150.912 49.7433C151.417 49.7613 151.909 49.9128 152.337 50.1825C152.658 50.4021 152.804 50.633 152.748 50.74Z" fill="#263238"/>
<path d="M161.143 50.3399C160.946 50.5483 160.175 50.3399 159.251 50.3399C158.328 50.3399 157.562 50.4807 157.365 50.2555C157.286 50.1485 157.41 49.9345 157.753 49.7374C158.227 49.4894 158.757 49.3709 159.291 49.3939C159.822 49.4011 160.341 49.5508 160.794 49.8275C161.121 50.019 161.228 50.2329 161.143 50.3399Z" fill="#263238"/>
<path d="M161.825 48.4374C161.825 48.4374 160.237 44.6366 158.407 43.7469C156.194 42.6658 155.237 45.0927 153.125 44.4958C151.013 43.8989 148.902 42.8685 146.74 44.4958C144.375 46.2751 145.478 47.5308 145.321 50.2224C144.701 61.1237 142.697 64.1981 142.15 59.0628C142.088 58.4997 140.529 58.0492 140.304 55.6843C140.011 52.6042 139.904 48.8597 140.602 46.6749C141.165 44.8337 142.241 43.5611 144.127 42.1703C147.111 39.963 151.199 39.9179 153.975 40.2164C156.751 40.5148 162.089 43.685 161.825 48.4374Z" fill="#263238"/>
<path d="M142.533 58.8934C142.527 58.671 142.476 58.4521 142.382 58.25C142.289 58.048 142.156 57.867 141.991 57.718C141.825 57.569 141.631 57.4551 141.421 57.3833C141.21 57.3114 140.987 57.283 140.765 57.2999C139.639 57.4069 138.372 58.0432 138.44 60.38C138.558 64.5243 142.697 63.5501 142.702 63.4262C142.708 63.3024 142.601 60.6277 142.533 58.8934Z" fill="#FFBF9D"/>
<path d="M141.751 61.895C141.751 61.895 141.683 61.9513 141.559 62.0076C141.391 62.0848 141.2 62.0949 141.024 62.0357C140.751 61.874 140.526 61.6419 140.372 61.3637C140.219 61.0854 140.142 60.7711 140.152 60.4535C140.13 60.0999 140.188 59.7459 140.32 59.4174C140.356 59.2876 140.423 59.1684 140.515 59.0703C140.608 58.9722 140.722 58.898 140.85 58.8543C140.932 58.8292 141.021 58.8341 141.1 58.8681C141.18 58.9021 141.245 58.963 141.283 59.0401C141.34 59.1528 141.317 59.2372 141.34 59.2429C141.362 59.2485 141.424 59.1697 141.385 59.0007C141.362 58.898 141.302 58.8075 141.216 58.7473C141.159 58.7055 141.094 58.6755 141.026 58.6591C140.957 58.6426 140.886 58.6401 140.816 58.6516C140.646 58.6898 140.489 58.771 140.36 58.8873C140.231 59.0037 140.134 59.1513 140.078 59.3161C139.911 59.6788 139.836 60.0772 139.859 60.476C139.909 61.3094 140.36 62.0808 140.985 62.2385C141.096 62.2679 141.213 62.2715 141.326 62.249C141.44 62.2266 141.546 62.1787 141.638 62.109C141.751 61.9963 141.768 61.895 141.751 61.895Z" fill="#FF9A6C"/>
<path d="M142.64 50.8635C143.147 51.2768 143.749 51.5574 144.392 51.68C144.714 51.7306 145.044 51.6626 145.321 51.4887C145.597 51.3148 145.801 51.0467 145.895 50.734C145.946 50.4469 145.895 50.109 146.064 49.8894C146.233 49.6698 146.711 49.7092 147.055 49.7486C148.26 49.8781 149.673 48.5493 149.983 47.378C150.139 47.6027 150.376 47.7592 150.644 47.8157C150.911 47.8721 151.191 47.8244 151.424 47.6821C151.808 47.4481 152.147 47.1489 152.427 46.7981C152.59 46.5747 152.805 46.394 153.053 46.2715C153.301 46.1489 153.575 46.0881 153.851 46.0942C154.143 46.1949 154.445 46.2611 154.752 46.2913C155.315 46.2463 155.563 45.61 155.648 45.0694C155.732 44.5288 155.8 43.9038 156.261 43.611C156.735 43.4253 157.259 43.4114 157.742 43.5716C158.243 43.6504 158.868 43.5322 159.021 43.0423C159.041 42.9114 159.035 42.7777 159.003 42.649C158.972 42.5204 158.914 42.3995 158.835 42.2934C158.5 41.7912 158.005 41.4167 157.431 41.2307C156.856 41.0447 156.236 41.0581 155.67 41.2686C155.471 40.5756 155.07 39.9576 154.518 39.4933C153.966 39.0291 153.289 38.7395 152.572 38.6616C151.855 38.5837 151.131 38.721 150.493 39.0559C149.854 39.3908 149.33 39.9082 148.986 40.5422C148.548 40.1406 148.019 39.8509 147.444 39.698C146.869 39.5451 146.266 39.5334 145.686 39.6639C145.106 39.7944 144.566 40.0633 144.112 40.4476C143.658 40.832 143.304 41.3203 143.08 41.8711C142.573 41.7359 142.037 41.7527 141.54 41.9195C141.042 42.0864 140.605 42.3958 140.282 42.8093C139.959 43.2228 139.765 43.7221 139.724 44.2451C139.683 44.7681 139.796 45.2917 140.05 45.7507C139.664 45.9413 139.333 46.2268 139.088 46.5804C138.843 46.934 138.691 47.3441 138.648 47.7722C138.648 48.6281 139.465 49.4615 140.292 49.2587C140.121 49.596 140.085 49.9862 140.192 50.3492C140.299 50.7122 140.541 51.0204 140.868 51.2107C141.195 51.4009 141.582 51.4587 141.951 51.3721C142.319 51.2856 142.641 51.0613 142.849 50.7453" fill="#263238"/>
<path d="M155.974 42.4851C155.974 42.4851 155.974 42.4851 155.974 42.5639C155.974 42.6428 155.974 42.6878 155.946 42.7835C155.888 43.0645 155.785 43.3345 155.642 43.5831C155.413 43.9728 155.1 44.3058 154.724 44.5573C154.228 44.8957 153.635 45.0637 153.035 45.0359L153.103 44.9458C153.224 45.3176 153.194 45.7225 153.018 46.072C152.832 46.4424 152.593 46.7839 152.309 47.0855C152.17 47.2614 152.014 47.4219 151.841 47.5641C151.535 47.7656 151.167 47.8519 150.803 47.8076C150.439 47.7632 150.103 47.5912 149.854 47.322L150.006 47.277C149.947 47.7072 149.8 48.1205 149.572 48.4901C149.344 48.8596 149.041 49.1772 148.682 49.4223C148.289 49.715 147.81 49.8712 147.32 49.8671C146.86 49.842 146.407 49.7412 145.98 49.5687L146.092 49.518C145.875 50.0195 145.536 50.4588 145.107 50.7962C144.911 50.9642 144.679 51.0863 144.43 51.1535C144.181 51.2208 143.919 51.2314 143.665 51.1848C143.23 51.09 142.831 50.8701 142.519 50.5519C142.207 50.2338 141.995 49.8314 141.908 49.3941L142.004 49.4392C141.566 49.6661 141.064 49.7376 140.58 49.6419C140.219 49.5731 139.88 49.4208 139.589 49.1971C139.407 49.055 139.251 48.8837 139.127 48.6903C139.081 48.6231 139.047 48.5489 139.025 48.4707C139.183 48.7296 139.387 48.9569 139.628 49.1408C139.915 49.3483 140.247 49.4853 140.596 49.5405C141.056 49.6276 141.532 49.552 141.942 49.3266L142.021 49.2815V49.3716C142.106 49.7786 142.308 50.1519 142.602 50.4459C142.896 50.7399 143.27 50.9418 143.677 51.0271C143.909 51.0676 144.147 51.0558 144.374 50.9925C144.601 50.9292 144.811 50.8159 144.988 50.6611C145.392 50.3403 145.709 49.9243 145.912 49.4505L145.946 49.3773H146.025C146.432 49.5412 146.864 49.6363 147.303 49.6588C147.757 49.6625 148.199 49.5182 148.564 49.2477C148.901 49.0161 149.187 48.7168 149.402 48.3687C149.617 48.0207 149.758 47.6316 149.814 47.2263V47.0292L149.944 47.1812C150.09 47.343 150.274 47.4665 150.479 47.5411C150.684 47.6157 150.904 47.6391 151.12 47.6092C151.322 47.5823 151.515 47.509 151.684 47.3952C151.846 47.2641 151.994 47.1149 152.123 46.9504C152.401 46.6631 152.636 46.3368 152.821 45.9819C152.904 45.8238 152.955 45.6508 152.97 45.4729C152.986 45.295 152.966 45.1158 152.911 44.9458L152.877 44.8444H152.984C153.559 44.8801 154.13 44.728 154.612 44.4109C154.981 44.1729 155.293 43.8555 155.524 43.4818C155.732 43.1788 155.884 42.8413 155.974 42.4851Z" fill="#455A64"/>
<path d="M155.276 64.333C155.242 64.1809 154.234 64.4287 153.3 63.7417C152.365 63.0548 152.213 61.9511 152.072 61.9793C151.931 62.0074 151.931 62.2721 152.033 62.7282C152.171 63.3233 152.516 63.85 153.007 64.2147C153.475 64.5637 154.06 64.7171 154.64 64.6427C155.073 64.5751 155.298 64.4006 155.276 64.333Z" fill="#263238"/>
<path d="M186.505 221.878L190.503 235.499C190.503 235.499 205.706 236.005 206.68 238.455L180.519 247.149L173.413 226.174L186.505 221.878Z" fill="#455A64"/>
<path d="M182.045 237.058C181.819 237.219 181.661 237.457 181.599 237.727C181.538 237.997 181.578 238.28 181.713 238.522C181.864 238.754 182.099 238.918 182.368 238.982C182.637 239.046 182.921 239.005 183.16 238.866C183.399 238.695 183.567 238.442 183.63 238.155C183.694 237.868 183.649 237.567 183.503 237.312C183.32 237.086 183.056 236.94 182.768 236.904C182.479 236.869 182.188 236.946 181.955 237.12" fill="#E0E0E0"/>
<path d="M205.204 237.47C205.204 237.47 206.539 237.588 206.68 238.455L180.519 247.149L179.888 245.004L205.182 237.458" fill="#263238"/>
<path d="M190.879 235.223C190.919 235.353 190.316 235.623 189.81 236.243C189.303 236.862 189.162 237.51 189.027 237.498C188.892 237.487 188.841 236.687 189.449 235.95C190.057 235.212 190.868 235.1 190.879 235.223Z" fill="white"/>
<path d="M193.999 235.442C194.072 235.56 193.594 235.96 193.335 236.642C193.076 237.323 193.149 237.942 193.019 237.976C192.89 238.01 192.569 237.317 192.901 236.473C193.233 235.628 193.96 235.324 193.999 235.442Z" fill="white"/>
<path d="M196.651 238.207C196.544 238.275 196.156 237.695 196.252 236.89C196.347 236.085 196.848 235.6 196.938 235.69C197.029 235.781 196.781 236.253 196.713 236.94C196.646 237.627 196.775 238.14 196.651 238.207Z" fill="white"/>
<path d="M189.624 232.222C189.624 232.357 188.965 232.374 188.261 232.661C187.558 232.948 187.068 233.365 186.966 233.28C186.865 233.196 187.253 232.56 188.092 232.227C188.931 231.895 189.658 232.098 189.624 232.222Z" fill="white"/>
<path d="M125.5 221.997L119.807 235.004C119.807 235.004 131.12 245.14 130.303 247.662L104.683 237.527L112.718 216.895L125.5 221.997Z" fill="#455A64"/>
<path d="M112.324 230.763C112.048 230.742 111.774 230.822 111.554 230.989C111.334 231.156 111.183 231.399 111.13 231.67C111.099 231.945 111.173 232.221 111.338 232.443C111.504 232.665 111.747 232.815 112.02 232.864C112.312 232.886 112.603 232.799 112.835 232.62C113.068 232.442 113.227 232.183 113.281 231.895C113.281 231.332 112.769 230.69 112.217 230.769" fill="#E0E0E0"/>
<path d="M129.802 245.961C129.802 245.961 130.748 246.913 130.303 247.65L104.683 237.515L105.578 235.471L129.791 245.944" fill="#263238"/>
<path d="M120.269 235.038C120.218 235.161 119.571 234.97 118.794 235.128C118.017 235.285 117.482 235.691 117.386 235.589C117.29 235.488 117.763 234.846 118.704 234.672C119.644 234.497 120.348 234.931 120.269 235.038Z" fill="white"/>
<path d="M122.521 237.211C122.521 237.341 121.88 237.341 121.243 237.701C120.607 238.061 120.269 238.574 120.117 238.523C119.965 238.472 120.196 237.729 120.99 237.296C121.784 236.862 122.567 237.093 122.521 237.211Z" fill="white"/>
<path d="M122.78 241.029C122.656 241.029 122.73 240.319 123.343 239.762C123.957 239.205 124.627 239.159 124.639 239.283C124.65 239.407 124.143 239.632 123.664 240.1C123.186 240.567 122.91 241.068 122.78 241.029Z" fill="white"/>
<path d="M121.243 231.946C121.148 232.036 120.641 231.642 119.914 231.383C119.188 231.124 118.552 231.158 118.529 231.028C118.507 230.899 119.211 230.657 120.061 230.938C120.911 231.22 121.345 231.856 121.243 231.946Z" fill="white"/>
<path d="M135.089 150.541L126.114 186.95C126.114 186.95 109.925 214.204 107.183 227.841L121.992 233.664C121.992 233.664 132.764 207.396 135.923 202.576C137.344 200.416 138.978 198.403 140.799 196.568C141.983 195.393 142.833 193.923 143.26 192.311L150.056 166.336L135.089 150.541Z" fill="#263238"/>
<path d="M131.266 144.719C131.266 144.719 132.516 154.472 141.903 158.796L161.678 191.005C161.678 191.005 163.227 201.478 166.183 210.301C169.139 219.125 175.113 236.13 175.113 236.13L191.381 230.049L181.014 194.608L179.325 182.316L163.187 141.211L149.324 132.9L131.266 144.719Z" fill="#263238"/>
<path d="M131.266 144.718L131.564 144.516L132.46 143.919L135.973 141.599L149.296 132.843L149.341 132.815L149.386 132.843L163.26 141.137V141.171L179.432 182.237V182.265C179.967 186.15 180.558 190.311 181.121 194.557C183.937 204.129 186.921 214.372 190.007 224.924C190.506 226.624 191.002 228.314 191.493 229.992L191.533 230.121L191.403 230.166L175.136 236.248L174.995 236.298L174.95 236.157C172.135 227.987 169.409 220.121 166.836 212.66C166.188 210.796 165.552 208.949 165.023 207.102C164.494 205.255 164.015 203.42 163.581 201.607C162.726 197.98 162.039 194.439 161.498 191.004V191.049L141.835 158.829L141.869 158.857C139.491 157.745 137.379 156.136 135.675 154.139C134.426 152.672 133.402 151.029 132.634 149.262C132.16 148.172 131.783 147.041 131.508 145.884C131.412 145.501 131.356 145.203 131.322 145C131.289 144.797 131.283 144.696 131.283 144.696C131.283 144.696 131.283 144.797 131.345 144.994C131.407 145.191 131.441 145.49 131.548 145.878C131.838 147.021 132.226 148.136 132.708 149.212C133.484 150.96 134.513 152.586 135.759 154.037C137.469 156.014 139.581 157.603 141.953 158.7L161.768 190.886V190.914C162.331 194.337 163.007 197.873 163.863 201.494C164.297 203.302 164.77 205.132 165.304 206.973C165.839 208.814 166.47 210.65 167.118 212.514C169.702 219.974 172.422 227.841 175.249 236.005L175.063 235.921L191.33 229.84L191.24 230.014C190.752 228.336 190.257 226.647 189.754 224.946L180.879 194.574C180.316 190.328 179.719 186.167 179.19 182.282V182.315L163.08 141.21L163.125 141.261L149.273 132.933H149.358L136.035 141.649L132.488 143.936L131.576 144.527L131.266 144.718Z" fill="#455A64"/>
<path d="M139.977 75.1385C139.977 75.1385 135.236 78.7873 132.933 82.864C130.174 87.7459 129.875 94.9816 129.791 106.221C129.706 116.615 131.26 119.504 130.663 123.423C129.487 131.075 128.614 156.757 128.614 156.757C128.614 156.757 143.817 150.918 146.768 148.311L149.735 145.732L168.762 152.022L164.921 128.643L162.286 99.5031L158.908 84.0465L158.345 77.9821L142.004 71.4165L139.977 75.1385Z" fill="#455A64"/>
<path d="M157.731 77.6608C157.928 77.7002 157.264 79.0347 156.092 80.9942L156.042 81.0731L155.952 81.0393C154.302 80.3974 152.117 79.5921 149.729 78.7194C147.038 77.7396 144.605 76.8274 142.865 76.1179C141.993 75.7632 141.294 75.4647 140.816 75.2451C140.562 75.1468 140.317 75.0262 140.084 74.8848C140.351 74.9444 140.611 75.0311 140.861 75.1438L142.939 75.9265L149.831 78.4435C152.218 79.3162 154.397 80.1327 156.025 80.8309L155.89 80.876C157.117 78.9559 157.843 77.6889 157.731 77.6608Z" fill="#263238"/>
<path d="M177.394 65.5202C177.394 65.5202 176.189 63.6451 175.051 61.9164C173.914 60.1878 172.191 59.3375 171.915 58.4366C171.639 57.5356 170.124 53.5209 169.882 52.5242C169.672 51.559 169.574 50.5727 169.59 49.5849C169.59 49.5849 170.834 49.0556 171.431 50.8349C171.791 51.9048 172.94 55.5367 173.188 55.7169C173.435 55.8971 173.751 55.6324 173.751 55.6324C173.239 54.2725 172.798 52.8874 172.428 51.4825C172.371 50.8237 172.602 46.4542 172.602 46.4542C172.911 46.3919 173.232 46.4423 173.506 46.5962C173.781 46.7501 173.992 46.9974 174.1 47.2931C174.691 48.4193 174.714 51.2347 174.714 51.2347L175.609 54.3767L175.294 51.2685L175.744 45.5532C176.182 45.6156 176.589 45.8112 176.912 46.1134C177.234 46.4157 177.455 46.8099 177.546 47.2425C177.923 48.7853 177.422 50.9363 177.675 51.3924C177.929 51.8485 178.205 54.6076 178.205 54.6076C178.205 54.6076 178.514 47.9069 179.23 47.7155C179.945 47.524 180.53 48.2335 180.429 49.5849C180.328 50.9363 180.299 53.7968 180.671 55.0581C181.043 56.3194 184.855 61.252 184.545 63.4142C184.355 64.7207 184.237 66.0365 184.19 67.3558H177.659L177.394 65.5202Z" fill="#FFBF9D"/>
<path d="M154.482 82.3965C154.848 82.5373 170.451 86.4 170.451 86.4C170.451 86.4 173.937 80.7692 174.449 79.1362C174.961 77.5033 177.704 66.6245 177.704 66.6245L184.297 66.0051C184.297 66.0051 182.608 94.0974 180.221 95.6121C177.833 97.1268 174.027 97.8926 173.779 97.8081C173.531 97.7236 156.915 98.878 148.159 91.9802C139.403 85.0824 154.482 82.3965 154.482 82.3965Z" fill="#FFBF9D"/>
<g opacity="0.3">
<path d="M143.299 97.2671C144.974 99.1626 147.208 100.476 149.679 101.017C153.818 101.929 162.63 103.545 162.63 103.545L162.202 99.221L143.057 97.1714" fill="black"/>
</g>
<path d="M136.351 91.3213C137.77 94.3169 140.923 97.5153 147.854 98.2416C161.577 99.6606 171.966 100.415 176.454 99.7394C180.941 99.0637 182.726 89.5645 183.211 89.2717C184.607 88.3933 184.517 85.3752 183.312 84.4742C179.888 81.9122 173.024 79.9696 172.563 80.1779C169.832 81.5349 170.721 84.7107 170.721 84.7107L153.322 80.8705C151.318 80.037 149.227 79.4288 147.089 79.0574" fill="#455A64"/>
<path d="M147.089 79.0575C147.089 79.0575 147.235 79.0575 147.517 79.1138C147.798 79.1701 148.22 79.2377 148.761 79.356C150.33 79.7119 151.867 80.1979 153.356 80.8087L170.744 84.5926L170.597 84.7503C170.34 83.7524 170.419 82.6974 170.823 81.7491C171.045 81.2635 171.381 80.8386 171.802 80.5103C172.016 80.3439 172.244 80.1969 172.484 80.0711C172.566 80.0466 172.651 80.0333 172.737 80.0317H172.945C173.086 80.0317 173.21 80.0767 173.345 80.0992C175.485 80.6052 177.572 81.3122 179.579 82.2108C180.636 82.6715 181.658 83.2097 182.636 83.8212C182.878 83.9789 183.12 84.1534 183.362 84.3224C183.613 84.5126 183.817 84.7571 183.959 85.0375C184.234 85.5904 184.377 86.1995 184.376 86.8168C184.39 87.4416 184.251 88.0603 183.971 88.6187C183.815 88.9067 183.595 89.1552 183.329 89.3451C183.261 89.3789 183.216 89.5253 183.16 89.6604L183.013 90.0827C182.642 91.2089 182.27 92.4139 181.82 93.5738C181.23 95.2372 180.366 96.7902 179.263 98.1686C178.864 98.6924 178.354 99.1223 177.77 99.4277C177.187 99.7332 176.543 99.907 175.885 99.9367C175.462 99.9986 175.04 100.01 174.623 100.044C172.934 100.145 171.312 100.122 169.708 100.077C168.103 100.032 166.532 99.9479 165.006 99.8522C158.885 99.4581 153.395 98.9006 148.789 98.422C147.689 98.3256 146.595 98.1677 145.512 97.949C144.551 97.7434 143.609 97.4571 142.697 97.0931C141.218 96.5186 139.862 95.6661 138.704 94.5818C137.981 93.8898 137.36 93.0993 136.857 92.2337C136.678 91.9367 136.521 91.626 136.39 91.3046C136.39 91.3046 136.548 91.6256 136.908 92.2055C137.428 93.0495 138.059 93.8202 138.783 94.4973C139.94 95.5581 141.29 96.3877 142.759 96.9411C143.673 97.2937 144.614 97.5706 145.574 97.7688C146.654 97.9758 147.744 98.1243 148.84 98.2136C153.446 98.6697 158.936 99.2047 165.045 99.5876C166.577 99.6777 168.142 99.7565 169.741 99.7959C171.341 99.8353 172.979 99.8578 174.635 99.7621C175.046 99.7227 175.468 99.7114 175.879 99.6495C176.289 99.6279 176.695 99.5502 177.084 99.4186C177.862 99.1186 178.549 98.622 179.077 97.9771C180.156 96.6254 181.001 95.1029 181.578 93.4725C182.028 92.3463 182.394 91.1582 182.766 89.9983L182.923 89.559C182.923 89.4915 182.98 89.4183 183.013 89.3394C183.034 89.296 183.058 89.2545 183.087 89.2156C183.108 89.1884 183.133 89.1639 183.16 89.1424L183.199 89.1086C183.433 88.9468 183.626 88.7328 183.762 88.4836C184.025 87.9604 184.153 87.3796 184.134 86.7943C184.135 86.2246 184.006 85.6621 183.757 85.1501C183.634 84.9083 183.459 84.6968 183.244 84.5307C183.002 84.3674 182.771 84.1929 182.529 84.0408C181.565 83.4338 180.556 82.9011 179.511 82.4473C177.527 81.5527 175.462 80.8476 173.345 80.3414C173.216 80.3414 173.086 80.2851 172.962 80.2738H172.777H172.653C172.431 80.3922 172.22 80.5298 172.022 80.6848C171.63 80.9807 171.315 81.3671 171.104 81.811C170.731 82.7017 170.654 83.6887 170.885 84.6264L170.935 84.8235L170.738 84.7785L153.378 80.8932C151.903 80.2726 150.382 79.7681 148.829 79.3841C148.265 79.2546 147.877 79.1645 147.595 79.1082C147.314 79.0519 147.089 79.0575 147.089 79.0575Z" fill="#263238"/>
<path d="M176.454 90.1447C176.053 90.0455 175.673 89.8799 175.327 89.6548C174.464 89.1731 173.669 88.5785 172.962 87.8867C172.253 87.1975 171.632 86.4219 171.116 85.5781C170.881 85.2323 170.7 84.8525 170.581 84.4519C171.352 85.5893 172.217 86.6609 173.165 87.6559C174.185 88.582 175.285 89.415 176.454 90.1447Z" fill="#263238"/>
<path d="M53.9491 136.521C53.9491 136.521 57.4402 136.706 59.58 138.063C61.7197 139.42 65.2108 141.515 66.6467 144.128C67.3055 145.327 65.4304 145.581 64.5069 144.882C63.5835 144.184 62.1589 142.878 61.455 142.714L60.7512 142.557C61.3929 144.01 62.109 145.429 62.8965 146.808C63.6229 147.934 64.2536 149.804 62.0744 149.894C62.0744 149.894 60.5991 151.808 59.1126 150.389C59.1126 150.389 57.9526 152.124 56.0832 149.719C56.0832 149.719 54.9965 151.093 54.5404 150.569C54.0843 150.046 52.5977 149.207 52.1642 147.484C51.5172 145.477 50.7654 143.505 49.9118 141.577L53.9491 136.521Z" fill="#FFBF9D"/>
<path d="M24.2407 90.6123C22.4512 91.1886 20.9067 92.3485 19.8543 93.9063C18.5142 95.9672 18.1031 99.5372 18.486 102.195C19.2969 107.798 21.8645 117.252 23.3117 123.322C23.8072 125.417 24.8264 129.167 27.8163 131.154L49.1516 143.948L54.8556 135.501L35.4067 119.651L31.5608 97.9268L24.2407 90.6123Z" fill="#455A64"/>
<path d="M20.5525 111.964C20.5818 112.035 20.6044 112.109 20.6201 112.184L20.8003 112.843C20.9523 113.44 21.1663 114.295 21.4478 115.393C22.0109 117.646 22.8105 120.844 23.8071 124.825C24.3858 126.994 25.6114 128.934 27.3208 130.388C28.2972 131.17 29.3412 131.864 30.4403 132.461L33.8694 134.533L49.236 143.812L49.0389 143.857L51.0942 140.811L54.743 135.389L54.7711 135.586L35.4968 119.712H35.463V119.673C34.1904 114.318 33.2669 109.932 32.6813 106.88C32.3942 105.354 32.1915 104.166 32.0619 103.355C32.0056 102.961 31.9606 102.651 31.9268 102.431C31.893 102.212 31.8874 102.116 31.8874 102.116C31.918 102.218 31.9424 102.321 31.9606 102.426C32 102.645 32.0563 102.949 32.1239 103.343C32.2759 104.149 32.4955 105.337 32.8108 106.857C33.4246 109.898 34.3818 114.273 35.6826 119.622L35.6432 119.56L54.9513 135.36L55.0526 135.445L54.9795 135.552L51.3307 140.974L49.2754 144.021L49.2022 144.133L49.0783 144.066L33.7343 134.758L30.3108 132.68C29.2044 132.077 28.153 131.378 27.1687 130.591C25.4298 129.102 24.1897 127.115 23.6157 124.898C22.6528 120.906 21.8814 117.68 21.3634 115.444C21.11 114.318 20.9073 113.479 20.7665 112.882L20.6032 112.19C20.581 112.116 20.5641 112.04 20.5525 111.964Z" fill="#263238"/>
<path d="M20.9016 93.6132C21.0341 93.5262 21.1809 93.4633 21.3352 93.4274C21.7439 93.3011 22.1619 93.207 22.5853 93.1458C23.9976 92.928 25.4428 93.1236 26.7464 93.7089C28.0064 94.3658 29.0767 95.3353 29.8547 96.5243C30.0906 96.8837 30.2798 97.2715 30.4178 97.6786C30.4782 97.8235 30.5125 97.9779 30.5191 98.1347C30.2758 97.6178 29.9954 97.1191 29.6801 96.6426C28.8786 95.5329 27.8299 94.6249 26.6169 93.9904C25.3589 93.4329 23.9754 93.2192 22.6078 93.371C21.5548 93.4555 20.9185 93.6639 20.9016 93.6132Z" fill="#263238"/>
</svg>
