<svg width="262" height="272" viewBox="0 0 262 272" fill="none" xmlns="http://www.w3.org/2000/svg">
<path d="M34.4114 196.768C30.9402 194.588 27.0141 193.235 22.9367 192.815C21.0719 192.622 19.0144 192.678 17.5101 193.816C17.3354 193.913 17.1908 194.057 17.0921 194.231C16.9935 194.406 16.9446 194.604 16.9507 194.804C17.0361 195.088 17.2245 195.33 17.4791 195.481C22.1473 199.043 29.2148 199.497 34.4114 196.768Z" fill="#E0E0E0"/>
<path d="M34.1194 196.426C31.4683 194.48 28.995 192.302 26.7286 189.918C24.4435 187.516 22.8387 184.549 22.0791 181.322C21.8801 180.346 21.818 179.227 22.4458 178.45C28.3572 183.062 33.013 189.017 34.138 196.439" fill="#E0E0E0"/>
<path d="M34.3556 196.718C33.9081 193.486 33.734 190.167 34.4924 186.99C35.2507 183.814 36.9788 180.774 39.6765 178.959C40.6959 181.346 40.2546 184.094 39.5397 186.586C38.4227 190.448 36.6866 194.103 34.3991 197.408" fill="#E0E0E0"/>
<path d="M40.1428 207.099C36.6308 207.528 33.5663 209.38 30.9432 211.761C28.2995 214.16 26.4608 217.316 25.6782 220.799C29.1281 220.582 32.0496 218.151 34.1755 215.422C36.3013 212.693 37.7683 209.704 40.0993 207.155" fill="#E0E0E0"/>
<path d="M41.4044 208.759C40.0188 205.245 39.533 201.44 39.9911 197.691C40.4492 193.941 41.8367 190.366 44.0275 187.289C46.0291 194.412 45.2707 202.462 41.4044 208.759Z" fill="#E0E0E0"/>
<path d="M49.0563 217.871C45.8446 217.669 42.6443 218.416 39.8537 220.018C37.063 221.621 34.8052 224.009 33.3609 226.884C33.1682 227.27 32.9942 227.767 33.2553 228.128C33.3922 228.258 33.5585 228.354 33.7403 228.407C33.922 228.46 34.1138 228.469 34.2996 228.432C37.4075 228.233 40.1301 226.368 42.3803 224.255C44.6305 222.142 46.6134 219.686 49.1122 217.853" fill="#E0E0E0"/>
<path d="M48.814 217.38C47.1663 212.076 47.0649 206.411 48.5219 201.051C49.0938 198.944 50.0635 196.731 52.0028 195.749C52.0804 195.697 52.1681 195.661 52.2602 195.645C52.3523 195.629 52.4468 195.633 52.5374 195.656C52.6966 195.737 52.8172 195.877 52.8731 196.047C53.5285 197.516 53.8124 199.123 53.6998 200.728C53.5831 202.326 53.3378 203.912 52.9663 205.471C52.3447 208.373 52.0277 211.488 50.4364 213.986C50.06 214.586 49.7216 215.209 49.4232 215.851C49.1248 216.473 49.1248 216.709 48.8451 217.213" fill="#E0E0E0"/>
<path d="M69.072 220.395C67.574 214.689 69.1653 207.764 72.7643 203.084C73.0254 202.742 73.3859 202.369 73.8086 202.412C74.4737 202.475 74.6478 203.357 74.6167 204.022C74.3429 209.892 72.4213 215.567 69.072 220.395Z" fill="#E0E0E0"/>
<path d="M70.8994 221.644C77.8364 223.447 85.8178 221.694 91.5613 217.442C88.1026 215.705 84.1488 215.22 80.3726 216.069C76.643 216.926 73.2242 218.599 70.8994 221.663" fill="#E0E0E0"/>
<path d="M72.4409 217.84C76.3259 211.506 83.7727 207.372 91.1945 207C90.3367 210.014 87.8565 212.364 85.0594 213.781C82.2622 215.198 79.1355 215.814 76.0586 216.41C74.8589 216.647 73.2179 216.902 72.4409 217.84Z" fill="#E0E0E0"/>
<path d="M69.4571 199.397C70.5076 195.792 71.5643 192.156 71.8565 188.414C72.1486 184.672 71.614 180.762 69.6684 177.548C66.0383 184.572 65.6716 192.777 69.3514 199.77" fill="#E0E0E0"/>
<path d="M81.6777 193.219C85.917 185.511 94.5759 179.351 103.334 178.487C99.9589 186.897 90.7406 193.405 81.6777 193.219Z" fill="#E0E0E0"/>
<path d="M79.0049 194.735C85.3327 195.699 90.7282 199.739 96.6396 202.194C97.8806 202.792 99.2562 203.056 100.63 202.959C101.271 202.957 101.897 202.757 102.42 202.386C102.943 202.015 103.338 201.492 103.552 200.887C103.766 200.283 103.787 199.627 103.614 199.009C103.44 198.392 103.08 197.844 102.582 197.439C101.745 196.664 100.76 196.065 99.6854 195.68C93.2395 192.995 86.3335 192.926 79.5643 194.561" fill="#E0E0E0"/>
<path d="M75.3436 199.174C76.7733 199.584 77.2644 200.324 78.4019 201.287C82.2705 204.577 86.8461 206.929 91.7724 208.162C92.2822 208.286 92.9535 208.336 93.2083 207.876C93.4632 207.416 93.1462 206.987 92.8602 206.633C90.7096 204.111 87.9177 202.217 84.7795 201.15C81.6715 200 79.0173 198.614 75.3374 198.913" fill="#E0E0E0"/>
<path d="M71.21 172.364C73.8048 174.756 76.8711 176.579 80.2121 177.716C83.553 178.853 87.0948 179.279 90.61 178.966C90.9349 178.971 91.2507 178.858 91.4989 178.649C91.9837 178.114 91.3994 177.294 90.8276 176.852C85.1275 172.402 78.2154 170.562 71.21 172.364Z" fill="#E0E0E0"/>
<path d="M76.1084 170.568C79.5445 168.042 83.529 166.366 87.7368 165.674C91.9446 164.983 96.2562 165.296 100.32 166.589C97.2738 169.592 93.0407 171.208 88.7828 171.649C84.528 172.041 80.2375 171.679 76.1084 170.58" fill="#E0E0E0"/>
<path d="M74.1628 158.248C73.6034 152.554 73.9639 148.06 73.5723 142.341C73.5412 141.881 73.4418 141.334 73.0128 141.166C72.3913 140.942 71.9188 141.67 71.7261 142.279C70.8963 144.93 70.6839 147.737 71.1052 150.483C71.5264 153.229 72.5702 155.842 74.1566 158.123" fill="#E0E0E0"/>
<path d="M73.7524 158.882C77.6126 156.495 80.5092 153.374 83.1821 149.713C85.0469 147.164 86.6195 144.119 86.1968 140.98C83.5799 140.93 81.0935 142.372 79.3903 144.361C77.6872 146.35 76.6802 148.83 75.9218 151.335C75.1635 153.84 74.6413 156.414 73.7524 158.882Z" fill="#E0E0E0"/>
<path d="M83.0207 156.302C91.5113 153.165 99.3719 148.533 106.231 142.627C103.459 141.514 100.282 142.179 97.5288 143.298C91.2009 145.859 86.023 150.173 82.915 156.252" fill="#E0E0E0"/>
<path d="M76.3569 161.996C80.646 162.462 84.9971 162.767 89.2489 162.058C93.5006 161.349 97.3731 159.702 101.283 158.061C101.622 157.962 101.912 157.74 102.097 157.44C102.159 157.258 102.164 157.062 102.112 156.878C102.06 156.694 101.953 156.53 101.805 156.408C101.505 156.171 101.154 156.008 100.78 155.929C96.534 154.742 91.9528 155.307 87.7757 156.706C83.7951 158.066 79.968 159.839 76.3569 161.996Z" fill="#E0E0E0"/>
<path d="M51.891 172.557C48.9695 166.658 49.156 159.77 51.6859 153.685C53.4636 156.395 53.6812 159.845 53.3517 163.071C53.0223 166.297 52.0464 169.61 51.9842 172.849" fill="#E0E0E0"/>
<path d="M40.2112 166.664C36.5511 166.617 32.9215 167.334 29.5542 168.769C26.187 170.205 23.1562 172.327 20.6558 175C24.2983 175.572 28.0528 174.633 31.3659 173.011C34.679 171.388 37.6254 169.126 40.5407 166.869" fill="#E0E0E0"/>
<path d="M32.3602 164.041C28.7923 163.749 25.3548 163.307 21.9236 164.364C18.4924 165.421 15.3657 167.833 13.9609 171.109C17.3326 171.377 20.7143 170.733 23.7511 169.244C26.7689 167.76 29.6498 166.013 32.3602 164.022" fill="#E0E0E0"/>
<path d="M43.9839 164.159C40.7764 162.058 37.4757 159.913 33.7337 159.043C29.9917 158.173 25.653 158.813 23.0547 161.635C26.0819 163.407 29.7555 163.618 33.2613 163.618C36.7671 163.618 41.0748 163.575 44.3879 164.743" fill="#E0E0E0"/>
<path d="M44.0025 164.333C38.5138 158.937 36.4315 149.253 38.6381 141.881C42.9753 148.517 44.8715 156.453 44.0025 164.333Z" fill="#E0E0E0"/>
<path d="M59.1079 149.054C60.1398 146.642 60.8732 144.119 61.7994 141.663C62.6491 139.186 63.9517 136.889 65.6409 134.888C67.3575 132.867 69.7998 131.601 72.4412 131.364C71.5955 135.079 69.9847 138.577 67.7115 141.634C65.4382 144.692 62.5525 147.243 59.2384 149.123" fill="#E0E0E0"/>
<path d="M56.3725 152.237C54.6568 149.875 52.6802 146.642 50.3554 144.914C48.0306 143.186 45.0034 142.086 42.1689 142.764C43.6376 145.338 45.6859 147.534 48.1514 149.178C50.6169 150.823 53.4317 151.87 56.3725 152.237Z" fill="#E0E0E0"/>
<path d="M56.9198 149.247C55.7947 146.394 54.6634 143.51 54.2096 140.476C53.7558 137.443 54.0356 134.198 55.5833 131.556C58.5981 137.25 59.5678 143.367 57.0752 149.315" fill="#E0E0E0"/>
<path d="M59.1328 131.556C60.8422 125.906 66.0139 121.747 71.5958 119.839C72.2883 119.556 73.0387 119.443 73.7839 119.51C74.1559 119.546 74.5083 119.694 74.7954 119.933C75.0824 120.173 75.2909 120.493 75.3938 120.852C75.5989 121.816 74.8033 122.674 74.0574 123.339C69.6915 127.064 64.6169 129.868 59.139 131.581" fill="#E0E0E0"/>
<path d="M59.1949 126.932C59.4125 123.289 59.6425 119.597 60.8235 116.147C62.0046 112.697 64.292 109.458 67.6114 107.948C68.177 111.628 66.5546 115.283 64.5966 118.453C62.6386 121.623 60.2827 124.607 59.1079 128.137" fill="#E0E0E0"/>
<path d="M59.1077 129.443C57.6967 125.322 57.5475 120.119 55.0859 116.507C53.3579 114.021 50.598 112.293 49.1186 109.639C48.2195 112.185 48.342 114.981 49.4605 117.44C50.583 119.868 52.1279 122.078 54.023 123.966C55.8505 125.912 57.4107 127.379 59.1077 129.443Z" fill="#E0E0E0"/>
<path d="M59.1326 250.679C59.0269 250.679 58.9274 223.217 58.9212 189.346C58.915 155.475 58.9958 128.007 59.1077 128.007C59.2196 128.007 59.3128 155.463 59.3191 189.346C59.3253 223.229 59.2445 250.679 59.1326 250.679Z" fill="#E0E0E0"/>
<path d="M83.1323 168.411C82.8032 168.577 82.4573 168.709 82.1005 168.802L79.2598 169.76C76.8604 170.574 73.5722 171.755 69.998 173.222C66.4238 174.689 63.1231 175.969 61.2272 177.617C60.4696 178.25 59.8659 179.047 59.4619 179.947C59.1884 180.569 59.1449 180.986 59.1076 180.979C59.0885 180.885 59.0885 180.788 59.1076 180.693C59.1473 180.42 59.2139 180.152 59.3065 179.892C59.667 178.934 60.2584 178.08 61.0283 177.405C62.1732 176.435 63.4551 175.639 64.8325 175.043C66.3554 174.334 68.0462 173.589 69.8364 172.855C73.4168 171.388 76.7361 170.244 79.1603 169.492C80.3724 169.113 81.3608 168.833 82.0445 168.653C82.399 168.539 82.7631 168.458 83.1323 168.411Z" fill="#E0E0E0"/>
<path d="M91.0014 149.091C90.9133 149.201 90.8155 149.303 90.7093 149.396L89.8266 150.229L86.5384 153.213L75.5858 162.965C71.3155 166.77 67.6232 170.425 65.0622 173.141C63.7817 174.508 62.7685 175.627 62.0785 176.435L61.2829 177.343C61.1991 177.455 61.1009 177.555 60.9907 177.641C61.0513 177.515 61.1287 177.398 61.2207 177.293C61.3886 177.069 61.631 176.74 61.9604 176.336C62.582 175.509 63.5952 174.347 64.8571 172.954C68.1616 169.342 71.6558 165.908 75.3248 162.667C79.6138 158.875 83.5174 155.463 86.3519 153.007L89.7272 150.111L90.6596 149.34C90.8709 149.185 90.989 149.079 91.0014 149.091Z" fill="#E0E0E0"/>
<path d="M70.9739 166.832C70.862 166.782 71.7571 164.725 72.646 162.114C73.5348 159.503 73.9637 157.309 74.0818 157.328C74.2 157.346 73.9327 159.603 73.0189 162.245C72.6366 163.368 72.1946 164.469 71.6949 165.545C71.5199 166.008 71.2768 166.441 70.9739 166.832Z" fill="#E0E0E0"/>
<path d="M59.1574 183.46C58.9162 183.224 58.6958 182.969 58.4986 182.695L56.814 180.526C55.3968 178.698 53.4388 176.175 51.2197 173.402C49.0005 170.63 47.0052 168.15 45.5445 166.353L43.8164 164.221C43.577 163.974 43.3683 163.698 43.1948 163.401C43.4515 163.618 43.6886 163.857 43.9034 164.116C44.3448 164.594 44.9664 165.297 45.7247 166.173C47.2476 167.926 49.2989 170.381 51.4994 173.154C53.6998 175.926 55.6268 178.481 56.9881 180.358C57.6656 181.297 58.2313 182.061 58.5731 182.602C58.8008 182.864 58.9969 183.152 59.1574 183.46Z" fill="#E0E0E0"/>
<path d="M53.8983 176.703C53.8299 176.771 52.4251 175.105 51.6916 172.575C51.2787 171.228 51.1103 169.817 51.1944 168.411H51.3684C51.2876 168.728 51.2317 168.896 51.2006 168.889C51.1695 168.883 51.1695 168.709 51.2006 168.38H51.3746C51.4599 169.752 51.6954 171.111 52.077 172.432C52.7794 174.913 54.004 176.634 53.8983 176.703Z" fill="#E0E0E0"/>
<path d="M47.1045 168.156C46.6306 167.794 46.1126 167.493 45.563 167.261C44.1791 166.849 42.7243 166.733 41.2926 166.919C39.8399 167.031 38.3991 167.264 36.9849 167.615C36.4053 167.798 35.8132 167.94 35.2134 168.038C35.7438 167.729 36.3151 167.497 36.9103 167.348C38.3246 166.909 39.7846 166.634 41.2615 166.527C42.7472 166.328 44.2589 166.49 45.6686 167C46.2654 167.21 46.7722 167.618 47.1045 168.156Z" fill="#E0E0E0"/>
<path d="M45.4943 166.086C45.4943 166.148 44.593 165.725 43.1322 165.228C41.2304 164.58 39.2549 164.173 37.2519 164.016C35.2475 163.87 33.2328 163.973 31.2535 164.321C29.7306 164.594 28.8106 164.874 28.7671 164.812C28.9595 164.691 29.1691 164.601 29.3887 164.544C29.9713 164.338 30.5673 164.172 31.1727 164.047C33.169 163.605 35.2196 163.461 37.2581 163.618C39.2958 163.774 41.2998 164.226 43.2068 164.961C43.7833 165.181 44.3458 165.437 44.8913 165.725C45.1096 165.814 45.313 165.936 45.4943 166.086Z" fill="#E0E0E0"/>
<path d="M59.1075 157.328C59.0018 157.328 58.231 154.68 57.3857 151.354C56.5403 148.029 55.9436 145.306 56.0492 145.281C56.1549 145.256 56.9257 147.929 57.7711 151.255C58.6164 154.58 59.2132 157.297 59.1075 157.328Z" fill="#E0E0E0"/>
<path d="M59.2132 157.328C59.0951 157.365 58.5916 155.575 57.3111 153.747C56.5029 152.667 55.5586 151.695 54.5015 150.857C54.9035 150.951 55.2768 151.14 55.5893 151.41C56.3836 151.996 57.0747 152.71 57.6343 153.524C58.977 155.401 59.3126 157.322 59.2132 157.328Z" fill="#E0E0E0"/>
<path d="M59.1328 236.041C59.0893 236.041 59.0085 235.376 58.6977 234.213C58.2369 232.57 57.6122 230.977 56.8329 229.458C54.9681 225.579 51.4871 220.662 47.0987 215.739C44.9231 213.253 42.8159 210.91 41.0257 208.672C39.4161 206.698 37.9614 204.604 36.6745 202.406C35.8112 200.922 35.0771 199.366 34.4802 197.757C34.2813 197.185 34.1321 196.737 34.0513 196.426C33.9964 196.274 33.9589 196.115 33.9395 195.954C33.9767 195.954 34.1757 196.575 34.6294 197.701C35.2747 199.277 36.0394 200.803 36.9169 202.263C38.2288 204.426 39.6954 206.491 41.3054 208.442C43.1018 210.661 45.2152 212.992 47.3908 215.478C51.7917 220.414 55.2354 225.424 57.0815 229.334C57.829 230.882 58.4103 232.505 58.8158 234.176C58.9401 234.797 59.0271 235.233 59.0582 235.55C59.0999 235.71 59.1249 235.875 59.1328 236.041Z" fill="#E0E0E0"/>
<path d="M80.8078 211.543C80.4415 211.773 80.0616 211.981 79.6703 212.165C78.6426 212.742 77.6579 213.392 76.7239 214.111C75.3441 215.186 74.0494 216.366 72.8513 217.641C71.49 219.077 70.0915 220.749 68.6618 222.533C65.8086 226.114 63.1358 229.284 61.5383 231.82C60.724 233.063 60.1335 234.132 59.7481 234.878C59.5671 235.273 59.3594 235.655 59.1265 236.022C59.1449 235.909 59.1806 235.8 59.2321 235.699C59.3192 235.494 59.4311 235.189 59.6175 234.81C60.1134 233.738 60.6781 232.7 61.3083 231.702C62.8561 229.11 65.5103 225.89 68.3634 222.316C69.7931 220.526 71.2103 218.853 72.5965 217.418C73.8182 216.142 75.1448 214.972 76.5623 213.918C77.5206 213.208 78.5398 212.584 79.6081 212.053C79.9811 211.86 80.2919 211.742 80.4908 211.655C80.5902 211.602 80.6971 211.564 80.8078 211.543Z" fill="#E0E0E0"/>
<path d="M81.2426 219.488C80.4536 219.668 79.6511 219.785 78.8432 219.836C76.9129 220.036 75.0049 220.413 73.1432 220.961C71.3044 221.558 69.5807 222.464 68.0461 223.64C66.865 224.547 66.3118 225.299 66.2559 225.256C66.3436 225.052 66.4656 224.865 66.6164 224.703C66.9866 224.235 67.4031 223.806 67.8596 223.422C69.3815 222.154 71.133 221.189 73.0188 220.582C74.9025 220.021 76.8442 219.679 78.8059 219.562C79.6142 219.463 80.4298 219.438 81.2426 219.488Z" fill="#E0E0E0"/>
<path d="M66.9586 224.398C66.8342 224.33 67.9158 222.676 68.755 220.451C69.5941 218.225 69.7309 216.236 69.8738 216.261C69.9291 216.69 69.9144 217.124 69.8303 217.548C69.7114 218.584 69.4757 219.604 69.1279 220.588C68.7644 221.563 68.2976 222.496 67.7355 223.372C67.3066 224.025 67.0021 224.398 66.9586 224.398Z" fill="#E0E0E0"/>
<path d="M87.8442 190.21C87.7234 190.292 87.5942 190.361 87.4588 190.415L86.3337 190.925C85.8364 191.136 85.2335 191.41 84.5621 191.764C83.8908 192.119 83.089 192.473 82.2622 192.97L80.9507 193.716C80.4969 193.977 80.0493 194.288 79.5707 194.586C78.6072 195.171 77.6376 195.892 76.6057 196.631C72.1791 199.921 68.3181 203.91 65.1745 208.442C64.4783 209.498 63.7884 210.493 63.2351 211.481C62.9492 211.966 62.657 212.426 62.4084 212.892L61.7122 214.229C61.246 215.068 60.9104 215.87 60.5871 216.56C60.2639 217.25 60.0028 217.859 59.8101 218.362C59.6174 218.866 59.4558 219.202 59.3315 219.506C59.2827 219.643 59.2202 219.774 59.145 219.898C59.1643 219.755 59.2019 219.615 59.2569 219.481L59.6609 218.306C59.835 217.79 60.065 217.175 60.382 216.442C60.699 215.708 61.0036 214.925 61.4636 214.067L62.1411 212.712C62.3835 212.246 62.6695 211.78 62.9492 211.282C63.4962 210.282 64.1924 209.275 64.8761 208.174C68.0069 203.578 71.9003 199.55 76.3881 196.265C77.4324 195.531 78.4145 194.81 79.3967 194.232C79.8815 193.94 80.3353 193.61 80.8015 193.374L82.1317 192.647C82.9709 192.168 83.7727 191.82 84.4627 191.491C85.0522 191.2 85.6559 190.938 86.2715 190.707L87.4277 190.266C87.5637 190.23 87.7036 190.212 87.8442 190.21Z" fill="#E0E0E0"/>
<path d="M70.6816 201.71C70.8401 201.153 71.1709 200.661 71.6265 200.305C72.6811 199.386 74.026 198.869 75.4244 198.844C76.7976 198.836 78.1585 199.103 79.4275 199.627C79.9658 199.797 80.4767 200.044 80.9442 200.361C80.3941 200.254 79.8551 200.095 79.3343 199.888C78.078 199.469 76.7613 199.259 75.4369 199.267C74.122 199.294 72.8503 199.741 71.8067 200.541C71.4039 200.903 71.0279 201.293 70.6816 201.71Z" fill="#E0E0E0"/>
<path d="M68.1145 204.358C68.0088 204.296 68.9723 202.878 69.1961 200.839C69.4199 198.801 68.8356 197.209 68.9537 197.178C69.1841 197.476 69.3378 197.826 69.4012 198.198C69.8607 199.969 69.6389 201.847 68.7796 203.463C68.4502 204.072 68.1518 204.383 68.1145 204.358Z" fill="#E0E0E0"/>
<path d="M40.1675 239.975C40.758 250.468 43.8971 261.141 48.7828 271.932H69.9171C74.5542 261.253 77.5006 250.592 77.9979 239.975H40.1675Z" fill="#E0E0E0"/>
<path d="M74.5916 256.957C74.5916 257.069 67.6297 257.156 59.0517 257.156C50.4736 257.156 43.5117 257.069 43.5117 256.957C43.5117 256.846 50.4736 256.759 59.0517 256.759C67.6297 256.759 74.5916 256.846 74.5916 256.957Z" fill="#FAFAFA"/>
<path d="M74.1439 260.762C74.1439 260.867 67.6171 260.954 59.5612 260.954C51.5053 260.954 44.9785 260.867 44.9785 260.762C44.9785 260.656 51.5053 260.563 59.5612 260.563C67.6171 260.563 74.1439 260.65 74.1439 260.762Z" fill="#FAFAFA"/>
<path d="M49.1061 246.863C49.218 246.863 49.305 249.045 49.305 251.736C49.305 254.428 49.218 256.609 49.1061 256.609C48.9943 256.609 48.9072 254.428 48.9072 251.736C48.9072 249.045 49.0191 246.863 49.1061 246.863Z" fill="#FAFAFA"/>
<path d="M60.4626 246.863C60.5683 246.863 60.6615 249.125 60.6615 251.91C60.6615 254.695 60.5683 256.958 60.4626 256.958C60.3569 256.958 60.2637 254.695 60.2637 251.91C60.2637 249.125 60.3507 246.863 60.4626 246.863Z" fill="#FAFAFA"/>
<path d="M71.098 246.776C71.2099 246.776 71.2969 249.076 71.2969 251.916C71.2969 254.757 71.2099 257.063 71.098 257.063C70.9861 257.063 70.9053 254.763 70.9053 251.916C70.9053 249.069 70.9923 246.776 71.098 246.776Z" fill="#FAFAFA"/>
<path d="M77.3763 246.863C77.3763 246.975 69.2023 247.062 59.1324 247.062C49.0626 247.062 40.8823 246.975 40.8823 246.863C40.8823 246.751 49.0501 246.664 59.1324 246.664C69.2147 246.664 77.3763 246.776 77.3763 246.863Z" fill="#FAFAFA"/>
<path d="M57.448 11.1653H7.55859V63.1681H57.448V11.1653Z" fill="#E0E0E0"/>
<path d="M54.0662 11.1653H4.17676V63.1681H54.0662V11.1653Z" fill="#FAFAFA"/>
<path d="M54.0788 63.1868H4.16455V11.1528H54.0788V63.1868ZM4.18942 63.1557H54.0788V11.1901H4.19563L4.18942 63.1557Z" fill="#E0E0E0"/>
<path d="M47.3596 18.1582H10.8843V56.1813H47.3596V18.1582Z" fill="white"/>
<path d="M10.8839 56.4363C10.6247 56.818 10.3223 57.1684 9.98256 57.4806C9.40447 58.1022 8.58396 58.9289 7.664 59.8302C6.74403 60.7315 5.90488 61.5396 5.28328 62.1115C4.96911 62.4467 4.61409 62.7411 4.22656 62.9879C4.48506 62.6076 4.7876 62.2592 5.12788 61.9499C5.70596 61.3283 6.52647 60.4953 7.44644 59.594C8.3664 58.6927 9.21177 57.8784 9.83337 57.3065C10.1462 56.9741 10.499 56.6818 10.8839 56.4363Z" fill="#E0E0E0"/>
<path d="M47.3594 56.3367C47.7416 56.5976 48.0939 56.8999 48.4099 57.238C49.0315 57.8223 49.852 58.6428 50.7595 59.5565C51.667 60.4703 52.4689 61.3219 53.0408 61.9435C53.3731 62.258 53.6673 62.6106 53.9172 62.994C53.5345 62.7386 53.1839 62.438 52.8729 62.0989C52.2513 61.5208 51.4246 60.6941 50.5171 59.7741C49.6096 58.8541 48.8077 58.0088 48.2358 57.3872C47.9035 57.0726 47.6093 56.72 47.3594 56.3367Z" fill="#E0E0E0"/>
<path d="M47.2412 18.2577C47.5028 17.8779 47.805 17.5277 48.1425 17.2134C48.7268 16.5918 49.5411 15.7651 50.4611 14.8638C51.3811 13.9625 52.214 13.1544 52.8356 12.5825C53.1492 12.2467 53.5043 11.9522 53.8923 11.7061C53.6356 12.0859 53.3352 12.4343 52.9972 12.7441C52.4129 13.3657 51.5924 14.1924 50.6724 15.1C49.7525 16.0075 48.9071 16.8156 48.2855 17.3875C47.9762 17.7212 47.6252 18.0137 47.2412 18.2577Z" fill="#E0E0E0"/>
<path d="M10.7845 18.351C10.4028 18.0919 10.0524 17.7894 9.74026 17.4497C9.11866 16.8716 8.29194 16.0511 7.39062 15.1312C6.48931 14.2112 5.68123 13.372 5.10936 12.7505C4.77468 12.4381 4.48026 12.0852 4.23291 11.7C4.6147 11.9541 4.9634 12.2548 5.27098 12.5951C5.89257 13.1731 6.7193 13.9936 7.62683 14.9136C8.53436 15.8336 9.32379 16.6789 9.94539 17.3005C10.2652 17.6167 10.5468 17.9693 10.7845 18.351Z" fill="#E0E0E0"/>
<path d="M47.2413 56.1815C47.2413 56.1815 47.2413 56.1131 47.2413 55.995C47.2413 55.8769 47.2413 55.6904 47.2413 55.4666C47.2413 54.9859 47.2413 54.3022 47.2413 53.4154C47.2413 51.6127 47.2413 48.9896 47.204 45.6641C47.204 39.0067 47.1605 29.5025 47.1357 18.1584L47.2724 18.3013H10.9027L11.0643 18.1397C11.0643 32.0946 11.0643 45.1481 11.0643 56.1628L10.9214 56.0261L37.2585 56.0945L44.6617 56.1318H46.6197H44.6928L37.3268 56.1691L10.8965 56.2374H10.7598V56.1007C10.7598 45.086 10.7598 32.0324 10.7598 18.0776V18.0278H10.9276H47.2413H47.3843V18.1708C47.3532 29.5647 47.3283 39.0876 47.3097 45.7635C47.3097 49.0766 47.3097 51.6873 47.2724 53.4838C47.2724 54.3602 47.2724 55.0377 47.2724 55.5102C47.2724 55.7277 47.2724 55.8955 47.2724 56.0261C47.2668 56.0787 47.2564 56.1307 47.2413 56.1815Z" fill="#E0E0E0"/>
<path d="M35.207 31.0813H23.0361V43.2522H35.207V31.0813Z" fill="#EBEBEB"/>
<path d="M250.149 0.0136719H177.659V105.082H250.149V0.0136719Z" fill="#E0E0E0"/>
<path d="M246.513 0.0136719H174.022V105.082H246.513V0.0136719Z" fill="#F5F5F5"/>
<path d="M237.506 11.3892H183.029V93.7011H237.506V11.3892Z" fill="white"/>
<path d="M237.506 93.701C237.506 93.701 237.506 93.5581 237.506 93.297C237.506 93.0359 237.506 92.6381 237.506 92.1284C237.506 91.0965 237.506 89.5798 237.506 87.6156C237.506 83.6684 237.506 77.9249 237.457 70.6584C237.457 56.1441 237.407 35.5941 237.37 11.3891L237.55 11.5694H183.079L183.278 11.3704C183.278 42.4192 183.278 71.0438 183.235 93.6824L183.079 93.527L222.731 93.6078L233.69 93.6451H236.562H237.556H236.593H233.752L222.83 93.6886L183.079 93.7694H182.924V93.614C182.924 70.9817 182.924 42.3509 182.88 11.3021V11.1902H183.086H237.556H237.736V11.3704C237.699 35.6128 237.668 56.2187 237.649 70.7579C237.649 78.0057 237.612 83.7368 237.6 87.6715C237.6 89.6234 237.6 91.1276 237.6 92.1533C237.6 92.6505 237.6 93.0359 237.6 93.297C237.6 93.5581 237.506 93.701 237.506 93.701Z" fill="#E0E0E0"/>
<path d="M246.718 0.00146484C246.339 0.6571 245.906 1.28076 245.425 1.86626C244.58 2.99135 243.386 4.52048 242.025 6.18014C240.664 7.83981 239.383 9.28813 238.439 10.3448C237.952 10.9408 237.413 11.4921 236.829 11.9921C237.237 11.3514 237.699 10.7464 238.209 10.1832C239.184 9.00841 240.378 7.55387 241.702 5.95015L245.189 1.71707C245.647 1.10099 246.159 0.526857 246.718 0.00146484Z" fill="#E0E0E0"/>
<path d="M237.786 93.4338C240.494 97.7404 243.68 101.727 247.284 105.319L237.786 93.4338Z" fill="white"/>
<path d="M247.284 105.319C246.683 104.873 246.129 104.367 245.63 103.808C243.1 101.238 240.842 98.4135 238.892 95.3794C238.456 94.7716 238.085 94.1195 237.786 93.4338C238.274 93.9975 238.72 94.5958 239.122 95.224C239.918 96.3491 241.043 97.8845 242.354 99.5193C243.666 101.154 244.915 102.627 245.829 103.622C246.358 104.148 246.844 104.716 247.284 105.319Z" fill="#E0E0E0"/>
<path d="M174.047 104.995L183.539 93.2844L174.047 104.995Z" fill="white"/>
<path d="M183.508 93.2845C183.595 93.3529 181.537 96.0257 178.914 99.2643C176.291 102.503 174.097 105.064 174.016 104.995C173.935 104.927 175.986 102.248 178.61 99.0156C181.233 95.7833 183.427 93.241 183.508 93.2845Z" fill="#E0E0E0"/>
<path d="M174.047 0.00139066C174.134 -0.0669851 176.198 2.39454 178.659 5.50874C181.121 8.62295 183.041 11.1964 182.954 11.2647C181.323 9.50913 179.786 7.66872 178.348 5.75117C176.814 3.91224 175.378 1.99293 174.047 0.00139066Z" fill="#E0E0E0"/>
<path d="M220.531 28.104H202.293V79.8955H220.531V28.104Z" fill="#E0E0E0"/>
<path d="M207.763 215.074C207.701 215.142 207.21 214.85 206.656 214.409C206.103 213.968 205.712 213.551 205.768 213.477C205.823 213.402 206.321 213.7 206.874 214.142C207.427 214.583 207.819 214.987 207.763 215.074Z" fill="#263238"/>
<path d="M222.756 192.641C222.849 190.546 222.905 188.401 222.246 186.425C221.587 184.448 220.052 182.602 218 182.179C215.657 181.694 213.258 183.174 211.94 185.175C210.622 187.177 210.181 189.601 209.789 191.963C207.118 208.247 206.132 224.763 206.849 241.25L216.44 242.592C220.667 225.374 221.991 210.337 222.756 192.641Z" fill="#455A64"/>
<path d="M216.67 182.092C216.67 182.092 216.67 182.148 216.627 182.247C216.583 182.347 216.527 182.502 216.465 182.683C216.31 183.087 216.098 183.64 215.844 184.336C215.713 184.697 215.533 185.088 215.39 185.536L214.924 186.984C214.756 187.506 214.582 188.066 214.389 188.656L213.892 190.552C213.088 193.677 212.466 196.847 212.027 200.044C211.511 203.649 211.169 207.64 210.902 211.854C210.411 220.258 210.336 227.879 210.119 233.392C210.019 236.152 209.926 238.365 209.82 239.925C209.764 240.671 209.727 241.262 209.696 241.697L209.659 242.157C209.665 242.209 209.665 242.261 209.659 242.312C209.65 242.261 209.65 242.208 209.659 242.157C209.659 242.033 209.659 241.877 209.659 241.691C209.659 241.256 209.677 240.665 209.715 239.919C209.783 238.378 209.839 236.146 209.907 233.386C210.063 227.873 210.1 220.252 210.591 211.835C210.858 207.633 211.213 203.63 211.747 200.025C212.196 196.818 212.841 193.642 213.68 190.515L214.196 188.619L214.762 186.953L215.259 185.505C215.408 185.057 215.595 184.672 215.738 184.311C216.036 183.621 216.266 183.068 216.44 182.676L216.627 182.254C216.634 182.198 216.649 182.144 216.67 182.092Z" fill="#263238"/>
<path d="M217.559 182.129C218.06 182.719 218.457 183.39 218.734 184.112C219.47 186.097 219.769 188.217 219.61 190.328C219.356 195.624 218.877 202.922 218.249 210.984C217.621 219.046 216.938 226.263 216.316 231.559C216.03 234.188 215.788 236.32 215.607 237.775C215.514 238.483 215.44 239.049 215.39 239.466C215.39 239.64 215.34 239.783 215.321 239.901C215.32 239.952 215.31 240.002 215.29 240.05C215.282 240 215.282 239.95 215.29 239.901L215.321 239.459C215.359 239.037 215.408 238.471 215.477 237.756C215.62 236.252 215.825 234.126 216.098 231.54C216.602 226.269 217.267 218.978 217.901 210.922C218.535 202.866 219.045 195.562 219.362 190.279C219.541 188.201 219.283 186.109 218.603 184.137C218.319 183.437 217.969 182.765 217.559 182.129Z" fill="#263238"/>
<path d="M224.204 206.912C223.576 206.863 222.962 206.703 222.389 206.44C221.779 206.281 221.202 206.013 220.686 205.651C221.315 205.692 221.93 205.85 222.501 206.117C223.113 206.276 223.69 206.545 224.204 206.912Z" fill="#263238"/>
<path d="M225.36 197.141C224.261 197.878 223.044 198.423 221.761 198.751C222.857 198.007 224.075 197.462 225.36 197.141Z" fill="#263238"/>
<path d="M224.757 189.166C224.293 189.3 223.804 189.325 223.328 189.241C222.545 189.185 221.917 189.067 221.923 188.967C222.388 188.833 222.877 188.81 223.353 188.899C223.835 188.875 224.317 188.967 224.757 189.166Z" fill="#263238"/>
<path d="M214.868 184.056C214.787 184.106 214.364 183.584 213.929 182.888C213.494 182.192 213.202 181.589 213.307 181.539C213.413 181.489 213.805 182.011 214.24 182.708C214.675 183.404 214.948 183.994 214.868 184.056Z" fill="#263238"/>
<path d="M211.598 188.88C211.162 189.034 210.695 189.081 210.237 189.017C209.776 189.063 209.31 188.995 208.882 188.818C209.318 188.662 209.784 188.613 210.243 188.675C210.989 188.693 211.598 188.781 211.598 188.88Z" fill="#263238"/>
<path d="M209.248 198.527C208.748 198.507 208.259 198.373 207.819 198.135C207.06 197.831 206.476 197.514 206.513 197.421C207.013 197.442 207.502 197.576 207.943 197.812C208.701 198.117 209.286 198.44 209.248 198.527Z" fill="#263238"/>
<path d="M209 206.639C209 206.732 208.471 206.925 207.756 207.074C207.042 207.223 206.513 207.261 206.463 207.167C206.414 207.074 206.992 206.881 207.707 206.739C208.421 206.596 208.981 206.546 209 206.639Z" fill="#263238"/>
<path d="M207.894 219.916C207.501 220.152 207.058 220.29 206.601 220.32C205.867 220.451 205.258 220.482 205.246 220.389C205.233 220.295 205.805 220.115 206.539 219.985C206.978 219.851 207.443 219.828 207.894 219.916Z" fill="#263238"/>
<path d="M207.16 227.239C207.203 227.326 206.718 227.668 206.078 228.003C205.438 228.339 204.885 228.55 204.835 228.47C204.785 228.389 205.27 228.041 205.917 227.705C206.563 227.369 207.116 227.158 207.16 227.239Z" fill="#263238"/>
<path d="M213.146 235.587C213.059 235.636 212.643 235.052 212.201 234.288C211.893 233.848 211.681 233.348 211.58 232.821C211.66 232.771 212.083 233.355 212.518 234.12C212.824 234.561 213.038 235.06 213.146 235.587Z" fill="#263238"/>
<path d="M214.868 221.738C214.936 221.806 214.464 222.359 213.823 222.981C213.183 223.602 212.58 224.069 212.531 224C212.481 223.932 212.935 223.379 213.581 222.757C214.228 222.135 214.806 221.669 214.868 221.738Z" fill="#263238"/>
<path d="M214.488 214.484C214.42 214.552 213.985 214.191 213.513 213.688C213.04 213.184 212.723 212.724 212.791 212.656C212.86 212.588 213.301 212.948 213.767 213.458C214.234 213.968 214.557 214.452 214.488 214.484Z" fill="#263238"/>
<path d="M215.694 205.222C215.763 205.284 215.371 205.843 214.818 206.465C214.265 207.086 213.761 207.534 213.693 207.466C213.625 207.397 214.01 206.844 214.563 206.222C215.116 205.601 215.601 205.159 215.694 205.222Z" fill="#263238"/>
<path d="M216.316 198.496C216.254 198.565 215.695 198.136 215.073 197.539C214.451 196.942 214.029 196.401 214.097 196.333C214.165 196.265 214.719 196.7 215.34 197.296C215.962 197.893 216.409 198.428 216.316 198.496Z" fill="#263238"/>
<path d="M217.653 189.408C217.55 189.903 217.338 190.368 217.031 190.77C216.608 191.472 216.204 192.013 216.124 191.951C216.227 191.456 216.439 190.991 216.745 190.589C217.168 189.887 217.559 189.359 217.653 189.408Z" fill="#263238"/>
<path d="M220.126 180.986C220.049 181.474 219.864 181.939 219.586 182.347C219.2 183.056 218.821 183.59 218.74 183.547C218.816 183.058 219.001 182.593 219.281 182.185C219.666 181.508 220.046 180.942 220.126 180.986Z" fill="#263238"/>
<path d="M222.923 184.809C222.967 184.896 222.582 185.163 222.072 185.43C221.562 185.697 221.108 185.803 221.065 185.716C221.021 185.629 221.407 185.368 221.923 185.095C222.439 184.821 222.886 184.728 222.923 184.809Z" fill="#263238"/>
<path d="M222.992 215.074C222.342 215.079 221.702 214.923 221.127 214.62C220.506 214.416 219.948 214.057 219.505 213.576C220.113 213.762 220.702 214.005 221.264 214.303C221.866 214.498 222.445 214.757 222.992 215.074Z" fill="#263238"/>
<path d="M221.849 221.464C221.849 221.557 221.289 221.75 220.556 221.893C219.822 222.036 219.219 222.073 219.207 221.98C219.194 221.887 219.766 221.694 220.493 221.551C220.932 221.417 221.396 221.387 221.849 221.464Z" fill="#263238"/>
<path d="M220.444 232.479C219.852 232.188 219.348 231.747 218.983 231.198C218.531 230.717 218.214 230.125 218.063 229.483C218.502 229.946 218.899 230.447 219.25 230.981C219.689 231.446 220.088 231.947 220.444 232.479Z" fill="#263238"/>
<path d="M205.027 237.452C204.965 237.383 205.357 236.948 205.898 236.482C206.439 236.016 206.93 235.705 206.992 235.773C207.054 235.842 206.662 236.277 206.122 236.743C205.581 237.209 205.09 237.551 205.027 237.452Z" fill="#263238"/>
<path d="M200.602 213.501C199.981 211.55 198.806 209.281 196.761 209.25C196.152 209.282 195.563 209.478 195.057 209.818C194.55 210.157 194.145 210.626 193.883 211.177C193.323 212.264 193.055 213.479 193.106 214.701C193.359 223.38 194.839 231.979 197.5 240.243H204.96C204.883 231.159 203.413 222.14 200.602 213.501Z" fill="#455A64"/>
<path d="M187.064 201.231C186.013 197.048 182.893 194.791 179.269 194.58C175.962 195.158 174.676 198.415 174.296 201.753C173.917 205.091 174.918 208.411 175.962 211.612C179.244 221.881 182.524 232.152 185.802 242.424L195.126 241.405C192.167 227.649 190.477 214.888 187.064 201.231Z" fill="#455A64"/>
<path d="M196.76 209.25C196.523 209.585 196.315 209.941 196.139 210.313C195.752 211.369 195.63 212.505 195.785 213.62C195.934 215.043 196.095 216.728 196.332 218.636C196.568 220.544 196.916 222.577 197.339 224.721C198.184 229.023 199.135 232.883 199.744 235.699C200.049 237.104 200.279 238.241 200.428 239.037C200.49 239.397 200.54 239.702 200.583 239.95C200.609 240.056 200.619 240.165 200.614 240.274C200.568 240.175 200.535 240.07 200.515 239.963C200.453 239.72 200.384 239.422 200.297 239.062L199.508 235.748C198.843 232.951 197.848 229.104 197.022 224.79C196.605 222.633 196.269 220.563 196.046 218.673C195.928 217.728 195.847 216.808 195.772 215.982C195.698 215.155 195.61 214.359 195.567 213.638C195.436 212.489 195.599 211.326 196.039 210.257C196.206 209.874 196.452 209.531 196.76 209.25Z" fill="#263238"/>
<path d="M179.406 194.313C178.993 194.787 178.617 195.292 178.281 195.823C177.419 197.308 176.93 198.981 176.857 200.697C176.817 203.243 177.208 205.777 178.013 208.193C178.828 210.965 179.729 214.011 180.668 217.2L185.435 233.585C186.026 235.661 186.498 237.352 186.846 238.558C186.995 239.117 187.12 239.571 187.207 239.913C187.258 240.069 187.293 240.229 187.312 240.392C187.241 240.244 187.185 240.09 187.145 239.932C187.033 239.596 186.896 239.149 186.716 238.595C186.349 237.389 185.833 235.711 185.205 233.623L180.338 217.268C179.406 214.073 178.517 211.052 177.709 208.249C176.901 205.446 176.466 202.86 176.621 200.653C176.716 198.907 177.246 197.213 178.163 195.724C178.498 195.189 178.918 194.713 179.406 194.313Z" fill="#263238"/>
<path d="M193.087 240.417C193 240.276 192.929 240.126 192.876 239.969C192.751 239.671 192.552 239.236 192.341 238.658C191.9 237.514 191.328 235.829 190.744 233.716C190.159 231.602 189.569 229.048 189.009 226.207C188.45 223.366 187.872 220.227 187.25 216.939C186.629 213.651 185.883 210.561 185.05 207.789C184.324 205.334 183.416 202.936 182.333 200.616C181.607 199.053 180.776 197.542 179.847 196.091C179.524 195.568 179.225 195.195 179.064 194.922C178.961 194.792 178.873 194.65 178.803 194.499C178.918 194.617 179.024 194.744 179.12 194.878C179.306 195.14 179.617 195.5 179.959 196.016C180.942 197.447 181.817 198.949 182.576 200.51C183.695 202.83 184.631 205.235 185.373 207.702C186.278 210.719 187.025 213.782 187.611 216.877C188.232 220.159 188.81 223.292 189.339 226.145C189.867 228.998 190.439 231.534 190.998 233.654C191.558 235.773 192.092 237.458 192.497 238.626C192.683 239.211 192.863 239.652 192.963 239.957C193.014 240.107 193.055 240.261 193.087 240.417Z" fill="#263238"/>
<path d="M176.117 210.101C176.117 210.194 175.633 210.393 174.986 210.555C174.34 210.717 173.793 210.76 173.774 210.673C173.755 210.586 174.259 210.375 174.905 210.219C175.552 210.064 176.092 209.977 176.117 210.101Z" fill="#263238"/>
<path d="M175.129 203.717C174.089 203.9 173.029 203.941 171.978 203.842C172.992 203.486 174.09 203.443 175.129 203.717Z" fill="#263238"/>
<path d="M176.179 197.912C176.117 197.98 175.614 197.657 175.048 197.178C174.482 196.7 174.078 196.252 174.141 196.184C174.203 196.115 174.706 196.439 175.272 196.917C175.838 197.396 176.242 197.837 176.179 197.912Z" fill="#263238"/>
<path d="M179.02 192.535C179.113 192.535 179.088 193.007 179.07 193.561C179.051 194.114 179.07 194.561 178.958 194.574C178.846 194.586 178.709 194.132 178.728 193.548C178.746 192.964 178.927 192.516 179.02 192.535Z" fill="#263238"/>
<path d="M184.826 195.071C184.901 195.121 184.677 195.581 184.316 196.09C183.956 196.6 183.608 196.973 183.527 196.923C183.446 196.874 183.676 196.407 184.037 195.898C184.397 195.388 184.745 195.015 184.826 195.071Z" fill="#263238"/>
<path d="M188.593 201.61C188.624 201.703 188.145 201.983 187.511 202.232C186.877 202.48 186.343 202.623 186.305 202.536C186.268 202.449 186.753 202.17 187.387 201.915C188.021 201.66 188.555 201.523 188.593 201.61Z" fill="#263238"/>
<path d="M190.874 208.348C189.965 208.968 188.853 209.217 187.766 209.045C188.26 208.854 188.776 208.724 189.301 208.659C189.809 208.482 190.338 208.378 190.874 208.348Z" fill="#263238"/>
<path d="M180.381 206.434C180.294 206.434 180.381 205.943 180.53 205.396C180.68 204.849 180.91 204.432 181.003 204.457C181.096 204.482 181.003 204.954 180.854 205.495C180.705 206.036 180.475 206.465 180.381 206.434Z" fill="#263238"/>
<path d="M181.849 214.888C181.878 214.395 182.023 213.916 182.271 213.489C182.588 212.755 182.893 212.19 183.005 212.246C182.975 212.739 182.83 213.218 182.582 213.644C182.265 214.359 181.936 214.925 181.849 214.888Z" fill="#263238"/>
<path d="M178.231 217.2C178.193 217.293 177.609 217.131 176.888 216.908C176.167 216.684 175.601 216.479 175.645 216.386C175.688 216.292 176.267 216.354 177.019 216.578C177.771 216.802 178.268 217.119 178.231 217.2Z" fill="#263238"/>
<path d="M180.313 224.094C180.369 224.174 179.972 224.554 179.425 224.939C178.878 225.324 178.393 225.561 178.337 225.511C178.281 225.461 178.679 225.051 179.226 224.665C179.773 224.28 180.264 224.019 180.313 224.094Z" fill="#263238"/>
<path d="M181.985 230.968C181.985 231.062 181.519 231.261 180.885 231.41C180.251 231.559 179.722 231.615 179.704 231.522C179.685 231.428 180.176 231.236 180.804 231.08C181.432 230.925 181.966 230.875 181.985 230.968Z" fill="#263238"/>
<path d="M191.06 214.086C191.11 214.167 190.687 214.502 190.072 214.707C189.457 214.913 188.922 214.968 188.903 214.875C188.885 214.782 189.37 214.608 189.954 214.39C190.538 214.173 191.011 214.005 191.06 214.086Z" fill="#263238"/>
<path d="M192.36 224.777C192.316 224.864 191.813 224.715 191.235 224.442C190.657 224.168 190.215 223.876 190.259 223.789C190.302 223.702 190.8 223.857 191.378 224.131C191.956 224.404 192.397 224.696 192.36 224.777Z" fill="#263238"/>
<path d="M194.647 232.429C194.128 232.408 193.621 232.272 193.161 232.031C192.378 231.727 191.769 231.41 191.806 231.316C192.322 231.342 192.827 231.478 193.286 231.714C193.786 231.85 194.251 232.094 194.647 232.429Z" fill="#263238"/>
<path d="M182.352 238.421C182.309 238.341 182.918 237.93 183.627 237.371C184.335 236.811 184.87 236.32 184.951 236.389C185.031 236.457 184.571 237.066 183.838 237.632C183.428 238.031 182.913 238.305 182.352 238.421Z" fill="#263238"/>
<path d="M188.406 234.536C188.307 234.536 188.176 234.033 187.94 233.436C187.704 232.839 187.468 232.367 187.542 232.311C187.617 232.255 188.015 232.665 188.263 233.312C188.512 233.958 188.493 234.524 188.406 234.536Z" fill="#263238"/>
<path d="M186.803 225.33C186.747 225.411 186.355 225.225 185.926 224.914C185.497 224.603 185.199 224.292 185.255 224.224C185.311 224.156 185.702 224.33 186.125 224.64C186.548 224.951 186.859 225.256 186.803 225.33Z" fill="#263238"/>
<path d="M200.9 210.916C200.956 210.99 200.577 211.363 200.049 211.755C199.52 212.146 199.054 212.376 198.998 212.314C198.942 212.252 199.321 211.867 199.85 211.475C200.378 211.083 200.844 210.835 200.9 210.916Z" fill="#263238"/>
<path d="M203.026 216.721C203.026 216.815 202.442 216.939 201.702 216.858C200.963 216.777 200.409 216.529 200.459 216.442C200.509 216.355 201.081 216.442 201.758 216.516C202.436 216.591 203.02 216.628 203.026 216.721Z" fill="#263238"/>
<path d="M193.889 218.027C193.889 218.114 193.36 218.313 192.646 218.362C191.931 218.412 191.359 218.288 191.371 218.195C191.384 218.101 191.937 218.064 192.614 218.021C193.292 217.977 193.87 217.934 193.889 218.027Z" fill="#263238"/>
<path d="M194.678 212.532C194.678 212.625 194.113 212.637 193.504 212.358C192.894 212.078 192.54 211.643 192.602 211.581C192.664 211.519 193.087 211.792 193.647 212.047C194.206 212.302 194.691 212.439 194.678 212.532Z" fill="#263238"/>
<path d="M203.809 222.962C203.342 222.856 202.906 222.643 202.535 222.341C201.882 221.93 201.391 221.532 201.441 221.452C201.491 221.371 202.063 221.638 202.715 222.073C203.368 222.508 203.884 222.881 203.809 222.962Z" fill="#263238"/>
<path d="M226.1 239.267H177.361V247.907H226.1V239.267Z" fill="#D82E1D"/>
<path d="M181.003 246.191L186.927 272H215.974L222.464 246.191H181.003Z" fill="#D82E1D"/>
<path d="M226.075 247.913C226.075 248.006 215.079 248.087 201.522 248.087C187.965 248.087 176.969 248.006 176.969 247.913C176.969 247.82 187.959 247.739 201.522 247.739C215.085 247.739 226.075 247.82 226.075 247.913Z" fill="#263238"/>
<path d="M198.967 218.213C198.887 218.263 198.557 217.877 198.228 217.349C197.898 216.821 197.693 216.348 197.774 216.299C197.855 216.249 198.184 216.634 198.514 217.163C198.843 217.691 199.048 218.182 198.967 218.213Z" fill="#263238"/>
<path d="M198.986 225.163C198.962 224.711 199.05 224.261 199.241 223.851C199.471 223.155 199.732 222.608 199.825 222.651C199.849 223.103 199.761 223.553 199.571 223.963C199.341 224.653 199.079 225.194 198.986 225.163Z" fill="#263238"/>
<path d="M201.398 232.479C201.311 232.522 200.95 231.938 200.584 231.173C200.312 230.733 200.14 230.239 200.08 229.725C200.167 229.688 200.528 230.266 200.894 231.03C201.166 231.471 201.338 231.965 201.398 232.479Z" fill="#263238"/>
<path d="M196.22 238.328C196.145 238.266 196.437 237.818 196.841 237.321C197.245 236.824 197.68 236.476 197.749 236.538C197.817 236.6 197.531 237.048 197.127 237.545C196.723 238.042 196.288 238.39 196.22 238.328Z" fill="#263238"/>
<path d="M195.138 227.674C195.138 227.767 194.653 227.761 194.094 227.674C193.534 227.587 193.087 227.419 193.106 227.326C193.124 227.232 193.59 227.239 194.15 227.326C194.709 227.413 195.182 227.581 195.138 227.674Z" fill="#263238"/>
<path d="M80.6149 54.5093L75.0578 44.713C78.5 39.1308 79.7297 32.4629 78.5051 26.0201C77.2805 19.5773 73.6902 13.8256 68.44 9.89558C63.1898 5.96559 56.6594 4.1416 50.1326 4.78216C43.6058 5.42272 37.5547 8.4815 33.1687 13.3572C28.7827 18.2329 26.3792 24.5729 26.4305 31.1309C26.4818 37.6888 28.9843 43.9904 33.4461 48.7969C37.9079 53.6033 44.0062 56.567 50.5422 57.1053C57.0782 57.6436 63.5792 55.7176 68.7673 51.7059L80.6149 54.5093Z" fill="#FAFAFA"/>
<path d="M80.6148 54.5093L68.7423 51.7991H68.6242L68.6988 51.6996L68.8106 51.8177C67.148 53.1074 65.3391 54.1965 63.4214 55.0625C61.1362 56.0865 58.7166 56.7793 56.2357 57.12C54.8625 57.3115 53.475 57.3801 52.0897 57.3251C51.3748 57.2878 50.6476 57.2692 49.9141 57.207L47.7012 56.8713C42.5832 55.8685 37.8764 53.3739 34.1732 49.7016C30.4699 46.0294 27.9359 41.3437 26.8901 36.2343C26.1339 32.3718 26.24 28.3899 27.2009 24.5731C28.1832 20.587 30.1009 16.8922 32.7953 13.7946L33.8644 12.6198C34.2125 12.222 34.6352 11.8925 35.0144 11.532C35.3936 11.1715 35.7727 10.7985 36.2078 10.494L37.451 9.55534C37.8635 9.23745 38.2976 8.94874 38.7502 8.69132L40.0804 7.88324L41.4728 7.21192C41.9276 6.97559 42.3968 6.76799 42.8776 6.59032C46.6087 5.11532 50.6241 4.49922 54.6258 4.78769C58.4105 5.04543 62.0922 6.13192 65.4105 7.97027C71.362 11.2934 75.8117 16.7733 77.8424 23.2802C78.6496 26.0493 79.0331 28.9247 78.98 31.8085C78.8435 36.4106 77.4925 40.8947 75.0639 44.8061V44.7253L80.5526 54.559L74.9893 44.7564V44.7129V44.6756C76.0623 42.9167 76.928 41.0394 77.5689 39.0812C78.3284 36.7181 78.7471 34.2588 78.8121 31.7774C78.8558 28.9194 78.466 26.0712 77.656 23.3299C75.6297 16.8938 71.211 11.4806 65.311 8.20647C62.0273 6.40405 58.3885 5.34316 54.6506 5.09849C50.7008 4.8036 46.735 5.39835 43.0454 6.83896C42.5671 7.0177 42.1 7.22528 41.6468 7.46056L40.2731 8.13188L38.9615 8.92753C38.5145 9.18304 38.0847 9.46751 37.6748 9.77911L36.4316 10.7115C36.0089 11.0099 35.6546 11.3953 35.2568 11.7309C34.859 12.0666 34.4736 12.4333 34.1255 12.8001L33.0688 13.9625C30.399 17.0205 28.4962 20.6706 27.5179 24.6104C26.5674 28.3799 26.4592 32.3126 27.2009 36.1286C27.9222 39.7382 29.4056 43.1522 31.5521 46.1426C35.424 51.5418 41.1996 55.2715 47.7136 56.5792L49.9079 56.9148C50.6351 56.977 51.3562 57.0019 52.0648 57.0392C53.4374 57.0982 54.8125 57.0337 56.1736 56.8465C58.6349 56.5201 61.0375 55.8462 63.3095 54.8449C65.2192 53.9888 67.0235 52.9146 68.6863 51.6437L69.1712 51.2707L68.7982 51.7556L68.7547 51.6313L80.6148 54.5093Z" fill="#263238"/>
<path d="M35.3877 33.6983L36.0528 32.2189C36.8763 32.791 37.8535 33.1009 38.8562 33.1077C40.0186 33.1077 40.4972 32.7161 40.4972 32.194C40.4972 30.6027 35.5244 31.6967 35.5244 28.539C35.5244 27.0969 36.6868 25.8972 39.1049 25.8972C40.137 25.8759 41.1556 26.1359 42.0512 26.6493L41.4296 28.1412C40.7407 27.7328 39.961 27.5021 39.1608 27.4699C37.9922 27.4699 37.5446 27.9112 37.5446 28.4458C37.5446 30.0122 42.5174 28.9306 42.5174 32.051C42.5174 33.4683 41.3426 34.6866 38.9122 34.6866C37.6634 34.7291 36.4322 34.3838 35.3877 33.6983Z" fill="#263238"/>
<path d="M43.1821 31.274C43.1821 29.3035 44.6988 27.9111 46.775 27.9111C48.8511 27.9111 50.3491 29.3035 50.3491 31.274C50.3491 33.2444 48.8449 34.6368 46.7687 34.6368C44.6926 34.6368 43.1821 33.2382 43.1821 31.274ZM48.4346 31.274C48.408 30.9499 48.2875 30.6406 48.0878 30.384C47.8882 30.1273 47.618 29.9345 47.3104 29.829C47.0028 29.7236 46.6711 29.7101 46.356 29.7902C46.0408 29.8704 45.7559 30.0407 45.5361 30.2803C45.3162 30.5199 45.171 30.8184 45.1182 31.1392C45.0654 31.4601 45.1073 31.7894 45.2388 32.0868C45.3703 32.3842 45.5856 32.6368 45.8585 32.8137C46.1313 32.9906 46.4498 33.0842 46.775 33.0828C47.0066 33.0857 47.2363 33.0397 47.4489 32.9477C47.6616 32.8558 47.8525 32.7201 48.0091 32.5494C48.1657 32.3787 48.2846 32.1768 48.3579 31.9571C48.4312 31.7373 48.4574 31.5045 48.4346 31.274Z" fill="#263238"/>
<path d="M55.67 27.9111V29.6578C55.5146 29.6578 55.3903 29.6578 55.2474 29.6578C55.0062 29.6359 54.7633 29.6687 54.5366 29.7537C54.3099 29.8387 54.1053 29.9738 53.9381 30.1488C53.7708 30.3239 53.6452 30.5344 53.5705 30.7647C53.4959 30.995 53.4741 31.2392 53.5069 31.479V34.587H51.6421V28.0043H53.4572V28.8683C53.7226 28.5434 54.0621 28.287 54.4471 28.1204C54.8321 27.9538 55.2515 27.882 55.67 27.9111Z" fill="#263238"/>
<path d="M60.8541 27.9111V29.6578C60.6925 29.6578 60.5744 29.6578 60.4252 29.6578C59.3809 29.6578 58.691 30.2297 58.691 31.4791V34.5871H56.8262V28.0043H58.635V28.8684C58.9021 28.5438 59.2427 28.2876 59.6287 28.1211C60.0146 27.9546 60.4348 27.8826 60.8541 27.9111Z" fill="#263238"/>
<path d="M68.6927 28.0044L65.7463 34.9414C65.1247 36.514 64.2109 36.9927 63.0361 36.9927C62.3758 37.0001 61.7329 36.7807 61.2148 36.3711L61.9048 35.0222C62.202 35.2809 62.58 35.4282 62.974 35.4387C63.4961 35.4387 63.7883 35.2025 64.0431 34.6244V34.5622L61.2148 27.9795H63.1667L65.0315 32.4115L66.8962 27.9795L68.6927 28.0044Z" fill="#263238"/>
<path d="M69.1899 33.5305C69.2115 33.2361 69.3436 32.9607 69.5598 32.7597C69.776 32.5587 70.0602 32.447 70.3554 32.447C70.6506 32.447 70.9349 32.5587 71.1511 32.7597C71.3673 32.9607 71.4994 33.2361 71.5209 33.5305C71.4994 33.8249 71.3673 34.1002 71.1511 34.3012C70.9349 34.5022 70.6506 34.6139 70.3554 34.6139C70.0602 34.6139 69.776 34.5022 69.5598 34.3012C69.3436 34.1002 69.2115 33.8249 69.1899 33.5305ZM69.2272 26.0713H71.4836L71.1045 31.6222H69.6188L69.2272 26.0713Z" fill="#263238"/>
<path d="M106.667 70.5527L116.32 66.9785L140.227 65.2256L146.517 67.1463L138.032 103.696L117.178 108.203L107.506 95.3668L106.667 70.5527Z" fill="#FFBE9D"/>
<path d="M160.832 72.0444L145.249 66.5122C145.249 66.5122 130.635 87.4165 106.666 70.5215C106.666 70.5215 96.1551 74.3008 94.5887 75.1711C93.0223 76.0413 101.899 102.602 101.899 102.602L100.854 135.628C114.53 142.683 136.41 140.06 155.456 136.871L154.908 100.197L160.832 72.0444Z" fill="#D82E1D"/>
<path d="M154.778 42.0836C155.586 40.9223 155.94 39.5052 155.775 38.1002C155.609 36.6952 154.934 35.3995 153.878 34.4582C152.822 33.5168 151.457 32.9949 150.043 32.9912C148.628 32.9875 147.261 33.5022 146.2 34.438L143.092 39.9516C141.348 42.0373 140.202 44.5574 139.778 47.2429C139.377 49.9547 140.024 52.7176 141.587 54.9694C142.371 56.0582 143.381 56.965 144.548 57.6277C145.715 58.2904 147.011 58.6935 148.348 58.8093C149.685 58.9252 151.031 58.7512 152.295 58.2991C153.558 57.847 154.709 57.1275 155.669 56.1898C156.629 55.2521 157.375 54.1183 157.856 52.8657C158.338 51.6132 158.543 50.2715 158.459 48.9323C158.374 47.5931 158.001 46.2879 157.366 45.106C156.731 43.924 155.848 42.8931 154.778 42.0836Z" fill="#263238"/>
<path d="M146.697 42.5124C146.604 40.6476 146.405 38.7828 146.933 36.974C147.196 36.3231 147.368 35.6391 147.443 34.9414C147.438 34.4334 147.278 33.9389 146.984 33.5247C146.69 33.1104 146.276 32.7961 145.798 32.6241C145.32 32.4521 144.801 32.4307 144.311 32.5627C143.82 32.6947 143.382 32.9738 143.055 33.3625L142.968 33.5676C141.892 34.4379 141.376 35.8116 140.954 37.1294C140.302 39.1833 139.771 41.2733 139.362 43.3889C139.074 44.568 139.005 45.7899 139.157 46.9941C139.238 47.5943 139.46 48.1667 139.805 48.6647C140.15 49.1627 140.607 49.5722 141.14 49.8597C142.831 50.6429 144.919 49.5613 145.846 47.9514C146.772 46.3414 146.809 44.3648 146.697 42.5124Z" fill="#D82E1D"/>
<path d="M144.397 36.1225C144.043 34.009 143.123 32.0199 142.8 29.9065C142.377 27.1279 143.005 24.3121 143.16 21.5025C143.316 18.6929 142.874 15.6035 140.817 13.689C138.622 11.644 135.322 11.5507 132.369 11.0161C129.013 10.3945 125.83 9.08297 122.529 8.20652C119.229 7.33007 115.654 6.9136 112.459 8.11328C109.569 9.19486 107.306 11.4637 105.261 13.7698C101.942 17.5056 98.834 21.9314 98.834 26.929C98.834 29.5211 99.7477 32.0324 100.077 34.6058C100.394 37.0922 100.195 39.5785 100.773 42.0649C101.351 44.5513 102.992 46.9134 105.442 47.3609L132.307 50.0462C134.07 50.0951 135.822 49.7524 137.436 49.0429C139.051 48.3334 140.488 47.2747 141.644 45.9431C142.801 44.6114 143.647 43.04 144.123 41.3418C144.599 39.6437 144.693 37.8611 144.397 36.1225Z" fill="#263238"/>
<path d="M137.087 22.9444L137.019 19.6561L117.128 16.7035C111.024 16.3057 104.696 22.6709 104.559 28.7874C104.41 35.5814 104.491 43.886 105.498 48.9147C107.524 59.0219 115.375 59.9978 115.375 59.9978V65.7413C115.378 68.8012 116.596 71.7347 118.76 73.8977C120.924 76.0607 123.858 77.2766 126.918 77.2782C128.465 77.2782 129.997 76.9671 131.421 76.3634C132.846 75.7598 134.135 74.8759 135.211 73.7643C136.287 72.6527 137.129 71.3361 137.686 69.8927C138.243 68.4493 138.505 66.9086 138.455 65.3622L137.087 22.9444Z" fill="#FFBE9D"/>
<path d="M108.78 35.5628C108.797 35.8987 108.943 36.215 109.187 36.4463C109.431 36.6777 109.755 36.8065 110.091 36.806C110.259 36.8136 110.427 36.787 110.584 36.7279C110.742 36.6688 110.885 36.5785 111.007 36.4623C111.128 36.3461 111.225 36.2064 111.291 36.0519C111.357 35.8973 111.391 35.7309 111.39 35.5628C111.373 35.2269 111.227 34.9107 110.983 34.6793C110.739 34.4479 110.415 34.3192 110.079 34.3196C109.911 34.3121 109.743 34.3386 109.586 34.3977C109.429 34.4568 109.285 34.5472 109.163 34.6634C109.042 34.7796 108.945 34.9192 108.879 35.0738C108.814 35.2284 108.78 35.3947 108.78 35.5628Z" fill="#263238"/>
<path d="M106.915 33.0205C107.083 33.1822 108.046 32.3989 109.445 32.3616C110.843 32.3243 111.931 32.9832 112.055 32.7905C112.124 32.7097 111.95 32.4114 111.483 32.1006C110.858 31.7061 110.127 31.513 109.389 31.5474C108.659 31.5732 107.958 31.8325 107.387 32.2871C106.952 32.6352 106.821 32.946 106.915 33.0205Z" fill="#263238"/>
<path d="M122.063 35.1153C122.081 35.4512 122.227 35.7675 122.471 35.9988C122.715 36.2302 123.039 36.359 123.375 36.3585C123.543 36.3661 123.711 36.3395 123.868 36.2804C124.025 36.2213 124.169 36.131 124.291 36.0148C124.412 35.8986 124.509 35.7589 124.574 35.6043C124.64 35.4497 124.674 35.2834 124.674 35.1153C124.657 34.7794 124.511 34.4631 124.267 34.2318C124.023 34.0004 123.699 33.8717 123.363 33.8721C123.195 33.8645 123.027 33.8911 122.87 33.9502C122.712 34.0093 122.569 34.0996 122.447 34.2158C122.326 34.3321 122.229 34.4717 122.163 34.6263C122.097 34.7809 122.063 34.9472 122.063 35.1153Z" fill="#263238"/>
<path d="M120.714 32.7222C120.882 32.8838 121.839 32.1006 123.244 32.0633C124.649 32.026 125.731 32.6849 125.849 32.4922C125.923 32.4114 125.749 32.113 125.283 31.8022C124.658 31.4078 123.927 31.2147 123.188 31.249C122.468 31.2805 121.776 31.5395 121.212 31.9887C120.764 32.3244 120.634 32.6476 120.714 32.7222Z" fill="#263238"/>
<path d="M116.04 43.3391C115.292 43.1385 114.521 43.032 113.746 43.0221C113.386 43.0221 113.044 42.9413 112.969 42.6988C112.928 42.3306 112.997 41.9584 113.168 41.6297C113.473 40.747 113.79 39.8208 114.119 38.8574C115.431 34.9102 116.369 31.7028 116.239 31.6158C116.108 31.5287 114.884 34.7237 113.572 38.6709C113.255 39.6406 112.951 40.5668 112.665 41.4556C112.444 41.9006 112.389 42.4096 112.509 42.8915C112.568 43.0168 112.654 43.1268 112.762 43.2131C112.87 43.2993 112.996 43.3595 113.131 43.3888C113.335 43.4356 113.543 43.4565 113.752 43.451C114.517 43.5113 115.285 43.4737 116.04 43.3391Z" fill="#263238"/>
<path d="M115.399 60.0229C120.304 59.9011 125.082 58.4416 129.218 55.8022C129.218 55.8022 125.967 63.0936 115.399 62.5839V60.0229Z" fill="#EB996E"/>
<path d="M116.773 46.702C117.023 46.3523 117.36 46.0734 117.75 45.8926C118.14 45.7117 118.57 45.6351 118.998 45.6702C119.31 45.6832 119.616 45.76 119.898 45.8957C120.179 46.0315 120.429 46.2234 120.633 46.4596C120.829 46.6863 120.95 46.9675 120.981 47.2652C121.013 47.563 120.952 47.8632 120.807 48.1255C120.592 48.3863 120.303 48.5771 119.979 48.6734C119.655 48.7697 119.309 48.7672 118.986 48.6663C118.315 48.4599 117.691 48.1218 117.152 47.6717C116.988 47.5635 116.845 47.4266 116.73 47.2677C116.68 47.1897 116.653 47.0991 116.653 47.0066C116.653 46.9141 116.68 46.8235 116.73 46.7455" fill="#EB996E"/>
<path d="M127.192 28.5515C127.111 28.1536 125.694 28.1288 124.084 27.6937C122.474 27.2585 121.224 26.6183 120.976 26.9291C120.858 27.0721 121.032 27.4637 121.51 27.905C122.154 28.4587 122.916 28.8584 123.738 29.0739C124.56 29.2893 125.42 29.3147 126.253 29.1482C126.881 28.9928 127.223 28.7379 127.192 28.5515Z" fill="#263238"/>
<path d="M110.949 27.538C110.508 27.4075 109.501 28.2964 108.121 29.0298C106.741 29.7633 105.448 30.1611 105.33 30.5963C105.286 30.8014 105.616 30.9879 106.269 30.9941C107.166 30.9603 108.043 30.7108 108.823 30.2668C109.615 29.8598 110.293 29.2641 110.8 28.5326C111.142 27.9731 111.154 27.6126 110.949 27.538Z" fill="#263238"/>
<path d="M133.376 13.2415L118.035 14.4474L105.324 18.8296C106.959 22.3914 107.269 25.3191 111.173 25.6672C113.13 25.8378 115.098 25.5039 116.889 24.6976C118.68 23.8912 120.235 22.6392 121.404 21.0612C122.063 23.9454 125.314 25.4123 128.242 25.8226C130.314 26.1981 132.45 26.0047 134.421 25.2632C136.341 24.4426 137.97 22.7146 138.231 20.6385C138.492 18.5623 135.44 13.5833 133.376 13.2415Z" fill="#263238"/>
<path d="M145.528 23.4355C144.673 21.8493 143.274 20.6261 141.587 19.9919L141.196 17.0144L129.826 20.601C127.135 24.8652 128.366 31.0812 132.518 34.071L132.568 36.228C132.617 38.4897 133.242 40.7016 134.383 42.6553L137.988 50.5061C140.636 50.5682 141.239 47.7027 142.29 45.3592C143.34 43.0158 143.352 40.3865 143.259 37.8131C143.214 36.5699 143.149 35.3267 143.067 34.0835C143.875 32.716 145.025 31.4417 145.702 29.9871C146.174 28.9539 146.403 27.8266 146.373 26.6912C146.343 25.5558 146.054 24.4422 145.528 23.4355Z" fill="#263238"/>
<path d="M134.085 36.8868C134.24 36.806 140.301 34.4004 140.668 40.778C141.034 47.1556 134.582 46.2108 134.564 46.0305C134.545 45.8503 134.085 36.8868 134.085 36.8868Z" fill="#FFBE9D"/>
<path d="M136.36 43.5131C136.36 43.5131 136.478 43.5877 136.67 43.6623C136.94 43.7579 137.237 43.7446 137.497 43.625C138.156 43.3391 138.659 42.2389 138.616 41.0889C138.601 40.543 138.463 40.0076 138.212 39.5225C138.141 39.3272 138.023 39.1522 137.87 39.0125C137.716 38.8728 137.53 38.7726 137.329 38.7206C137.202 38.6982 137.071 38.7198 136.958 38.782C136.845 38.8442 136.757 38.9432 136.708 39.0625C136.633 39.249 136.677 39.3733 136.645 39.3857C136.614 39.3982 136.503 39.2863 136.54 39.019C136.565 38.8605 136.644 38.7156 136.764 38.6087C136.848 38.5351 136.947 38.4795 137.054 38.4453C137.161 38.4111 137.273 38.3991 137.385 38.4098C137.654 38.4413 137.91 38.5421 138.128 38.7023C138.346 38.8625 138.518 39.0766 138.628 39.3236C138.932 39.8594 139.1 40.461 139.119 41.0765C139.157 42.3632 138.572 43.6002 137.665 43.9172C137.498 43.9786 137.32 44.0011 137.143 43.9828C136.966 43.9644 136.796 43.9059 136.645 43.8115C136.378 43.6561 136.341 43.5131 136.36 43.5131Z" fill="#EB996E"/>
<path d="M144.863 22.6772C144.963 22.6772 145.025 22.9942 144.926 23.5101C144.755 24.2446 144.402 24.9244 143.9 25.4868C143.142 26.3569 142.12 26.9551 140.991 27.19C139.673 27.4697 138.355 27.19 137.261 27.3081C136.682 27.3921 136.111 27.5316 135.558 27.7246C135.26 27.8116 134.936 27.8986 134.626 27.967C134.315 28.0354 134.004 28.0851 133.706 28.1224C132.612 28.2919 131.494 28.2003 130.442 27.8551C129.721 27.6136 129.078 27.1845 128.578 26.6119C128.242 26.2079 128.155 25.9219 128.229 25.8536C128.416 25.6671 129.199 26.4751 130.716 26.7424C131.624 26.877 132.549 26.8412 133.445 26.6368C133.706 26.587 133.973 26.5249 134.24 26.4565C134.508 26.3881 134.769 26.2949 135.055 26.1954C135.703 25.9524 136.376 25.7815 137.062 25.6857C138.579 25.5552 139.773 25.866 140.717 25.6857C141.586 25.5558 142.403 25.1903 143.079 24.629C144.304 23.6655 144.621 22.615 144.863 22.6772Z" fill="white"/>
<path d="M121.603 45.9311C121.641 46.1114 120.397 46.4906 119.017 47.2241C117.637 47.9575 116.618 48.7656 116.487 48.6289C116.357 48.4921 117.227 47.4354 118.713 46.6522C120.198 45.869 121.578 45.7633 121.603 45.9311Z" fill="#263238"/>
<path d="M122.716 46.9008C122.629 46.8573 122.784 46.416 122.654 45.8876C122.523 45.3593 122.218 45.0174 122.274 44.949C122.33 44.8806 122.828 45.1604 122.971 45.813C123.114 46.4657 122.784 46.9568 122.716 46.9008Z" fill="#EB996E"/>
<path d="M125.668 36.6258C125.743 36.6631 125.438 37.2474 124.717 37.5955C123.996 37.9436 123.344 37.7944 123.368 37.7074C123.393 37.6204 123.959 37.6079 124.58 37.3034C125.202 36.9988 125.594 36.5699 125.668 36.6258Z" fill="#EB996E"/>
<path d="M126.259 37.1169C126.333 37.1666 126.097 37.5831 125.594 37.8566C125.09 38.1301 124.618 38.1052 124.611 38.0182C124.605 37.9312 125.003 37.8131 125.438 37.5706C125.873 37.3282 126.184 37.0609 126.259 37.1169Z" fill="#EB996E"/>
<path d="M108.848 38.4659C108.848 38.5529 108.5 38.6089 108.139 38.4224C107.779 38.2359 107.623 37.9251 107.692 37.8692C107.76 37.8132 107.99 37.9811 108.313 38.1302C108.636 38.2794 108.854 38.3727 108.848 38.4659Z" fill="#EB996E"/>
<path d="M108.779 39.2181C108.779 39.3051 108.382 39.3113 107.959 39.1186C107.536 38.9259 107.281 38.6276 107.337 38.5654C107.393 38.5032 107.71 38.6524 108.089 38.8265C108.469 39.0005 108.81 39.1621 108.779 39.2181Z" fill="#EB996E"/>
<path d="M117.824 26.7861C117.109 27.361 116.242 27.7154 115.329 27.8059C114.416 27.8964 113.497 27.7192 112.683 27.2958C113.546 27.4546 114.424 27.5172 115.3 27.4823C116.164 27.3445 117.011 27.111 117.824 26.7861Z" fill="#EB996E"/>
<path d="M118.427 27.4388C118.291 27.6924 118.101 27.9137 117.872 28.0875C117.642 28.2613 117.378 28.3835 117.097 28.4458C116.832 28.5592 116.545 28.6129 116.257 28.6033C115.969 28.5936 115.687 28.5207 115.431 28.3898C115.957 28.3335 116.48 28.2484 116.997 28.135C117.83 27.8801 118.358 27.3517 118.427 27.4388Z" fill="#EB996E"/>
<path d="M107.294 23.5166C107.294 23.5166 107.232 23.4606 107.139 23.3363C107.001 23.1541 106.882 22.9583 106.784 22.752C106.427 21.9884 106.255 21.1516 106.281 20.3091C106.281 18.177 107.524 15.268 110.01 13.1483C111.164 12.1473 112.509 11.3922 113.964 10.9292C115.147 10.5561 116.384 10.3797 117.625 10.4071C118.464 10.4178 119.299 10.5284 120.111 10.7365C120.391 10.8111 120.609 10.8795 120.733 10.9354C120.857 10.9914 120.951 11.0224 120.944 11.0349C119.851 10.7863 118.734 10.6509 117.613 10.6308C116.398 10.639 115.192 10.8361 114.038 11.2151C112.631 11.6813 111.33 12.4206 110.209 13.3907C107.81 15.4544 106.567 18.2578 106.523 20.3153C106.478 21.13 106.612 21.9447 106.915 22.7023C107.126 23.2368 107.319 23.4979 107.294 23.5166Z" fill="#455A64"/>
<path d="M130.225 25.8039C130.039 25.7917 129.857 25.7498 129.684 25.6796C129.206 25.5164 128.744 25.3083 128.304 25.058C126.838 24.2358 125.584 23.0821 124.643 21.6889C124.169 20.8848 123.864 19.9921 123.748 19.0658C123.639 18.323 123.595 17.5722 123.617 16.8218C123.631 16.3174 123.681 15.8147 123.767 15.3175C123.783 15.1331 123.829 14.9526 123.903 14.783C123.959 14.783 123.829 15.5662 123.847 16.828C123.855 17.5613 123.919 18.2928 124.04 19.016C124.171 19.8932 124.469 20.7371 124.917 21.5024C125.836 22.8569 127.031 24.0027 128.422 24.8653C129.492 25.5242 130.244 25.7542 130.225 25.8039Z" fill="#455A64"/>
<path d="M112.148 23.4292C112.051 23.2332 111.984 23.0236 111.949 22.8077C111.827 22.2359 111.77 21.6519 111.782 21.0672C111.79 19.1014 112.496 17.2024 113.773 15.7079C115.05 14.2135 116.816 13.2205 118.756 12.9056C119.332 12.8029 119.919 12.7695 120.503 12.8061C120.713 12.8079 120.922 12.8393 121.124 12.8994C120.339 12.9233 119.556 13.0001 118.781 13.1294C116.92 13.4961 115.238 14.4799 114.006 15.9216C112.774 17.3633 112.065 19.1785 111.993 21.0734C111.986 21.8615 112.037 22.649 112.148 23.4292Z" fill="#455A64"/>
<path d="M132.742 11.42C131.412 11.2317 130.059 11.2632 128.739 11.5132C127.439 11.8605 126.206 12.4214 125.09 13.1729C125.331 12.8454 125.635 12.5704 125.985 12.3648C127.623 11.2495 129.62 10.7923 131.58 11.0843C131.985 11.1202 132.38 11.2342 132.742 11.42Z" fill="#455A64"/>
<path d="M155.182 42.214C154.858 42.5496 153.23 41.4556 151.004 40.8092C148.779 40.1627 146.827 40.1192 146.747 39.6592C146.715 39.4479 147.2 39.1557 148.071 39.0003C149.21 38.8337 150.373 38.9206 151.475 39.2547C152.578 39.5889 153.593 40.1621 154.448 40.9335C155.082 41.5426 155.325 42.0586 155.182 42.214Z" fill="white"/>
<path d="M154.206 43.8737C154.206 43.8737 154.486 43.7307 154.97 43.451C155.646 43.0544 156.246 42.5409 156.742 41.9343C157.48 41.0493 157.946 39.97 158.085 38.8263C158.227 37.4159 157.851 36.0021 157.028 34.8481C156.182 33.6948 154.936 32.899 153.535 32.6165C152.398 32.3732 151.222 32.3732 150.085 32.6165C149.037 32.8698 148.009 33.198 147.008 33.5987C147.247 33.427 147.505 33.285 147.779 33.176C148.502 32.8336 149.261 32.5709 150.041 32.3928C151.207 32.1101 152.421 32.0889 153.597 32.3306C155.068 32.6096 156.38 33.4331 157.27 34.6367C158.07 35.7359 158.468 37.076 158.399 38.4333C158.33 39.7907 157.798 41.0834 156.891 42.0959C156.37 42.7037 155.737 43.2058 155.026 43.5753C154.826 43.6755 154.618 43.7607 154.405 43.8302C154.34 43.852 154.274 43.8666 154.206 43.8737Z" fill="#263238"/>
<path d="M102.812 137.126C102.812 137.126 89.5784 165.011 89.709 177.847C89.796 185.927 101.109 271.932 101.109 271.932H125.215L127.173 191.808L128.826 189.595L129.858 192.118C129.858 192.118 126.222 269.949 127.073 271.932H154.019C154.019 271.932 162.585 210.219 163.723 200.871C164.86 191.522 166.209 187.046 165.625 173.446C165.04 159.845 155.505 137.126 155.505 137.126C155.505 137.126 118.961 143.074 102.812 137.126Z" fill="#263238"/>
<path d="M104.031 137.312L101.793 145.008L108.245 146.394L110.06 138.649L104.031 137.312Z" fill="#455A64"/>
<path d="M112.509 138.972L111.204 146.394C116.254 146.911 121.332 147.118 126.408 147.015C133.973 146.81 141.364 146.176 144.677 145.02L143.713 138.4C143.713 138.4 118.725 140.694 112.509 138.972Z" fill="#455A64"/>
<path d="M146.939 138.027L148.537 144.554C148.537 144.554 153.696 143.988 155.822 142.745L154.044 136.883L146.939 138.027Z" fill="#455A64"/>
<path d="M112.509 270.856C112.447 269.078 111.564 243.469 110.414 210.027C109.88 193.243 109.501 178.002 109.389 166.987C109.389 164.234 109.389 161.741 109.358 159.528C109.327 157.315 109.395 155.463 109.407 153.934C109.42 152.405 109.488 151.211 109.513 150.391C109.513 149.993 109.513 149.688 109.544 149.464C109.575 149.241 109.544 149.154 109.544 149.154C109.544 149.154 109.544 149.259 109.544 149.471C109.544 149.682 109.544 149.993 109.544 150.391C109.544 151.217 109.544 152.405 109.501 153.934C109.457 155.463 109.501 157.365 109.501 159.528C109.501 161.691 109.544 164.209 109.575 166.987C109.743 177.996 110.159 193.212 110.694 210.014C111.229 226.816 111.72 242.008 112.074 253.029C112.242 258.536 112.354 262.974 112.416 266.082C112.416 267.611 112.453 268.799 112.466 269.625C112.466 270.023 112.466 270.328 112.466 270.552C112.466 270.775 112.509 270.856 112.509 270.856Z" fill="#455A64"/>
<path d="M128.186 147.512C128.209 147.633 128.22 147.756 128.217 147.879C128.217 148.153 128.217 148.501 128.217 148.923C128.217 149.868 128.217 151.167 128.26 152.753C128.291 155.991 128.36 160.46 128.496 165.396C128.633 170.331 128.832 174.801 128.981 178.033C129.056 179.618 129.112 180.917 129.155 181.862C129.155 182.276 129.168 182.624 129.193 182.906C129.21 183.028 129.21 183.151 129.193 183.273C129.166 183.154 129.148 183.034 129.137 182.912L129.043 181.868C128.963 180.967 128.869 179.661 128.764 178.045C128.559 174.813 128.329 170.344 128.186 165.408C128.043 160.473 128.049 156.022 128.049 152.753C128.049 151.136 128.08 149.825 128.105 148.917L128.142 147.879C128.14 147.756 128.155 147.632 128.186 147.512Z" fill="#455A64"/>
<path d="M129.205 183.273C129.069 183.257 128.934 183.235 128.801 183.205L127.651 182.981C126.231 182.706 124.828 182.352 123.449 181.918C122.981 181.769 122.534 181.56 122.119 181.297C121.994 181.213 121.895 181.097 121.833 180.961C121.789 180.83 121.752 180.706 121.715 180.582C121.651 180.32 121.603 180.054 121.572 179.786C121.447 178.698 121.516 177.555 121.503 176.349C121.503 173.931 121.534 171.283 121.553 168.504C121.609 162.953 121.665 157.937 121.702 154.251C121.74 152.454 121.771 150.988 121.789 149.931C121.789 149.446 121.802 149.054 121.827 148.756C121.823 148.618 121.836 148.481 121.864 148.346C121.877 148.482 121.877 148.62 121.864 148.756C121.864 149.054 121.864 149.446 121.864 149.931C121.864 150.988 121.864 152.454 121.864 154.251C121.864 157.931 121.827 162.953 121.808 168.504C121.808 171.289 121.758 173.937 121.733 176.349C121.733 177.555 121.665 178.705 121.771 179.755C121.798 180.012 121.842 180.268 121.901 180.52C121.932 180.638 121.963 180.762 122.001 180.874C122.049 180.963 122.117 181.04 122.2 181.098C122.587 181.346 123.005 181.545 123.443 181.688C125.152 182.279 126.6 182.59 127.589 182.844L128.726 183.13C128.893 183.148 129.055 183.197 129.205 183.273Z" fill="#455A64"/>
<path d="M142.65 270.856C142.65 270.856 142.65 270.751 142.65 270.539C142.65 270.328 142.681 269.998 142.706 269.594C142.756 268.755 142.837 267.537 142.93 265.977C143.16 262.825 143.483 258.287 143.887 252.681C144.708 241.461 145.852 225.952 146.765 208.808C147.679 191.665 148.009 176.106 147.642 164.861C147.586 163.457 147.524 162.12 147.468 160.858C147.412 159.596 147.375 158.372 147.263 157.284C147.064 155.059 146.958 153.138 146.759 151.578C146.56 150.018 146.38 148.824 146.262 147.991C146.212 147.587 146.169 147.276 146.144 147.053C146.119 146.829 146.113 146.736 146.113 146.736C146.113 146.736 146.113 146.841 146.175 147.053C146.237 147.264 146.262 147.581 146.33 147.979C146.455 148.812 146.647 150.018 146.883 151.559C147.12 153.101 147.225 155.046 147.443 157.272C147.567 158.384 147.617 159.578 147.679 160.846C147.741 162.114 147.803 163.45 147.872 164.855C148.319 176.112 147.953 191.671 147.089 208.827C146.225 225.983 144.994 241.479 144.111 252.699C143.67 258.294 143.309 262.838 143.061 265.989C142.936 267.543 142.837 268.761 142.768 269.601C142.731 270.005 142.706 270.315 142.688 270.539C142.669 270.763 142.65 270.856 142.65 270.856Z" fill="#455A64"/>
<path d="M126.874 147.277V148.719L135.229 148.395C135.494 148.386 135.744 148.273 135.928 148.082C136.111 147.89 136.213 147.635 136.211 147.37V139.656C136.211 139.384 136.103 139.123 135.91 138.931C135.718 138.738 135.457 138.63 135.185 138.63H126.315V139.786L134.725 140.221V143.025H134.159C134.101 143.023 134.042 143.033 133.987 143.055C133.932 143.076 133.882 143.108 133.839 143.15C133.797 143.191 133.763 143.24 133.74 143.294C133.718 143.349 133.706 143.407 133.706 143.466C133.707 143.58 133.753 143.689 133.833 143.77C133.913 143.851 134.021 143.898 134.135 143.901H134.756V146.698L126.874 147.277Z" fill="#E0E0E0"/>
<path d="M122.038 139.152H119.676V147.233H122.038V139.152Z" fill="#263238"/>
<path d="M133.986 144.386C133.954 144.417 133.824 144.386 133.687 144.168C133.517 143.921 133.434 143.623 133.451 143.323C133.466 143.022 133.59 142.737 133.799 142.521C133.954 142.353 134.091 142.31 134.116 142.341C134.141 142.372 133.811 142.776 133.774 143.348C133.737 143.92 134.054 144.33 133.986 144.386Z" fill="#263238"/>
<path d="M127.272 142.745C127.272 142.745 127.315 142.695 127.409 142.702C127.473 142.712 127.533 142.738 127.586 142.775C127.639 142.813 127.682 142.862 127.713 142.919C127.765 143.005 127.795 143.101 127.802 143.201C127.808 143.3 127.791 143.4 127.751 143.491C127.692 143.604 127.602 143.697 127.492 143.76C127.382 143.823 127.256 143.852 127.129 143.845C127.001 143.829 126.881 143.772 126.786 143.684C126.692 143.596 126.627 143.481 126.601 143.354C126.583 143.256 126.593 143.154 126.628 143.06C126.663 142.966 126.722 142.883 126.8 142.82C127.067 142.615 127.284 142.714 127.266 142.745C127.247 142.776 127.092 142.807 126.961 142.981C126.924 143.023 126.898 143.073 126.886 143.128C126.874 143.182 126.876 143.239 126.893 143.292C126.908 143.351 126.94 143.405 126.986 143.446C127.031 143.486 127.087 143.513 127.148 143.522C127.214 143.523 127.279 143.507 127.337 143.477C127.396 143.446 127.446 143.402 127.483 143.348C127.505 143.297 127.516 143.242 127.516 143.186C127.516 143.131 127.505 143.076 127.483 143.025C127.427 142.813 127.278 142.789 127.272 142.745Z" fill="#263238"/>
<path d="M150.576 144.386C150.735 143.967 150.944 143.568 151.197 143.199C151.427 142.807 151.67 142.391 151.931 141.955L152.372 141.222C152.536 140.983 152.682 140.731 152.807 140.47C152.844 140.347 152.851 140.218 152.83 140.092C152.808 139.966 152.758 139.846 152.683 139.743C152.499 139.55 152.29 139.383 152.061 139.245L150.886 138.406C150.511 138.166 150.164 137.882 149.854 137.561C150.268 137.728 150.659 137.948 151.017 138.213L152.229 139.003L152.577 139.233C152.716 139.318 152.838 139.427 152.938 139.556C153.042 139.7 153.113 139.867 153.143 140.042C153.173 140.218 153.162 140.398 153.112 140.569C153.054 140.729 152.974 140.879 152.875 141.017L152.633 141.396L152.173 142.117L151.384 143.317C151.16 143.705 150.888 144.064 150.576 144.386Z" fill="#263238"/>
<path d="M164.724 163.202C164.658 163.252 164.584 163.292 164.506 163.32C164.284 163.413 164.053 163.482 163.816 163.525C162.934 163.642 162.038 163.53 161.211 163.202C160.001 162.72 158.853 162.094 157.793 161.337C153.306 158.343 149.904 153.984 148.09 148.905C147.975 148.607 147.885 148.299 147.822 147.985C147.98 148.263 148.109 148.557 148.208 148.862C148.444 149.433 148.829 150.242 149.302 151.224C150.619 153.762 152.322 156.081 154.349 158.098C155.464 159.204 156.672 160.21 157.961 161.107C158.998 161.852 160.115 162.477 161.292 162.972C162.076 163.306 162.929 163.449 163.779 163.388C164.406 163.32 164.724 163.171 164.724 163.202Z" fill="#455A64"/>
<path d="M104.068 150.608C103.789 151.184 103.445 151.726 103.043 152.224C101.226 154.714 99.0323 156.906 96.5406 158.72C96.0429 159.119 95.5031 159.463 94.9307 159.746C95.3953 159.312 95.8874 158.91 96.4038 158.54C98.7942 156.638 100.961 154.472 102.862 152.081C103.234 151.566 103.637 151.074 104.068 150.608Z" fill="#455A64"/>
<path d="M125.755 88.1873L125.32 67.4321C125.109 64.7655 122.803 65.2628 122.803 65.2628C122.803 65.2628 122.653 72.6225 122.038 76.7561C121.423 80.8897 119.197 85.4585 119.123 86.3847C119.048 87.3108 118.762 95.1803 118.501 97.7039C118.154 99.8342 117.624 101.931 116.916 103.97L122.827 108.514L124.624 105.99C124.624 105.99 126.644 104.548 127.11 102.745C127.576 100.942 125.755 88.1873 125.755 88.1873Z" fill="#FFBE9D"/>
<path d="M125.755 88.1874C125.755 88.1874 125.786 88.2993 125.824 88.5231L125.973 89.499C126.103 90.3568 126.284 91.6186 126.495 93.2286C126.706 94.8385 126.955 96.8276 127.148 99.1213C127.204 99.6994 127.241 100.29 127.272 100.905C127.272 101.216 127.303 101.527 127.272 101.844C127.278 102.174 127.245 102.504 127.173 102.826C126.966 103.48 126.632 104.086 126.19 104.61C125.74 105.159 125.227 105.654 124.661 106.083V106.052L122.871 108.582L122.784 108.694L122.672 108.607L116.755 104.075L116.674 104.013V103.908C117.631 101.31 118.212 98.5888 118.402 95.8269C118.595 92.9364 118.713 89.9465 118.862 86.8821C118.862 86.621 118.889 86.3606 118.943 86.1051C119.011 85.8502 119.092 85.614 119.173 85.3716L119.689 83.973C120.037 83.0468 120.372 82.1082 120.677 81.2069C121.288 79.421 121.704 77.5746 121.92 75.6995C122.33 72.0259 122.461 68.5076 122.542 65.2753V65.1572H122.654C123.134 65.0703 123.629 65.1265 124.077 65.3189C124.515 65.5187 124.865 65.8727 125.059 66.3134C125.243 66.7286 125.338 67.1773 125.339 67.6312C125.339 68.0601 125.339 68.4828 125.339 68.9055C125.339 70.5776 125.401 72.1689 125.426 73.6669C125.476 76.6568 125.519 79.2613 125.556 81.4307C125.594 83.6 125.606 85.2659 125.619 86.4407C125.619 87.0064 125.619 87.4477 125.619 87.7647C125.619 87.9015 125.619 88.0134 125.619 88.1066C125.619 88.1999 125.619 88.2185 125.619 88.2185C125.619 88.2185 125.619 88.1812 125.619 88.1066C125.619 88.032 125.619 87.9077 125.619 87.7709C125.619 87.4539 125.619 87.0126 125.569 86.447C125.532 85.2721 125.488 83.5814 125.426 81.4431C125.364 79.3048 125.302 76.6692 125.227 73.6793C125.227 72.1813 125.159 70.5713 125.115 68.9179C125.065 68.085 125.19 67.1836 124.823 66.4315C124.659 66.0476 124.354 65.7409 123.971 65.5737C123.579 65.4081 123.147 65.3606 122.728 65.437L122.84 65.3002C122.759 68.5449 122.641 72.057 122.218 75.7555C121.995 77.6604 121.568 79.5359 120.944 81.3498C120.64 82.276 120.323 83.2146 119.956 84.1222L119.44 85.5208C119.359 85.7508 119.278 85.987 119.222 86.217C119.171 86.4517 119.146 86.6915 119.148 86.9318C118.999 89.9963 118.88 92.9924 118.682 95.8828C118.49 98.6818 117.898 101.439 116.922 104.069L116.873 103.901L122.772 108.451L122.579 108.483L124.382 105.965C125.49 105.199 126.342 104.116 126.825 102.857C126.89 102.553 126.922 102.242 126.918 101.931C126.918 101.62 126.918 101.309 126.918 101.005C126.918 100.383 126.856 99.8051 126.812 99.2332C126.632 96.9457 126.402 94.9628 126.222 93.3405C126.041 91.7181 125.873 90.4687 125.768 89.6109C125.718 89.1882 125.681 88.865 125.65 88.6288C125.619 88.3925 125.755 88.1874 125.755 88.1874Z" fill="#EB996E"/>
<path d="M125.345 69.2783C125.183 69.0412 125.009 68.813 124.823 68.5945C124.591 68.3651 124.322 68.176 124.027 68.0351C123.856 67.9385 123.658 67.9001 123.463 67.9259C123.268 67.9517 123.086 68.0402 122.946 68.1781L122.977 68.0786C123.058 68.7002 123.182 69.4461 123.244 70.2418C123.306 71.0374 123.325 71.889 123.3 72.7779C123.223 74.6584 122.992 76.5294 122.61 78.3723C122.467 79.0747 122.343 79.6155 122.25 80.0319C122.222 80.2472 122.161 80.4568 122.069 80.6535C122.129 79.8816 122.233 79.1137 122.38 78.3536C122.703 76.5223 122.91 74.6725 123.002 72.8152C123.002 71.9387 123.002 71.0996 122.958 70.3288C122.915 69.558 122.803 68.8245 122.741 68.1781V68.1221L122.772 68.0786C122.861 67.9781 122.97 67.8974 123.092 67.8417C123.214 67.786 123.346 67.7566 123.48 67.7554C123.71 67.7544 123.936 67.8099 124.139 67.917C124.449 68.0692 124.725 68.2804 124.954 68.5386C125.096 68.7082 125.216 68.8964 125.308 69.098C125.339 69.1975 125.358 69.2783 125.345 69.2783Z" fill="#EB996E"/>
<path d="M125.513 77.3341C125.443 77.0144 125.393 76.6905 125.364 76.3644C125.318 76.0018 125.193 75.6537 124.997 75.345C124.691 74.9922 124.262 74.7698 123.798 74.7234L123.965 74.5991C123.928 75.7801 123.853 77.1974 123.704 78.7079C123.499 80.8275 123.195 82.742 122.933 84.1158C122.797 84.7995 122.672 85.3589 122.579 85.7319C122.548 85.9344 122.487 86.1312 122.399 86.3162C122.461 85.5634 122.563 84.8144 122.704 84.0722C122.915 82.6985 123.182 80.7902 123.381 78.6768C123.53 77.1725 123.623 75.7615 123.692 74.5867V74.425L123.853 74.4561C124.378 74.5312 124.853 74.8076 125.177 75.2269C125.374 75.5693 125.491 75.9518 125.519 76.3458C125.57 76.6735 125.568 77.0071 125.513 77.3341Z" fill="#EB996E"/>
<path d="M122.455 88.5541C122.399 88.6225 122.051 88.3614 122.007 87.8704C121.964 87.3793 122.25 87.0499 122.318 87.112C122.387 87.1742 122.287 87.4663 122.318 87.8393C122.349 88.2122 122.505 88.492 122.455 88.5541Z" fill="#EB996E"/>
<path d="M121.503 83.4322C121.423 83.4633 121.186 82.9971 121.23 82.363C121.273 81.729 121.572 81.3001 121.646 81.3436C121.721 81.3871 121.584 81.8285 121.553 82.3879C121.522 82.9473 121.59 83.4011 121.503 83.4322Z" fill="#EB996E"/>
<path d="M134.159 99.9667C133.693 97.4803 132.854 89.6544 132.717 88.722C132.581 87.7896 130.044 83.4011 129.137 79.3235C128.229 75.2458 127.564 67.9109 127.564 67.9109C127.564 67.9109 125.233 67.5753 125.202 70.2544L126.228 90.9846C126.228 90.9846 125.308 103.839 125.911 105.605C126.514 107.37 128.633 108.663 128.633 108.663L130.604 111.05L136.198 106.077C135.347 104.102 134.665 102.058 134.159 99.9667Z" fill="#FFBE9D"/>
<path d="M134.16 99.9668C134.16 99.9668 134.16 99.9979 134.16 100.066C134.16 100.135 134.203 100.253 134.234 100.377C134.309 100.657 134.408 101.061 134.57 101.62C135.045 103.143 135.597 104.641 136.223 106.108V106.158L136.18 106.201L130.629 111.174L130.536 111.255L130.461 111.162L128.478 108.781H128.509C127.927 108.404 127.389 107.962 126.906 107.463C126.378 106.936 125.973 106.3 125.719 105.599C125.572 104.854 125.505 104.095 125.52 103.336C125.52 102.571 125.52 101.794 125.52 101.005C125.588 97.8472 125.774 94.4844 126.011 90.9599C125.837 87.5162 125.656 83.8675 125.47 80.1254C125.352 77.7136 125.234 75.3516 125.122 73.0579C125.122 72.4798 125.066 71.9141 125.035 71.3485C124.982 70.7799 124.982 70.2077 125.035 69.6391C125.066 69.344 125.157 69.0583 125.301 68.7988C125.445 68.5394 125.64 68.3115 125.874 68.1286C126.357 67.7953 126.945 67.6494 127.527 67.7184H127.645V67.8489C127.869 70.2234 128.124 72.5171 128.429 74.6865C128.669 76.7697 129.07 78.8312 129.628 80.8527C130.203 82.6261 130.888 84.3616 131.68 86.0493C132.034 86.8511 132.401 87.5971 132.674 88.3678C132.768 88.7577 132.828 89.1549 132.854 89.5551C132.898 89.9343 132.941 90.3072 132.985 90.6677C133.308 93.5768 133.569 95.8829 133.768 97.468C133.868 98.2388 133.948 98.848 134.004 99.2769L134.073 99.7431C134.08 99.7967 134.08 99.851 134.073 99.9047C134.053 99.8546 134.038 99.8025 134.029 99.7493C134.029 99.6312 133.98 99.4758 133.942 99.2831C133.868 98.8728 133.768 98.2699 133.65 97.4805C133.42 95.9016 133.128 93.5955 132.78 90.6926C132.736 90.3321 132.687 89.9591 132.643 89.58C132.609 89.195 132.549 88.8129 132.463 88.4362C132.196 87.6965 131.81 86.9382 131.456 86.1487C130.648 84.4544 129.948 82.7104 129.361 80.9273C128.789 78.89 128.373 76.812 128.118 74.7113C127.815 72.515 127.55 70.2358 127.322 67.8738L127.453 68.0105C126.951 67.956 126.447 68.0816 126.029 68.3648C125.829 68.5249 125.662 68.7233 125.54 68.9485C125.417 69.1737 125.34 69.4212 125.314 69.6764C125.262 70.2263 125.262 70.7799 125.314 71.3298C125.314 71.8893 125.37 72.4612 125.395 73.033C125.513 75.3329 125.631 77.695 125.75 80.1006C125.936 83.8302 126.11 87.4852 126.284 90.9288C126.042 94.4408 125.849 97.8099 125.768 100.955C125.768 101.745 125.737 102.515 125.768 103.274C125.754 104.007 125.814 104.74 125.948 105.462C126.189 106.116 126.568 106.71 127.061 107.202C127.528 107.687 128.047 108.119 128.609 108.489L130.579 110.882H130.412L136.006 105.965V106.058C135.391 104.582 134.862 103.071 134.421 101.533C134.272 100.999 134.178 100.588 134.129 100.29L134.073 99.9731C134.16 100.004 134.154 99.9668 134.16 99.9668Z" fill="#EB996E"/>
<path d="M125.295 72.1439C125.35 71.9431 125.436 71.7522 125.55 71.5782C125.663 71.3587 125.796 71.1506 125.948 70.9566C126.149 70.6741 126.441 70.4699 126.775 70.3785C126.996 70.3466 127.222 70.3907 127.415 70.5036C127.608 70.6165 127.757 70.7915 127.838 71.0001C127.95 71.4467 127.986 71.9091 127.943 72.3677C127.943 73.3001 127.993 74.3257 128.093 75.3948C128.28 77.2221 128.566 79.0377 128.95 80.8338C129.142 81.5745 129.289 82.3259 129.392 83.084C129.297 82.9004 129.224 82.7064 129.174 82.5059C129.062 82.1267 128.901 81.5735 128.727 80.8898C128.273 79.0946 127.953 77.2683 127.769 75.4259C127.675 74.4093 127.633 73.3885 127.645 72.3677C127.692 71.9529 127.673 71.5333 127.589 71.1245C127.533 70.9682 127.428 70.8347 127.288 70.7447C127.149 70.6548 126.984 70.6135 126.818 70.6272C126.531 70.7003 126.275 70.8664 126.091 71.0996C125.932 71.2747 125.786 71.4617 125.656 71.659C125.554 71.8336 125.433 71.9962 125.295 72.1439Z" fill="#EB996E"/>
<path d="M125.706 80.4485C125.673 80.3588 125.656 80.2641 125.656 80.1687C125.636 79.9039 125.636 79.6379 125.656 79.3731C125.676 78.9543 125.776 78.5431 125.948 78.161C126.066 77.9033 126.239 77.6739 126.453 77.4884C126.667 77.3029 126.919 77.1656 127.191 77.0856L127.347 77.0359V77.2037C127.49 78.3412 127.67 79.6901 127.912 81.126C128.267 83.2581 128.671 85.1788 128.982 86.5588C129.179 87.2999 129.337 88.051 129.454 88.8089C129.352 88.6281 129.276 88.4334 129.23 88.2309C129.106 87.8517 128.944 87.3047 128.758 86.6147C128.391 85.241 127.95 83.3265 127.595 81.182C127.353 79.7398 127.185 78.3848 127.067 77.2348L127.247 77.3529C127.008 77.4171 126.786 77.5311 126.594 77.6875C126.402 77.8439 126.245 78.0392 126.135 78.2604C125.959 78.6156 125.845 78.9983 125.799 79.3917C125.724 80.0569 125.749 80.4485 125.706 80.4485Z" fill="#EB996E"/>
<path d="M129.59 91.053C129.516 90.9971 129.659 90.705 129.659 90.332C129.659 89.959 129.547 89.6607 129.621 89.6047C129.696 89.5488 129.994 89.8409 129.982 90.3382C129.97 90.8355 129.646 91.1214 129.59 91.053Z" fill="#EB996E"/>
<path d="M130.157 85.8813C130.063 85.8813 130.113 85.3903 130.032 84.837C129.951 84.2838 129.79 83.8487 129.871 83.8052C129.951 83.7617 130.268 84.1657 130.356 84.7935C130.443 85.4214 130.237 85.9062 130.157 85.8813Z" fill="#EB996E"/>
<g opacity="0.3">
<path d="M132.705 110.857C131.555 109.527 130.1 108.191 128.353 108.203C126.793 108.203 125.463 109.291 124.357 110.385C120.796 114.036 117.88 118.265 115.735 122.891C113.503 127.46 110.8 132.955 109.103 137.747C112.832 136.964 116.139 134.64 118.656 131.762C121.174 128.884 123.008 125.459 124.605 121.996C125.165 120.803 125.966 119.417 127.284 119.385C128.254 119.385 129.05 120.138 129.659 120.896C131.405 123.103 132.58 125.701 133.811 128.231C135.042 130.761 136.384 133.297 138.386 135.28C140.388 137.263 143.166 138.636 145.963 138.326C142.768 128.598 139.418 118.59 132.705 110.857Z" fill="black"/>
</g>
<path d="M94.5887 75.2146C94.5887 75.2146 86.4395 80.349 86.1971 90.4624C85.9547 100.576 86.5576 127.534 88.3665 131.146C90.1753 134.757 91.4745 147.755 103.173 142.335C109.731 139.295 116.848 129.43 121.51 121.151C123.696 117.285 125.59 113.263 127.179 109.117L116.171 102.018L102.328 118.385L101.899 102.646L94.5887 75.2146Z" fill="#D82E1D"/>
<path d="M102.327 118.366C102.327 118.422 101.83 118.453 101.084 118.664C100.096 118.953 99.1714 119.428 98.3613 120.063C97.5524 120.71 96.8147 121.441 96.1608 122.245C95.907 122.597 95.6242 122.928 95.3154 123.233C95.4753 122.825 95.6999 122.445 95.9805 122.108C96.5935 121.241 97.3283 120.466 98.1623 119.808C99.0005 119.141 99.981 118.675 101.028 118.447C101.451 118.331 101.893 118.304 102.327 118.366Z" fill="#263238"/>
<path d="M102.259 118.242C101.176 118.212 100.092 118.256 99.0142 118.372C97.9608 118.598 96.9228 118.891 95.9062 119.249C96.8079 118.589 97.8667 118.178 98.9769 118.055C100.068 117.826 101.201 117.89 102.259 118.242Z" fill="#263238"/>
<path d="M127.179 109.098C127.161 109.213 127.13 109.326 127.086 109.434L126.75 110.372C126.458 111.186 125.992 112.343 125.382 113.766C123.765 117.456 121.87 121.017 119.713 124.42C117.549 127.817 115.159 131.065 112.559 134.142C111.564 135.323 110.738 136.262 110.147 136.89L109.463 137.617C109.386 137.704 109.301 137.783 109.208 137.853C109.266 137.752 109.334 137.658 109.414 137.573L110.035 136.809C110.595 136.15 111.39 135.193 112.366 133.999C114.905 130.888 117.261 127.631 119.421 124.246C121.567 120.857 123.482 117.326 125.152 113.679C125.774 112.274 126.29 111.131 126.613 110.329C126.775 109.962 126.899 109.657 127.005 109.415C127.049 109.302 127.107 109.196 127.179 109.098Z" fill="#263238"/>
<path d="M101.899 102.627C101.908 102.726 101.908 102.826 101.899 102.926C101.899 103.149 101.93 103.435 101.948 103.79C101.98 104.573 102.023 105.654 102.079 107.034C102.172 109.844 102.297 113.766 102.446 118.36L102.185 118.267L108.239 111.087L116.028 101.906L116.108 101.807L116.214 101.875L124.158 107.072L126.377 108.551L126.955 108.949C127.025 108.991 127.09 109.041 127.148 109.098C127.073 109.07 127.002 109.032 126.937 108.986L126.315 108.626L124.052 107.208L116.052 102.117L116.233 102.086L108.475 111.298L102.402 118.465L102.141 118.764V118.372C102.042 113.772 101.955 109.85 101.893 107.04C101.893 105.673 101.855 104.554 101.843 103.79V102.926C101.853 102.825 101.872 102.725 101.899 102.627Z" fill="#263238"/>
<path d="M160.832 72.0444C160.832 72.0444 167.719 75.5316 168.024 91.7242C168.329 107.917 169.535 127.124 168.024 130.456C166.88 132.942 164.195 140.557 159.322 143.155C157.855 143.932 156.742 143.969 154.741 143.677C148.089 142.708 139.362 134.931 132.73 122.164C127.682 112.448 127.372 107.948 127.372 107.948L136.633 98.6239L154.716 121.045L155.051 99.5501L160.832 72.0444Z" fill="#D82E1D"/>
<path d="M154.908 100.197C154.908 100.197 154.908 100.321 154.908 100.57C154.908 100.818 154.908 101.191 154.908 101.657C154.908 102.627 154.908 104.026 154.908 105.822C154.908 109.452 154.859 114.661 154.821 121.045V121.387L154.61 121.12L136.497 98.7422H136.733L129.572 105.959L127.471 108.072L127.515 107.923C129.222 115.136 132.269 121.963 136.497 128.051C139.853 133.049 144.046 137.431 148.891 141.005C149.86 141.732 150.902 142.357 151.999 142.869C152.504 143.097 153.028 143.278 153.566 143.41C154.077 143.518 154.594 143.597 155.114 143.646C156.833 143.855 158.574 143.514 160.086 142.67C161.014 142.096 161.816 141.339 162.442 140.445C162.66 140.147 162.821 139.904 162.921 139.743C163.02 139.581 163.089 139.507 163.089 139.507C162.902 139.845 162.695 140.171 162.467 140.482C161.858 141.403 161.062 142.185 160.13 142.776C158.597 143.654 156.825 144.02 155.07 143.82C154.567 143.758 154.038 143.715 153.497 143.597C152.947 143.465 152.41 143.282 151.894 143.05C150.782 142.542 149.728 141.917 148.748 141.185C143.859 137.621 139.627 133.233 136.242 128.218C131.977 122.1 128.906 115.231 127.191 107.973V107.886L127.254 107.824L129.355 105.704L136.522 98.4936L136.646 98.363L136.758 98.506C143.595 107.009 149.811 114.723 154.784 120.952L154.567 121.026C154.654 114.643 154.716 109.44 154.765 105.81C154.797 104.013 154.821 102.615 154.84 101.645C154.84 101.173 154.84 100.812 154.84 100.557C154.856 100.436 154.879 100.316 154.908 100.197Z" fill="#263238"/>
<path d="M162.1 129.393C161.759 128.97 161.448 128.523 161.168 128.057C160.429 126.98 159.619 125.954 158.744 124.986C157.862 124.024 156.931 123.109 155.953 122.245C155.522 121.908 155.121 121.536 154.753 121.132C155.236 121.391 155.687 121.706 156.096 122.071C157.132 122.889 158.099 123.791 158.986 124.768C159.875 125.747 160.67 126.806 161.361 127.932C161.672 128.383 161.921 128.875 162.1 129.393Z" fill="#263238"/>
<path d="M160.093 75.2893C160.136 75.3266 159.595 75.9917 158.85 77.1541C156.88 80.1742 155.593 83.5873 155.076 87.1556C154.878 88.5231 154.84 89.3809 154.784 89.3809C154.748 89.1758 154.737 88.967 154.753 88.7593C154.755 88.2088 154.788 87.6588 154.853 87.1121C155.246 83.4765 156.557 80.0007 158.663 77.0111C158.977 76.5598 159.315 76.1261 159.676 75.712C159.796 75.5532 159.936 75.4111 160.093 75.2893Z" fill="#263238"/>
<path d="M100.382 91.8735C100.332 91.8735 100.22 91.0468 99.9713 89.7103C99.6549 87.9705 99.2399 86.25 98.7281 84.5573C98.2086 82.8681 97.5986 81.2081 96.9006 79.5845C96.5781 78.9243 96.2897 78.248 96.0366 77.5581C96.166 77.7088 96.2747 77.876 96.3599 78.0554C96.5525 78.3848 96.8074 78.8759 97.1058 79.4913C97.8749 81.0977 98.5211 82.76 99.0389 84.4641C99.5546 86.1693 99.9431 87.9104 100.201 89.673C100.295 90.3506 100.351 90.9162 100.375 91.2768C100.407 91.4742 100.409 91.6754 100.382 91.8735Z" fill="#263238"/>
<g opacity="0.3">
<path d="M163.002 129.35C162.707 128.04 162.024 126.848 161.044 125.931C159.222 123.979 157.08 122.354 154.709 121.126C157.649 123.479 160.18 126.302 162.2 129.48C162.355 129.729 162.66 130.009 162.89 129.828C162.948 129.765 162.989 129.688 163.009 129.604C163.029 129.52 163.026 129.432 163.002 129.35Z" fill="black"/>
</g>
<g opacity="0.3">
<path d="M102.209 118.347C100.307 118.059 98.3625 118.418 96.6886 119.367C95.0146 120.316 93.7081 121.8 92.9788 123.581C92.8283 123.904 92.7518 124.257 92.755 124.613C92.761 124.79 92.8159 124.962 92.9135 125.11C93.0111 125.258 93.1477 125.377 93.3082 125.452C93.5037 125.509 93.7121 125.505 93.9053 125.441C94.0986 125.377 94.2676 125.255 94.3898 125.092C94.6331 124.766 94.822 124.403 94.9492 124.016C95.608 122.478 96.6648 121.143 98.0108 120.149C99.3568 119.155 100.943 118.537 102.607 118.36L102.209 118.347Z" fill="black"/>
</g>
<path d="M261.071 271.702C261.071 271.789 202.641 271.863 130.535 271.863C58.4302 271.863 0 271.789 0 271.702C0 271.615 58.4302 271.54 130.567 271.54C202.703 271.54 261.071 271.64 261.071 271.702Z" fill="#263238"/>
</svg>
