
<svg width="386" height="244" viewBox="0 0 386 244" fill="none" xmlns="http://www.w3.org/2000/svg">
<path d="M74.5424 15.0168H20.6445V93.1434H74.5424V15.0168Z" fill="#E0E0E0"/>
<path d="M71.8402 15.0168H17.9424V93.1434H71.8402V15.0168Z" fill="#F5F5F5"/>
<path d="M65.1482 23.4769H24.6396V84.6775H65.1482V23.4769Z" fill="white"/>
<path d="M65.1488 84.6833C65.1488 84.6833 65.1488 84.5776 65.1488 84.3837C65.1488 84.1898 65.1488 83.8902 65.1488 83.5142C65.1488 82.7446 65.1488 81.6166 65.1488 80.1595C65.1488 77.222 65.1488 72.9508 65.1077 67.5517C65.1077 56.7592 65.0725 41.4723 65.0431 23.4887L65.1782 23.6238H24.6755L24.8224 23.4769C24.8224 46.5659 24.8224 67.8513 24.8224 84.6833L24.7049 84.5658L54.1918 84.6246L62.3347 84.654H64.4732H65.2135H64.4967H62.3817H54.2623L24.7049 84.7127H24.5874V84.5952C24.5874 67.7632 24.5874 46.4778 24.5874 23.3888V23.2419H24.7402H65.2428H65.378V23.4828C65.378 41.5193 65.3251 56.8297 65.3133 67.6457C65.3133 73.0331 65.284 77.2925 65.2722 80.2183C65.2722 81.6694 65.2722 82.7857 65.2722 83.5495C65.2722 83.9196 65.2722 84.2075 65.2722 84.4013C65.2722 84.5952 65.1488 84.6833 65.1488 84.6833Z" fill="#E0E0E0"/>
<path d="M71.9986 15.0168C71.72 15.5164 71.3975 15.9902 71.0351 16.4327C70.4123 17.267 69.5193 18.4068 68.5088 19.6405C67.4983 20.8743 66.5465 21.9612 65.8415 22.7367C65.4872 23.1748 65.0939 23.5799 64.6665 23.9469C64.9708 23.4704 65.3147 23.0203 65.6946 22.6016L68.2914 19.4525L70.8764 16.2859C71.2139 15.8318 71.5893 15.4073 71.9986 15.0168Z" fill="#E0E0E0"/>
<path d="M65.354 84.4836C67.3655 87.6767 69.7304 90.6329 72.4041 93.2962L65.354 84.4836Z" fill="white"/>
<path d="M72.4217 93.3197C71.9697 92.9932 71.5558 92.6168 71.188 92.1976C70.2486 91.2427 69.3584 90.2407 68.5207 89.1954C67.5454 87.9676 66.7288 86.7984 66.1707 85.9348C65.8496 85.4792 65.5741 84.9931 65.3481 84.4836C65.7115 84.9031 66.0434 85.3489 66.341 85.8173C66.9285 86.6515 67.7745 87.7913 68.7439 89.0074C69.7133 90.2236 70.6533 91.2928 71.3348 92.0566C71.7269 92.4511 72.0901 92.8732 72.4217 93.3197Z" fill="#E0E0E0"/>
<path d="M17.9365 93.0789L24.9866 84.3721L17.9365 93.0789Z" fill="white"/>
<path d="M24.9984 84.3721C23.935 85.9117 22.7937 87.3961 21.5791 88.8195C20.4424 90.3038 19.2265 91.7257 17.9365 93.0789C18.9999 91.5393 20.1412 90.0549 21.3558 88.6315C22.4925 87.1472 23.7084 85.7253 24.9984 84.3721Z" fill="#E0E0E0"/>
<path d="M17.9424 15.0168C19.1603 16.324 20.3057 17.6969 21.3734 19.1294C22.5169 20.497 23.5839 21.9269 24.5695 23.4123C23.3536 22.1049 22.2102 20.732 21.1443 19.2998C19.9993 17.9319 18.9304 16.5021 17.9424 15.0168Z" fill="#E0E0E0"/>
<path d="M52.5289 35.9027H38.9634V74.4137H52.5289V35.9027Z" fill="#E0E0E0"/>
<path d="M147.212 3.63098V37.8473H98.0726L96.3042 3.87186L147.212 3.63098Z" fill="#E0E0E0"/>
<path d="M96.2983 3.872V37.7711H145.437V3.872H96.2983Z" fill="white"/>
<path d="M145.672 38.006H96.0693V3.63684H145.672V38.006ZM96.5393 37.5418H145.208V4.09509H96.5393V37.5418Z" fill="#E0E0E0"/>
<path d="M140.12 8.08435H101.627V33.5586H140.12V8.08435Z" fill="white"/>
<path d="M140.12 8.08428H139.38H137.265H129.334L101.627 8.20766L101.739 8.09603C101.739 15.8805 101.739 24.5051 101.739 33.5703L101.621 33.4528H140.115L140.015 33.5468C140.015 25.7976 140.056 19.4467 140.068 15.011C140.068 12.802 140.068 11.0747 140.068 9.88793C140.068 9.30042 140.068 8.85392 140.068 8.54254C140.068 8.23116 140.068 8.07253 140.068 8.07253C140.068 8.07253 140.068 8.21941 140.068 8.51904C140.068 8.81867 140.068 9.27105 140.068 9.8468C140.068 11.0218 140.068 12.7491 140.097 14.9522C140.097 19.3938 140.126 25.7741 140.144 33.5468V33.6467H140.05H101.556H101.433V33.5233C101.433 24.4581 101.433 15.8335 101.433 8.04903V7.97266H101.545L129.328 8.02553L137.236 8.06078H139.327H140.038L140.12 8.08428Z" fill="#E0E0E0"/>
<path d="M96.3042 3.77795C96.6079 3.92399 96.8922 4.10755 97.1502 4.32434C97.6496 4.68859 98.3252 5.20559 99.0772 5.7931C99.8292 6.38061 100.464 6.96811 100.922 7.36174C101.184 7.57454 101.421 7.81704 101.627 8.08438C100.691 7.42979 99.7889 6.72778 98.9245 5.9811C98.0052 5.30302 97.13 4.56715 96.3042 3.77795Z" fill="#E0E0E0"/>
<path d="M145.443 3.87195C144.635 4.66699 143.771 5.40325 142.858 6.0751C141.994 6.80843 141.079 7.47986 140.12 8.08437C140.928 7.28933 141.792 6.55307 142.705 5.88122C143.568 5.14632 144.483 4.4748 145.443 3.87195Z" fill="#E0E0E0"/>
<path d="M145.402 37.7769L139.92 33.3353L145.402 37.7769Z" fill="white"/>
<path d="M139.92 33.3353C140.906 33.9816 141.848 34.6921 142.74 35.4621C143.679 36.1731 144.568 36.9465 145.402 37.7769C144.415 37.1344 143.475 36.4237 142.588 35.6501C141.645 34.942 140.754 34.1685 139.92 33.3353Z" fill="#E0E0E0"/>
<path d="M96.3042 37.771C97.1025 36.9857 97.9566 36.2592 98.8599 35.5972C99.7146 34.8703 100.62 34.2048 101.568 33.6056C100.772 34.3954 99.9182 35.1241 99.0126 35.7852C98.1588 36.5115 97.2537 37.1752 96.3042 37.771Z" fill="#E0E0E0"/>
<path d="M109.44 16.0215V24.5521H133.663V16.0215H109.44Z" fill="#E0E0E0"/>
<path d="M347.41 156.947C347.41 156.947 342.998 154.89 339.538 165.23C336.077 175.571 335.049 181.393 335.049 181.393C335.049 181.393 334.056 183.602 332.476 182.491C330.896 181.381 328.446 177.932 326.196 178.966C323.945 180 323.464 182.867 324.527 186.798C325.59 190.728 327.606 199.417 327.782 200.205C327.958 200.992 327.682 202.196 326.489 201.615C325.297 201.033 318 195.011 315.327 198.636C312.654 202.261 317.436 212.736 317.935 213.876C318.435 215.016 318.276 215.58 317.747 215.962C317.218 216.344 314.968 214.087 312.824 212.437C310.679 210.786 307.912 209.299 306.555 211.52C305.198 213.741 305.903 222.019 315.697 234.168L320.602 239.497L327.729 238.023C342.787 233.939 348.215 227.653 348.421 225.056C348.626 222.459 345.483 222.06 342.81 222.119C340.137 222.177 336.97 222.677 336.771 222.054C336.571 221.431 336.771 220.879 337.84 220.292C338.909 219.704 348.914 213.976 348.903 209.481C348.891 204.987 339.45 205.586 338.14 205.369C336.829 205.152 337.323 203.988 337.916 203.465C338.51 202.943 345.254 197.079 348.421 194.524C351.588 191.968 352.939 189.436 351.67 187.209C350.401 184.982 346.441 186.41 344.514 186.381C342.587 186.351 343.075 183.978 343.075 183.978C343.075 183.978 345.66 178.69 348.95 168.262C352.24 157.834 347.316 156.935 347.316 156.935" fill="#EBEBEB"/>
<path d="M319.674 240.972C322.106 233.334 326.653 219.851 330.502 208.248C334.35 196.645 337.822 186.146 340.295 178.532C341.523 174.725 342.516 171.646 343.233 169.508C343.579 168.45 343.82 167.622 344.032 167.052C344.122 166.782 344.192 166.57 344.243 166.417C344.29 166.27 344.32 166.2 344.32 166.2C344.32 166.2 344.32 166.276 344.261 166.423C344.202 166.57 344.155 166.787 344.073 167.064C343.897 167.651 343.644 168.468 343.315 169.531C342.657 171.675 341.688 174.766 340.466 178.579C338.033 186.216 334.591 196.721 330.742 208.318C326.894 219.916 322.318 233.405 319.844 241.019" fill="#E0E0E0"/>
<path d="M329.433 183.919C329.53 184.064 329.615 184.217 329.685 184.377C329.838 184.677 330.044 185.123 330.273 185.67C330.772 186.768 331.448 188.302 332.1 190.006C332.752 191.709 333.369 193.208 333.862 194.371C334.068 194.894 334.25 195.34 334.391 195.693C334.471 195.849 334.531 196.015 334.567 196.186C334.47 196.041 334.385 195.888 334.315 195.728C334.162 195.428 333.956 194.988 333.727 194.435C333.24 193.331 332.611 191.792 331.93 190.088C331.248 188.384 330.637 186.892 330.167 185.734L329.626 184.413C329.541 184.257 329.476 184.091 329.433 183.919Z" fill="#E0E0E0"/>
<path d="M335.255 196.21C335.225 196.151 338.327 194.682 342.181 192.92C346.035 191.157 349.173 189.782 349.231 189.841C349.29 189.9 346.153 191.369 342.299 193.125C338.445 194.882 335.255 196.274 335.255 196.21Z" fill="#E0E0E0"/>
<path d="M328.521 213.764C328.693 213.709 328.871 213.673 329.05 213.659L330.49 213.447C331.7 213.271 333.38 213.018 335.219 212.666C337.058 212.313 338.709 211.955 339.919 211.673L341.335 211.35C341.507 211.296 341.684 211.265 341.864 211.256C341.701 211.33 341.532 211.389 341.359 211.432C341.03 211.532 340.554 211.673 339.96 211.831C338.785 212.149 337.117 212.542 335.26 212.889C333.404 213.236 331.735 213.477 330.507 213.606C329.92 213.676 329.403 213.723 329.056 213.747C328.879 213.768 328.7 213.774 328.521 213.764Z" fill="#E0E0E0"/>
<path d="M320.826 203.794C320.953 203.9 321.067 204.021 321.166 204.153L322.03 205.187C322.753 206.062 323.734 207.284 324.809 208.641C325.884 209.998 326.853 211.232 327.541 212.137L328.346 213.212C328.451 213.34 328.544 213.478 328.622 213.623C328.493 213.519 328.378 213.399 328.281 213.265L327.417 212.237C326.695 211.356 325.714 210.139 324.633 208.782C323.552 207.425 322.594 206.186 321.907 205.287L321.102 204.212C320.994 204.084 320.901 203.944 320.826 203.794Z" fill="#E0E0E0"/>
<path d="M312.929 218.535C313.088 218.674 313.232 218.83 313.358 218.999C313.652 219.34 314.022 219.786 314.468 220.315C315.403 221.431 316.672 222.988 318.07 224.715C319.468 226.443 320.72 228.011 321.595 229.157L322.652 230.514C322.787 230.677 322.907 230.852 323.011 231.037C322.856 230.894 322.712 230.739 322.582 230.573L321.472 229.257C320.543 228.135 319.268 226.584 317.87 224.856C316.472 223.129 315.22 221.561 314.345 220.415C313.922 219.869 313.564 219.41 313.293 219.052C313.155 218.892 313.033 218.719 312.929 218.535Z" fill="#E0E0E0"/>
<path d="M322.917 230.667C323.132 230.602 323.352 230.552 323.575 230.52L325.39 230.191C326.924 229.909 329.039 229.51 331.359 229.016C333.68 228.523 335.772 228.006 337.282 227.624L339.073 227.177C339.291 227.112 339.513 227.065 339.737 227.036C339.531 227.13 339.317 227.205 339.097 227.26C338.68 227.389 338.075 227.571 337.334 227.777C335.83 228.2 333.745 228.734 331.418 229.234C329.092 229.733 326.971 230.115 325.432 230.356C324.662 230.479 324.033 230.567 323.604 230.62C323.377 230.658 323.147 230.673 322.917 230.667Z" fill="#E0E0E0"/>
<path d="M360.517 240.76C360.517 240.843 279.8 240.913 180.259 240.913C80.7175 240.913 0 240.86 0 240.76C0 240.66 80.6998 240.608 180.282 240.608C279.864 240.608 360.517 240.678 360.517 240.76Z" fill="#263238"/>
<path d="M250.276 36.3048L244.686 41.0859L252.147 49.8106L257.738 45.0295L250.276 36.3048Z" fill="#263238"/>
<path d="M255.107 35.6267L243.604 45.5085L235.537 36.1084C238.71 31.6551 242.493 28.2946 247.023 26.2266L255.107 35.6267Z" fill="#455A64"/>
<path d="M245.543 43.8517C245.478 43.9105 243.533 41.772 241.195 39.0871C238.857 36.4022 237.012 34.1814 237.083 34.1226C237.153 34.0639 239.092 36.2024 241.43 38.8873C243.768 41.5722 245.607 43.7989 245.543 43.8517Z" fill="#263238"/>
<path d="M247.716 41.9717C247.251 41.5194 246.819 41.0344 246.424 40.5205C245.648 39.6099 244.597 38.3468 243.439 36.9367L240.502 33.3177L239.62 32.2191C239.409 31.9488 239.297 31.8254 239.297 31.8078C239.415 31.7021 241.371 33.9287 243.686 36.7429C244.861 38.1529 245.872 39.4395 246.624 40.3854C247.034 40.8809 247.399 41.4118 247.716 41.9717Z" fill="#263238"/>
<path d="M250.654 39.463C250.182 39.0122 249.744 38.5271 249.344 38.0118C248.562 37.0894 247.505 35.8028 246.342 34.3752L243.404 30.6974L242.523 29.5752C242.409 29.4415 242.306 29.298 242.217 29.1464C242.722 29.5634 243.176 30.0387 243.569 30.5623C244.362 31.4729 245.431 32.7537 246.588 34.1813C247.746 35.6089 248.786 36.9191 249.526 37.8767C249.946 38.3728 250.323 38.9035 250.654 39.463Z" fill="#263238"/>
<path d="M253.303 37.113C253.239 37.1659 251.306 35.0097 248.985 32.2955C246.665 29.5812 244.843 27.331 244.908 27.2723C244.973 27.2135 246.9 29.3756 249.22 32.0957C251.541 34.8159 253.368 37.0601 253.303 37.113Z" fill="#263238"/>
<path d="M348.718 42.2438L343.636 36.9259L335.337 44.8571L340.419 50.175L348.718 42.2438Z" fill="#263238"/>
<path d="M348.961 47.4766L338.492 36.5197L347.439 27.9714C352.045 30.909 355.606 34.5104 357.903 38.9284L348.961 47.4766Z" fill="#455A64"/>
<path d="M340.242 38.3586C340.184 38.294 342.211 36.2377 344.772 33.7643C347.334 31.2909 349.472 29.3345 349.513 29.3933C349.554 29.452 347.545 31.5083 344.984 33.9876C342.422 36.4668 340.301 38.4174 340.242 38.3586Z" fill="#263238"/>
<path d="M342.24 40.4441C342.658 39.9507 343.113 39.4911 343.603 39.0693C344.467 38.2468 345.677 37.1247 347.023 35.8909L350.483 32.7595L351.535 31.8195C351.787 31.5963 351.911 31.4846 351.928 31.4788C352.04 31.5904 349.919 33.6643 347.228 36.1201C345.883 37.3479 344.649 38.4701 343.744 39.228C343.276 39.6722 342.773 40.0789 342.24 40.4441Z" fill="#263238"/>
<path d="M344.896 43.2231C345.318 42.7251 345.78 42.2615 346.276 41.8366C347.152 41.0082 348.379 39.8802 349.748 38.6464L353.273 35.5091L354.348 34.5691C354.48 34.4523 354.617 34.3425 354.76 34.2401C354.371 34.7673 353.922 35.2465 353.42 35.6678C352.551 36.5079 351.323 37.6418 349.96 38.8755C348.597 40.1093 347.34 41.2256 346.435 42.0011C345.954 42.4473 345.439 42.8559 344.896 43.2231Z" fill="#263238"/>
<path d="M347.381 45.7552C347.322 45.6906 349.378 43.6519 351.969 41.1903C354.56 38.7286 356.71 36.7898 356.769 36.8545C356.828 36.9191 354.771 38.9577 352.181 41.4135C349.59 43.8693 347.439 45.8081 347.381 45.7552Z" fill="#263238"/>
<path d="M301.814 16.8558H293.107V30.4449H301.814V16.8558Z" fill="#263238"/>
<path d="M306.467 20.9214H288.548V6.27482C294.828 4.72381 300.821 4.6298 306.484 6.27482L306.467 20.9214Z" fill="#D82E1D"/>
<path d="M306.696 6.33352C306.486 6.46484 306.264 6.57505 306.032 6.66252C305.419 6.93269 304.789 7.16423 304.146 7.35578C303.184 7.65224 302.203 7.88385 301.209 8.04903C300.002 8.24058 298.783 8.3427 297.561 8.35454C296.339 8.35635 295.12 8.26601 293.912 8.08429C292.919 7.93025 291.937 7.70844 290.975 7.4204C290.331 7.2322 289.7 7.0066 289.083 6.74477C288.849 6.66387 288.627 6.5554 288.419 6.42164C288.419 6.36877 289.406 6.77415 291.033 7.2089C291.988 7.46131 292.958 7.65749 293.936 7.79641C295.131 7.95817 296.336 8.04061 297.543 8.04316C298.75 8.02943 299.955 7.93522 301.15 7.76116C302.124 7.6203 303.089 7.42414 304.041 7.17365C305.709 6.69777 306.673 6.28064 306.696 6.33352Z" fill="#263238"/>
<path d="M294.47 20.8802C294.388 20.8802 294.317 18.0661 294.317 14.5998C294.317 11.1335 294.388 8.31934 294.47 8.31934C294.552 8.31934 294.623 11.1276 294.623 14.5998C294.623 18.0719 294.558 20.8802 294.47 20.8802Z" fill="#263238"/>
<path d="M297.883 20.9624C297.801 20.9624 297.73 18.1365 297.73 14.6526C297.73 11.1687 297.801 8.34863 297.883 8.34863C297.965 8.34863 298.036 11.1687 298.036 14.6526C298.036 18.1365 297.971 20.9624 297.883 20.9624Z" fill="#263238"/>
<path d="M301.296 20.9096C301.214 20.9096 301.144 18.0836 301.144 14.5997C301.144 11.1158 301.214 8.28992 301.296 8.28992C301.379 8.28992 301.449 11.1158 301.449 14.5997C301.449 18.0836 301.384 20.9096 301.296 20.9096Z" fill="#263238"/>
<path d="M304.117 20.9096C304.028 20.9096 303.964 17.8546 303.964 14.0886C303.964 10.3227 304.028 7.2677 304.117 7.2677C304.205 7.2677 304.269 10.3227 304.269 14.0886C304.269 17.8546 304.222 20.9096 304.117 20.9096Z" fill="#263238"/>
<path d="M291.245 20.8215C291.162 20.8215 291.092 17.7664 291.092 14.0005C291.092 10.2346 291.162 7.17957 291.245 7.17957C291.327 7.17957 291.397 10.2346 291.397 14.0005C291.397 17.7664 291.333 20.8215 291.245 20.8215Z" fill="#263238"/>
<path d="M341.204 134.387C365.944 109.647 365.944 69.5358 341.204 44.7958C316.464 20.0557 276.353 20.0557 251.613 44.7958C226.873 69.5358 226.873 109.647 251.613 134.387C276.353 159.127 316.464 159.127 341.204 134.387Z" fill="#D82E1D"/>
<path d="M296.409 142.294C325.793 142.294 349.613 118.474 349.613 89.0897C349.613 59.7056 325.793 35.8851 296.409 35.8851C267.025 35.8851 243.204 59.7056 243.204 89.0897C243.204 118.474 267.025 142.294 296.409 142.294Z" fill="#FAFAFA"/>
<path d="M349.613 89.0896C349.613 89.0896 349.613 88.8017 349.572 88.2318C349.531 87.6619 349.572 86.8101 349.46 85.6997C349.251 82.46 348.743 79.2465 347.945 76.0998C347.369 73.8287 346.641 71.5989 345.765 69.4257C344.736 66.8348 343.498 64.3316 342.064 61.9409C338.555 56.1003 333.97 50.9786 328.551 46.8479C321.975 41.8445 314.319 38.4484 306.196 36.9308C299.312 35.664 292.246 35.7458 285.393 37.1717C282.986 37.6941 280.615 38.3711 278.296 39.1986C268.425 42.7943 259.839 49.2316 253.621 57.6991C251.998 59.9042 250.552 62.2341 249.296 64.667C248.644 65.8831 248.086 67.1462 247.534 68.4152C246.982 69.6842 246.488 71.0003 246.071 72.3398C245.169 75.0204 244.493 77.7716 244.05 80.5649C243.604 83.3889 243.37 86.2424 243.351 89.1013C243.372 91.962 243.603 94.8171 244.044 97.6437C244.494 100.436 245.17 103.186 246.065 105.869C246.488 107.202 247.017 108.495 247.528 109.787C248.039 111.08 248.656 112.325 249.291 113.542C250.546 115.976 251.994 118.306 253.621 120.509C259.837 128.98 268.423 135.419 278.296 139.016C280.615 139.843 282.986 140.52 285.393 141.043C287.739 141.533 290.116 141.865 292.508 142.036C297.084 142.382 301.686 142.129 306.196 141.284C314.319 139.766 321.975 136.37 328.551 131.367C333.971 127.237 338.557 122.115 342.064 116.273C343.497 113.882 344.735 111.379 345.765 108.789C347.852 103.594 349.099 98.101 349.46 92.5147C349.56 91.4044 349.543 90.5525 349.572 89.9826C349.601 89.4127 349.613 89.119 349.613 89.119C349.613 89.119 349.613 89.4127 349.613 89.9826C349.613 90.5525 349.613 91.4044 349.531 92.5147C349.209 98.1166 347.985 103.63 345.906 108.842C344.883 111.444 343.649 113.959 342.216 116.362C338.716 122.232 334.13 127.382 328.704 131.537C322.104 136.571 314.419 139.991 306.261 141.525C301.73 142.381 297.106 142.641 292.508 142.3C290.105 142.13 287.716 141.798 285.358 141.307C282.936 140.786 280.552 140.107 278.219 139.274C268.29 135.665 259.652 129.194 253.397 120.68C251.765 118.464 250.311 116.123 249.05 113.677C248.392 112.455 247.828 111.174 247.252 109.899C246.676 108.624 246.206 107.302 245.783 105.957C244.882 103.263 244.202 100.501 243.75 97.6965C242.818 92.0083 242.818 86.2062 243.75 80.5179C244.204 77.7257 244.884 74.975 245.783 72.2928C246.212 70.9474 246.741 69.649 247.258 68.3506C247.775 67.0522 248.392 65.8008 249.05 64.5788C250.315 62.134 251.771 59.7924 253.403 57.5757C259.655 49.0622 268.291 42.5933 278.219 38.987C280.55 38.1549 282.933 37.4759 285.352 36.9543C287.712 36.4639 290.103 36.1322 292.508 35.9614C297.104 35.62 301.726 35.8807 306.255 36.7369C314.415 38.2636 322.102 41.6846 328.698 46.7245C334.124 50.8822 338.71 56.0342 342.211 61.9057C344.842 66.3378 346.821 71.1263 348.086 76.1233C348.87 79.281 349.359 82.5045 349.549 85.7525C349.637 86.8629 349.607 87.7148 349.631 88.2847C349.654 88.8546 349.613 89.0896 349.613 89.0896Z" fill="#263238"/>
<path d="M341.805 87.1627C340.119 87.2332 338.744 87.1627 338.738 87.0159C338.732 86.869 340.09 86.6692 341.776 86.5752C343.462 86.4812 344.837 86.54 344.848 86.7162C344.86 86.8925 343.479 87.0922 341.805 87.1627Z" fill="#263238"/>
<path d="M340.671 99.4122C339.026 99.0245 337.734 98.5956 337.734 98.4487C337.734 98.3018 339.132 98.4781 340.783 98.8365C342.434 99.1948 343.721 99.6296 343.721 99.8C343.721 99.9703 342.305 99.7941 340.671 99.4122Z" fill="#263238"/>
<path d="M336.283 110.898C334.796 110.087 333.657 109.317 333.727 109.188C333.798 109.059 335.067 109.594 336.559 110.363C338.051 111.133 339.197 111.926 339.115 112.079C339.032 112.232 337.763 111.715 336.283 110.898Z" fill="#263238"/>
<path d="M328.968 120.792C327.758 119.617 326.859 118.571 326.965 118.442C327.071 118.312 328.14 119.188 329.374 120.351C330.608 121.514 331.495 122.554 331.377 122.701C331.26 122.848 330.173 121.972 328.968 120.792Z" fill="#263238"/>
<path d="M319.275 128.37C318.429 126.907 317.841 125.662 317.97 125.586C318.1 125.509 318.91 126.625 319.78 128.071C320.649 129.516 321.237 130.762 321.09 130.856C320.943 130.95 320.127 129.822 319.275 128.37Z" fill="#263238"/>
<path d="M307.906 133.065C307.483 131.425 307.254 130.068 307.401 130.033C307.548 129.998 308.024 131.284 308.476 132.912C308.928 134.539 309.152 135.896 308.981 135.943C308.811 135.99 308.329 134.698 307.906 133.065Z" fill="#263238"/>
<path d="M295.692 134.522C295.692 132.83 295.863 131.461 296.009 131.461C296.156 131.461 296.28 132.835 296.28 134.522C296.28 136.208 296.133 137.582 295.962 137.582C295.792 137.582 295.663 136.219 295.692 134.522Z" fill="#263238"/>
<path d="M283.554 132.683C284.036 131.061 284.541 129.786 284.688 129.827C284.835 129.869 284.576 131.22 284.101 132.847C283.625 134.475 283.137 135.785 282.967 135.702C282.796 135.62 283.043 134.304 283.554 132.683Z" fill="#263238"/>
<path d="M272.315 127.624C273.214 126.197 274.042 125.098 274.172 125.174C274.301 125.251 273.69 126.49 272.815 127.936C271.939 129.381 271.105 130.474 270.958 130.386C270.811 130.297 271.416 129.058 272.315 127.624Z" fill="#263238"/>
<path d="M262.862 119.752C264.114 118.612 265.212 117.778 265.306 117.889C265.4 118.001 264.496 119.023 263.262 120.181C262.028 121.338 260.941 122.172 260.818 122.049C260.694 121.925 261.617 120.891 262.862 119.752Z" fill="#263238"/>
<path d="M255.859 109.635C257.369 108.877 258.65 108.366 258.714 108.495C258.779 108.624 257.628 109.37 256.129 110.158C254.631 110.945 253.356 111.456 253.274 111.297C253.192 111.139 254.355 110.398 255.859 109.635Z" fill="#263238"/>
<path d="M251.828 98.0139C253.491 97.6849 254.86 97.538 254.889 97.6849C254.919 97.8318 253.603 98.2371 251.952 98.5896C250.301 98.9421 248.926 99.089 248.891 98.9186C248.856 98.7483 250.183 98.3429 251.828 98.0139Z" fill="#263238"/>
<path d="M251.083 85.7585C252.769 85.8819 254.126 86.1052 254.12 86.252C254.114 86.3989 252.733 86.44 251.047 86.3402C249.361 86.2403 247.998 86.0229 248.01 85.8467C248.022 85.6704 249.396 85.6058 251.083 85.7585Z" fill="#263238"/>
<path d="M253.638 73.697C255.231 74.2845 256.476 74.872 256.429 74.9954C256.382 75.1188 255.043 74.8015 253.445 74.2493C251.847 73.697 250.601 73.1213 250.654 72.9568C250.707 72.7923 252.052 73.1213 253.638 73.697Z" fill="#263238"/>
<path d="M259.343 62.7987C260.718 63.7799 261.763 64.6729 261.693 64.7963C261.622 64.9196 260.412 64.2381 259.02 63.2805C257.627 62.3229 256.582 61.4299 256.67 61.283C256.758 61.1361 257.962 61.8176 259.343 62.7987Z" fill="#263238"/>
<path d="M267.75 53.8216C268.813 55.1318 269.583 56.2715 269.471 56.3714C269.36 56.4713 268.379 55.4902 267.298 54.1918C266.217 52.8934 265.441 51.7595 265.576 51.6479C265.711 51.5362 266.687 52.5115 267.75 53.8216Z" fill="#263238"/>
<path d="M278.266 47.4179C278.936 48.9689 279.377 50.2731 279.236 50.3554C279.095 50.4376 278.425 49.2156 277.732 47.6764C277.038 46.1371 276.598 44.8328 276.756 44.7388C276.915 44.6448 277.579 45.8727 278.266 47.4179Z" fill="#263238"/>
<path d="M290.099 44.0868C290.328 45.7612 290.398 47.1359 290.245 47.1594C290.093 47.1829 289.77 45.8434 289.517 44.1749C289.264 42.5064 289.194 41.1257 289.364 41.1022C289.535 41.0787 289.869 42.4124 290.099 44.0868Z" fill="#263238"/>
<path d="M302.401 44.0455C302.178 45.7199 301.879 47.0653 301.732 47.0477C301.585 47.03 301.62 45.6494 301.82 43.975C302.02 42.3006 302.319 40.9493 302.489 40.9728C302.66 40.9963 302.625 42.3652 302.401 44.0455Z" fill="#263238"/>
<path d="M314.263 47.2945C313.599 48.8514 312.947 50.0616 312.806 50.0029C312.665 49.9441 313.082 48.634 313.723 47.0653C314.363 45.4967 315.021 44.2923 315.18 44.3628C315.338 44.4333 314.933 45.7434 314.263 47.2945Z" fill="#263238"/>
<path d="M324.815 53.622C323.757 54.9439 322.805 55.9368 322.688 55.8428C322.57 55.7488 323.317 54.5914 324.356 53.2577C325.396 51.9241 326.342 50.9077 326.483 51.0428C326.624 51.178 325.855 52.306 324.815 53.622Z" fill="#263238"/>
<path d="M333.292 62.5403C331.917 63.5273 330.736 64.2323 330.648 64.1089C330.56 63.9855 331.588 63.0749 332.946 62.0644C334.303 61.0539 335.484 60.3547 335.589 60.4957C335.695 60.6367 334.667 61.5532 333.292 62.5403Z" fill="#263238"/>
<path d="M339.067 73.421C337.481 74.0085 336.13 74.3551 336.095 74.22C336.059 74.0849 337.27 73.4739 338.862 72.8688C340.454 72.2636 341.764 71.9052 341.829 72.0697C341.893 72.2342 340.654 72.8335 339.067 73.421Z" fill="#263238"/>
<path d="M341.717 85.4178C340.031 85.5529 338.656 85.5412 338.645 85.4178C338.633 85.2944 339.984 85.0242 341.664 84.8303C343.345 84.6364 344.725 84.6834 344.737 84.8597C344.749 85.0359 343.386 85.2827 341.717 85.4178Z" fill="#263238"/>
<path d="M275.746 31.5316L275.564 31.6139L275.024 31.8312C274.554 32.031 273.849 32.2719 272.95 32.6655C270.417 33.7243 267.958 34.951 265.588 36.3374C264.084 37.2069 262.492 38.2468 260.818 39.416C259.143 40.5851 257.434 41.9481 255.724 43.4815C248.218 50.0976 242.485 58.4848 239.045 67.8806C238.24 70.0309 237.635 72.1342 237.112 74.1023C236.589 76.0705 236.237 77.9505 235.972 79.666C235.543 82.3765 235.294 85.1124 235.226 87.8558C235.179 88.8311 235.226 89.5831 235.226 90.0942C235.226 90.341 235.226 90.529 235.226 90.6817C235.231 90.7482 235.231 90.815 235.226 90.8815C235.218 90.8171 235.218 90.752 235.226 90.6876C235.226 90.5407 235.226 90.3469 235.226 90.1001C235.226 89.589 235.161 88.837 235.191 87.8617C235.212 85.108 235.43 82.3593 235.843 79.6366C236.09 77.9094 236.472 76.0352 236.947 74.0436C237.478 71.9265 238.118 69.8381 238.863 67.7866C242.286 58.3279 248.053 49.8924 255.624 43.27C257.346 41.7366 259.096 40.4147 260.753 39.2103C262.41 38.0059 264.043 37.0072 265.565 36.1494C267.95 34.7773 270.43 33.5758 272.985 32.5539C273.884 32.1779 274.607 31.9664 275.088 31.7725L275.641 31.5845C275.674 31.5643 275.71 31.5466 275.746 31.5316Z" fill="white"/>
<path d="M293.43 28.1006C292.826 28.226 292.213 28.3066 291.597 28.3415C290.457 28.459 288.894 28.6293 287.167 28.8526C285.44 29.0758 283.883 29.3108 282.755 29.4871C282.151 29.6113 281.538 29.6899 280.922 29.7221C281.506 29.5184 282.108 29.369 282.72 29.2756C283.842 29.0465 285.399 28.7762 287.126 28.553C288.853 28.3297 290.434 28.1887 291.579 28.1241C292.194 28.0584 292.814 28.0505 293.43 28.1006Z" fill="white"/>
<g opacity="0.4">
<path d="M253.885 121.074C253.885 121.074 281.456 164.584 324.227 142.3C368.877 119.035 344.202 65.707 344.202 65.707C344.202 65.707 365.211 108.207 321.689 135.914C310.849 142.817 299.046 142.823 290.046 141.918C267.045 139.615 253.885 121.074 253.885 121.074Z" fill="black"/>
</g>
<path d="M311.237 60.813C311.502 68.6163 311.266 76.4285 310.532 84.2016C310.262 87.0158 309.945 89.8593 308.858 92.4737C307.771 95.0881 305.92 97.4851 303.312 98.5896C300.703 99.6942 297.366 99.2359 295.551 97.0739L311.237 60.813Z" fill="#E0E0E0"/>
<path d="M295.251 84.8949L314.586 52.3353L302.918 89.0956L296.955 90.8757L295.251 84.8949Z" fill="#D82E1D"/>
<g opacity="0.4">
<path d="M314.586 52.3353L300.245 85.6058L302.918 89.0956L314.586 52.3353Z" fill="black"/>
</g>
<path d="M296.955 97.0974C300.391 97.0974 303.177 94.3119 303.177 90.8758C303.177 87.4396 300.391 84.6541 296.955 84.6541C293.519 84.6541 290.733 87.4396 290.733 90.8758C290.733 94.3119 293.519 97.0974 296.955 97.0974Z" fill="#FAFAFA"/>
<path d="M303.177 90.8757C303.121 90.37 303.037 89.8679 302.924 89.3717C302.564 88.0317 301.766 86.8508 300.656 86.017C299.841 85.4039 298.886 85.0048 297.877 84.856C296.868 84.7071 295.838 84.8134 294.881 85.1651C294.33 85.3602 293.813 85.6396 293.348 85.9935C292.852 86.3527 292.418 86.7891 292.061 87.286C291.297 88.3271 290.886 89.5846 290.886 90.8757C290.886 92.1668 291.297 93.4243 292.061 94.4654C292.774 95.4333 293.754 96.1723 294.881 96.5921C295.685 96.887 296.542 97.0105 297.396 96.9549C298.251 96.8992 299.084 96.6656 299.843 96.269C300.602 95.8724 301.27 95.3215 301.803 94.6517C302.337 93.982 302.725 93.2081 302.942 92.3797C303.055 91.8837 303.14 91.3815 303.194 90.8757C303.231 91.3908 303.185 91.9083 303.059 92.4091C302.738 93.8099 301.941 95.0559 300.803 95.9341C300.023 96.5396 299.111 96.9522 298.142 97.1385C297.026 97.3517 295.874 97.2624 294.805 96.88C294.224 96.6795 293.679 96.388 293.189 96.0164C292.67 95.6408 292.213 95.1847 291.838 94.6651C291.029 93.5761 290.592 92.2557 290.592 90.8992C290.592 89.5427 291.029 88.2222 291.838 87.1333C292.215 86.6151 292.671 86.1591 293.189 85.782C293.681 85.4156 294.226 85.1264 294.805 84.9243C295.874 84.539 297.027 84.4497 298.142 84.6658C299.327 84.8935 300.421 85.458 301.293 86.2916C302.165 87.1252 302.778 88.1925 303.059 89.3658C303.177 89.8599 303.216 90.3694 303.177 90.8757Z" fill="#263238"/>
<path d="M301.513 91.8084C302.02 89.3023 300.399 86.8599 297.893 86.3532C295.387 85.8465 292.944 87.4674 292.437 89.9735C291.931 92.4796 293.552 94.922 296.058 95.4287C298.564 95.9354 301.006 94.3145 301.513 91.8084Z" fill="#455A64"/>
<path d="M247.904 240.208H278.513L264.243 117.219L247.904 240.208Z" fill="#E0E0E0"/>
<path d="M97.2915 117.219L77.3633 241.659L247.417 243.874L264.243 117.219H97.2915Z" fill="#FAFAFA"/>
<path d="M256.67 174.225H88.1616L91.8277 151.312H259.713L256.67 174.225Z" fill="#EBEBEB"/>
<path d="M256.682 174.243H88.144L91.816 151.33H259.731L256.682 174.243ZM88.1793 174.213H256.658L259.696 151.301H91.8453L88.1793 174.213Z" fill="#263238"/>
<path d="M97.2919 117.219L91.8281 151.312H259.714L264.244 117.219H97.2919Z" fill="#D82E1D"/>
<path d="M97.3151 117.219L264.267 117.078H264.425V117.237C259.508 154.314 253.927 196.362 248.028 240.772V240.907H245.984L77.5043 240.86H77.3398V240.713L97.3151 117.219C97.1506 118.242 89.56 165.953 77.6512 240.772L77.5279 240.625H245.942H247.852L247.705 240.754C253.609 196.345 259.202 154.303 264.155 117.225L264.29 117.378L97.3151 117.219Z" fill="#263238"/>
<path d="M259.714 151.312C259.714 151.395 222.113 151.465 175.777 151.465C129.44 151.465 91.8281 151.395 91.8281 151.312C91.8281 151.23 129.429 151.16 175.777 151.16C222.125 151.16 259.714 151.224 259.714 151.312Z" fill="#263238"/>
<path d="M256.67 174.225C256.67 174.313 218.87 174.378 172.257 174.378C125.644 174.378 87.8384 174.313 87.8384 174.225C87.8384 174.137 125.627 174.072 172.257 174.072C218.888 174.072 256.67 174.143 256.67 174.225Z" fill="#263238"/>
<path d="M253.239 195.311C253.239 195.399 215.445 195.463 168.832 195.463C122.22 195.463 84.3901 195.399 84.3901 195.311C84.3901 195.222 122.179 195.158 168.809 195.158C215.439 195.158 253.239 195.228 253.239 195.311Z" fill="#263238"/>
<path d="M249.814 216.396C249.814 216.478 212.014 216.549 165.401 216.549C118.788 216.549 80.9824 216.478 80.9824 216.396C80.9824 216.314 118.771 216.243 165.401 216.243C212.032 216.243 249.814 216.314 249.814 216.396Z" fill="#263238"/>
<path d="M101.234 240.942C101.151 240.942 104.236 220.85 108.131 196.104C112.026 171.358 115.24 151.295 115.322 151.312C115.404 151.33 112.32 171.393 108.43 196.151C104.541 220.908 101.322 240.954 101.234 240.942Z" fill="#263238"/>
<path d="M127.219 240.942C127.131 240.942 130.221 220.85 134.11 196.104C137.999 171.358 141.219 151.295 141.307 151.312C141.395 151.33 138.305 171.393 134.41 196.151C130.515 220.908 127.277 240.954 127.219 240.942Z" fill="#263238"/>
<path d="M151.365 240.043C151.283 240.043 154.338 220.156 158.186 195.657C162.034 171.158 165.236 151.295 165.313 151.312C165.389 151.33 162.34 171.194 158.492 195.704C154.644 220.215 151.442 240.055 151.365 240.043Z" fill="#263238"/>
<path d="M175.247 240.754C175.165 240.754 178.243 220.703 182.127 196.01C186.01 171.317 189.224 151.295 189.306 151.312C189.388 151.33 186.31 171.352 182.427 196.057C178.543 220.762 175.329 240.766 175.247 240.754Z" fill="#263238"/>
<path d="M199.247 240.754C199.165 240.754 202.243 220.703 206.127 196.01C210.01 171.317 213.224 151.295 213.306 151.312C213.388 151.33 210.316 171.352 206.432 196.057C202.549 220.762 199.335 240.766 199.247 240.754Z" fill="#263238"/>
<path d="M223.229 240.86C223.147 240.86 226.231 220.785 230.121 196.051C234.01 171.317 237.224 151.271 237.312 151.289C237.4 151.306 234.31 171.358 230.42 196.098C226.531 220.838 223.311 240.895 223.229 240.86Z" fill="#263238"/>
<g opacity="0.2">
<path d="M208.13 152.91C211.02 151.63 212.83 148.622 213.576 145.549C214.322 142.476 214.205 139.268 214.316 136.102C214.428 132.935 214.804 129.674 216.42 126.954C217.377 125.35 218.723 124.017 219.786 122.472C220.849 120.926 221.637 119.046 221.243 117.184L203.16 117.278L208.13 152.91Z" fill="black"/>
</g>
<path d="M133.153 175.923C133.105 176.002 133.045 176.073 132.977 176.134L132.436 176.722C131.96 177.21 131.261 177.897 130.38 178.755C128.617 180.447 126.168 182.75 123.377 185.217C120.586 187.685 118.001 189.835 116.104 191.363C115.152 192.126 114.376 192.737 113.836 193.125L113.207 193.595C113.137 193.656 113.058 193.706 112.972 193.742C112.972 193.742 113.037 193.666 113.166 193.548L113.754 193.031L115.957 191.169C117.825 189.6 120.387 187.42 123.171 184.965C125.956 182.509 128.459 180.229 130.221 178.578L132.342 176.622L132.93 176.099C132.996 176.031 133.071 175.972 133.153 175.923Z" fill="#263238"/>
<path d="M131.796 193.977C131.546 193.759 131.312 193.524 131.096 193.272L129.257 191.31C127.671 189.624 125.544 187.356 123.2 184.847L117.078 178.443L115.222 176.499C114.988 176.268 114.77 176.02 114.57 175.759C114.836 175.955 115.084 176.175 115.31 176.417C115.768 176.851 116.426 177.492 117.231 178.291C118.841 179.889 121.038 182.127 123.418 184.642C125.797 187.156 127.912 189.471 129.416 191.169C130.168 192.015 130.773 192.708 131.179 193.19C131.408 193.433 131.615 193.696 131.796 193.977Z" fill="#263238"/>
<path d="M138.07 181.322C138.07 181.322 138.129 181.169 138.252 180.87C138.447 180.435 138.683 180.02 138.957 179.63C140.037 178.121 141.561 176.985 143.316 176.381C144.574 175.927 145.915 175.75 147.247 175.864C148.833 176.018 150.362 176.539 151.712 177.386C153.271 178.346 154.587 179.653 155.56 181.205C156.685 182.937 157.245 184.975 157.164 187.039C157.096 188.152 156.751 189.23 156.159 190.176C155.539 191.156 154.713 191.99 153.739 192.62C151.663 193.951 149.22 194.59 146.759 194.447C145.47 194.378 144.201 194.102 142.999 193.63C141.749 193.142 140.625 192.379 139.709 191.398C139.254 190.882 138.871 190.307 138.569 189.688C138.282 189.057 138.084 188.388 137.982 187.702C137.787 186.297 137.909 184.866 138.34 183.514C139.238 180.694 141.186 178.328 143.78 176.904C145.125 176.165 146.622 175.745 148.154 175.674C149.687 175.604 151.216 175.886 152.622 176.499C154.08 177.113 155.356 178.09 156.33 179.336C157.304 180.617 157.913 182.138 158.092 183.737C158.295 185.359 158.033 187.006 157.334 188.484C156.975 189.226 156.504 189.908 155.936 190.505C155.358 191.094 154.706 191.605 153.997 192.026C152.566 192.814 150.989 193.299 149.362 193.451C147.736 193.603 146.096 193.418 144.544 192.908C143.016 192.439 141.612 191.636 140.432 190.558C139.262 189.479 138.462 188.058 138.146 186.498C137.815 184.964 138.034 183.363 138.763 181.974C139.133 181.29 139.641 180.69 140.255 180.212C140.86 179.755 141.535 179.4 142.253 179.16C143.664 178.708 145.144 178.509 146.624 178.573C148.065 178.583 149.499 178.78 150.889 179.16C152.264 179.522 153.534 180.202 154.596 181.146C155.614 182.096 156.309 183.341 156.582 184.706C156.852 186.025 156.773 187.392 156.353 188.672C155.937 189.906 155.235 191.023 154.303 191.932C152.533 193.663 150.189 194.683 147.717 194.8C146.559 194.861 145.402 194.693 144.309 194.306C143.261 193.93 142.318 193.307 141.56 192.491C140.842 191.711 140.3 190.788 139.968 189.782C139.64 188.839 139.495 187.842 139.539 186.845C139.622 184.998 140.36 183.24 141.618 181.886C142.695 180.708 144.057 179.828 145.572 179.33C146.845 178.916 148.193 178.787 149.52 178.954C151.355 179.182 153.099 179.885 154.579 180.993C154.963 181.276 155.326 181.586 155.666 181.921C155.895 182.151 156.006 182.274 156.006 182.274C156.006 182.274 155.877 182.162 155.648 181.945C155.299 181.621 154.93 181.319 154.544 181.04C153.061 179.965 151.327 179.287 149.509 179.072C148.074 178.906 146.621 179.086 145.271 179.597C143.921 180.108 142.713 180.935 141.748 182.009C140.521 183.334 139.807 185.053 139.733 186.856C139.693 187.834 139.838 188.811 140.161 189.735C140.489 190.711 141.02 191.606 141.718 192.361C142.455 193.153 143.369 193.757 144.386 194.124C145.451 194.494 146.578 194.654 147.705 194.594C150.118 194.475 152.403 193.473 154.126 191.78C155.027 190.899 155.705 189.818 156.106 188.625C156.508 187.388 156.581 186.068 156.318 184.794C156.053 183.483 155.386 182.288 154.408 181.375C153.375 180.466 152.144 179.811 150.813 179.46C149.445 179.085 148.036 178.888 146.618 178.872C145.173 178.818 143.729 179.016 142.353 179.46C140.949 179.89 139.76 180.837 139.028 182.109C138.332 183.438 138.124 184.968 138.44 186.433C138.745 187.932 139.516 189.296 140.643 190.329C141.786 191.385 143.151 192.172 144.638 192.632C146.148 193.129 147.745 193.309 149.328 193.161C150.911 193.014 152.446 192.541 153.839 191.774C154.526 191.37 155.156 190.876 155.713 190.305C156.258 189.732 156.712 189.078 157.058 188.366C157.734 186.94 157.989 185.35 157.792 183.784C157.624 182.24 157.042 180.77 156.106 179.53C155.165 178.325 153.931 177.381 152.523 176.787C151.158 176.19 149.674 175.915 148.186 175.982C146.698 176.049 145.245 176.457 143.939 177.174C141.418 178.563 139.525 180.865 138.652 183.608C138.233 184.919 138.11 186.308 138.293 187.673C138.399 188.336 138.597 188.98 138.881 189.588C139.171 190.182 139.539 190.735 139.973 191.233C140.859 192.183 141.948 192.922 143.158 193.395C144.333 193.86 145.574 194.134 146.835 194.206C149.244 194.353 151.637 193.737 153.674 192.444C154.615 191.867 155.408 191.078 155.989 190.139C156.57 189.2 156.922 188.138 157.017 187.039C157.099 185.02 156.555 183.026 155.46 181.328C154.509 179.796 153.219 178.503 151.688 177.55C150.362 176.711 148.86 176.19 147.3 176.029C145.987 175.904 144.664 176.069 143.422 176.51C141.683 177.098 140.165 178.206 139.075 179.683C138.793 180.066 138.549 180.475 138.346 180.905C138.146 181.175 138.07 181.322 138.07 181.322Z" fill="#D82E1D"/>
<path d="M153.986 197.543C154.038 197.608 149.379 201.591 143.575 206.444C137.77 211.297 133 215.168 132.965 215.104C132.929 215.039 137.571 211.056 143.375 206.209C149.18 201.362 153.933 197.479 153.986 197.543Z" fill="#263238"/>
<path d="M155.002 214.581C154.726 214.418 154.464 214.232 154.221 214.023L152.153 212.413C150.42 211.038 148.04 209.123 145.42 206.996C142.8 204.869 140.444 202.931 138.746 201.515L136.743 199.823C136.489 199.629 136.253 199.413 136.038 199.177C136.313 199.341 136.574 199.528 136.819 199.735L138.881 201.344C140.614 202.719 142.994 204.634 145.614 206.761C148.234 208.888 150.59 210.827 152.294 212.243L154.291 213.929C154.544 214.129 154.781 214.347 155.002 214.581Z" fill="#263238"/>
<path d="M203.031 197.772C203.078 197.837 198.624 201.25 193.072 205.41C187.521 209.569 182.985 212.854 182.932 212.783C182.879 212.713 187.338 209.305 192.89 205.146C198.442 200.986 202.978 197.702 203.031 197.772Z" fill="#263238"/>
<path d="M204.758 212.225C204.717 212.295 199.982 209.364 194.183 205.668C188.384 201.973 183.737 198.93 183.778 198.853C183.819 198.777 188.555 201.72 194.353 205.41C200.152 209.099 204.828 212.154 204.758 212.225Z" fill="#263238"/>
<path d="M154.749 240.76C154.685 240.701 159.314 235.849 165.083 229.932C170.853 224.016 175.582 219.251 175.659 219.31C175.735 219.369 171.094 224.222 165.324 230.144C159.555 236.066 154.808 240.819 154.749 240.76Z" fill="#D82E1D"/>
<path d="M174.319 240.754C174.319 240.754 174.243 240.69 174.125 240.549L173.632 239.961C173.174 239.374 172.563 238.616 171.816 237.687C170.283 235.772 168.109 233.169 165.589 230.402C163.069 227.635 160.677 225.232 158.915 223.529L156.823 221.472L156.236 220.92C156.168 220.858 156.107 220.789 156.054 220.714C156.054 220.714 156.142 220.761 156.277 220.873L156.864 221.384C157.387 221.831 158.128 222.495 159.032 223.329C160.83 224.997 163.251 227.383 165.783 230.156C168.315 232.929 170.483 235.561 171.952 237.511C172.704 238.486 173.297 239.274 173.714 239.861L174.167 240.507C174.227 240.583 174.279 240.666 174.319 240.754Z" fill="#D82E1D"/>
<path d="M126.226 216.044C126.226 216.044 126.414 230.479 122.771 239.121L100.569 235.337C100.569 235.337 107.255 221.66 105.434 214.058L126.226 216.044Z" fill="#EBEBEB"/>
<path d="M126.22 215.503C126.22 215.503 123.435 233.222 121.731 238.51L99.6646 234.127C99.6646 234.127 104.206 216.996 104.147 212.225L126.22 215.503Z" fill="#D82E1D"/>
<path d="M106.386 220.168C106.386 220.25 109.665 221.014 113.748 221.872C117.831 222.73 121.15 223.358 121.168 223.282C121.186 223.205 117.89 222.436 113.806 221.578C109.723 220.72 106.404 220.086 106.386 220.168Z" fill="white"/>
<path d="M105.822 223.922C105.822 224.004 109.101 224.762 113.184 225.626C117.267 226.49 120.586 227.112 120.604 227.036C120.622 226.96 117.326 226.19 113.242 225.332C109.159 224.474 105.84 223.822 105.822 223.922Z" fill="white"/>
<path d="M109.065 228.17C109.441 228.334 109.836 228.452 110.24 228.522C110.998 228.705 112.049 228.945 113.207 229.192C114.364 229.439 115.428 229.639 116.197 229.78C116.608 229.883 117.031 229.934 117.455 229.932C117.064 229.768 116.656 229.648 116.238 229.574C115.486 229.386 114.435 229.145 113.271 228.904C112.108 228.663 111.051 228.452 110.287 228.317C109.887 228.219 109.477 228.169 109.065 228.17Z" fill="white"/>
<path d="M231.266 175.512C231.266 175.512 233.54 189.577 231.237 198.548L209.005 198.072C209.005 198.072 213.553 183.749 210.668 176.587L231.266 175.512Z" fill="#EBEBEB"/>
<path d="M231.166 174.983C231.166 174.983 231.019 192.673 230.12 198.072L207.93 197.02C207.93 197.02 209.875 179.63 209.105 174.983H231.166Z" fill="#455A64"/>
<path d="M212.254 182.855C212.254 182.938 215.591 183.008 219.71 183.014C223.828 183.02 227.171 182.961 227.171 182.879C227.171 182.797 223.834 182.726 219.71 182.72C215.586 182.715 212.254 182.773 212.254 182.855Z" fill="white"/>
<path d="M212.466 186.598C212.466 186.68 215.803 186.751 219.921 186.757C224.04 186.762 227.383 186.704 227.383 186.621C227.383 186.539 224.046 186.469 219.921 186.463C215.797 186.457 212.466 186.516 212.466 186.598Z" fill="white"/>
<path d="M216.443 190.047C216.852 190.134 217.271 190.172 217.689 190.158C218.459 190.158 219.522 190.199 220.697 190.205C221.872 190.211 222.929 190.205 223.699 190.164C224.117 190.181 224.535 190.147 224.945 190.064C224.535 189.977 224.117 189.941 223.699 189.958C222.929 189.929 221.872 189.911 220.697 189.905C219.522 189.9 218.459 189.905 217.689 189.947C217.271 189.93 216.853 189.963 216.443 190.047Z" fill="white"/>
<path d="M235.966 134.956C231.819 134.956 227.641 132.354 225.444 128.259C223.308 124.181 222.646 119.491 223.57 114.981C224.786 109.106 228.675 104.288 233.481 102.749C237.564 101.439 244.861 102.162 248.304 107.925C249.944 110.743 250.758 113.966 250.654 117.225C250.639 117.457 250.578 117.683 250.475 117.891C250.372 118.099 250.229 118.284 250.055 118.437C249.88 118.59 249.677 118.707 249.457 118.781C249.238 118.855 249.006 118.886 248.774 118.87C248.307 118.839 247.871 118.624 247.562 118.271C247.254 117.918 247.098 117.458 247.129 116.99C247.161 114.446 246.507 111.94 245.237 109.735C242.582 105.299 236.76 105.387 234.515 106.104C230.403 107.42 227.771 111.867 226.978 115.692C226.216 119.395 226.758 123.247 228.511 126.596C230.244 129.827 233.752 131.837 236.859 131.361C237.318 131.297 237.784 131.416 238.155 131.693C238.527 131.969 238.774 132.381 238.845 132.839C238.915 133.297 238.802 133.764 238.531 134.139C238.259 134.515 237.851 134.768 237.394 134.845C236.922 134.918 236.444 134.955 235.966 134.956Z" fill="#263238"/>
<path d="M122.178 134.956C118.024 134.956 113.853 132.353 111.656 128.259C109.518 124.182 108.854 119.491 109.776 114.981C110.804 110.022 114.282 104.312 119.763 102.737C122.406 102.021 125.208 102.163 127.765 103.143L126.496 106.433C124.656 105.733 122.644 105.625 120.739 106.121C116.697 107.296 114.065 111.773 113.254 115.692C112.492 119.395 113.034 123.247 114.787 126.596C116.52 129.833 120.034 131.836 123.136 131.361L123.67 134.844C123.177 134.921 122.678 134.958 122.178 134.956Z" fill="#263238"/>
<path d="M234.515 117.313L232.894 126.191H256.752L258.873 117.401L234.515 117.313Z" fill="#D82E1D"/>
<path d="M128.223 133.552C128.225 134.303 128.003 135.038 127.586 135.663C127.17 136.288 126.577 136.775 125.883 137.063C125.189 137.351 124.426 137.427 123.689 137.281C122.952 137.134 122.276 136.773 121.744 136.242C121.213 135.71 120.852 135.034 120.705 134.297C120.559 133.56 120.635 132.796 120.923 132.103C121.211 131.409 121.698 130.816 122.323 130.4C122.948 129.983 123.683 129.761 124.434 129.763C125.439 129.764 126.401 130.164 127.112 130.874C127.822 131.585 128.222 132.547 128.223 133.552Z" fill="#263238"/>
<path d="M241.912 133.552C241.913 134.303 241.691 135.038 241.275 135.663C240.858 136.288 240.265 136.775 239.572 137.063C238.878 137.351 238.114 137.427 237.378 137.281C236.641 137.134 235.964 136.773 235.433 136.242C234.902 135.71 234.54 135.034 234.394 134.297C234.248 133.56 234.323 132.796 234.611 132.103C234.899 131.409 235.387 130.816 236.012 130.4C236.637 129.983 237.371 129.761 238.122 129.763C239.127 129.764 240.09 130.164 240.8 130.874C241.511 131.585 241.91 132.547 241.912 133.552Z" fill="#263238"/>
<path d="M179.301 60.0963L173.062 83.7611L151.524 86.0758V89.8946L181.786 90.958L187.473 64.4086L179.301 60.0963Z" fill="#FFBE9D"/>
<path d="M188.378 91.5867C188.378 91.5867 154.726 89.9828 145.143 97.4617C135.561 104.941 140.202 117.22 140.202 117.22L194.359 117.079L199.141 89.6244L188.378 91.5867Z" fill="#263238"/>
<path d="M194.106 109.699C193.943 109.704 193.78 109.692 193.619 109.664C193.302 109.629 192.837 109.582 192.238 109.506C191.063 109.359 189.301 109.112 187.186 108.754C181.633 107.809 176.14 106.54 170.735 104.952C167.575 104.018 164.584 103.078 161.823 102.391C159.385 101.76 156.893 101.367 154.379 101.216C152.684 101.121 150.983 101.219 149.309 101.51C148.722 101.58 148.269 101.733 147.952 101.786C147.795 101.824 147.636 101.854 147.476 101.874C147.625 101.81 147.781 101.76 147.94 101.727C148.382 101.589 148.831 101.478 149.286 101.392C150.963 101.053 152.676 100.921 154.385 100.999C156.935 101.12 159.466 101.496 161.94 102.121C164.719 102.79 167.716 103.73 170.865 104.665C176.24 106.238 181.693 107.531 187.203 108.536C189.324 108.924 191.046 109.2 192.238 109.388L193.613 109.605C193.78 109.623 193.945 109.654 194.106 109.699Z" fill="#455A64"/>
<path d="M162.828 102.209C161.893 101.438 160.896 100.744 159.849 100.135C158.751 99.6212 157.613 99.1968 156.447 98.8658C156.809 98.8343 157.174 98.8702 157.522 98.9716C158.381 99.1565 159.211 99.4569 159.99 99.8646C160.767 100.275 161.486 100.786 162.128 101.386C162.41 101.615 162.647 101.894 162.828 102.209Z" fill="#455A64"/>
<path d="M191.944 164.737L192.397 178.878L189.553 190.17C189.507 190.363 189.501 190.564 189.536 190.76C189.571 190.956 189.646 191.142 189.756 191.308C189.867 191.473 190.01 191.614 190.177 191.721C190.344 191.829 190.532 191.901 190.728 191.933C190.955 191.974 191.189 191.96 191.41 191.893C191.631 191.826 191.832 191.706 191.997 191.545C194.136 189.453 201.985 181.722 201.885 180.694C201.779 179.519 202.396 165.736 202.396 165.736L191.944 164.737Z" fill="#D82E1D"/>
<g opacity="0.6">
<path d="M190.675 191.956L201.838 179.76V180.347C201.845 180.866 201.665 181.37 201.333 181.769C200.446 182.832 197.925 185.717 191.997 191.557C191.828 191.724 191.619 191.847 191.391 191.915C191.162 191.983 190.92 191.993 190.687 191.944L190.675 191.956Z" fill="white"/>
</g>
<g opacity="0.6">
<path d="M198.877 175.218C198.698 175.349 198.575 175.543 198.532 175.761C198.49 175.979 198.531 176.204 198.648 176.393C198.772 176.569 198.958 176.691 199.168 176.735C199.379 176.779 199.598 176.74 199.782 176.628C199.966 176.492 200.092 176.291 200.136 176.066C200.179 175.841 200.137 175.607 200.017 175.412C199.871 175.24 199.663 175.131 199.438 175.109C199.214 175.087 198.989 175.154 198.812 175.294" fill="white"/>
</g>
<path d="M193.853 185.74C193.771 185.782 193.442 185.047 192.602 184.654C192.082 184.449 191.527 184.35 190.969 184.36C190.969 184.325 191.133 184.213 191.462 184.16C191.898 184.107 192.34 184.18 192.736 184.371C193.132 184.561 193.464 184.861 193.695 185.235C193.859 185.523 193.883 185.729 193.853 185.74Z" fill="#263238"/>
<path d="M192.861 187.65C192.454 187.428 192.034 187.232 191.603 187.062C191.145 186.981 190.682 186.926 190.217 186.898C190.433 186.759 190.679 186.674 190.935 186.651C191.19 186.627 191.448 186.665 191.686 186.763C192.52 186.986 192.931 187.609 192.861 187.65Z" fill="#263238"/>
<path d="M195.704 183.285C195.104 182.889 194.476 182.537 193.824 182.233C193.136 182.023 192.433 181.865 191.721 181.763C192.461 181.608 193.23 181.669 193.936 181.939C194.643 182.209 195.256 182.676 195.704 183.285Z" fill="#263238"/>
<path d="M195.927 178.984C195.892 179.072 195.105 178.749 194.088 178.726C193.072 178.702 192.267 178.949 192.232 178.861C192.802 178.547 193.446 178.392 194.097 178.414C194.747 178.436 195.38 178.633 195.927 178.984Z" fill="#263238"/>
<path d="M195.898 174.83C195.28 174.636 194.637 174.527 193.989 174.507C193.346 174.582 192.718 174.746 192.121 174.995C192.121 174.966 192.25 174.783 192.573 174.595C193.005 174.351 193.49 174.213 193.986 174.191C194.482 174.17 194.976 174.266 195.428 174.472C195.751 174.631 195.922 174.795 195.898 174.83Z" fill="#263238"/>
<path d="M194.006 173.714C193.97 173.538 193.97 173.356 194.006 173.179C194.05 172.688 194.192 172.211 194.424 171.775C194.561 171.44 194.807 171.161 195.123 170.982C195.232 170.933 195.353 170.919 195.471 170.941C195.589 170.963 195.697 171.02 195.781 171.106C195.932 171.282 196.013 171.508 196.01 171.74C195.982 172.214 195.791 172.663 195.47 173.012C195.149 173.361 194.717 173.588 194.247 173.655C193.779 173.707 193.305 173.619 192.887 173.402C192.468 173.184 192.124 172.847 191.897 172.433C191.84 172.329 191.806 172.213 191.798 172.095C191.79 171.976 191.808 171.857 191.85 171.746C191.905 171.641 191.991 171.555 192.096 171.499C192.201 171.444 192.32 171.421 192.438 171.435C192.787 171.509 193.111 171.673 193.378 171.91C193.763 172.216 194.093 172.586 194.353 173.003C194.457 173.151 194.532 173.316 194.576 173.491C194.203 172.96 193.754 172.487 193.243 172.087C193.004 171.891 192.722 171.756 192.42 171.693C192.355 171.682 192.288 171.692 192.229 171.722C192.17 171.751 192.121 171.799 192.091 171.858C192.07 171.933 192.065 172.012 192.075 172.09C192.085 172.167 192.11 172.242 192.15 172.31C192.356 172.66 192.658 172.943 193.02 173.127C193.383 173.31 193.79 173.385 194.194 173.344C194.595 173.293 194.966 173.106 195.245 172.814C195.524 172.522 195.695 172.143 195.728 171.74C195.736 171.579 195.685 171.421 195.587 171.294C195.542 171.243 195.483 171.209 195.417 171.195C195.352 171.181 195.283 171.189 195.223 171.217C194.965 171.375 194.76 171.606 194.635 171.881C194.322 172.452 194.11 173.072 194.006 173.714Z" fill="#263238"/>
<path d="M199.112 89.6244C199.112 89.6244 184.56 117.137 184.36 121.937C184.16 126.737 184.36 170.982 184.36 170.982H206.885C207.472 170.982 210.85 151.048 210.163 146.46C209.476 141.871 207.049 117.208 207.049 117.208H220.01C220.01 117.208 223.564 113.407 223.435 108.583C223.358 105.922 221.619 100.482 219.91 97.5968C218.799 95.7462 211.685 86.0582 211.685 86.0582L199.112 89.6244Z" fill="#263238"/>
<path d="M198.137 91.4868C198.121 91.5419 198.099 91.5951 198.072 91.6455C198.019 91.763 197.949 91.9098 197.861 92.092L197.015 93.8075C196.633 94.5536 196.18 95.4584 195.652 96.51L194.806 98.1961L193.918 100.117L189.553 109.57C188.725 111.333 187.855 113.219 186.951 115.152L185.582 118.089C185.139 119.105 184.805 120.164 184.583 121.25C184.36 122.339 184.244 123.446 184.236 124.558C184.201 125.656 184.178 126.743 184.16 127.806C184.16 129.945 184.119 132.001 184.125 133.964C184.125 137.888 184.172 141.425 184.213 144.392C184.254 147.359 184.289 149.738 184.319 151.442C184.319 152.253 184.319 152.893 184.319 153.351C184.319 153.557 184.319 153.721 184.319 153.851C184.319 153.98 184.319 154.021 184.319 154.021C184.309 153.965 184.309 153.907 184.319 153.851C184.319 153.721 184.319 153.557 184.319 153.357C184.319 152.893 184.272 152.258 184.236 151.442C184.178 149.785 184.101 147.382 184.037 144.392C183.972 141.401 183.901 137.894 183.884 133.964C183.884 132.001 183.884 129.939 183.884 127.806C183.884 126.737 183.919 125.65 183.96 124.546C183.966 123.417 184.082 122.291 184.307 121.185C184.534 120.079 184.877 119 185.329 117.966L186.704 115.028L189.324 109.459L193.777 100.029L194.682 98.1139C194.994 97.5264 195.27 96.9389 195.552 96.4395L196.956 93.7605C197.338 93.0378 197.643 92.4738 197.855 92.0685C197.955 91.8922 198.037 91.7512 198.096 91.6337C198.154 91.5162 198.131 91.4809 198.137 91.4868Z" fill="#455A64"/>
<path d="M193.425 100.857C192.958 99.739 192.565 98.5909 192.25 97.4206C191.837 96.2811 191.502 95.1152 191.245 93.9308C191.793 95.0167 192.226 96.1568 192.538 97.3324C192.954 98.4739 193.251 99.6551 193.425 100.857Z" fill="#455A64"/>
<path d="M210.21 145.596C210.172 145.496 210.149 145.391 210.139 145.285C210.112 145.046 210.071 144.746 210.016 144.386C209.91 143.557 209.775 142.429 209.605 141.061C209.282 138.217 208.847 134.357 208.365 130.092C207.883 125.827 207.49 121.92 207.249 119.105C207.137 117.731 207.043 116.603 206.973 115.774C206.973 115.404 206.926 115.105 206.908 114.864C206.9 114.758 206.9 114.652 206.908 114.546C206.945 114.646 206.967 114.751 206.973 114.858C207.002 115.099 207.043 115.398 207.09 115.763C207.184 116.591 207.313 117.713 207.466 119.088C207.778 121.931 208.201 125.797 208.641 130.062C209.082 134.328 209.499 138.188 209.816 141.037C209.946 142.412 210.057 143.54 210.134 144.368C210.163 144.732 210.186 145.038 210.204 145.279C210.215 145.384 210.217 145.49 210.21 145.596Z" fill="#455A64"/>
<path d="M204.487 15.9393C204.141 13.5893 206.156 11.3274 208.482 11.0512C210.809 10.7751 213.153 12.2263 214.222 14.3472C214.72 15.4138 214.992 16.5715 215.023 17.7481C215.053 18.9247 214.84 20.0949 214.398 21.1857C213.811 22.6721 212.724 24.1761 211.144 24.2936C209.563 24.4111 208.353 23.2068 207.307 22.0964" fill="#263238"/>
<path d="M187.949 27.5955C183.249 17.2965 194.411 12.1206 200.48 13.8361C206.191 15.4518 208.629 18.2953 209.569 22.1141C210.599 25.9453 210.393 30.0038 208.982 33.7114C208.241 35.5092 206.914 37.3305 204.987 37.5537" fill="#263238"/>
<path d="M204.123 19.5525C204.607 19.6026 205.053 19.8329 205.375 20.1977C205.696 20.5624 205.868 21.0348 205.856 21.5206L204.758 47.7352C204.717 50.8313 200.199 52.5821 196.879 52.5116C193.536 52.4411 193.425 50.7961 193.354 47.8527C193.278 42.9352 193.278 41.0846 193.278 41.114C193.278 41.1433 189.048 40.409 188.172 34.8923C187.732 32.1486 187.873 27.6483 188.102 23.9705C188.313 20.6629 190.505 16.5973 193.807 16.9205L204.123 19.5525Z" fill="#FFBE9D"/>
<path d="M190.264 27.1078C190.261 27.2929 190.33 27.4717 190.458 27.6058C190.585 27.7399 190.76 27.8185 190.945 27.8246C191.035 27.8318 191.126 27.8208 191.212 27.7923C191.298 27.7638 191.377 27.7183 191.445 27.6586C191.513 27.5988 191.568 27.5261 191.608 27.4446C191.647 27.3631 191.669 27.2746 191.674 27.1842C191.675 26.9997 191.605 26.8217 191.478 26.6879C191.351 26.5541 191.177 26.4751 190.992 26.4675C190.902 26.4603 190.811 26.4713 190.726 26.4998C190.64 26.5283 190.56 26.5738 190.493 26.6335C190.425 26.6932 190.369 26.766 190.33 26.8475C190.291 26.929 190.268 27.0175 190.264 27.1078Z" fill="#263238"/>
<path d="M189.095 26.3147C189.183 26.4028 189.723 26.0092 190.481 26.0092C191.239 26.0092 191.803 26.3911 191.885 26.2971C191.968 26.2031 191.838 26.0914 191.592 25.9152C191.262 25.6875 190.87 25.5665 190.469 25.5686C190.074 25.5647 189.688 25.6906 189.371 25.9269C189.136 26.1032 189.053 26.2736 189.095 26.3147Z" fill="#263238"/>
<path d="M197.708 27.1079C197.706 27.2886 197.772 27.4633 197.895 27.5964C198.017 27.7296 198.185 27.8112 198.366 27.8246C198.456 27.8318 198.546 27.8208 198.632 27.7923C198.718 27.7638 198.797 27.7183 198.865 27.6586C198.933 27.5988 198.989 27.5261 199.028 27.4446C199.067 27.3631 199.09 27.2746 199.094 27.1842C199.096 26.9997 199.026 26.8217 198.898 26.6879C198.771 26.5541 198.597 26.4751 198.413 26.4675C198.234 26.4595 198.06 26.5223 197.928 26.6423C197.796 26.7623 197.717 26.9296 197.708 27.1079Z" fill="#263238"/>
<path d="M196.603 26.4557C196.691 26.5438 197.226 26.1502 197.984 26.1502C198.742 26.1502 199.306 26.532 199.388 26.4439C199.47 26.3558 199.341 26.2324 199.094 26.0562C198.765 25.8274 198.373 25.7063 197.972 25.7095C197.577 25.7095 197.192 25.835 196.873 26.0679C196.603 26.2442 196.539 26.4204 196.603 26.4557Z" fill="#263238"/>
<path d="M193.818 32.1016C193.417 31.978 193.003 31.9031 192.584 31.8783C192.391 31.8783 192.202 31.8196 192.173 31.6903C192.155 31.4858 192.2 31.2807 192.302 31.1028C192.485 30.6328 192.673 30.1393 192.89 29.6223C193.422 28.3679 193.855 27.0733 194.182 25.7506C193.546 26.9581 193.01 28.2157 192.579 29.5107L192.026 31.0029C191.905 31.238 191.87 31.5082 191.926 31.7667C191.956 31.835 192 31.8958 192.056 31.9446C192.112 31.9934 192.178 32.029 192.25 32.0487C192.357 32.0771 192.467 32.0929 192.579 32.0957C192.99 32.1489 193.406 32.1508 193.818 32.1016Z" fill="#263238"/>
<path d="M193.295 41.1082C195.904 41.1557 198.474 40.474 200.716 39.14C200.716 39.14 198.918 42.9353 193.395 42.4183L193.295 41.1082Z" fill="#EB996E"/>
<path d="M194.142 33.9347C194.287 33.7536 194.476 33.6123 194.69 33.524C194.905 33.4356 195.139 33.4031 195.369 33.4294C195.538 33.4435 195.703 33.492 195.852 33.5718C196.002 33.6516 196.133 33.7611 196.239 33.8935C196.34 34.0203 196.4 34.1749 196.41 34.3367C196.421 34.4984 196.382 34.6595 196.298 34.7983C196.176 34.9356 196.015 35.0332 195.837 35.0782C195.659 35.1233 195.472 35.1137 195.299 35.0509C194.937 34.9236 194.605 34.7236 194.324 34.4634C194.238 34.4027 194.165 34.3271 194.106 34.2402C194.079 34.1982 194.064 34.1492 194.064 34.0992C194.064 34.0491 194.079 34.0001 194.106 33.9582" fill="#EB996E"/>
<path d="M196.063 32.6304C195.939 32.6304 195.934 33.447 195.228 34.0345C194.523 34.622 193.642 34.528 193.636 34.622C193.63 34.716 193.83 34.7806 194.224 34.7924C194.709 34.798 195.181 34.6338 195.557 34.3283C195.915 34.0338 196.147 33.6132 196.204 33.1533C196.21 32.8301 196.116 32.6245 196.063 32.6304Z" fill="#263238"/>
<path d="M196.239 25.1221C196.315 25.3277 197.079 25.2278 197.972 25.3394C198.865 25.4511 199.587 25.6861 199.705 25.5039C199.758 25.4158 199.629 25.2219 199.341 25.0163C198.953 24.7673 198.512 24.6143 198.054 24.5698C197.597 24.5128 197.134 24.5672 196.703 24.7284C196.374 24.8577 196.209 25.0222 196.239 25.1221Z" fill="#263238"/>
<path d="M189.377 24.1057C189.512 24.282 190.035 24.1057 190.669 24.1057C191.304 24.1057 191.844 24.2232 191.956 24.0411C192.009 23.953 191.956 23.7767 191.692 23.6181C191.382 23.4146 191.016 23.3139 190.646 23.3302C190.276 23.3379 189.917 23.4589 189.618 23.6768C189.395 23.8472 189.318 24.0235 189.377 24.1057Z" fill="#263238"/>
<path d="M196.562 15.111C194.689 15.2065 192.871 15.7723 191.274 16.756C190.379 17.2199 189.585 17.8556 188.935 18.6268C188.286 19.3979 187.795 20.2895 187.491 21.2504C187.414 21.4503 187.378 21.6639 187.386 21.878C187.394 22.0922 187.446 22.3025 187.538 22.496C187.713 22.7172 187.959 22.8706 188.235 22.9296C188.51 22.9886 188.798 22.9495 189.048 22.8191C189.546 22.5483 189.97 22.1588 190.282 21.6852C190.406 22.2031 190.702 22.6635 191.122 22.9909C191.542 23.3183 192.061 23.4933 192.594 23.4871C193.127 23.481 193.641 23.2941 194.054 22.9571C194.466 22.6201 194.752 22.153 194.864 21.6323C194.906 22.1616 195.151 22.6543 195.547 23.0077C195.943 23.3612 196.46 23.5483 196.991 23.53C197.52 23.4841 198.025 23.2846 198.442 22.9558C198.86 22.627 199.172 22.1833 199.341 21.6793C199.47 22.6346 199.801 23.5517 200.31 24.3701C200.571 24.7763 200.951 25.0924 201.397 25.2753C201.844 25.4582 202.336 25.4991 202.807 25.3924C202.61 26.2046 202.622 27.0536 202.842 27.8599C203.136 28.6354 204.305 41.9072 205.093 41.6369C205.88 41.3667 205.85 27.8305 206.027 27.0433C206.418 25.5331 206.615 23.9795 206.614 22.4196C206.667 20.8126 206.146 19.2394 205.145 17.9811C204.144 16.7229 202.728 15.8617 201.15 15.5516C199.575 15.1903 197.959 15.0421 196.345 15.111" fill="#263238"/>
<path d="M207.619 39.281C207.619 39.281 207.566 39.3162 207.449 39.3573C207.284 39.4178 207.112 39.4592 206.938 39.4807C206.121 39.5845 205.291 39.454 204.545 39.1045C203.799 38.7551 203.168 38.2009 202.725 37.5067C202.124 36.4608 201.871 35.2512 202.003 34.0522C202.091 32.789 202.384 31.6375 202.52 30.58C202.652 29.6412 202.735 28.6959 202.766 27.7482C202.766 26.9375 202.766 26.2853 202.766 25.8271C202.741 25.5928 202.741 25.3564 202.766 25.1221C202.836 25.3531 202.878 25.5919 202.89 25.833C202.954 26.4752 202.985 27.1204 202.984 27.7658C202.983 28.7224 202.922 29.678 202.802 30.627C202.672 31.708 202.396 32.8654 202.308 34.0815C202.182 35.2199 202.412 36.3691 202.966 37.3716C203.449 38.1697 204.191 38.7774 205.069 39.093C205.659 39.3179 206.29 39.4141 206.92 39.375C207.372 39.3456 207.613 39.2516 207.619 39.281Z" fill="#263238"/>
<path d="M194.617 14.4001C194.831 14.8024 194.93 15.2555 194.905 15.7103C194.926 16.8236 194.505 17.8997 193.734 18.7033C192.963 19.507 191.906 19.9729 190.793 19.9991C190.341 20.0424 189.886 19.9611 189.477 19.7641C189.477 19.7112 189.982 19.8522 190.781 19.7641C191.825 19.6932 192.806 19.2366 193.532 18.4831C194.258 17.7295 194.679 16.7329 194.711 15.6868C194.729 14.9054 194.564 14.4119 194.617 14.4001Z" fill="#455A64"/>
<path d="M195.428 20.8979C195.457 20.8979 195.387 21.2739 194.964 21.6852C194.683 21.9377 194.354 22.1309 193.996 22.253C193.639 22.3752 193.261 22.4239 192.884 22.3961C192.145 22.3302 191.434 22.0863 190.81 21.6852C190.334 21.3856 190.076 21.1564 190.099 21.0977C190.384 21.1873 190.656 21.3116 190.91 21.4678C191.53 21.79 192.206 21.9895 192.902 22.0553C193.592 22.096 194.273 21.8875 194.823 21.4678C195.252 21.1976 195.393 20.8744 195.428 20.8979Z" fill="#455A64"/>
<path d="M208.735 19.2118C208.774 19.7176 208.739 20.2263 208.63 20.7217C208.463 21.9488 207.999 23.1167 207.278 24.1233C206.902 24.6226 206.427 25.0395 205.884 25.3487C205.34 25.6578 204.739 25.8526 204.117 25.9211C203.74 25.9551 203.359 25.9172 202.995 25.8095C202.743 25.7331 202.619 25.6567 202.625 25.6391C203.11 25.7258 203.604 25.7475 204.094 25.7037C205.263 25.514 206.314 24.8832 207.031 23.9412C207.72 22.9678 208.191 21.8578 208.412 20.6864C208.489 20.1887 208.597 19.6962 208.735 19.2118Z" fill="#455A64"/>
<path d="M209.746 21.8849C209.8 22.0359 209.829 22.1946 209.834 22.3549C209.873 22.7826 209.883 23.2125 209.863 23.6415C209.832 25.0872 209.315 26.4802 208.394 27.5954C207.875 28.2086 207.199 28.6695 206.438 28.9291C205.814 29.1332 205.149 29.1736 204.505 29.0466C204.073 28.964 203.662 28.7919 203.301 28.5413C203.054 28.3592 202.948 28.2241 202.96 28.2123C203.442 28.519 203.979 28.7304 204.54 28.8351C205.146 28.9222 205.765 28.8638 206.344 28.6647C207.049 28.4043 207.676 27.9674 208.165 27.3957C209.038 26.3218 209.557 25.0044 209.652 23.6239C209.746 22.5605 209.693 21.8908 209.746 21.8849Z" fill="#455A64"/>
<path d="M132.307 92.8969L121.644 117.284H136.325L146.783 92.703L132.307 92.8969Z" fill="#455A64"/>
<path d="M124.551 66.9583L136.577 90.6113H174.507L172.973 87.521L161.987 87.192L153.028 67.252C152.755 66.6446 152.313 66.1288 151.755 65.7671C151.196 65.4054 150.544 65.2131 149.879 65.2134H125.62C125.412 65.2059 125.206 65.2539 125.023 65.3523C124.839 65.4508 124.685 65.5962 124.576 65.7737C124.468 65.9512 124.408 66.1544 124.404 66.3626C124.399 66.5707 124.45 66.7763 124.551 66.9583Z" fill="#E0E0E0"/>
<path d="M143.546 77.5628C143.546 77.8498 143.461 78.1304 143.301 78.369C143.142 78.6077 142.915 78.7937 142.65 78.9035C142.385 79.0133 142.093 79.0421 141.812 78.9861C141.53 78.9301 141.272 78.7919 141.069 78.5889C140.866 78.386 140.727 78.1274 140.671 77.8459C140.615 77.5644 140.644 77.2727 140.754 77.0075C140.864 76.7423 141.05 76.5157 141.288 76.3563C141.527 76.1968 141.808 76.1117 142.095 76.1117C142.479 76.1132 142.847 76.2666 143.119 76.5384C143.391 76.8102 143.544 77.1784 143.546 77.5628Z" fill="#263238"/>
<path d="M178.549 90.6584H132.183V92.9203H178.549V90.6584Z" fill="#455A64"/>
<path d="M164.267 91.7922L178.373 117.308H185.117L186.586 114.388L187.937 111.315L178.549 92.9202L164.267 91.7922Z" fill="#455A64"/>
<path d="M188.778 48.0465C188.778 48.0465 180.588 50.9312 178.825 60.0963L187.473 64.4086L188.778 48.0465Z" fill="#D82E1D"/>
<path d="M188.778 48.0465C188.778 48.0465 183.049 60.8894 183.267 67.9042C183.343 70.3424 184.941 76.7168 184.941 76.7168L187.92 92.4973C187.92 92.4973 210.721 89.4128 211.226 89.4128C211.731 89.4128 210.462 76.4583 210.462 76.4583L214.181 51.5657C214.181 51.5657 212.478 48.1758 204.781 47.0008C200.169 46.2781 188.778 48.0465 188.778 48.0465Z" fill="#D82E1D"/>
<path d="M186.615 55.5021C186.668 55.5315 186.069 56.4891 185.346 58.1459C184.927 59.1159 184.574 60.113 184.289 61.1304C183.946 62.3771 183.696 63.6477 183.543 64.9316C183.407 66.2174 183.366 67.5114 183.419 68.8032C183.473 69.858 183.596 70.9081 183.789 71.9464C184.118 73.7089 184.494 74.7899 184.436 74.8075C184.313 74.5736 184.214 74.3275 184.142 74.0731C184.037 73.7821 183.947 73.4861 183.872 73.186C183.778 72.8335 183.654 72.4399 183.572 72.011C183.352 70.9652 183.206 69.905 183.137 68.8385C183.067 67.5297 183.1 66.2174 183.237 64.9139C183.394 63.6122 183.655 62.3253 184.019 61.0658C184.321 60.0418 184.7 59.0421 185.152 58.0754C185.318 57.6999 185.502 57.3332 185.705 56.9767C185.845 56.7004 186 56.4318 186.169 56.1718C186.295 55.934 186.444 55.7096 186.615 55.5021Z" fill="#263238"/>
<path d="M191.551 47.9291L191.88 44.4041C191.916 44.0377 192.085 43.6975 192.356 43.4482C192.627 43.199 192.98 43.0582 193.349 43.0528L204.599 42.8824C204.941 42.8784 205.271 43.0042 205.523 43.2344C205.775 43.4645 205.93 43.7818 205.956 44.1221L206.244 47.9232C205.303 49.9195 203.709 51.5357 201.726 52.5058C198.419 54.1097 193.278 54.1625 193.278 54.1625L191.551 47.9291Z" fill="#D82E1D"/>
<path d="M194.494 43.0822C194.529 43.0822 194.365 43.3113 194.294 43.6697C194.231 44.1886 194.231 44.7134 194.294 45.2324C194.393 45.9891 194.393 46.7553 194.294 47.5119C194.092 46.775 193.989 46.0143 193.989 45.2501C193.91 44.706 193.934 44.152 194.059 43.6168C194.253 43.2114 194.476 43.0528 194.494 43.0822Z" fill="#263238"/>
<path d="M197.191 47.4414C196.994 46.7218 196.899 45.9783 196.909 45.2324C196.865 44.7045 196.865 44.174 196.909 43.6461C196.968 43.2231 197.138 43.0057 197.173 43.0586C197.208 43.1115 197.12 43.3054 197.126 43.6931C197.132 44.0809 197.191 44.6331 197.191 45.2206C197.29 45.9576 197.29 46.7044 197.191 47.4414Z" fill="#263238"/>
<path d="M200.569 47.3475C200.326 46.6619 200.178 45.9464 200.128 45.2207C199.983 44.5018 199.938 43.7664 199.993 43.0352C200.239 43.7261 200.387 44.4478 200.434 45.1796C200.577 45.8927 200.622 46.622 200.569 47.3475Z" fill="#263238"/>
<path d="M203.483 47.5707C203.215 46.8157 203.072 46.0218 203.06 45.2206C202.947 44.4219 202.967 43.61 203.119 42.8177C203.272 43.5919 203.355 44.3785 203.365 45.1678C203.479 45.9633 203.519 46.7678 203.483 47.5707Z" fill="#263238"/>
<g opacity="0.3">
<path d="M205.716 61.0305C205.263 64.9844 205.563 71.7995 206.961 75.5302L213.529 64.6789L205.716 61.0305Z" fill="black"/>
</g>
<path d="M213.57 50.7491L213.605 50.7844C215.468 52.7395 216.831 55.1159 217.577 57.7111L218.787 63.2278L205.862 65.2253C205.151 62.8853 204.982 60.4139 205.369 57.999C206.003 53.8394 213.57 50.7491 213.57 50.7491Z" fill="#D82E1D"/>
<path d="M218.787 63.2277C218.703 63.2573 218.617 63.279 218.529 63.2923L217.789 63.4275L215.021 63.8799L205.657 65.3016H205.492V65.1312C205.463 64.3499 205.439 63.5391 205.422 62.7048C205.392 60.5369 205.422 58.463 205.551 56.5772C205.64 54.8872 206.158 53.2476 207.055 51.8125C207.658 50.8472 208.484 50.0412 209.464 49.4625C209.728 49.3054 210.007 49.1754 210.298 49.0747C210.395 49.0302 210.498 49.0005 210.603 48.9866C210.603 48.9866 210.192 49.1452 209.522 49.5741C208.59 50.1714 207.808 50.9755 207.237 51.9241C206.386 53.3503 205.901 54.965 205.827 56.6242C205.692 58.4924 205.698 60.5604 205.733 62.7283C205.733 63.5509 205.774 64.3675 205.792 65.143L205.621 64.9961L215.021 63.6742L217.8 63.3158L218.552 63.2277C218.63 63.2176 218.709 63.2176 218.787 63.2277Z" fill="#263238"/>
<path d="M191.486 55.126C190.828 54.7429 190.224 54.2747 189.688 53.7336C189.085 53.2678 188.547 52.7223 188.09 52.1121C189.352 52.9607 190.494 53.9743 191.486 55.126Z" fill="#FAFAFA"/>
<path d="M189.741 61.9235C189.28 62.3968 188.746 62.7934 188.16 63.0985C187.623 63.4883 187.028 63.7934 186.398 64.0032C187.395 63.1463 188.519 62.4487 189.729 61.9352L189.741 61.9235Z" fill="#FAFAFA"/>
<path d="M196.949 63.5978C196.845 62.7629 196.845 61.9182 196.949 61.0833C196.954 60.2439 197.056 59.4078 197.255 58.5923C197.358 59.4254 197.358 60.2679 197.255 61.1009C197.253 61.9424 197.15 62.7807 196.949 63.5978Z" fill="#FAFAFA"/>
<path d="M203.958 70.3953C203.374 69.8464 202.828 69.2575 202.325 68.6328C201.747 68.0823 201.208 67.4935 200.709 66.8702C201.414 67.2794 202.038 67.8151 202.548 68.4506C203.13 69.0103 203.607 69.6688 203.958 70.3953Z" fill="#FAFAFA"/>
<path d="M204.946 56.1835C204.441 56.708 203.866 57.1589 203.236 57.523C202.659 57.9671 202.025 58.3307 201.35 58.604C201.856 58.0786 202.433 57.6276 203.066 57.2645C203.642 56.8227 204.274 56.4593 204.946 56.1835Z" fill="#FAFAFA"/>
<path d="M198.612 51.0428C198.055 51.5852 197.426 52.0496 196.744 52.4235C196.119 52.8866 195.435 53.2658 194.711 53.5515C195.27 53.0082 195.898 52.5419 196.58 52.165C197.208 51.7076 197.891 51.3306 198.612 51.0428Z" fill="#FAFAFA"/>
<path d="M204.323 53.0873C203.938 52.5186 203.637 51.8973 203.43 51.2425C203.141 50.6201 202.943 49.9592 202.842 49.2803C203.232 49.8484 203.533 50.4724 203.735 51.1309C204.028 51.75 204.226 52.4095 204.323 53.0873Z" fill="#FAFAFA"/>
<path d="M212.178 55.6666C211.238 55.0151 210.423 54.2014 209.769 53.2637C210.267 53.5481 210.71 53.918 211.079 54.3564C211.522 54.723 211.894 55.1669 212.178 55.6666Z" fill="#FAFAFA"/>
<path d="M208.941 61.3948C208.754 60.8144 208.669 60.2063 208.688 59.597C208.601 58.9953 208.619 58.383 208.741 57.7875C209.011 58.97 209.079 60.1897 208.941 61.3948Z" fill="#FAFAFA"/>
<path d="M215.468 60.2079C214.784 60.3169 214.086 60.293 213.412 60.1374C212.723 60.0811 212.051 59.8958 211.432 59.5911C212.114 59.5982 212.794 59.681 213.459 59.8378C214.14 59.8893 214.813 60.0134 215.468 60.2079Z" fill="#FAFAFA"/>
<path d="M189.148 72.0462C188.669 71.3829 188.274 70.6626 187.973 69.9018C187.579 69.1839 187.276 68.4203 187.068 67.6282C187.547 68.2915 187.942 69.0118 188.243 69.7726C188.638 70.4899 188.942 71.2537 189.148 72.0462Z" fill="#FAFAFA"/>
<path d="M197.778 81.3171C197.226 80.8154 196.746 80.2401 196.35 79.6075C195.878 79.0304 195.483 78.3945 195.175 77.7157C195.729 78.2178 196.211 78.793 196.609 79.4253C197.083 79.9997 197.476 80.6362 197.778 81.3171Z" fill="#FAFAFA"/>
<path d="M204.91 77.4277C204.305 77.8219 203.649 78.1304 202.96 78.3442C202.306 78.6526 201.612 78.8643 200.897 78.9729C202.154 78.2684 203.506 77.748 204.91 77.4277Z" fill="#FAFAFA"/>
<path d="M187.338 84.936C187.621 83.8275 188.096 82.7775 188.743 81.834C188.643 82.4029 188.444 82.9498 188.155 83.4496C187.972 83.9892 187.696 84.4923 187.338 84.936Z" fill="#FAFAFA"/>
<path d="M181.81 58.3867C181.47 57.9564 181.266 57.435 181.222 56.8886C181.084 56.359 181.108 55.8 181.293 55.2847C181.414 55.7943 181.492 56.3131 181.528 56.8357C181.663 57.3442 181.758 57.8629 181.81 58.3867Z" fill="#FAFAFA"/>
<path d="M191.627 78.9905C191 78.8253 190.404 78.5573 189.865 78.1974C189.279 77.9317 188.74 77.5747 188.267 77.1399C188.893 77.3078 189.488 77.5757 190.029 77.933C190.612 78.2031 191.151 78.5596 191.627 78.9905Z" fill="#FAFAFA"/>
<path d="M197.296 69.2026C196.333 70.3564 195.214 71.3708 193.971 72.2165C194.417 71.6084 194.943 71.063 195.534 70.595C196.055 70.0528 196.648 69.5843 197.296 69.2026Z" fill="#FAFAFA"/>
<g opacity="0.3">
<path d="M193.824 69.0205C194.109 71.0685 195.023 72.9776 196.439 74.4843C197.907 75.9178 200.181 76.6405 202.09 75.8943C202.299 75.8369 202.491 75.7301 202.649 75.5828C202.808 75.4355 202.929 75.2522 203.001 75.0483C203.033 74.7978 202.978 74.5438 202.844 74.3295C202.71 74.1153 202.506 73.9541 202.267 73.8733C201.791 73.7203 201.292 73.6488 200.792 73.6618C199.367 73.5683 197.99 73.1123 196.791 72.337C195.592 71.5617 194.611 70.4929 193.942 69.232" fill="black"/>
</g>
<path d="M201.461 73.7559C201.461 73.7559 201.326 73.8029 201.068 73.8264C200.705 73.8631 200.338 73.8631 199.975 73.8264C199.435 73.763 198.905 73.6368 198.395 73.4504C197.135 72.9975 196.017 72.2215 195.152 71.2002C194.8 70.7863 194.499 70.3328 194.253 69.849C194.08 69.5266 193.944 69.1856 193.847 68.8326C193.8 68.7066 193.774 68.5735 193.771 68.439C193.83 68.439 193.988 68.9677 194.441 69.7432C194.705 70.1957 195.014 70.6208 195.363 71.0122C195.795 71.4884 196.278 71.9159 196.803 72.2871C197.333 72.6465 197.9 72.9478 198.495 73.186C198.982 73.3778 199.488 73.5195 200.004 73.609C200.892 73.7383 201.461 73.6971 201.461 73.7559Z" fill="#263238"/>
<path d="M169.12 83.2264L177.627 82.2335L183.625 86.1639L206.538 80.6649L207.079 64.9667L217.26 63.6272V82.633C217.203 84.9404 216.233 87.131 214.564 88.7246C212.894 90.3182 210.661 91.1847 208.353 91.1342L174.772 90.2001L173.344 87.3448L166.135 87.1274L169.12 83.2264Z" fill="#FFBE9D"/>
<path d="M206.268 80.6355C206.126 80.6917 205.981 80.7369 205.833 80.7706L204.587 81.0938L199.987 82.2335L184.783 85.9172L183.367 86.2579H183.308H183.261L177.268 82.3158H177.351L168.838 83.3028L168.896 83.2675L166.64 86.1287L166.053 86.8807C165.988 86.9708 165.913 87.0535 165.83 87.1274C165.884 87.0315 165.945 86.9393 166.012 86.8513L166.599 86.0758L168.785 83.1735H168.82L177.321 82.1101H177.368H177.403L183.408 86.0347H183.302L184.718 85.6939L199.94 82.0866L204.564 81.0233L205.821 80.7471C205.967 80.6983 206.116 80.661 206.268 80.6355Z" fill="#EB996E"/>
<path d="M173.766 85.6646C172.669 85.793 171.563 85.8362 170.459 85.7938H169.871L169.953 85.7644C169.289 86.3754 168.571 86.9259 167.809 87.4094C168.415 86.7409 169.075 86.1238 169.783 85.5647L169.818 85.5294H170.47C171.571 85.4842 172.673 85.5294 173.766 85.6646Z" fill="#EB996E"/>
<path d="M210.492 83.2029C210.054 82.5119 209.485 81.9131 208.817 81.4404C208.109 81.0401 207.328 80.7845 206.52 80.6884C206.758 80.606 207.013 80.5858 207.26 80.6297C207.86 80.693 208.437 80.8941 208.947 81.2171C209.457 81.5401 209.885 81.9765 210.198 82.4921C210.356 82.6991 210.458 82.9443 210.492 83.2029Z" fill="#EB996E"/>
<path d="M63.5624 208.706H25.1982V213.976H63.5624V208.706Z" fill="#263238"/>
<path d="M63.6267 214.046H25.1333V208.641H63.6267V214.046ZM25.2626 213.911H63.4975V208.77H25.2626V213.911Z" fill="#263238"/>
<path d="M28.7583 212.225L34.275 239.468H54.7085L60.0489 213.982L28.7583 212.225Z" fill="#263238"/>
<path d="M28.7583 236.889L31.7017 240.942H56.5356L60.0489 236.889H28.7583Z" fill="#455A64"/>
<path d="M42.9407 213.018C42.8643 213.018 42.7703 200.399 42.7233 184.818C42.6763 169.237 42.7233 156.618 42.782 156.618C42.8408 156.618 42.9524 169.237 42.9994 184.818C43.0464 200.399 43.017 213.018 42.9407 213.018Z" fill="#263238"/>
<path d="M51.4892 181.434C51.4636 181.535 51.4282 181.633 51.3835 181.728C51.2953 181.945 51.1778 182.215 51.0427 182.544C50.9663 182.726 50.8841 182.92 50.7901 183.132C50.6961 183.343 50.6256 183.596 50.5375 183.848L50.2378 184.671C50.1379 184.965 50.0557 185.258 49.9558 185.611C49.5 187.154 49.1409 188.724 48.8807 190.311C48.5859 192.258 48.3898 194.219 48.2932 196.186C48.1545 199.765 48.2565 203.349 48.5987 206.914C48.7221 208.289 48.8454 209.393 48.9394 210.157C48.9747 210.515 49.0099 210.809 49.0334 211.038C49.0414 211.142 49.0414 211.246 49.0334 211.35C48.9964 211.251 48.9727 211.149 48.9629 211.044C48.9218 210.815 48.8748 210.527 48.8161 210.175C48.6927 209.411 48.5341 208.306 48.3872 206.937C47.9876 203.365 47.86 199.767 48.0053 196.174C48.0924 194.197 48.2886 192.226 48.5928 190.27C48.8645 188.679 49.2453 187.109 49.7326 185.57C49.8383 185.241 49.9265 184.924 50.0322 184.636L50.3495 183.813L50.6315 183.102C50.7255 182.885 50.8195 182.697 50.9017 182.515L51.2953 181.716C51.3446 181.612 51.41 181.517 51.4892 181.434Z" fill="#263238"/>
<path d="M50.5082 171.229C50.4757 171.37 50.4345 171.51 50.3848 171.646C50.2849 171.934 50.1498 172.328 49.9853 172.821L49.6915 173.667C49.5975 173.984 49.4918 174.325 49.3802 174.689C49.1569 175.418 48.8984 176.246 48.6693 177.18L48.2815 178.643C48.164 179.154 48.0465 179.689 47.9231 180.235C47.6529 181.334 47.459 182.527 47.2123 183.76C46.7893 186.263 46.4191 189.048 46.1606 191.956C45.9021 194.864 45.814 197.678 45.7787 200.222C45.7435 202.766 45.7787 205.057 45.908 206.979C45.9374 207.942 46.002 208.806 46.049 209.57C46.096 210.333 46.143 210.991 46.19 211.526C46.237 212.061 46.2605 212.454 46.284 212.766C46.2919 212.908 46.2919 213.052 46.284 213.194C46.2463 213.056 46.2227 212.914 46.2135 212.771C46.1783 212.46 46.1313 212.055 46.0666 211.538C46.002 211.021 45.9374 210.363 45.8786 209.581C45.8199 208.8 45.7435 207.954 45.6965 206.99C45.5672 205.063 45.5144 202.772 45.5085 200.222C45.5026 197.673 45.626 194.87 45.8728 191.938C46.1195 189.007 46.5131 186.228 46.9479 183.713C47.2005 182.462 47.4061 181.269 47.6823 180.188C47.8115 179.636 47.9408 179.101 48.0583 178.59L48.4637 177.133C48.7045 176.199 48.9807 175.371 49.2215 174.642C49.339 174.278 49.4507 173.943 49.5505 173.626C49.6504 173.309 49.7679 173.038 49.8678 172.786L50.3143 171.611C50.3644 171.477 50.4294 171.348 50.5082 171.229Z" fill="#263238"/>
<path d="M40.5144 215.251C40.5083 215.202 40.5083 215.153 40.5144 215.104C40.5144 214.992 40.5144 214.851 40.4791 214.669C40.4498 214.27 40.4145 213.711 40.3675 213.001C40.2735 211.526 40.1443 209.434 39.9798 206.849C39.6508 201.662 39.169 194.512 38.2936 186.61C37.8471 182.662 37.3301 178.919 36.7896 175.524C36.5076 173.832 36.2491 172.222 35.9495 170.718C35.6498 169.214 35.362 167.821 35.127 166.546C34.892 165.272 34.5923 164.132 34.3632 163.127C34.1341 162.123 33.9285 161.253 33.7757 160.548C33.6229 159.843 33.4761 159.314 33.3762 158.921C33.3409 158.75 33.3057 158.609 33.2822 158.498C33.2731 158.449 33.2731 158.399 33.2822 158.351C33.3064 158.395 33.3242 158.442 33.3351 158.492L33.4526 158.909C33.5642 159.297 33.7111 159.837 33.905 160.524C34.0988 161.212 34.328 162.081 34.5688 163.092C34.8097 164.102 35.1035 165.236 35.3678 166.511C35.6322 167.786 35.9553 169.173 36.2256 170.677C36.4959 172.181 36.8131 173.79 37.0951 175.488C37.6474 178.884 38.1702 182.632 38.6168 186.575C39.4921 194.471 39.9445 201.644 40.2265 206.838C40.3675 209.44 40.4674 211.538 40.5261 212.995C40.5261 213.706 40.5732 214.264 40.5849 214.669C40.5849 214.845 40.5849 214.992 40.5849 215.104C40.5689 215.156 40.5451 215.206 40.5144 215.251Z" fill="#263238"/>
<path d="M42.6296 162.722C42.4592 160.959 40.6556 159.585 38.8578 159.567C37.9586 159.606 37.0802 159.85 36.2893 160.28C35.4983 160.709 34.8156 161.313 34.2929 162.046C33.2588 163.521 32.5114 165.177 32.0897 166.928C30.8795 171.141 30.2214 175.565 30.7384 179.918C31.2555 184.272 33.018 188.554 36.1435 191.627C36.6488 192.132 37.3185 192.632 38.0059 192.479C38.3779 192.37 38.7157 192.168 38.987 191.891C42.0462 189.091 44.4708 185.668 46.0982 181.853C47.7255 178.038 48.518 173.918 48.4224 169.772C48.3754 168.121 48.158 166.394 47.2474 165.019C46.3367 163.644 44.1923 162.175 42.6354 162.728" fill="#D82E1D"/>
<path d="M29.2165 148.387L26.6903 152.969C26.6315 153.075 26.5551 153.198 26.4318 153.204C26.3084 153.21 26.1968 153.093 26.1263 152.981L19.4404 142.747L20.9797 141.871L29.2165 148.387Z" fill="#D82E1D"/>
<g opacity="0.2">
<path d="M29.2165 148.387L26.6903 152.969C26.6315 153.075 26.5551 153.198 26.4318 153.204C26.3084 153.21 26.1968 153.093 26.1263 152.981L19.4404 142.747L20.9797 141.871L29.2165 148.387Z" fill="black"/>
</g>
<path d="M42.7821 156.641L19.9751 143.181C19.8453 143.131 19.7266 143.056 19.6257 142.961C19.5249 142.865 19.444 142.75 19.3876 142.623C19.2994 142.288 19.5521 141.959 19.793 141.707C21.3623 140.08 23.2633 138.811 25.3668 137.985C27.4704 137.159 29.7271 136.795 31.9837 136.918C34.2394 137.081 36.4216 137.79 38.3419 138.984C40.2622 140.179 41.8628 141.823 43.0053 143.775C45.2026 147.705 45.279 152.91 42.7527 156.641" fill="#D82E1D"/>
<path d="M23.2886 138.887C23.3861 138.86 23.4871 138.848 23.5882 138.851C23.7821 138.851 24.0758 138.804 24.4518 138.81C25.5108 138.796 26.5687 138.879 27.6126 139.057C29.1678 139.324 30.6835 139.783 32.1247 140.426C34.612 141.545 36.8209 143.2 38.5933 145.273C40.3657 147.347 41.6577 149.786 42.3767 152.417C42.671 153.438 42.8677 154.484 42.9642 155.542C43.0112 155.913 42.9994 156.206 43.0112 156.406C43.0213 156.506 43.0213 156.606 43.0112 156.706C43.0112 156.706 42.9583 156.294 42.8643 155.531C42.7342 154.487 42.52 153.456 42.2239 152.446C41.2675 149.097 39.3915 146.084 36.8088 143.747C34.2262 141.411 31.0402 139.845 27.6126 139.227C26.5796 139.031 25.5324 138.919 24.4812 138.893C23.6763 138.898 23.2886 138.91 23.2886 138.887Z" fill="#263238"/>
<path d="M39.6919 147.353C39.3243 147.577 38.9294 147.752 38.5169 147.875C37.7884 148.163 36.7544 148.528 35.6381 148.892C34.5219 149.256 33.4643 149.538 32.7006 149.726C32.2953 149.85 31.8776 149.929 31.4551 149.961C31.8309 149.779 32.2247 149.638 32.6301 149.538L35.5324 148.627L38.4288 147.693C38.8375 147.538 39.2606 147.424 39.6919 147.353Z" fill="#263238"/>
<path d="M36.1021 137.706C36.3063 138.538 36.3972 139.393 36.3724 140.25C36.4394 141.104 36.392 141.963 36.2314 142.805C36.1212 141.96 36.078 141.107 36.1021 140.255C36.035 139.407 36.035 138.554 36.1021 137.706Z" fill="#263238"/>
<path d="M19.7637 142.929C20.2973 142.684 20.8517 142.487 21.4204 142.341C22.4545 142.018 23.8997 141.613 25.533 141.225C27.1663 140.837 28.6115 140.543 29.6455 140.355C30.2251 140.226 30.8148 140.147 31.408 140.12C30.8503 140.3 30.2811 140.441 29.7043 140.543C28.6468 140.778 27.1897 141.131 25.5917 141.495C23.9937 141.859 22.5426 142.253 21.4792 142.523C20.917 142.696 20.3439 142.832 19.7637 142.929Z" fill="#263238"/>
<path d="M32.2656 158.48C30.3033 156.994 28.2294 156.717 25.7678 156.794C23.3057 156.951 20.8947 157.566 18.659 158.609C14.8108 160.29 11.1976 162.775 8.90047 166.288C6.60332 169.801 5.79844 174.454 7.51983 178.285C7.65528 178.685 7.93342 179.022 8.30121 179.231C8.72849 179.35 9.18406 179.314 9.58785 179.131C13.9648 177.703 18.3652 176.264 22.3896 174.031C26.414 171.799 30.0742 168.691 32.2303 164.631C32.7825 163.684 33.1382 162.635 33.2761 161.547C33.3349 160.996 33.2758 160.44 33.1025 159.914C32.9293 159.388 32.646 158.905 32.2715 158.498" fill="#D82E1D"/>
<path d="M32.3009 158.022C32.2029 158.078 32.0983 158.121 31.9895 158.151L31.073 158.468L30.4091 158.686C30.1682 158.774 29.9097 158.879 29.6336 158.991C29.0813 159.214 28.4586 159.438 27.7594 159.767L26.6902 160.254C26.3142 160.425 25.944 160.636 25.5504 160.842C24.7573 161.23 23.9583 161.729 23.1005 162.234C19.4369 164.505 16.1767 167.37 13.4537 170.712C12.8661 171.493 12.2493 172.228 11.7616 172.968C11.509 173.332 11.2564 173.673 11.0331 174.02L10.4456 175.018C10.0344 175.647 9.72886 176.258 9.43511 176.781C9.29411 177.039 9.1531 177.28 9.0356 177.509C8.9181 177.738 8.8241 177.944 8.73598 178.138L8.30122 179.007C8.26027 179.113 8.20491 179.211 8.13672 179.301C8.16534 179.192 8.2047 179.086 8.25422 178.984L8.6361 178.091C8.72422 177.897 8.81823 177.686 8.9181 177.451C9.01798 177.216 9.16486 176.975 9.29998 176.71C9.58199 176.176 9.88749 175.535 10.2752 174.918C10.475 174.595 10.6747 174.255 10.8627 173.902C11.0507 173.55 11.3328 173.209 11.5795 172.839C12.0613 172.087 12.6546 171.346 13.2598 170.553C14.629 168.87 16.1299 167.298 17.7483 165.853C19.3847 164.432 21.1333 163.145 22.9771 162.005C23.8408 161.5 24.6515 161.006 25.4505 160.624C25.85 160.425 26.226 160.219 26.6255 160.037L27.7124 159.567C28.3998 159.244 29.0461 159.032 29.6101 158.821C29.8921 158.721 30.1506 158.621 30.3973 158.539L31.0671 158.339L32.0012 158.075C32.0997 158.05 32.1998 158.032 32.3009 158.022Z" fill="#263238"/>
<path d="M16.9793 166.317C15.4173 166.912 13.8249 167.424 12.2088 167.851C10.6169 168.368 8.99665 168.794 7.35596 169.126C8.91794 168.531 10.5104 168.019 12.1265 167.592C13.7193 167.078 15.3394 166.652 16.9793 166.317Z" fill="#263238"/>
<path d="M16.7792 176.822C16.6991 176.331 16.6637 175.833 16.6735 175.335C16.6735 174.419 16.6735 173.144 16.6735 171.746C16.6735 170.348 16.791 169.073 16.8673 168.156C16.8793 167.658 16.9423 167.161 17.0553 166.676C17.0949 167.172 17.0949 167.671 17.0553 168.168C17.0201 169.173 16.9848 170.395 16.9437 171.752C16.9026 173.109 16.8791 174.331 16.8497 175.335C16.8717 175.832 16.8481 176.33 16.7792 176.822Z" fill="#263238"/>
<path d="M25.8032 172.251C25.7268 172.251 25.4859 169.672 25.2685 166.482C25.0512 163.292 24.9278 160.701 25.0041 160.701C25.0805 160.701 25.3155 163.274 25.5388 166.464C25.762 169.654 25.8795 172.245 25.8032 172.251Z" fill="#263238"/>
<path d="M14.5762 160.448C15.0827 160.384 15.5942 160.368 16.1037 160.401C17.0437 160.401 18.348 160.436 19.7874 160.483C21.2267 160.53 22.5251 160.589 23.4651 160.642C23.9756 160.649 24.4845 160.698 24.9868 160.789C24.4802 160.853 23.9688 160.869 23.4593 160.836C22.5193 160.836 21.215 160.806 19.7756 160.754C18.3362 160.701 17.0378 160.648 16.0919 160.595C15.5834 160.589 15.0763 160.54 14.5762 160.448Z" fill="#263238"/>
<path d="M37.1241 192.849C37.098 192.745 37.0861 192.639 37.0889 192.532C37.0889 192.303 37.0889 192.003 37.0477 191.639C37.0125 190.857 37.0066 189.735 37.0477 188.337C37.0889 186.939 37.1652 185.288 37.3297 183.455C37.4942 181.622 37.7645 179.607 38.1346 177.509C38.5047 175.412 38.963 173.444 39.4271 171.634C39.8913 169.825 40.3965 168.268 40.8548 166.934C41.313 165.601 41.7008 164.584 42.0298 163.844C42.1708 163.503 42.2824 163.256 42.3764 163.016C42.4124 162.917 42.4577 162.823 42.5115 162.734C42.4987 162.838 42.4689 162.939 42.4234 163.033L42.0885 163.897C41.8183 164.625 41.4481 165.659 41.0193 167.011C40.5904 168.362 40.1204 169.948 39.6563 171.711C39.1921 173.473 38.7574 175.459 38.3814 177.55C38.0054 179.642 37.7527 181.663 37.5647 183.467C37.3767 185.27 37.271 186.945 37.224 188.331C37.177 189.718 37.1476 190.846 37.1476 191.627C37.1476 191.991 37.1476 192.285 37.1476 192.52C37.1475 192.63 37.1396 192.74 37.1241 192.849Z" fill="#263238"/>
<path d="M38.3231 177.286C38.0564 177.651 37.7511 177.986 37.4125 178.285C36.825 178.872 35.9849 179.66 35.0331 180.5C34.0813 181.34 33.1825 182.062 32.5186 182.574C32.179 182.869 31.8087 183.127 31.4141 183.343C31.7131 183.005 32.0436 182.696 32.4011 182.421L34.851 180.294L37.2832 178.144C37.6018 177.825 37.95 177.538 38.3231 177.286Z" fill="#263238"/>
<path d="M45.5436 183.096C45.1863 182.676 44.8622 182.228 44.5742 181.757L42.324 178.467L40.021 175.212C39.6794 174.778 39.3711 174.318 39.0986 173.837C39.4962 174.221 39.8562 174.642 40.1738 175.095C40.8083 175.9 41.6543 177.028 42.5238 178.314C43.3933 179.601 44.1806 180.782 44.7152 181.651C45.0359 182.106 45.3133 182.59 45.5436 183.096Z" fill="#263238"/>
<path d="M41.76 164.807C41.8011 164.872 39.41 166.488 36.4078 168.415C33.4056 170.342 30.944 171.858 30.9029 171.793C30.8617 171.728 33.2529 170.113 36.2609 168.186C39.269 166.259 41.7247 164.749 41.76 164.807Z" fill="#263238"/>
<path d="M48.5516 172.122C47.2855 171.068 46.0756 169.948 44.9267 168.767C43.7169 167.656 42.5695 166.48 41.4897 165.242C42.7603 166.293 43.9724 167.413 45.1205 168.597C46.331 169.705 47.4766 170.882 48.5516 172.122Z" fill="#263238"/>
<path d="M50.2256 171.963L52.2819 171.793C53.7441 171.673 55.1631 171.238 56.4414 170.518C57.067 170.153 57.7145 169.828 58.3802 169.543C60.9241 168.526 63.7676 168.708 66.5054 168.567C70.9911 168.342 75.386 167.219 79.4305 165.266C79.6734 165.158 79.8782 164.98 80.018 164.755C80.441 163.985 79.6538 163.298 78.9781 162.88C75.506 160.742 71.9751 158.58 68.0446 157.516C64.1142 156.453 59.6433 156.635 56.2945 158.944C52.3582 161.658 50.9188 167.228 50.255 171.963" fill="#D82E1D"/>
<path d="M80.036 164.484C79.9176 164.436 79.8019 164.381 79.6894 164.32L78.7141 163.809C77.8681 163.362 76.652 162.704 75.1068 161.97C73.3172 161.086 71.4511 160.366 69.5314 159.819C67.1838 159.144 64.725 158.945 62.2992 159.232C59.8699 159.502 57.5756 160.488 55.7074 162.064C54.2481 163.42 53.0807 165.059 52.2763 166.881C51.5537 168.426 51.1013 169.742 50.7841 170.635L50.414 171.675C50.3775 171.799 50.3303 171.919 50.2729 172.034C50.2899 171.906 50.3194 171.78 50.3611 171.658C50.4433 171.393 50.5491 171.041 50.6783 170.606C51.0704 169.323 51.5373 168.063 52.0766 166.834C52.8683 164.969 54.0409 163.29 55.5194 161.905C57.4139 160.273 59.7559 159.25 62.2405 158.968C64.6992 158.67 67.1925 158.87 69.5725 159.555C71.5031 160.122 73.3773 160.865 75.1715 161.776C76.7049 162.54 77.9092 163.221 78.7435 163.697L79.6953 164.255C79.818 164.317 79.9325 164.394 80.036 164.484Z" fill="#263238"/>
<path d="M75.0955 167.157C75.0543 167.216 72.3577 165.477 69.0794 163.268C65.8011 161.059 63.175 159.214 63.2043 159.156C63.2337 159.097 65.9362 160.836 69.2145 163.045C72.4928 165.254 75.1366 167.093 75.0955 167.157Z" fill="#263238"/>
<path d="M72.5099 158.891C71.138 159.323 69.69 159.457 68.2622 159.285C68.9604 159.14 69.6702 159.057 70.3831 159.038C71.0865 158.928 71.798 158.879 72.5099 158.891Z" fill="#263238"/>
<path d="M60.437 156.729C59.9232 157.945 59.2495 159.087 58.4336 160.125C58.6439 159.499 58.9405 158.906 59.3149 158.362C59.6095 157.767 59.9874 157.218 60.437 156.729Z" fill="#263238"/>
<path d="M62.8456 168.744C62.3913 168.554 61.9581 168.318 61.553 168.039C60.7717 167.569 59.72 166.864 58.6155 166.059C57.511 165.254 56.5064 164.473 55.7896 163.909C55.3884 163.625 55.0147 163.304 54.6733 162.951C55.1099 163.178 55.5231 163.448 55.9071 163.756L58.78 165.841C59.8963 166.652 60.9244 167.363 61.6764 167.88C62.0906 168.133 62.4818 168.422 62.8456 168.744Z" fill="#263238"/>
<path d="M53.2519 180.711C51.2896 180.188 48.9454 182.098 48.5518 184.089C48.1582 186.081 48.8985 188.114 49.768 189.964C51.6391 194.074 54.4146 197.707 57.8873 200.592C61.3899 203.465 65.7604 205.069 70.2896 205.146C69.4612 201.292 70.5069 197.261 70.0487 193.343C69.6393 189.891 68.0712 186.68 65.6008 184.236C63.1303 181.791 59.9035 180.256 56.4479 179.883C55.1965 179.748 53.7454 179.554 53.246 180.711" fill="#D82E1D"/>
<path d="M70.2891 205.146C70.1906 205.113 70.0961 205.07 70.0071 205.016C69.7498 204.871 69.5043 204.706 69.2727 204.523C68.4499 203.807 67.789 202.923 67.3339 201.932C67.0226 201.344 66.6701 200.663 66.3293 199.929C65.9886 199.194 65.6478 198.419 65.2718 197.579C64.8949 196.718 64.4612 195.884 63.9734 195.082C63.4503 194.226 62.861 193.413 62.2109 192.649C60.8714 191.075 59.4261 189.712 58.1747 188.402C57.0433 187.261 56.0133 186.025 55.0962 184.706C54.4818 183.812 53.9769 182.848 53.5922 181.833C53.4688 181.475 53.3748 181.187 53.3278 180.993C53.2953 180.896 53.2755 180.796 53.269 180.694C53.269 180.694 53.4042 181.093 53.692 181.798C54.111 182.786 54.635 183.725 55.2548 184.601C56.1894 185.89 57.2268 187.103 58.3568 188.225C59.6141 189.518 61.0653 190.881 62.4224 192.473C63.0875 193.247 63.6906 194.072 64.226 194.941C64.7118 195.756 65.1455 196.602 65.5244 197.473L66.5584 199.823C66.8874 200.551 67.2282 201.221 67.5337 201.826C67.9625 202.809 68.5861 203.694 69.3667 204.429C69.9307 204.934 70.3185 205.122 70.2891 205.146Z" fill="#263238"/>
<path d="M60.1426 201.944C60.1544 201.498 60.2155 201.054 60.3247 200.622C60.4775 199.811 60.7301 198.701 61.0708 197.49C61.4116 196.28 61.7758 195.205 62.0696 194.435C62.1982 194.008 62.3777 193.598 62.6042 193.213C62.5249 193.65 62.4069 194.078 62.2517 194.494C62.005 195.281 61.6642 196.362 61.3352 197.567C61.0062 198.771 60.7477 199.864 60.5127 200.663C60.4317 201.101 60.3078 201.53 60.1426 201.944Z" fill="#263238"/>
<path d="M69.9309 192.479C69.4606 192.41 68.9968 192.302 68.5444 192.156C67.6984 191.938 66.5293 191.633 65.2309 191.339C63.9325 191.045 62.7457 190.822 61.888 190.658C61.4176 190.597 60.9536 190.495 60.5015 190.352C60.9763 190.34 61.451 190.38 61.9174 190.47C62.7869 190.581 63.9854 190.781 65.2896 191.057C66.5939 191.333 67.763 191.686 68.5973 191.956C69.0588 192.084 69.5057 192.259 69.9309 192.479Z" fill="#263238"/>
<path d="M52.8579 195.229C52.8801 194.712 52.9509 194.199 53.0694 193.695C53.2457 192.761 53.5159 191.469 53.886 190.064C54.2562 188.66 54.6439 187.397 54.9494 186.492C55.1002 185.995 55.2969 185.514 55.5369 185.053C55.4516 185.562 55.3259 186.063 55.1609 186.551C54.9024 187.468 54.5382 188.731 54.1739 190.129C53.8097 191.527 53.5042 192.814 53.2868 193.736C53.1866 194.245 53.0431 194.744 52.8579 195.229Z" fill="#263238"/>
<path d="M65.4247 184.23C65.4247 184.301 62.9631 184.107 59.9491 183.784C56.9352 183.461 54.4912 183.143 54.503 183.073C56.3345 183.126 58.1621 183.273 59.9785 183.514C61.8049 183.66 63.6227 183.899 65.4247 184.23Z" fill="#263238"/>
<path d="M63.6267 213.958C63.6267 214.034 55.008 214.093 44.38 214.093C33.752 214.093 25.1333 214.034 25.1333 213.958C25.1333 213.882 33.752 213.823 44.38 213.823C55.008 213.823 63.6267 213.882 63.6267 213.958Z" fill="#455A64"/>
<path d="M57.6342 225.044C57.6342 225.121 51.8238 225.185 44.6621 225.185C37.5004 225.185 31.6958 225.121 31.6958 225.044C31.6958 224.968 37.5004 224.909 44.6621 224.909C51.8238 224.909 57.6342 224.997 57.6342 225.044Z" fill="#455A64"/>
<path d="M57.8578 226.631C57.8578 226.707 52.0533 226.766 44.8916 226.766C37.7299 226.766 31.9253 226.707 31.9253 226.631C31.9253 226.554 37.7299 226.496 44.8916 226.496C52.0533 226.496 57.8578 226.554 57.8578 226.631Z" fill="#455A64"/>
<path d="M57.8578 223.74C57.8578 223.817 51.8534 223.875 44.445 223.875C37.0365 223.875 31.0322 223.817 31.0322 223.74C31.0322 223.664 37.0365 223.605 44.445 223.605C51.8534 223.605 57.8578 223.664 57.8578 223.74Z" fill="#455A64"/>
</svg>
