<svg width="411" height="260" viewBox="0 0 411 260" fill="none" xmlns="http://www.w3.org/2000/svg">
<path d="M44.7656 126.934L36.565 127.102L32.396 127.177C31.0084 127.177 29.6083 127.177 28.2145 127.177H27.9395V126.902L27.9082 119.908V119.589H28.2207L36.4963 119.627C39.2527 119.627 42.0154 119.696 44.7718 119.727H44.9469V119.896C44.9469 121.083 44.8969 122.258 44.8656 123.427L44.7656 126.934ZM44.7656 126.934L44.6781 123.396C44.6781 122.233 44.6093 121.083 44.5968 119.939L44.7656 120.108C42.0092 120.108 39.2465 120.208 36.49 120.208L28.2145 120.252L28.527 119.939L28.4895 126.934L28.2145 126.652C29.5771 126.652 30.9397 126.652 32.3085 126.652L36.415 126.727L44.7656 126.934Z" fill="#EBEBEB"/>
<path d="M155.004 174.474L146.804 174.649L142.641 174.718C141.247 174.749 139.847 174.718 138.453 174.756H138.178V174.474L138.141 167.48V167.167H138.453L146.729 167.211C149.491 167.211 152.248 167.28 155.004 167.311H155.179V167.48C155.179 168.668 155.123 169.849 155.092 171.018L155.004 174.474ZM155.004 174.474L154.917 170.943C154.917 169.78 154.848 168.624 154.836 167.48L155.004 167.655C152.248 167.686 149.491 167.749 146.729 167.755L138.453 167.793L138.766 167.48L138.734 174.474L138.453 174.199C139.816 174.199 141.178 174.199 142.547 174.199L146.66 174.268L155.004 174.474Z" fill="#EBEBEB"/>
<path d="M35.5336 135.753L27.3268 135.922L23.164 135.997C21.7764 135.997 20.3763 135.997 18.9824 136.028H18.7012V135.722V128.734V128.415H19.0137L27.2893 128.453C30.0457 128.453 32.8021 128.521 35.5648 128.553H35.7336V128.721C35.7336 129.903 35.6836 131.084 35.6523 132.253L35.5336 135.753ZM35.5336 135.753L35.4461 132.215C35.4461 131.053 35.3711 129.903 35.3648 128.759L35.5336 128.928C32.7709 128.959 30.0144 129.028 27.258 129.028L18.9824 129.071L19.295 128.759L19.245 135.722L18.9699 135.447C20.3325 135.447 21.6951 135.447 23.0577 135.447L27.1705 135.522L35.5336 135.753Z" fill="#EBEBEB"/>
<path d="M53.9974 128.759H37.4463V135.753H53.9974V128.759Z" fill="#EBEBEB"/>
<path d="M195.225 104.363L187.019 104.538L182.856 104.607C181.468 104.638 180.068 104.607 178.674 104.638H178.393V104.357L178.362 97.3628V97.0503H178.681L186.956 97.0878C189.713 97.0878 192.469 97.1565 195.232 97.1941H195.4V97.3628C195.4 98.5504 195.344 99.7317 195.319 100.894L195.225 104.363ZM195.225 104.363L195.132 100.826C195.132 99.663 195.063 98.5129 195.05 97.3691L195.225 97.5378C192.463 97.5691 189.706 97.6378 186.95 97.6441L178.674 97.6816L178.987 97.3691L178.949 104.363L178.674 104.082C180.037 104.082 181.393 104.082 182.762 104.12L186.875 104.188L195.225 104.363Z" fill="#EBEBEB"/>
<path d="M185.988 106.188H169.437V113.183H185.988V106.188Z" fill="#EBEBEB"/>
<path d="M204.457 113.183L196.251 113.358L192.088 113.426C190.7 113.426 189.3 113.426 187.906 113.426H187.625V113.145L187.594 106.151V105.838H187.906L196.182 105.876C198.938 105.876 201.695 105.945 204.457 105.982H204.626V106.151C204.626 107.338 204.576 108.514 204.545 109.682L204.457 113.183ZM204.457 113.183L204.37 109.645C204.339 108.482 204.295 107.332 204.289 106.188L204.457 106.357C201.695 106.357 198.938 106.457 196.182 106.457L187.906 106.501L188.219 106.188L188.181 113.183L187.906 112.901C189.269 112.901 190.631 112.901 191.994 112.939L196.107 113.008L204.457 113.183Z" fill="#EBEBEB"/>
<path d="M394.052 106.232L385.851 106.407L381.682 106.476C380.295 106.476 378.894 106.476 377.501 106.514H377.226V106.232L377.194 99.2381V98.9255H377.507L385.782 98.9693C388.539 98.9693 391.302 99.038 394.058 99.0693H394.233V99.2381C394.233 100.426 394.183 101.607 394.152 102.776L394.052 106.232ZM394.052 106.232L393.964 102.701C393.964 101.538 393.895 100.382 393.883 99.2381L394.052 99.4131C391.295 99.4443 388.533 99.5068 385.776 99.5131L377.501 99.5506L377.813 99.2381V106.232L377.532 105.957C378.894 105.957 380.257 105.957 381.626 105.989L385.732 106.057L394.052 106.232Z" fill="#EBEBEB"/>
<path d="M394.052 7.34435L385.851 7.51936L381.682 7.58811C380.295 7.58811 378.894 7.58811 377.501 7.62561H377.226V7.34435L377.194 0.350119V0.0375977H377.507L385.782 0.0813528C388.539 0.0813528 391.302 0.150107 394.058 0.18136H394.233V0.350119C394.233 1.5377 394.183 2.71903 394.152 3.88786L394.052 7.34435ZM394.052 7.34435L393.964 3.83786C393.964 2.67528 393.895 1.51895 393.883 0.375121L394.052 0.550135C391.295 0.550135 388.533 0.643891 385.776 0.650141L377.501 0.687642L377.813 0.375121V7.36935L377.532 7.09433C378.894 7.09433 380.257 7.09433 381.626 7.09433L385.732 7.16308L394.052 7.34435Z" fill="#EBEBEB"/>
<path d="M403.284 9.16943H386.732V16.1637H403.284V9.16943Z" fill="#EBEBEB"/>
<path d="M29.2831 7.3505L21.0763 7.52551L16.9135 7.58801C15.5259 7.58801 14.1258 7.58801 12.732 7.58801H12.4507V7.30675L12.4194 0.318771V0H12.732L21.0075 0.0875056C23.764 0.0875056 26.5204 0.15626 29.2831 0.187512H29.4518V0.356274C29.4518 1.5376 29.4018 2.71894 29.3706 3.88776L29.2831 7.3505ZM29.2831 7.3505L29.1956 3.83776C29.1956 2.67518 29.1206 1.5251 29.1143 0.381276L29.2831 0.550038C26.5204 0.550038 23.764 0.650045 21.0075 0.650045L12.732 0.687546L13.0445 0.381276L12.9945 7.3505L12.7195 7.07548C14.082 7.07548 15.4446 7.07548 16.8072 7.07548L20.92 7.15048L29.2831 7.3505Z" fill="#EBEBEB"/>
<path d="M21.9637 217.059L30.308 216.884L34.4208 216.815C35.7896 216.784 37.1522 216.815 38.5148 216.777L38.2335 217.059V210.064L38.5461 210.377L30.2705 210.333C27.5141 210.333 24.7514 210.264 21.9949 210.233L22.1637 210.064C22.1637 211.208 22.1137 212.358 22.0824 213.521L21.9637 217.059ZM21.9637 217.059L21.8762 213.596C21.8762 212.427 21.8074 211.252 21.7949 210.064V209.896H21.9699C24.7264 209.864 27.4891 209.802 30.2455 209.796L38.5211 209.758H38.8336V210.071V217.065V217.346H38.5586C37.1647 217.346 35.7646 217.346 34.377 217.315L30.208 217.246L21.9637 217.059Z" fill="#EBEBEB"/>
<path d="M12.7321 225.872H29.2832V218.877H12.7321V225.872Z" fill="#EBEBEB"/>
<path d="M386.732 217.065L395.083 216.89L399.196 216.821C400.558 216.79 401.921 216.821 403.283 216.784L403.008 217.065L402.971 210.102L403.283 210.414L395.008 210.377C392.251 210.377 389.495 210.302 386.732 210.271L386.901 210.102C386.901 211.246 386.851 212.396 386.82 213.565L386.732 217.065ZM386.732 217.065L386.645 213.602C386.645 212.439 386.576 211.258 386.563 210.071V209.902H386.732C389.495 209.871 392.251 209.802 395.008 209.796L403.283 209.758H403.596V210.071V217.065V217.346H403.315C401.921 217.346 400.521 217.346 399.133 217.315L394.97 217.246L386.732 217.065Z" fill="#EBEBEB"/>
<path d="M254.767 177.8L262.974 177.625L267.137 177.556C268.525 177.525 269.925 177.556 271.319 177.518H271.6V177.8L271.631 184.794V185.106H271.312L263.043 185.1C260.287 185.1 257.53 185.025 254.767 184.994H254.599V184.825C254.599 183.637 254.655 182.456 254.68 181.294L254.767 177.8ZM254.767 177.8L254.886 181.35C254.886 182.519 254.955 183.669 254.967 184.813L254.792 184.644C257.555 184.613 260.312 184.544 263.068 184.538L271.344 184.5L271.031 184.813L271.069 177.818L271.344 178.1C269.981 178.1 268.625 178.1 267.256 178.062L263.143 177.993L254.767 177.8Z" fill="#EBEBEB"/>
<path d="M264.005 175.974H280.556V168.98H264.005V175.974Z" fill="#EBEBEB"/>
<path d="M253.179 9.18188H78.73V94.5314H253.179V9.18188Z" fill="white"/>
<path d="M253.18 61.1666V95.944H181.05V37.3087H193.394V54.1286H196.582V44.6092H212.283V59.6853H214.371V24.3079H228.016V34.0148H235.022V46.0968H237.135V38.4963H249.548V61.1666H253.18Z" fill="#EBEBEB"/>
<path d="M184.65 39.4214H182.562V42.6341H184.65V39.4214Z" fill="white"/>
<path d="M188.269 39.4214H186.181V42.6341H188.269V39.4214Z" fill="white"/>
<path d="M191.894 39.4214H189.807V42.6341H191.894V39.4214Z" fill="white"/>
<path d="M184.65 44.2593H182.562V47.472H184.65V44.2593Z" fill="white"/>
<path d="M188.269 44.2593H186.181V47.472H188.269V44.2593Z" fill="white"/>
<path d="M191.894 44.2593H189.807V47.472H191.894V44.2593Z" fill="white"/>
<path d="M184.65 49.0972H182.562V52.3099H184.65V49.0972Z" fill="white"/>
<path d="M188.269 49.0972H186.181V52.3099H188.269V49.0972Z" fill="white"/>
<path d="M191.894 49.0972H189.807V52.3099H191.894V49.0972Z" fill="white"/>
<path d="M184.65 53.9348H182.562V57.1475H184.65V53.9348Z" fill="white"/>
<path d="M188.269 53.9348H186.181V57.1475H188.269V53.9348Z" fill="white"/>
<path d="M191.894 53.9348H189.807V57.1475H191.894V53.9348Z" fill="white"/>
<path d="M210.395 46.6658H198.363V48.6784H210.395V46.6658Z" fill="white"/>
<path d="M210.395 50.5659H198.363V52.5786H210.395V50.5659Z" fill="white"/>
<path d="M210.395 54.4663H198.363V56.4789H210.395V54.4663Z" fill="white"/>
<path d="M210.395 58.3728H198.363V60.3854H210.395V58.3728Z" fill="white"/>
<path d="M210.395 62.2729H198.363V64.2856H210.395V62.2729Z" fill="white"/>
<path d="M210.395 66.1733H198.363V68.186H210.395V66.1733Z" fill="white"/>
<path d="M210.395 70.0735H198.363V72.0861H210.395V70.0735Z" fill="white"/>
<path d="M210.395 73.9739H198.363V75.9865H210.395V73.9739Z" fill="white"/>
<path d="M244.479 40.3152H240.766V42.2591H244.479V40.3152Z" fill="white"/>
<path d="M244.479 44.0842H240.766V46.0281H244.479V44.0842Z" fill="white"/>
<path d="M244.479 47.8533H240.766V49.7972H244.479V47.8533Z" fill="white"/>
<path d="M244.479 51.6223H240.766V53.5662H244.479V51.6223Z" fill="white"/>
<path d="M244.479 55.385H240.766V57.3289H244.479V55.385Z" fill="white"/>
<path d="M244.479 59.1541H240.766V61.0979H244.479V59.1541Z" fill="white"/>
<path d="M244.479 62.9231H240.766V64.867H244.479V62.9231Z" fill="white"/>
<path d="M244.479 66.6919H240.766V68.6358H244.479V66.6919Z" fill="white"/>
<path d="M249.536 40.3152H245.823V42.2591H249.536V40.3152Z" fill="white"/>
<path d="M249.536 44.0842H245.823V46.0281H249.536V44.0842Z" fill="white"/>
<path d="M249.536 47.8533H245.823V49.7972H249.536V47.8533Z" fill="white"/>
<path d="M249.536 51.6223H245.823V53.5662H249.536V51.6223Z" fill="white"/>
<path d="M249.536 55.385H245.823V57.3289H249.536V55.385Z" fill="white"/>
<path d="M249.536 59.1541H245.823V61.0979H249.536V59.1541Z" fill="white"/>
<path d="M249.536 62.9231H245.823V64.867H249.536V62.9231Z" fill="white"/>
<path d="M249.536 66.6919H245.823V68.6358H249.536V66.6919Z" fill="white"/>
<path d="M220.302 26.3394H216.433V29.4021H220.302V26.3394Z" fill="white"/>
<path d="M226.078 26.3394H222.208V29.4021H226.078V26.3394Z" fill="white"/>
<path d="M220.302 30.8396H216.433V33.9023H220.302V30.8396Z" fill="white"/>
<path d="M226.078 30.8396H222.208V33.9023H226.078V30.8396Z" fill="white"/>
<path d="M220.302 35.3398H216.433V38.4026H220.302V35.3398Z" fill="white"/>
<path d="M226.078 35.3398H222.208V38.4026H226.078V35.3398Z" fill="white"/>
<path d="M220.302 39.834H216.433V42.8967H220.302V39.834Z" fill="white"/>
<path d="M226.078 39.834H222.208V42.8967H226.078V39.834Z" fill="white"/>
<path d="M220.302 44.3342H216.433V47.3969H220.302V44.3342Z" fill="white"/>
<path d="M226.078 44.3342H222.208V47.3969H226.078V44.3342Z" fill="white"/>
<path d="M220.302 48.8284H216.433V51.8911H220.302V48.8284Z" fill="white"/>
<path d="M226.078 48.8284H222.208V51.8911H226.078V48.8284Z" fill="white"/>
<path d="M220.302 53.3286H216.433V56.3913H220.302V53.3286Z" fill="white"/>
<path d="M226.078 53.3286H222.208V56.3913H226.078V53.3286Z" fill="white"/>
<path d="M220.302 57.8289H216.433V60.8916H220.302V57.8289Z" fill="white"/>
<path d="M226.078 57.8289H222.208V60.8916H226.078V57.8289Z" fill="white"/>
<path d="M233.228 35.3398H229.359V38.4026H233.228V35.3398Z" fill="white"/>
<path d="M233.228 39.834H229.359V42.8967H233.228V39.834Z" fill="white"/>
<path d="M233.228 44.3342H229.359V47.3969H233.228V44.3342Z" fill="white"/>
<path d="M233.228 48.8284H229.359V51.8911H233.228V48.8284Z" fill="white"/>
<path d="M233.228 53.3286H229.359V56.3913H233.228V53.3286Z" fill="white"/>
<path d="M233.228 57.8289H229.359V60.8916H233.228V57.8289Z" fill="white"/>
<path d="M220.302 62.2729H216.433V65.3357H220.302V62.2729Z" fill="white"/>
<path d="M226.078 62.2729H222.208V65.3357H226.078V62.2729Z" fill="white"/>
<path d="M233.228 62.2729H229.359V65.3357H233.228V62.2729Z" fill="white"/>
<path d="M220.302 66.717H216.433V69.7797H220.302V66.717Z" fill="white"/>
<path d="M226.078 66.717H222.208V69.7797H226.078V66.717Z" fill="white"/>
<path d="M233.228 66.717H229.359V69.7797H233.228V66.717Z" fill="white"/>
<path d="M220.302 71.1611H216.433V74.2238H220.302V71.1611Z" fill="white"/>
<path d="M226.078 71.1611H222.208V74.2238H226.078V71.1611Z" fill="white"/>
<path d="M233.228 71.1611H229.359V74.2238H233.228V71.1611Z" fill="white"/>
<path d="M220.302 75.6052H216.433V78.6679H220.302V75.6052Z" fill="white"/>
<path d="M226.078 75.6052H222.208V78.6679H226.078V75.6052Z" fill="white"/>
<path d="M233.228 75.6052H229.359V78.6679H233.228V75.6052Z" fill="white"/>
<path d="M220.302 80.0493H216.433V83.112H220.302V80.0493Z" fill="white"/>
<path d="M226.078 80.0493H222.208V83.112H226.078V80.0493Z" fill="white"/>
<path d="M233.228 80.0493H229.359V83.112H233.228V80.0493Z" fill="white"/>
<path d="M181.043 95.9502H77.9111V37.3087H90.262V54.1224H93.4434V44.6092H109.151V59.679H111.226V24.3079H124.883V34.0148H131.884V46.0968H134.002V38.4963H146.41V61.1666H150.041V42.7404H161.392V28.7394H169.111L178.037 28.7832V56.1288H181.043V95.9502Z" fill="#EBEBEB"/>
<path d="M81.5115 39.4214H79.4238V42.6341H81.5115V39.4214Z" fill="white"/>
<path d="M85.137 39.4214H83.0493V42.6341H85.137V39.4214Z" fill="white"/>
<path d="M88.7561 39.4214H86.6685V42.6341H88.7561V39.4214Z" fill="white"/>
<path d="M81.5115 44.2593H79.4238V47.472H81.5115V44.2593Z" fill="white"/>
<path d="M85.137 44.2593H83.0493V47.472H85.137V44.2593Z" fill="white"/>
<path d="M88.7561 44.2593H86.6685V47.472H88.7561V44.2593Z" fill="white"/>
<path d="M81.5115 49.0972H79.4238V52.3099H81.5115V49.0972Z" fill="white"/>
<path d="M85.137 49.0972H83.0493V52.3099H85.137V49.0972Z" fill="white"/>
<path d="M88.7561 49.0972H86.6685V52.3099H88.7561V49.0972Z" fill="white"/>
<path d="M81.5115 53.9348H79.4238V57.1475H81.5115V53.9348Z" fill="white"/>
<path d="M85.137 53.9348H83.0493V57.1475H85.137V53.9348Z" fill="white"/>
<path d="M88.7561 53.9348H86.6685V57.1475H88.7561V53.9348Z" fill="white"/>
<path d="M153.873 45.0344H151.785V47.7159H153.873V45.0344Z" fill="white"/>
<path d="M157.498 45.0344H155.41V47.7159H157.498V45.0344Z" fill="white"/>
<path d="M161.117 45.0344H159.029V47.7159H161.117V45.0344Z" fill="white"/>
<path d="M153.873 49.072H151.785V51.7535H153.873V49.072Z" fill="white"/>
<path d="M157.498 49.072H155.41V51.7535H157.498V49.072Z" fill="white"/>
<path d="M161.117 49.072H159.029V51.7535H161.117V49.072Z" fill="white"/>
<path d="M153.873 53.1035H151.785V55.7849H153.873V53.1035Z" fill="white"/>
<path d="M157.498 53.1035H155.41V55.7849H157.498V53.1035Z" fill="white"/>
<path d="M161.117 53.1035H159.029V55.7849H161.117V53.1035Z" fill="white"/>
<path d="M153.873 57.1414H151.785V59.8228H153.873V57.1414Z" fill="white"/>
<path d="M157.498 57.1414H155.41V59.8228H157.498V57.1414Z" fill="white"/>
<path d="M161.117 57.1414H159.029V59.8228H161.117V57.1414Z" fill="white"/>
<path d="M153.873 61.2791H151.785V63.9605H153.873V61.2791Z" fill="white"/>
<path d="M157.498 61.2791H155.41V63.9605H157.498V61.2791Z" fill="white"/>
<path d="M161.117 61.2791H159.029V63.9605H161.117V61.2791Z" fill="white"/>
<path d="M153.873 65.4106H151.785V68.0921H153.873V65.4106Z" fill="white"/>
<path d="M157.498 65.4106H155.41V68.0921H157.498V65.4106Z" fill="white"/>
<path d="M161.117 65.4106H159.029V68.0921H161.117V65.4106Z" fill="white"/>
<path d="M153.873 69.5486H151.785V72.23H153.873V69.5486Z" fill="white"/>
<path d="M157.498 69.5486H155.41V72.23H157.498V69.5486Z" fill="white"/>
<path d="M161.117 69.5486H159.029V72.23H161.117V69.5486Z" fill="white"/>
<path d="M153.873 73.6799H151.785V76.3614H153.873V73.6799Z" fill="white"/>
<path d="M157.498 73.6799H155.41V76.3614H157.498V73.6799Z" fill="white"/>
<path d="M161.117 73.6799H159.029V76.3614H161.117V73.6799Z" fill="white"/>
<path d="M107.257 46.6658H95.2251V48.6784H107.257V46.6658Z" fill="white"/>
<path d="M107.257 50.5659H95.2251V52.5786H107.257V50.5659Z" fill="white"/>
<path d="M107.257 54.4663H95.2251V56.4789H107.257V54.4663Z" fill="white"/>
<path d="M107.257 58.3728H95.2251V60.3854H107.257V58.3728Z" fill="white"/>
<path d="M107.257 62.2729H95.2251V64.2856H107.257V62.2729Z" fill="white"/>
<path d="M107.257 66.1733H95.2251V68.186H107.257V66.1733Z" fill="white"/>
<path d="M107.257 70.0735H95.2251V72.0861H107.257V70.0735Z" fill="white"/>
<path d="M107.257 73.9739H95.2251V75.9865H107.257V73.9739Z" fill="white"/>
<path d="M141.341 40.3152H137.628V42.2591H141.341V40.3152Z" fill="white"/>
<path d="M141.341 44.0842H137.628V46.0281H141.341V44.0842Z" fill="white"/>
<path d="M141.341 47.8533H137.628V49.7972H141.341V47.8533Z" fill="white"/>
<path d="M141.341 51.6223H137.628V53.5662H141.341V51.6223Z" fill="white"/>
<path d="M141.341 55.385H137.628V57.3289H141.341V55.385Z" fill="white"/>
<path d="M141.341 59.1541H137.628V61.0979H141.341V59.1541Z" fill="white"/>
<path d="M141.341 62.9231H137.628V64.867H141.341V62.9231Z" fill="white"/>
<path d="M141.341 66.6919H137.628V68.6358H141.341V66.6919Z" fill="white"/>
<path d="M146.397 40.3152H142.685V42.2591H146.397V40.3152Z" fill="white"/>
<path d="M146.397 44.0842H142.685V46.0281H146.397V44.0842Z" fill="white"/>
<path d="M146.397 47.8533H142.685V49.7972H146.397V47.8533Z" fill="white"/>
<path d="M146.397 51.6223H142.685V53.5662H146.397V51.6223Z" fill="white"/>
<path d="M146.397 55.385H142.685V57.3289H146.397V55.385Z" fill="white"/>
<path d="M146.397 59.1541H142.685V61.0979H146.397V59.1541Z" fill="white"/>
<path d="M146.397 62.9231H142.685V64.867H146.397V62.9231Z" fill="white"/>
<path d="M146.397 66.6919H142.685V68.6358H146.397V66.6919Z" fill="white"/>
<path d="M117.17 26.3394H113.301V29.4021H117.17V26.3394Z" fill="white"/>
<path d="M122.939 26.3394H119.07V29.4021H122.939V26.3394Z" fill="white"/>
<path d="M117.17 30.8396H113.301V33.9023H117.17V30.8396Z" fill="white"/>
<path d="M122.939 30.8396H119.07V33.9023H122.939V30.8396Z" fill="white"/>
<path d="M117.17 35.3398H113.301V38.4026H117.17V35.3398Z" fill="white"/>
<path d="M122.939 35.3398H119.07V38.4026H122.939V35.3398Z" fill="white"/>
<path d="M117.17 39.834H113.301V42.8967H117.17V39.834Z" fill="white"/>
<path d="M122.939 39.834H119.07V42.8967H122.939V39.834Z" fill="white"/>
<path d="M117.17 44.3342H113.301V47.3969H117.17V44.3342Z" fill="white"/>
<path d="M122.939 44.3342H119.07V47.3969H122.939V44.3342Z" fill="white"/>
<path d="M117.17 48.8284H113.301V51.8911H117.17V48.8284Z" fill="white"/>
<path d="M122.939 48.8284H119.07V51.8911H122.939V48.8284Z" fill="white"/>
<path d="M117.17 53.3286H113.301V56.3913H117.17V53.3286Z" fill="white"/>
<path d="M122.939 53.3286H119.07V56.3913H122.939V53.3286Z" fill="white"/>
<path d="M117.17 57.8289H113.301V60.8916H117.17V57.8289Z" fill="white"/>
<path d="M122.939 57.8289H119.07V60.8916H122.939V57.8289Z" fill="white"/>
<path d="M130.09 35.3398H126.221V38.4026H130.09V35.3398Z" fill="white"/>
<path d="M130.09 39.834H126.221V42.8967H130.09V39.834Z" fill="white"/>
<path d="M130.09 44.3342H126.221V47.3969H130.09V44.3342Z" fill="white"/>
<path d="M130.09 48.8284H126.221V51.8911H130.09V48.8284Z" fill="white"/>
<path d="M130.09 53.3286H126.221V56.3913H130.09V53.3286Z" fill="white"/>
<path d="M130.09 57.8289H126.221V60.8916H130.09V57.8289Z" fill="white"/>
<path d="M117.17 62.2729H113.301V65.3357H117.17V62.2729Z" fill="white"/>
<path d="M122.939 62.2729H119.07V65.3357H122.939V62.2729Z" fill="white"/>
<path d="M130.09 62.2729H126.221V65.3357H130.09V62.2729Z" fill="white"/>
<path d="M117.17 66.717H113.301V69.7797H117.17V66.717Z" fill="white"/>
<path d="M122.939 66.717H119.07V69.7797H122.939V66.717Z" fill="white"/>
<path d="M130.09 66.717H126.221V69.7797H130.09V66.717Z" fill="white"/>
<path d="M117.17 71.1611H113.301V74.2238H117.17V71.1611Z" fill="white"/>
<path d="M122.939 71.1611H119.07V74.2238H122.939V71.1611Z" fill="white"/>
<path d="M130.09 71.1611H126.221V74.2238H130.09V71.1611Z" fill="white"/>
<path d="M117.17 75.6052H113.301V78.6679H117.17V75.6052Z" fill="white"/>
<path d="M122.939 75.6052H119.07V78.6679H122.939V75.6052Z" fill="white"/>
<path d="M130.09 75.6052H126.221V78.6679H130.09V75.6052Z" fill="white"/>
<path d="M117.17 80.0493H113.301V83.112H117.17V80.0493Z" fill="white"/>
<path d="M122.939 80.0493H119.07V83.112H122.939V80.0493Z" fill="white"/>
<path d="M130.09 80.0493H126.221V83.112H130.09V80.0493Z" fill="white"/>
<path d="M165.055 30.7083H162.967V33.3897H165.055V30.7083Z" fill="white"/>
<path d="M168.68 30.7083H166.592V33.3897H168.68V30.7083Z" fill="white"/>
<path d="M165.055 34.7461H162.967V37.4275H165.055V34.7461Z" fill="white"/>
<path d="M168.68 34.7461H166.592V37.4275H168.68V34.7461Z" fill="white"/>
<path d="M165.055 38.7839H162.967V41.4654H165.055V38.7839Z" fill="white"/>
<path d="M168.68 38.7839H166.592V41.4654H168.68V38.7839Z" fill="white"/>
<path d="M165.055 42.8154H162.967V45.4969H165.055V42.8154Z" fill="white"/>
<path d="M168.68 42.8154H166.592V45.4969H168.68V42.8154Z" fill="white"/>
<path d="M165.055 46.9531H162.967V49.6346H165.055V46.9531Z" fill="white"/>
<path d="M168.68 46.9531H166.592V49.6346H168.68V46.9531Z" fill="white"/>
<path d="M165.055 51.0911H162.967V53.7725H165.055V51.0911Z" fill="white"/>
<path d="M168.68 51.0911H166.592V53.7725H168.68V51.0911Z" fill="white"/>
<path d="M165.055 55.2224H162.967V57.9038H165.055V55.2224Z" fill="white"/>
<path d="M168.68 55.2224H166.592V57.9038H168.68V55.2224Z" fill="white"/>
<path d="M165.055 59.3604H162.967V62.0418H165.055V59.3604Z" fill="white"/>
<path d="M168.68 59.3604H166.592V62.0418H168.68V59.3604Z" fill="white"/>
<path d="M165.055 63.5356H162.967V66.2171H165.055V63.5356Z" fill="white"/>
<path d="M168.68 63.5356H166.592V66.2171H168.68V63.5356Z" fill="white"/>
<path d="M165.055 67.717H162.967V70.3985H165.055V67.717Z" fill="white"/>
<path d="M168.68 67.717H166.592V70.3985H168.68V67.717Z" fill="white"/>
<path d="M165.055 71.8987H162.967V74.5801H165.055V71.8987Z" fill="white"/>
<path d="M168.68 71.8987H166.592V74.5801H168.68V71.8987Z" fill="white"/>
<path d="M165.055 76.074H162.967V78.7554H165.055V76.074Z" fill="white"/>
<path d="M168.68 76.074H166.592V78.7554H168.68V76.074Z" fill="white"/>
<path d="M172.805 30.7083H170.718V33.3897H172.805V30.7083Z" fill="white"/>
<path d="M176.425 30.7083H174.337V33.3897H176.425V30.7083Z" fill="white"/>
<path d="M172.805 34.7461H170.718V37.4275H172.805V34.7461Z" fill="white"/>
<path d="M176.425 34.7461H174.337V37.4275H176.425V34.7461Z" fill="white"/>
<path d="M172.805 38.7839H170.718V41.4654H172.805V38.7839Z" fill="white"/>
<path d="M176.425 38.7839H174.337V41.4654H176.425V38.7839Z" fill="white"/>
<path d="M172.805 42.8154H170.718V45.4969H172.805V42.8154Z" fill="white"/>
<path d="M176.425 42.8154H174.337V45.4969H176.425V42.8154Z" fill="white"/>
<path d="M172.805 46.9531H170.718V49.6346H172.805V46.9531Z" fill="white"/>
<path d="M176.425 46.9531H174.337V49.6346H176.425V46.9531Z" fill="white"/>
<path d="M172.805 51.0911H170.718V53.7725H172.805V51.0911Z" fill="white"/>
<path d="M176.425 51.0911H174.337V53.7725H176.425V51.0911Z" fill="white"/>
<path d="M172.805 55.2224H170.718V57.9038H172.805V55.2224Z" fill="white"/>
<path d="M176.425 55.2224H174.337V57.9038H176.425V55.2224Z" fill="white"/>
<path d="M172.805 59.3604H170.718V62.0418H172.805V59.3604Z" fill="white"/>
<path d="M176.425 59.3604H174.337V62.0418H176.425V59.3604Z" fill="white"/>
<path d="M172.805 63.5356H170.718V66.2171H172.805V63.5356Z" fill="white"/>
<path d="M176.425 63.5356H174.337V66.2171H176.425V63.5356Z" fill="white"/>
<path d="M172.805 67.717H170.718V70.3985H172.805V67.717Z" fill="white"/>
<path d="M176.425 67.717H174.337V70.3985H176.425V67.717Z" fill="white"/>
<path d="M172.805 71.8987H170.718V74.5801H172.805V71.8987Z" fill="white"/>
<path d="M176.425 71.8987H174.337V74.5801H176.425V71.8987Z" fill="white"/>
<path d="M172.805 76.074H170.718V78.7554H172.805V76.074Z" fill="white"/>
<path d="M176.425 76.074H174.337V78.7554H176.425V76.074Z" fill="white"/>
<path d="M76.2051 6.33789V97.3691H255.705V6.33789H76.2051ZM253.18 94.5314H78.7302V9.18184H253.18V94.5314Z" fill="#DBDBDB"/>
<path d="M167.224 9.18188H164.692V94.5314H167.224V9.18188Z" fill="#DBDBDB"/>
<path d="M189.131 141.178C189.131 141.178 173.593 139.003 177.224 120.24C177.224 120.24 194.588 124.14 189.131 141.178Z" fill="#D82E1D"/>
<path opacity="0.1" d="M189.131 141.178C189.131 141.178 173.593 139.003 177.224 120.24C177.224 120.24 194.588 124.14 189.131 141.178Z" fill="black"/>
<path d="M188.35 137.259C188.044 136.311 187.689 135.378 187.288 134.465L187.25 134.109C187.25 133.853 187.207 133.59 187.188 133.334C187.144 132.772 187.107 132.215 187.075 131.653C187.007 130.534 186.938 129.409 186.919 128.29C186.919 128.278 186.914 128.266 186.905 128.257C186.896 128.248 186.885 128.243 186.872 128.243C186.86 128.243 186.848 128.248 186.839 128.257C186.83 128.266 186.825 128.278 186.825 128.29C186.825 129.415 186.794 130.534 186.825 131.659C186.825 132.222 186.882 132.778 186.919 133.34C186.919 133.465 186.919 133.59 186.919 133.715C186.043 131.846 184.997 130.061 183.794 128.384C183.256 127.64 182.694 126.921 182.094 126.227C181.494 125.534 180.844 124.846 180.219 124.146C180.175 124.102 180.112 124.146 180.15 124.215C181.267 125.45 182.271 126.782 183.15 128.196C183.619 128.909 184.063 129.646 184.488 130.39L184.344 130.334L183.794 130.109L182.544 129.628C181.706 129.321 180.875 129.003 180.044 128.696C179.994 128.696 179.956 128.765 180.006 128.784C180.831 129.115 181.65 129.465 182.469 129.815L183.669 130.334L184.294 130.584C184.425 130.648 184.564 130.697 184.706 130.728C185.025 131.29 185.331 131.859 185.619 132.434C186.331 133.888 186.957 135.382 187.494 136.909L187.607 137.234C187.206 136.995 186.788 136.786 186.356 136.609C185.819 136.366 185.281 136.128 184.75 135.878C183.656 135.378 182.575 134.872 181.531 134.278C181.52 134.275 181.508 134.276 181.498 134.281C181.487 134.286 181.479 134.294 181.474 134.304C181.469 134.314 181.467 134.326 181.47 134.337C181.472 134.348 181.478 134.358 181.487 134.365C182.55 134.947 183.6 135.565 184.669 136.147C185.2 136.441 185.738 136.722 186.288 136.984C186.741 137.256 187.235 137.455 187.75 137.572C188.265 138.984 188.607 140.453 188.769 141.947C188.938 144.066 188.919 146.21 188.969 148.335C188.969 148.373 189.025 148.366 189.025 148.335C189.182 146.404 189.269 144.454 189.275 142.522C189.25 140.73 188.937 138.953 188.35 137.259Z" fill="#263238"/>
<path d="M185.956 126.227C185.804 127.323 185.752 128.429 185.8 129.534C185.8 129.534 185.844 129.534 185.85 129.534C185.912 128.44 185.919 127.346 186.05 126.252C186.056 126.19 185.962 126.165 185.956 126.227Z" fill="#263238"/>
<path d="M181.512 127.165C180.816 126.901 180.147 126.573 179.512 126.183C179.507 126.181 179.501 126.179 179.495 126.178C179.489 126.178 179.483 126.178 179.477 126.18C179.471 126.182 179.466 126.185 179.461 126.188C179.457 126.192 179.453 126.197 179.45 126.202C179.447 126.208 179.445 126.213 179.445 126.219C179.444 126.225 179.445 126.232 179.446 126.237C179.448 126.243 179.451 126.249 179.455 126.253C179.459 126.258 179.463 126.262 179.469 126.265C180.09 126.686 180.77 127.012 181.487 127.234C181.525 127.24 181.55 127.184 181.512 127.165Z" fill="#263238"/>
<path d="M189.632 170.962C189.632 169.243 189.582 167.524 189.563 165.811C189.532 160.105 189.488 154.404 189.382 148.698C189.298 144.172 189.194 139.639 189.069 135.097C189.067 135.085 189.061 135.073 189.054 135.064C189.046 135.054 189.037 135.046 189.025 135.04V131.334C189.025 131.303 188.988 131.284 188.95 131.284C188.913 131.284 188.875 131.284 188.875 131.334V135.053C188.875 135.053 188.838 135.053 188.838 135.103C188.607 143.16 188.407 151.223 188.357 159.28C188.357 160.917 188.357 162.555 188.357 164.199C188.298 169.449 188.277 174.704 188.294 179.962V182.462C188.294 187.269 188.344 192.076 188.344 196.888C188.344 197.145 188.632 197.276 188.938 197.288C189.244 197.301 189.657 197.163 189.657 196.863C189.657 191.563 189.694 186.238 189.694 180.962C189.644 177.643 189.657 174.299 189.632 170.962Z" fill="#263238"/>
<path d="M183.137 165.724C183.137 165.724 175.637 160.186 168.568 163.93C161.498 167.674 160.361 182.094 160.361 182.094C160.361 182.094 170.78 183.588 177.343 177.343C183.662 171.349 183.137 165.724 183.137 165.724Z" fill="#D82E1D"/>
<path d="M185.175 166.086C183.803 165.542 182.316 165.346 180.85 165.517C180.546 165.47 180.239 165.44 179.931 165.43L178.875 165.349L176.7 165.199C175.224 165.086 173.743 164.999 172.274 164.849C172.218 164.849 172.212 164.936 172.274 164.942C173.731 165.13 175.181 165.336 176.649 165.48C177.4 165.561 178.15 165.636 178.906 165.692L179.45 165.742L178.787 165.905C177.615 166.251 176.48 166.714 175.399 167.286C174.812 167.393 174.224 167.555 173.649 167.693C172.724 167.911 171.805 168.149 170.887 168.386C169.068 168.861 167.274 169.399 165.474 169.924C165.468 169.924 165.462 169.925 165.457 169.927C165.452 169.93 165.447 169.933 165.443 169.937C165.439 169.941 165.436 169.946 165.433 169.951C165.431 169.956 165.43 169.962 165.43 169.968C165.43 169.973 165.431 169.979 165.433 169.984C165.436 169.99 165.439 169.995 165.443 169.999C165.447 170.003 165.452 170.006 165.457 170.008C165.462 170.01 165.468 170.011 165.474 170.011C167.274 169.574 169.08 169.168 170.887 168.761L173.518 168.136L174.199 167.974C172.192 169.218 170.398 170.778 168.886 172.593C167.428 174.38 166.19 176.336 165.199 178.418C165.199 178.468 165.249 178.525 165.274 178.468C166.502 176.328 168.005 174.357 169.743 172.605L169.649 172.905C169.505 173.343 169.368 173.78 169.23 174.224C168.955 175.106 168.674 175.981 168.411 176.868C168.411 176.924 168.486 176.943 168.505 176.868C168.818 176.012 169.13 175.156 169.418 174.293C169.568 173.874 169.718 173.455 169.862 173.043C169.943 172.83 170.012 172.612 170.087 172.387L170.162 172.187C170.993 171.376 171.879 170.622 172.812 169.93C174.043 169.023 175.375 168.259 176.781 167.655C176.75 167.786 176.731 167.911 176.706 168.036L176.481 169.061C176.337 169.768 176.199 170.48 176.062 171.187C175.781 172.63 175.606 174.099 175.337 175.562C175.337 175.624 175.412 175.649 175.424 175.562C175.762 174.106 176.193 172.674 176.518 171.187C176.681 170.455 176.843 169.73 176.993 168.999C177.068 168.655 177.137 168.311 177.206 167.974C177.243 167.78 177.287 167.593 177.306 167.399C177.443 167.343 177.575 167.28 177.712 167.23C179.675 166.505 181.844 165.98 183.931 166.38C184.921 166.563 185.849 166.989 186.634 167.618C187.42 168.247 188.037 169.061 188.432 169.986C188.5 170.149 188.757 170.043 188.719 169.88C188.466 169.015 188.013 168.221 187.398 167.562C186.783 166.903 186.021 166.398 185.175 166.086Z" fill="#263238"/>
<path d="M173.731 172.243C173.524 173.193 173.312 174.118 173.106 175.087C172.869 175.995 172.693 176.918 172.581 177.85C172.581 177.887 172.631 177.887 172.643 177.85C172.914 176.938 173.123 176.008 173.268 175.068C173.456 174.131 173.637 173.193 173.818 172.262C173.816 172.253 173.811 172.244 173.804 172.238C173.798 172.232 173.789 172.227 173.78 172.225C173.771 172.223 173.762 172.224 173.753 172.227C173.744 172.23 173.736 172.236 173.731 172.243Z" fill="#263238"/>
<path d="M166.505 174.649C165.555 175.137 164.63 175.687 163.636 176.081C163.631 176.083 163.626 176.087 163.622 176.091C163.618 176.095 163.615 176.1 163.613 176.106C163.611 176.111 163.61 176.117 163.61 176.123C163.61 176.129 163.612 176.135 163.614 176.14C163.616 176.145 163.62 176.15 163.624 176.154C163.629 176.158 163.634 176.161 163.639 176.163C163.645 176.165 163.651 176.166 163.656 176.166C163.662 176.166 163.668 176.164 163.673 176.162C164.65 175.724 165.602 175.231 166.524 174.687C166.524 174.687 166.53 174.643 166.505 174.649Z" fill="#263238"/>
<path d="M184.819 155.573C184.819 155.573 175.687 156.154 171.437 150.129C167.187 144.104 168.137 135.503 168.137 135.503C168.137 135.503 177.737 136.672 181.544 140.997C185.35 145.322 184.819 155.573 184.819 155.573Z" fill="#D82E1D"/>
<path d="M189.106 164.586C188.794 163.605 188.4 162.642 188.031 161.686C187.663 160.73 187.294 159.848 186.894 158.948C186.08 157.106 185.166 155.309 184.156 153.567C183.531 152.454 182.818 151.379 182.106 150.317C182.106 150.154 182.062 149.992 182.037 149.829C181.993 149.542 181.956 149.26 181.912 148.979C181.818 148.398 181.718 147.823 181.618 147.248C181.412 145.998 181.15 144.747 180.95 143.466C180.95 143.41 180.843 143.41 180.856 143.466C181.037 144.716 181.162 145.966 181.337 147.216C181.425 147.841 181.506 148.466 181.6 149.054C181.631 149.273 181.668 149.492 181.7 149.717C180.308 147.677 178.799 145.719 177.181 143.854C176.962 143.597 176.737 143.354 176.518 143.104C176.518 143.035 176.462 142.966 176.431 142.897L176.23 142.372L175.837 141.285C175.58 140.572 175.349 139.847 175.155 139.11C175.155 139.053 175.049 139.078 175.068 139.141C175.249 139.891 175.443 140.641 175.662 141.378C175.768 141.735 175.887 142.091 176.012 142.441C176.012 142.497 176.055 142.56 176.08 142.616C174.912 141.366 173.693 140.116 172.461 138.903C172.418 138.86 172.355 138.903 172.399 138.972C174.76 141.442 176.923 144.094 178.868 146.904C178.647 146.83 178.422 146.772 178.193 146.729C177.493 146.598 176.781 146.498 176.068 146.404C174.58 146.216 173.099 146.029 171.618 145.779C171.555 145.779 171.53 145.86 171.618 145.873C173.037 146.154 174.437 146.498 175.843 146.791C176.506 146.948 177.174 147.079 177.837 147.21C178.382 147.324 178.919 147.476 179.443 147.666C179.593 147.879 179.743 148.085 179.887 148.291C180.562 149.266 181.206 150.26 181.831 151.267L180.9 151.085C180.193 150.948 179.487 150.817 178.781 150.704C177.387 150.473 175.993 150.229 174.612 149.917C174.602 149.92 174.594 149.926 174.588 149.935C174.582 149.943 174.579 149.953 174.579 149.963C174.579 149.974 174.582 149.984 174.588 149.992C174.594 150 174.602 150.007 174.612 150.01C176.005 150.335 177.393 150.723 178.774 151.092C179.443 151.267 180.118 151.429 180.793 151.579L181.812 151.798C181.947 151.834 182.085 151.859 182.225 151.873C183.556 154.036 184.812 156.248 185.975 158.511C186.487 159.505 186.975 160.505 187.45 161.517C187.925 162.53 188.356 163.617 188.806 164.643C188.85 164.905 189.181 164.818 189.106 164.586Z" fill="#263238"/>
<path d="M179.756 143.591C179.581 142.716 179.4 141.847 179.206 140.985C179.206 140.922 179.106 140.947 179.112 140.985C179.287 141.841 179.456 142.697 179.606 143.56C179.756 144.422 179.887 145.285 180.125 146.116H180.156C180.081 145.266 179.947 144.423 179.756 143.591Z" fill="#263238"/>
<path d="M174.431 143.335C174.006 143.122 173.556 142.954 173.112 142.785L172.424 142.51L172.068 142.372C171.932 142.332 171.802 142.275 171.68 142.203C171.612 142.147 171.568 142.272 171.637 142.278C171.774 142.317 171.906 142.371 172.03 142.441L172.374 142.597L173.043 142.891C173.481 143.099 173.932 143.278 174.393 143.429C174.443 143.447 174.481 143.36 174.431 143.335Z" fill="#263238"/>
<path d="M194.169 148.391C194.169 148.391 199.701 138.059 208.114 136.459C216.527 134.859 221.671 143.516 221.671 143.516C221.671 143.516 215.54 151.348 207.82 152.717C200.101 154.085 194.169 148.391 194.169 148.391Z" fill="#D82E1D"/>
<path d="M213.752 141.091C211.56 140.797 209.336 140.822 207.151 141.166L207.527 140.966C208.152 140.653 208.777 140.341 209.402 140.003C210.685 139.295 212.004 138.653 213.352 138.078C213.359 138.076 213.366 138.073 213.371 138.068C213.377 138.063 213.382 138.057 213.385 138.05C213.388 138.044 213.389 138.036 213.389 138.029C213.389 138.021 213.387 138.014 213.384 138.007C213.381 138.001 213.376 137.995 213.37 137.99C213.364 137.986 213.357 137.983 213.35 137.981C213.343 137.979 213.335 137.979 213.328 137.981C213.321 137.983 213.314 137.986 213.308 137.991C211.996 138.616 210.633 139.116 209.314 139.722C208.652 140.028 208.002 140.347 207.358 140.685C206.945 140.903 206.483 141.116 206.076 141.378C204.229 141.748 202.434 142.345 200.732 143.153L201.782 142.01C202.564 141.147 203.339 140.247 204.201 139.466C204.245 139.422 204.201 139.359 204.133 139.397C203.251 140.197 202.32 140.941 201.47 141.772C201.051 142.172 200.657 142.591 200.27 143.022C200.076 143.235 199.882 143.46 199.701 143.685C196.818 145.236 194.314 147.407 192.369 150.04C190.424 152.674 189.086 155.705 188.45 158.917C188.45 158.973 188.519 159.005 188.538 158.948C189.725 155.01 191.848 151.418 194.726 148.479C197.814 145.325 201.704 143.071 205.976 141.96C208.515 141.316 211.139 141.078 213.752 141.253C213.763 141.253 213.773 141.251 213.783 141.247C213.793 141.243 213.802 141.237 213.809 141.23C213.817 141.222 213.823 141.213 213.827 141.203C213.831 141.193 213.833 141.183 213.833 141.172C213.833 141.161 213.831 141.151 213.827 141.141C213.823 141.131 213.817 141.122 213.809 141.115C213.802 141.107 213.793 141.101 213.783 141.097C213.773 141.093 213.763 141.091 213.752 141.091Z" fill="#263238"/>
<path opacity="0.1" d="M221.671 143.516C221.671 143.516 215.539 151.354 207.814 152.717C201.926 153.767 197.082 150.692 195.119 149.179L194.694 148.485C194.694 148.485 198.676 145.129 206.208 143.191C213.739 141.253 221.671 143.516 221.671 143.516Z" fill="black"/>
<path d="M208.864 137.409C208.217 137.791 207.591 138.209 206.989 138.66C206.406 139.103 205.864 139.599 205.37 140.141C205.364 140.145 205.358 140.15 205.354 140.157C205.35 140.163 205.347 140.17 205.347 140.178C205.346 140.185 205.346 140.193 205.349 140.2C205.351 140.207 205.355 140.214 205.361 140.219C205.366 140.224 205.373 140.228 205.38 140.231C205.387 140.233 205.395 140.234 205.402 140.233C205.41 140.232 205.417 140.23 205.423 140.226C205.43 140.222 205.435 140.216 205.439 140.21C205.995 139.728 206.558 139.241 207.139 138.785C207.702 138.332 208.293 137.914 208.908 137.534C208.964 137.459 208.914 137.378 208.864 137.409Z" fill="#263238"/>
<path d="M213.483 139.153C213.171 139.285 212.858 139.397 212.54 139.528L211.602 139.916C211.533 139.916 211.564 140.053 211.633 140.022L212.577 139.647C212.89 139.516 213.202 139.372 213.508 139.247C213.565 139.222 213.54 139.134 213.483 139.153Z" fill="#263238"/>
<path d="M193.069 161.386C193.069 161.386 194.544 171.63 202.251 175.212C209.958 178.793 219.346 175.212 219.346 175.212C219.346 175.212 215.652 153.048 193.069 161.386Z" fill="#D82E1D"/>
<path d="M214.039 168.549C213.327 168.468 212.62 168.349 211.914 168.218L210.883 168.024L210.339 167.918C210.133 167.724 209.927 167.524 209.714 167.336C208.255 166.055 206.679 164.912 205.007 163.924C204.095 163.385 203.152 162.901 202.182 162.474H202.326L204.882 162.599C206.57 162.68 208.264 162.717 209.952 162.824C210.014 162.824 210.008 162.736 209.952 162.73C208.251 162.617 206.564 162.43 204.87 162.286L202.407 162.067L201.157 161.955L200.832 161.917C200.395 161.755 199.951 161.599 199.501 161.461C197.4 160.742 195.142 160.618 192.975 161.105C191.038 161.599 189.106 162.867 188.6 164.911C188.6 164.98 188.688 165.03 188.719 164.961C189.444 163.255 191.338 162.392 193.05 162.036C194.201 161.816 195.38 161.793 196.538 161.967C196.618 162.495 196.747 163.014 196.926 163.517C197.138 164.242 197.351 164.961 197.551 165.68C197.988 167.118 198.47 168.543 198.895 169.987C198.895 170.043 199.001 170.018 198.982 169.987C198.626 168.549 198.326 167.093 197.976 165.655C197.807 164.949 197.632 164.242 197.457 163.536C197.358 163.043 197.229 162.557 197.069 162.08C197.742 162.201 198.407 162.357 199.063 162.549C200.254 162.902 201.421 163.33 202.557 163.83C202.67 164.561 202.832 165.286 203.001 166.005C203.214 166.911 203.445 167.805 203.732 168.686C203.732 168.698 203.737 168.709 203.745 168.717C203.753 168.726 203.765 168.73 203.776 168.73C203.788 168.73 203.799 168.726 203.807 168.717C203.815 168.709 203.82 168.698 203.82 168.686L203.782 168.518C203.607 167.68 203.426 166.843 203.251 166.018C203.107 165.343 202.976 164.667 202.826 163.992C203.787 164.42 204.726 164.895 205.639 165.418C205.639 165.624 205.707 165.836 205.739 166.043C205.795 166.393 205.858 166.743 205.92 167.093C206.064 167.88 206.22 168.668 206.414 169.449C206.76 170.961 207.203 172.45 207.739 173.906C207.732 173.914 207.728 173.925 207.728 173.937C207.728 173.948 207.732 173.959 207.739 173.968L207.783 174.018C207.814 174.056 207.87 174.018 207.858 173.968C207.501 172.449 207.095 170.949 206.764 169.424C206.595 168.662 206.426 167.899 206.276 167.136C206.201 166.755 206.126 166.374 206.058 165.993L206.001 165.649C207.039 166.257 208.041 166.924 209.001 167.649C210.665 168.895 212.204 170.3 213.596 171.843C213.652 171.899 213.758 171.843 213.708 171.749C213.136 170.969 212.522 170.22 211.87 169.505C211.483 169.093 211.083 168.693 210.67 168.299H210.802L211.883 168.461C212.595 168.555 213.314 168.624 214.027 168.705C214.077 168.649 214.096 168.555 214.039 168.549Z" fill="#263238"/>
<path d="M208.633 172.024C208.624 171.936 208.61 171.848 208.589 171.762C208.589 171.643 208.514 171.537 208.502 171.424C208.347 170.741 208.21 170.053 208.089 169.362C208.089 169.35 208.084 169.339 208.076 169.331C208.068 169.322 208.057 169.318 208.045 169.318C208.034 169.318 208.022 169.322 208.014 169.331C208.006 169.339 208.001 169.35 208.001 169.362C208.05 170.279 208.248 171.183 208.589 172.037H208.645L208.633 172.024Z" fill="#263238"/>
<path d="M202.176 171.862C202.176 171.85 202.172 171.839 202.163 171.831C202.155 171.822 202.144 171.818 202.132 171.818C201.914 170.912 201.707 169.999 201.507 169.086C201.407 168.605 201.307 168.13 201.214 167.649C201.164 167.386 201.12 167.13 201.07 166.868C201.051 166.639 200.997 166.416 200.907 166.205C200.903 166.197 200.897 166.191 200.889 166.186C200.881 166.182 200.872 166.179 200.864 166.179C200.855 166.179 200.846 166.182 200.838 166.186C200.83 166.191 200.824 166.197 200.82 166.205C200.813 166.671 200.878 167.134 201.014 167.58C201.107 168.08 201.201 168.58 201.314 169.074C201.539 170.086 201.789 171.093 202.076 172.087C202.076 172.1 202.081 172.113 202.091 172.122C202.1 172.131 202.113 172.137 202.126 172.137C202.139 172.137 202.152 172.131 202.162 172.122C202.171 172.113 202.176 172.1 202.176 172.087C202.189 172.012 202.182 171.937 202.176 171.862Z" fill="#263238"/>
<path d="M213.333 165.599C211.927 165.405 210.521 165.205 209.114 165.03C209.052 165.03 209.027 165.118 209.114 165.124C210.521 165.33 211.927 165.505 213.34 165.693C213.371 165.724 213.396 165.611 213.333 165.599Z" fill="#263238"/>
<path d="M189.119 137.359C189.119 137.359 184.406 116.677 206.62 108.307C206.626 108.307 212.783 135.528 189.119 137.359Z" fill="#D82E1D"/>
<path d="M193.919 125.627L194.157 125.484L195.407 124.784L197.982 123.34C199.682 122.39 201.351 121.402 203.064 120.477C203.114 120.446 203.064 120.364 203.014 120.396C201.301 121.327 199.564 122.196 197.839 123.108L195.301 124.471L194.257 125.021C195.001 123.615 195.788 122.24 196.663 120.908C197.82 119.139 199.095 117.452 200.414 115.802C200.428 115.787 200.435 115.767 200.435 115.746C200.434 115.726 200.425 115.706 200.411 115.692C200.396 115.678 200.376 115.671 200.355 115.671C200.335 115.672 200.315 115.68 200.301 115.695C198.356 117.584 196.634 119.689 195.17 121.971C195.17 121.896 195.17 121.821 195.17 121.752C195.17 121.24 195.207 120.727 195.213 120.208C195.213 119.202 195.176 118.189 195.213 117.183C195.213 117.12 195.126 117.12 195.12 117.183C195.082 118.177 194.957 119.164 194.901 120.158C194.901 120.658 194.851 121.152 194.838 121.646C194.838 121.915 194.807 122.221 194.838 122.515C194.382 123.246 193.944 123.983 193.526 124.734C192.783 126.08 192.121 127.47 191.544 128.896C191.544 128.384 191.488 127.865 191.457 127.352C191.394 126.221 191.251 125.09 191.207 123.958C191.207 123.896 191.107 123.902 191.113 123.958C191.113 125.096 191.082 126.227 191.113 127.359C191.113 127.927 191.144 128.49 191.182 129.059L191.219 129.684C190.512 131.531 189.952 133.431 189.544 135.365C189.161 137.433 188.883 139.52 188.713 141.616C188.947 139.729 189.342 137.866 189.894 136.047C190.169 135.072 190.457 134.103 190.769 133.14C191.694 132.703 192.582 132.159 193.476 131.665C194.37 131.171 195.351 130.646 196.263 130.14C198.139 129.121 199.97 128.084 201.889 127.19C201.945 127.19 201.889 127.084 201.839 127.109C199.901 127.984 197.945 128.821 196.045 129.778C195.095 130.253 194.17 130.759 193.244 131.278C192.469 131.715 191.676 132.147 190.938 132.647C191.157 132.021 191.382 131.396 191.626 130.728C192.304 128.99 193.07 127.288 193.919 125.627Z" fill="#263238"/>
<path d="M192.044 120.902C192.044 120.84 191.944 120.84 191.95 120.902C192.032 122.083 192.069 123.265 192.194 124.44C192.198 124.451 192.205 124.46 192.215 124.467C192.224 124.474 192.236 124.478 192.247 124.478C192.259 124.478 192.27 124.474 192.28 124.467C192.289 124.46 192.297 124.451 192.3 124.44C192.257 123.252 192.132 122.077 192.044 120.902Z" fill="#263238"/>
<path d="M202.701 124.852C201.307 125.409 199.907 125.94 198.52 126.521C198.482 126.521 198.52 126.602 198.52 126.584C199.926 126.059 201.314 125.484 202.707 124.94C202.782 124.921 202.757 124.827 202.701 124.852Z" fill="#263238"/>
<path d="M204.808 115.314C203.448 115.937 202.129 116.645 200.857 117.433C200.795 117.471 200.857 117.571 200.92 117.533C202.208 116.777 203.52 116.058 204.858 115.389C204.914 115.364 204.883 115.289 204.808 115.314Z" fill="#263238"/>
<path d="M204.476 182.081H172.43V215.858H204.476V182.081Z" fill="#455A64"/>
<path d="M171.862 194.032H170.224V251.892H171.862V194.032Z" fill="#263238"/>
<path d="M206.508 194.032H204.87V251.892H206.508V194.032Z" fill="#263238"/>
<path d="M190.057 194.032H188.419V251.892H190.057V194.032Z" fill="#263238"/>
<path d="M205.689 213.696H171.043V218.371H205.689V213.696Z" fill="#263238"/>
<path d="M5.96289 251.892L56.4726 251.742L106.982 251.686L208.008 251.58L309.033 251.686L359.543 251.742L410.053 251.892L359.543 252.048L309.033 252.098L208.008 252.205L106.982 252.098L56.4726 252.042L5.96289 251.892Z" fill="#263238"/>
<path d="M400.096 12.9636H305.071V251.742H400.096V12.9636Z" fill="white"/>
<path d="M409.146 3.13159V251.742H400.096V12.7822H305.071V251.742H296.02V3.13159H409.146Z" fill="#37474F"/>
<path d="M325.559 259.936L400.883 251.742V12.7822L325.266 2.10645L325.559 259.936Z" fill="#455A64"/>
<path d="M321.259 1.75024L325.56 2.35654V259.937L321.259 259.111V1.75024Z" fill="#37474F"/>
<path d="M360.743 224.44L337.854 226.128V18.5576L360.743 21.289V224.44Z" fill="#DBDBDB"/>
<path d="M391.464 221.947L368.569 223.897V22.2205L391.464 24.9456V221.947Z" fill="#DBDBDB"/>
<path d="M360.743 21.2892V24.6269L337.848 42.1156V31.1899L352.236 20.2766L360.743 21.2892Z" fill="#EBEBEB"/>
<path d="M337.848 162.174L360.743 140.547V151.092L337.848 173.093V162.174Z" fill="#EBEBEB"/>
<path d="M391.464 113.708V123.752L368.575 143.885V133.472L391.464 113.708Z" fill="#EBEBEB"/>
<path d="M391.464 199.614V209.658L378.113 223.109L368.575 223.89V222.597L391.464 199.614Z" fill="#EBEBEB"/>
<path d="M337.848 70.6988L360.743 52.2288V57.5041L337.848 76.1679V70.6988Z" fill="#EBEBEB"/>
<path d="M391.464 29.6208V34.6462L368.575 51.4411V46.2282L391.464 29.6208Z" fill="#EBEBEB"/>
<path d="M337.848 221.103L360.743 197.445V202.72L338.285 226.091L337.848 226.122V221.103Z" fill="#EBEBEB"/>
<path d="M391.464 167.886V172.906L368.575 194.882V189.675L391.464 167.886Z" fill="#EBEBEB"/>
<path d="M337.848 62.3543L360.743 44.1655V45.8094L337.848 64.0481V62.3543Z" fill="#EBEBEB"/>
<path d="M389.676 24.733L368.575 39.884V38.2651L387.745 24.5017L389.676 24.733Z" fill="#EBEBEB"/>
<path d="M345.611 225.578L360.743 209.802V211.446L347.311 225.453L345.611 225.578Z" fill="#EBEBEB"/>
<path d="M391.464 179.65V181.219L368.575 203.502V201.883L391.464 179.65Z" fill="#EBEBEB"/>
<path d="M337.848 100.557L360.743 81.0557V82.7058L337.848 102.263V100.557Z" fill="#EBEBEB"/>
<path d="M391.464 57.0664V58.6415L368.575 76.3302V74.7051L391.464 57.0664Z" fill="#EBEBEB"/>
<path d="M337.848 148.517L360.743 127.359V129.003L337.848 150.217V148.517Z" fill="#EBEBEB"/>
<path d="M391.464 101.157V102.72L368.575 122.071V120.446L391.464 101.157Z" fill="#EBEBEB"/>
<path d="M337.054 162.755L330.21 164.049L330.241 135.978L337.085 135.078L337.054 162.755Z" fill="#C7C7C7"/>
<path d="M343.936 139.535L333.647 141.091V137.91L343.936 136.397V139.535Z" fill="#C7C7C7"/>
<path d="M342.092 144.648V136.666L343.936 136.397V144.36L342.092 144.648Z" fill="#C7C7C7"/>
<path d="M82.9992 184.031C80.2302 185.675 77.4363 187.256 74.6361 188.838C71.8359 190.419 69.0107 191.963 66.2043 193.507C63.3978 195.051 60.5476 196.563 57.71 198.063L53.4409 200.301C52.0033 201.032 50.5845 201.776 49.1406 202.489C50.522 201.664 51.9221 200.876 53.3097 200.064L57.5037 197.688C60.3039 196.113 63.1291 194.563 65.9355 193.019C68.742 191.476 71.5609 189.957 74.4298 188.457C77.2988 186.956 80.0865 185.469 82.9992 184.031Z" fill="#DBDBDB"/>
<path d="M51.5034 184.031C54.1786 185.281 56.8225 186.638 59.4665 187.975C62.1104 189.313 64.7293 190.688 67.3607 192.044C69.9922 193.401 72.5986 194.819 75.1988 196.232L79.099 198.37C80.3866 199.101 81.6867 199.814 82.9681 200.557C81.6242 199.932 80.2991 199.257 78.9678 198.613L74.9988 196.613C72.3548 195.276 69.7359 193.901 67.1045 192.544C64.4731 191.188 61.8666 189.769 59.2664 188.35C56.6663 186.931 54.0723 185.513 51.5034 184.031Z" fill="#DBDBDB"/>
<path d="M114.92 184.031C112.157 185.675 109.357 187.256 106.557 188.838C103.757 190.419 100.932 191.963 98.1253 193.507C95.3188 195.051 92.4999 196.563 89.631 198.063L85.3619 200.301C83.9306 201.032 82.5055 201.776 81.0679 202.489C82.443 201.664 83.8431 200.876 85.2307 200.064L89.4247 197.688C92.2249 196.113 95.0501 194.563 97.8565 193.019C100.663 191.476 103.482 189.957 106.357 188.457C109.232 186.956 112.045 185.469 114.92 184.031Z" fill="#DBDBDB"/>
<path d="M83.4556 184.031C86.1307 185.281 88.7809 186.638 91.4249 187.975C94.0688 189.313 96.6877 190.688 99.3191 192.044C101.951 193.401 104.551 194.819 107.157 196.232L111.051 198.37C112.339 199.101 113.639 199.814 114.92 200.557C113.583 199.932 112.258 199.257 110.926 198.613L106.957 196.613C104.313 195.276 101.688 193.901 99.0566 192.544C96.4252 191.188 93.825 189.769 91.2248 188.35C88.6247 186.931 86.0245 185.513 83.4556 184.031Z" fill="#DBDBDB"/>
<path d="M109.076 179.612L110.77 189.763L122.24 251.704H124.09L115.752 189.763L114.52 179.612H109.076Z" fill="#DBDBDB"/>
<path d="M114.52 179.612H109.076L110.77 189.763H115.752L114.52 179.612Z" fill="#C7C7C7"/>
<path d="M73.061 251.704H74.9112L86.3807 189.763L88.0745 179.612H82.6304L81.3991 189.763L73.061 251.704Z" fill="#DBDBDB"/>
<path d="M82.6303 179.612L81.3989 189.763H86.3805L88.0744 179.612H82.6303Z" fill="#C7C7C7"/>
<path d="M38.6587 251.704H40.5088L51.9783 189.763L53.6722 179.612H48.2343L46.9968 189.763L38.6587 251.704Z" fill="#DBDBDB"/>
<path d="M46.9966 189.763H51.9782L53.672 179.612H48.2342L46.9966 189.763Z" fill="#C7C7C7"/>
<path d="M41.5903 184.381H125.634V175.524H94.1752L83.5994 107.457H44.7968L41.5903 184.381Z" fill="#DBDBDB"/>
<path d="M41.5903 184.381H46.1719L49.1596 107.457H44.7968L41.5903 184.381Z" fill="#C7C7C7"/>
<path d="M31.8582 213.077H16.8447V215.715H31.8582V213.077Z" fill="#455A64"/>
<path d="M39.9967 251.704H38.3778L25.1519 189.969L24.4019 186.45L22.0267 175.368L21.1392 171.237L17.8139 155.729L16.6514 150.298H22.4268L23.3706 155.729L23.9894 159.292L24.4019 161.667L26.7708 175.368L27.5334 179.781L39.9967 251.704Z" fill="#455A64"/>
<path d="M22.4268 150.298L23.3706 155.729H17.8139L16.6514 150.298H22.4268Z" fill="#263238"/>
<path d="M27.5333 179.781L25.1519 189.969L24.4019 186.45L22.0267 175.368L21.1392 171.237L23.9894 159.292L24.4019 161.667L26.7708 175.368L27.5333 179.781Z" fill="#263238"/>
<path d="M32.1461 150.298L30.9835 155.729L26.7708 175.368L24.4018 186.45L10.4196 251.704H8.80078L22.0267 175.368L24.4018 161.667L25.4269 155.729L26.3645 150.298H32.1461Z" fill="#455A64"/>
<path d="M32.146 150.298L30.9834 155.729H25.4268L26.3643 150.298H32.146Z" fill="#263238"/>
<path d="M179.062 213.077H164.049V215.715H179.062V213.077Z" fill="#455A64"/>
<path d="M187.2 251.704H185.581L172.356 189.969L171.606 186.45L169.23 175.368L168.343 171.237L165.018 155.729L163.855 150.298H169.63L170.574 155.729L171.193 159.292L171.606 161.667L173.974 175.368L174.737 179.781L187.2 251.704Z" fill="#455A64"/>
<path d="M169.63 150.298L170.574 155.729H165.018L163.855 150.298H169.63Z" fill="#263238"/>
<path d="M174.737 179.781L172.356 189.969L171.605 186.45L169.23 175.368L168.343 171.237L171.193 159.292L171.605 161.667L173.974 175.368L174.737 179.781Z" fill="#263238"/>
<path d="M179.35 150.298L178.187 155.729L173.974 175.368L171.605 186.45L157.623 251.704H156.004L169.23 175.368L171.605 161.667L172.631 155.729L173.568 150.298H179.35Z" fill="#455A64"/>
<path d="M179.35 150.298L178.187 155.729H172.63L173.568 150.298H179.35Z" fill="#263238"/>
<path d="M190.601 146.329H5.40674V150.298H190.601V146.329Z" fill="#455A64"/>
<path d="M196.007 138.747H0V146.329H196.007V138.747Z" fill="#37474F"/>
<path d="M131.215 136.584H83.0117V138.747H131.215V136.584Z" fill="#455A64"/>
<path d="M131.215 136.584H106.957V138.747H131.215V136.584Z" fill="#37474F"/>
<path d="M109.563 138.747H156.542L162.68 106.845H115.708L109.563 138.747Z" fill="#455A64"/>
<path d="M133.265 122.796C133.225 123.159 133.263 123.527 133.377 123.875C133.49 124.223 133.676 124.543 133.923 124.813C134.17 125.083 134.471 125.298 134.807 125.443C135.143 125.587 135.506 125.659 135.872 125.652C136.653 125.642 137.402 125.346 137.979 124.819C138.555 124.293 138.917 123.572 138.997 122.796C139.037 122.431 138.999 122.062 138.885 121.714C138.772 121.365 138.585 121.045 138.338 120.774C138.091 120.503 137.789 120.288 137.452 120.143C137.115 119.998 136.751 119.926 136.384 119.933C135.604 119.944 134.855 120.242 134.28 120.77C133.705 121.298 133.344 122.019 133.265 122.796Z" fill="white"/>
<path d="M19.7265 138.553H46.6533V112.683H19.7265L19.7265 138.553Z" fill="#EBEBEB"/>
<path d="M9.50048 138.553H19.7324L19.7324 112.683H9.50048L9.50048 138.553Z" fill="#C7C7C7"/>
<path d="M46.6534 125.621H19.7266L40.7592 126.284L46.6534 125.621Z" fill="#C7C7C7"/>
<path d="M19.7266 135.428H46.6534L25.627 136.097L19.7266 135.428Z" fill="#C7C7C7"/>
<path d="M46.6531 118.389H29.5957L44.7592 118.933L46.6531 118.389Z" fill="#C7C7C7"/>
<path d="M19.7266 131.621H36.784L21.6204 132.165L19.7266 131.621Z" fill="#C7C7C7"/>
<path d="M40.1963 115.508H20.9575L24.164 115.833L40.1963 115.508Z" fill="#C7C7C7"/>
<path d="M44.0343 128.39H24.8018L28.0082 128.721L44.0343 128.39Z" fill="#C7C7C7"/>
<path d="M32.2082 120.852H19.7261L17.501 121.721L32.2082 120.852Z" fill="#EBEBEB"/>
<path d="M50.091 120.852H37.6152L35.3838 121.721L50.091 120.852Z" fill="#DBDBDB"/>
<path d="M34.0771 132.478H46.5592L48.7844 133.347L34.0771 132.478Z" fill="#DBDBDB"/>
<path d="M19.7265 129.528H9.70709L7.48193 130.396L19.7265 129.528Z" fill="#C7C7C7"/>
<path d="M16.2322 125.621H8.46289L9.49421 124.908L16.2322 125.621Z" fill="#C7C7C7"/>
<path d="M253.586 213.052L251.711 238.679C251.711 243.679 251.755 248.098 251.998 250.367C251.996 250.379 251.996 250.392 251.998 250.405C252.004 250.952 252.137 251.492 252.386 251.98H252.417C253.905 252.998 293.989 254.374 295.401 253.949C296.814 253.523 295.72 249.467 294.208 248.167C292.695 246.867 277.581 239.479 277.581 239.479L279.182 213.852L253.586 213.052Z" fill="#AD6359"/>
<path d="M251.761 233.303V238.685C251.761 243.685 251.804 248.104 252.048 250.373C252.045 250.386 252.045 250.399 252.048 250.411C252.101 250.945 252.215 251.471 252.386 251.98H252.417C253.905 252.999 293.989 254.374 295.401 253.949C296.814 253.524 295.72 249.467 294.207 248.167C292.695 246.867 277.581 239.479 277.581 239.479L277.656 234.016L251.761 233.303Z" fill="white"/>
<path d="M295.407 253.961C293.989 254.386 253.911 253.017 252.423 251.992C251.848 251.617 251.704 245.742 251.742 238.685V238.466L277.612 239.06V239.504C277.612 239.504 292.713 246.886 294.239 248.186C295.764 249.486 296.826 253.549 295.407 253.961Z" fill="#A6A6A6"/>
<path d="M295.008 252.392C288.257 251.998 260.993 251.03 254.286 251.142C254.236 251.142 254.236 251.18 254.286 251.18C260.968 251.723 288.238 252.467 295.001 252.492C295.145 252.505 295.151 252.405 295.008 252.392Z" fill="#263238"/>
<path d="M279.757 239.654C277.113 239.066 273.85 239.36 271.75 241.185C271.669 241.26 271.75 241.373 271.856 241.348C274.425 240.615 277.066 240.161 279.732 239.991C279.776 239.995 279.821 239.98 279.855 239.951C279.889 239.922 279.91 239.88 279.913 239.835C279.916 239.79 279.902 239.746 279.872 239.712C279.843 239.678 279.801 239.657 279.757 239.654Z" fill="#263238"/>
<path d="M281.632 240.873C278.994 240.285 275.725 240.585 273.631 242.41C273.55 242.479 273.631 242.598 273.737 242.573C276.306 241.838 278.947 241.381 281.613 241.21C281.658 241.213 281.702 241.197 281.735 241.167C281.768 241.138 281.789 241.096 281.791 241.051C281.794 241.006 281.778 240.962 281.748 240.929C281.718 240.895 281.677 240.875 281.632 240.873Z" fill="#263238"/>
<path d="M283.513 242.098C280.869 241.51 277.606 241.81 275.513 243.629C275.431 243.704 275.513 243.817 275.619 243.792C278.188 243.059 280.828 242.604 283.494 242.435C283.539 242.438 283.583 242.422 283.616 242.393C283.65 242.363 283.67 242.321 283.672 242.276C283.675 242.231 283.66 242.187 283.63 242.154C283.6 242.12 283.558 242.1 283.513 242.098Z" fill="#263238"/>
<path d="M250.192 239.791L278.25 239.235C278.25 239.235 281.675 188.744 281.038 171.912C280.344 153.629 272.487 99.2319 272.487 99.2319H248.792C248.792 99.2319 254.849 153.842 254.98 172.137C255.099 189.088 250.192 239.791 250.192 239.791Z" fill="#37474F"/>
<path d="M267.831 99.2319L253.599 148.473C251.917 125.171 248.792 99.2319 248.792 99.2319H267.831Z" fill="#263238"/>
<path d="M253.292 101.913L254.798 118.164L256.192 134.416C257.08 145.254 257.93 156.092 258.574 166.955C258.73 169.668 258.83 172.393 258.786 175.125C258.742 177.856 258.624 180.562 258.486 183.281C258.207 188.698 257.857 194.115 257.436 199.532C257.015 204.95 256.578 210.367 256.123 215.784L254.605 232.035L255.817 215.784C256.234 210.367 256.615 204.95 256.961 199.532C257.305 194.107 257.674 188.688 257.924 183.281C258.049 180.569 258.149 177.856 258.199 175.156C258.249 172.456 258.124 169.743 257.961 167.03C257.367 156.18 256.511 145.341 255.717 134.497L253.292 101.913Z" fill="#263238"/>
<path d="M277.081 234.553C272.706 234.516 273.956 234.466 269.581 234.472C267.437 234.472 253.329 234.528 251.354 234.885C251.343 234.885 251.332 234.889 251.323 234.898C251.315 234.906 251.311 234.917 251.311 234.929C251.311 234.94 251.315 234.951 251.323 234.959C251.332 234.968 251.343 234.972 251.354 234.972C253.361 235.279 267.443 234.972 269.587 234.941C273.962 234.847 272.712 234.822 277.087 234.678C277.104 234.678 277.119 234.67 277.131 234.658C277.142 234.646 277.147 234.629 277.147 234.613C277.146 234.596 277.138 234.581 277.126 234.57C277.114 234.558 277.098 234.553 277.081 234.553Z" fill="#263238"/>
<path d="M208.008 199.314C208.008 199.314 194.444 221.315 194.432 221.353C192.238 225.866 190.388 229.853 189.625 232.01C189.623 232.022 189.623 232.035 189.625 232.047C189.392 232.532 189.274 233.065 189.282 233.604C189.282 233.604 189.282 233.604 189.282 233.641C190.182 235.204 225.703 253.824 227.159 254.055C228.615 254.286 229.397 250.155 228.59 248.33C227.784 246.504 217.383 233.266 217.383 233.266L230.691 211.171L208.008 199.314Z" fill="#AD6359"/>
<path d="M189.257 233.578C189.254 233.584 189.252 233.591 189.252 233.597C189.252 233.604 189.254 233.61 189.257 233.616C190.157 235.178 225.678 253.799 227.134 254.03C228.591 254.261 229.366 250.13 228.572 248.304C227.778 246.479 217.321 233.266 217.321 233.266L219.696 229.322C213.89 226.228 203.339 220.796 196.788 217.446C195.357 219.759 194.388 221.346 194.388 221.353C192.188 225.859 190.338 229.847 189.582 231.978C189.582 231.978 189.582 231.978 189.582 232.016C189.354 232.504 189.243 233.039 189.257 233.578Z" fill="white"/>
<path d="M227.159 254.03C225.703 253.799 190.182 235.185 189.282 233.616C188.925 233.028 191.338 227.69 194.438 221.334C194.468 221.265 194.501 221.199 194.538 221.134L217.583 232.885L217.371 233.272C217.371 233.272 227.784 246.479 228.59 248.304C229.397 250.13 228.634 254.267 227.159 254.03Z" fill="#A6A6A6"/>
<path d="M227.478 252.442C221.571 249.161 197.42 236.466 191.332 233.691C191.282 233.691 191.263 233.691 191.332 233.728C197.12 237.116 221.371 249.611 227.453 252.567C227.559 252.605 227.603 252.511 227.478 252.442Z" fill="#263238"/>
<path d="M219.258 234.347C217.127 232.672 214.058 231.528 211.377 232.26C211.277 232.291 211.314 232.435 211.408 232.454C214.039 232.907 216.614 233.64 219.09 234.641C219.109 234.652 219.13 234.659 219.152 234.662C219.174 234.665 219.197 234.664 219.218 234.658C219.24 234.652 219.26 234.642 219.277 234.628C219.295 234.615 219.31 234.598 219.321 234.579C219.332 234.559 219.339 234.538 219.342 234.516C219.345 234.494 219.343 234.472 219.338 234.45C219.332 234.429 219.322 234.408 219.308 234.391C219.295 234.373 219.278 234.358 219.258 234.347Z" fill="#263238"/>
<path d="M220.427 236.266C218.302 234.591 215.227 233.441 212.546 234.178C212.446 234.178 212.489 234.354 212.577 234.366C215.208 234.821 217.784 235.557 220.259 236.56C220.298 236.582 220.344 236.588 220.387 236.577C220.431 236.565 220.468 236.536 220.49 236.497C220.512 236.458 220.518 236.412 220.507 236.369C220.495 236.325 220.466 236.288 220.427 236.266Z" fill="#263238"/>
<path d="M221.59 238.179C219.465 236.51 216.389 235.36 213.714 236.091C213.608 236.122 213.652 236.266 213.714 236.285C216.345 236.741 218.92 237.474 221.396 238.473C221.415 238.485 221.437 238.494 221.46 238.498C221.482 238.503 221.506 238.503 221.528 238.498C221.551 238.493 221.572 238.484 221.591 238.471C221.611 238.458 221.627 238.442 221.64 238.423C221.652 238.403 221.661 238.382 221.666 238.359C221.67 238.336 221.67 238.313 221.665 238.29C221.661 238.268 221.652 238.246 221.639 238.227C221.626 238.208 221.609 238.192 221.59 238.179Z" fill="#263238"/>
<path d="M270.062 99.2068C269.962 99.6943 268.306 107.382 266.587 113.983C265.337 118.808 264.087 123.046 263.318 123.49C262.48 123.983 258.411 125.784 257.068 126.352C257.068 126.352 247.917 172.03 243.085 186.2C238.629 199.27 220.178 234.21 220.178 234.21L193.388 220.728C193.388 220.728 214.29 185.269 216.515 178.906C219.921 169.043 232.685 120.883 232.685 120.883C232.685 120.883 232.591 105.807 237.685 99.2255L270.062 99.2068Z" fill="#37474F"/>
<path d="M219.758 229.016C215.933 226.878 217.065 227.434 213.214 225.347C211.339 224.322 198.951 217.596 197.026 216.952C196.988 216.952 196.951 217.002 196.988 217.027C198.601 218.277 211.095 224.765 212.996 225.778C216.883 227.797 215.789 227.178 219.702 229.153C219.72 229.161 219.741 229.161 219.759 229.153C219.777 229.145 219.792 229.131 219.799 229.113C219.807 229.094 219.806 229.074 219.799 229.056C219.791 229.038 219.777 229.023 219.758 229.016Z" fill="#263238"/>
<path d="M239.529 116.677C240.276 116.516 241.031 116.393 241.791 116.308C242.416 116.214 242.998 116.108 243.591 115.977C244.738 115.77 245.825 115.311 246.773 114.633C247.81 113.826 248.336 112.608 248.836 111.433C249.136 110.733 249.461 110.039 249.748 109.351C249.904 109.014 250.054 108.676 250.211 108.345C250.423 107.955 250.611 107.552 250.773 107.139C250.773 107.082 250.892 107.139 250.867 107.139C250.765 107.423 250.679 107.713 250.611 108.007L250.311 109.014C250.123 109.639 249.942 110.214 249.742 110.808C249.455 111.907 249.035 112.967 248.492 113.964C247.392 115.72 245.417 116.427 243.441 116.677C242.873 116.752 242.304 116.789 241.735 116.82C241.016 116.886 240.292 116.886 239.572 116.82C239.559 116.815 239.548 116.806 239.539 116.795C239.529 116.785 239.522 116.772 239.518 116.758C239.514 116.745 239.513 116.731 239.515 116.716C239.516 116.702 239.521 116.689 239.529 116.677Z" fill="#263238"/>
<path d="M265.474 122.433C262.57 123.492 259.763 124.801 257.086 126.346C257.063 126.357 257.045 126.376 257.036 126.4C257.027 126.424 257.028 126.451 257.039 126.474C257.05 126.497 257.07 126.515 257.094 126.524C257.118 126.533 257.144 126.532 257.167 126.521C259.993 125.308 262.874 124.146 265.624 122.771C265.661 122.746 265.688 122.709 265.7 122.667C265.712 122.625 265.709 122.579 265.691 122.539C265.673 122.499 265.641 122.466 265.602 122.447C265.562 122.427 265.517 122.423 265.474 122.433Z" fill="#263238"/>
<path d="M266.324 103.082C266.324 102.982 266.149 102.963 266.149 103.082C266.149 106.439 265.956 109.389 265.674 112.527C265.543 113.983 264.368 122.027 261.849 121.44C261.424 121.34 261.224 120.927 261.143 120.29C261.15 119.456 261.264 118.626 261.48 117.821C261.755 116.139 261.98 114.445 262.105 112.745C262.398 109.579 262.363 106.391 261.999 103.232C261.999 103.211 261.991 103.19 261.975 103.175C261.96 103.159 261.939 103.151 261.918 103.151C261.896 103.151 261.876 103.159 261.86 103.175C261.845 103.19 261.837 103.211 261.837 103.232C261.911 107.621 261.654 112.008 261.068 116.358C260.755 118.452 259.699 121.596 261.887 121.921C264.074 122.246 265.556 116.971 265.831 115.527C266.532 111.417 266.698 107.234 266.324 103.082Z" fill="#263238"/>
<path d="M261.911 121.633C261.69 122.178 261.503 122.735 261.349 123.302C261.184 123.739 261.103 124.204 261.111 124.671C261.111 124.765 261.236 124.771 261.286 124.709C261.546 124.296 261.744 123.847 261.874 123.377C262.061 122.865 262.268 122.352 262.443 121.827C262.468 121.757 262.465 121.679 262.433 121.611C262.402 121.543 262.344 121.49 262.274 121.465C262.204 121.439 262.126 121.442 262.058 121.474C261.99 121.506 261.937 121.563 261.911 121.633Z" fill="#263238"/>
<path d="M200.613 216.271C204.426 209.102 208.351 201.995 212.295 194.895C214.239 191.394 216.265 187.932 218.121 184.381C219.878 180.871 221.305 177.205 222.384 173.431C224.742 165.768 226.976 158.069 229.084 150.335C231.193 142.601 233.17 134.836 235.016 127.04C235.485 125.09 235.991 123.14 236.366 121.171C236.703 119.183 236.703 117.152 236.366 115.164C236.073 113.302 236.059 111.406 236.322 109.539C236.617 107.687 237.054 105.861 237.628 104.076C237.922 103.132 238.254 102.201 238.566 101.263C238.604 101.163 238.766 101.207 238.735 101.313C237.578 105.064 236.397 108.908 236.647 112.908C236.766 114.827 237.272 116.714 237.241 118.652C237.118 120.573 236.794 122.475 236.272 124.327C234.451 132.17 232.497 139.98 230.409 147.76C228.322 155.54 226.113 163.282 223.784 170.987C222.646 174.737 221.584 178.537 219.971 182.119C218.358 185.7 216.315 189.088 214.389 192.507C210.414 199.591 206.387 206.633 202.307 213.633C201.791 214.521 201.268 215.406 200.738 216.29C200.67 216.384 200.582 216.352 200.613 216.271Z" fill="#263238"/>
<path d="M262.255 64.5983C274.756 62.7232 290.576 57.8603 292.47 54.7164C294.564 51.2536 298.439 40.5654 300.183 29.4334C300.501 27.4145 284.457 26.9332 284.082 28.2896C282.694 33.4649 278.775 46.4158 278.187 46.7908C277.425 47.3159 266.937 53.1038 259.53 57.2041C250.598 62.1606 255.448 65.6171 262.255 64.5983Z" fill="#AD6359"/>
<path d="M299.989 30.8397C300.314 29.8896 303.408 22.3141 303.233 17.9263C303.145 15.6012 302.17 9.24448 300.733 9.11947C299.433 9.01321 299.276 10.8196 299.276 10.8196C299.276 10.8196 298.801 7.98814 296.995 7.85688C295.189 7.72563 295.076 10.7883 295.076 10.7883C295.076 10.7883 294.376 7.91939 292.576 7.91314C290.776 7.90689 291.17 11.0383 291.17 11.0383C291.17 11.0383 290.651 8.38192 289.157 9.00696C287.363 9.75701 288.87 14.5448 288.532 17.095C288.457 17.6763 286.069 28.7146 286.069 28.7146L299.989 30.8397Z" fill="#AD6359"/>
<path d="M291.088 11.0758C292.188 14.5948 292.063 16.3262 291.126 19.8264C291.123 19.8334 291.122 19.8408 291.123 19.8482C291.123 19.8556 291.125 19.8628 291.128 19.8695C291.131 19.8762 291.136 19.8821 291.141 19.8871C291.147 19.892 291.153 19.8958 291.16 19.8983C291.167 19.9008 291.175 19.9018 291.182 19.9014C291.189 19.901 291.197 19.8992 291.203 19.896C291.21 19.8928 291.216 19.8883 291.221 19.8828C291.226 19.8773 291.23 19.8709 291.232 19.8639C292.482 16.5137 292.932 14.3636 291.232 11.0008C291.176 10.8508 291.038 10.9071 291.088 11.0758Z" fill="#263238"/>
<path d="M295.001 10.8383C295.82 14.5885 295.701 16.4637 295.001 20.2139C295.001 20.2639 295.082 20.2889 295.095 20.2139C296.101 16.5949 296.52 14.4448 295.207 10.7945C295.132 10.6633 294.963 10.6695 295.001 10.8383Z" fill="#263238"/>
<path d="M299.264 11.0009C299.802 14.6949 299.752 16.7576 298.595 20.3078C298.592 20.3164 298.591 20.3256 298.591 20.3348C298.591 20.344 298.593 20.3531 298.597 20.3615C298.601 20.3699 298.606 20.3775 298.613 20.3839C298.62 20.3902 298.627 20.3952 298.636 20.3984C298.645 20.4017 298.654 20.4033 298.663 20.403C298.672 20.4027 298.681 20.4007 298.69 20.3969C298.698 20.3931 298.706 20.3877 298.712 20.381C298.718 20.3743 298.723 20.3664 298.727 20.3578C300.258 16.8513 300.333 14.2761 299.352 10.9822C299.302 10.7697 299.22 10.7634 299.264 11.0009Z" fill="#263238"/>
<path d="M283.519 30.9835C283.519 30.9835 282.175 25.6143 282.194 23.533C282.213 21.4516 285.113 13.726 286.813 14.2573C289.019 14.9449 288.219 19.7389 287.519 22.0329C287.519 22.0329 292.614 23.6205 292.789 27.1832C292.964 30.7459 283.519 30.9835 283.519 30.9835Z" fill="#AD6359"/>
<path d="M287.388 14.6448C288.945 16.7199 287.838 19.6451 287.326 21.9516C287.316 21.9848 287.315 22.0198 287.323 22.0535C287.33 22.0873 287.345 22.1187 287.367 22.1452C287.39 22.1717 287.418 22.1923 287.45 22.2054C287.482 22.2185 287.516 22.2236 287.551 22.2203C289.638 23.0266 292.357 24.7767 292.92 27.0769C292.924 27.0879 292.931 27.0975 292.94 27.1043C292.95 27.111 292.961 27.1147 292.973 27.1147C292.985 27.1147 292.996 27.111 293.006 27.1043C293.015 27.0975 293.022 27.0879 293.026 27.0769C292.757 24.533 290.232 22.5953 287.882 21.8578C288.445 19.5326 289.426 16.5199 287.407 14.6448C287.388 14.6198 287.351 14.6323 287.388 14.6448Z" fill="#263238"/>
<path d="M282.338 32.5898L299.627 36.8214C299.627 36.8214 294.432 54.5976 291.763 56.529C289.095 58.4604 270.237 65.042 259.361 65.092C256.186 65.092 249.642 62.6669 258.999 56.9665C268.356 51.2661 277.431 46.272 277.788 45.872C278.144 45.472 282.338 32.5898 282.338 32.5898Z" fill="#D82E1D"/>
<path d="M281.844 36.7713C283.075 37.1969 284.327 37.5599 285.594 37.8589C286.901 38.2152 288.213 38.5277 289.526 38.8465C290.839 39.1653 296.126 40.2591 297.445 40.5341C297.457 40.5341 297.468 40.5295 297.476 40.5213C297.484 40.5131 297.489 40.5019 297.489 40.4903C297.489 40.4787 297.484 40.4676 297.476 40.4594C297.468 40.4512 297.457 40.4466 297.445 40.4466C296.145 40.0903 290.976 38.6777 289.688 38.3715C288.401 38.0652 287.113 37.7464 285.819 37.4776C284.526 37.2089 283.169 36.8526 281.838 36.7151C281.832 36.7151 281.813 36.7588 281.844 36.7713Z" fill="#263238"/>
<path opacity="0.1" d="M268.531 64.0357C265.512 64.6601 262.443 65.0136 259.361 65.092C256.392 65.092 250.48 62.9668 257.374 58.0103L268.531 64.0357Z" fill="black"/>
<path d="M237.641 99.207H272.487C272.41 98.1632 272.223 97.1304 271.931 96.1255C269.793 87.3749 262.974 62.6357 259.786 57.9979C258.011 55.4102 251.279 54.8289 248.498 57.4479C242.991 62.6232 238.578 85.6873 237.316 95.1317C237.078 96.4958 237.19 97.8978 237.641 99.207Z" fill="#EBEBEB"/>
<path d="M249.261 56.8977C249.304 57.5227 252.029 71.8175 252.117 74.1614C252.204 76.5053 249.461 120.096 249.461 120.096L231.072 118.639C231.072 118.639 235.516 97.0254 235.666 96.7004C235.816 96.3754 242.441 66.2858 244.729 62.0606C247.017 57.8353 249.261 56.8977 249.261 56.8977Z" fill="#D82E1D"/>
<path d="M258.461 56.5039C258.461 56.5039 263.312 75.8802 264.281 79.0054C265.249 82.1306 270.531 119.702 270.531 119.702L276.981 117.396C276.981 117.396 268.856 79.0804 261.862 60.6479C260.918 58.2165 258.461 56.5039 258.461 56.5039Z" fill="#D82E1D"/>
<path d="M259.405 56.9666C259.886 56.9666 261.768 58.8917 261.968 59.4292C262.168 59.9668 267.099 86.9311 266.593 89.9563C266.087 92.9815 256.498 119.121 256.498 119.121L253.011 117.596C253.011 117.596 263.011 91.1439 263.311 90.1751C263.611 89.2062 259.692 58.9229 259.561 58.1479C259.43 57.3728 259.405 56.9666 259.405 56.9666Z" fill="#D82E1D"/>
<path opacity="0.2" d="M259.405 56.9666C259.886 56.9666 261.768 58.8917 261.968 59.4292C262.168 59.9668 267.099 86.9311 266.593 89.9563C266.087 92.9815 256.498 119.121 256.498 119.121L253.011 117.596C253.011 117.596 263.011 91.1439 263.311 90.1751C263.611 89.2062 259.692 58.9229 259.561 58.1479C259.43 57.3728 259.405 56.9666 259.405 56.9666Z" fill="black"/>
<path d="M249.504 56.9664C249.11 56.6851 246.466 57.2164 245.998 57.5414C245.529 57.8664 233.497 78.2053 232.172 81.0118C230.847 83.8182 219.671 110.157 219.671 110.157L223.421 110.851C223.421 110.851 234.466 84.012 234.747 83.0306C235.028 82.0493 248.16 58.379 248.692 57.8227L249.504 56.9664Z" fill="#D82E1D"/>
<path opacity="0.2" d="M249.504 56.9664C249.11 56.6851 246.466 57.2164 245.998 57.5414C245.529 57.8664 233.497 78.2053 232.172 81.0118C230.847 83.8182 219.671 110.157 219.671 110.157L223.421 110.851C223.421 110.851 234.466 84.012 234.747 83.0306C235.028 82.0493 248.16 58.379 248.692 57.8227L249.504 56.9664Z" fill="black"/>
<path d="M218.975 110.783L214.651 134.157L251.749 141.02L256.073 117.646L218.975 110.783Z" fill="#D82E1D"/>
<path opacity="0.1" d="M218.975 110.783L214.651 134.157L251.749 141.02L256.073 117.646L218.975 110.783Z" fill="black"/>
<path opacity="0.1" d="M218.981 110.773L216.944 121.781L254.043 128.643L256.079 117.636L218.981 110.773Z" fill="black"/>
<path d="M257.573 114.363L218.723 107.177L216.705 118.086L255.555 125.273L257.573 114.363Z" fill="#D82E1D"/>
<path opacity="0.1" d="M257.573 114.363L218.723 107.177L216.705 118.086L255.555 125.273L257.573 114.363Z" fill="black"/>
<path d="M244.304 107.807L243.573 111.77L241.779 111.439L242.198 109.183L235.366 107.92L234.947 110.176L233.16 109.845L233.891 105.882L244.304 107.807Z" fill="#263238"/>
<path d="M224.502 115.969L221.979 115.505L221.024 120.699L223.548 121.163L224.502 115.969Z" fill="#263238"/>
<path d="M250.708 121.689L248.175 121.22L247.211 126.432L249.743 126.901L250.708 121.689Z" fill="#263238"/>
<path d="M242.298 62.8606C238.879 66.3358 225.74 82.2994 225.184 86.2247C224.328 92.1876 233.622 111.258 236.091 115.395C237.166 117.202 250.986 108.395 249.979 106.389C249.298 105.038 239.772 90.5437 239.585 88.8873C239.397 87.231 244.904 72.9925 248.479 65.7608C251.879 58.8415 249.536 55.4976 242.298 62.8606Z" fill="#AD6359"/>
<path d="M262.255 123.152C261.965 123.588 261.549 123.925 261.061 124.117C260.574 124.31 260.04 124.348 259.53 124.227C259.533 125.118 259.226 125.982 258.661 126.671C257.611 127.84 255.317 126.671 255.317 126.671C255.131 127.596 254.672 128.443 253.998 129.103C252.879 130.121 250.404 129.303 250.404 129.303C249.766 130.055 248.879 130.554 247.904 130.709C245.273 131.015 242.748 127.846 241.122 125.852C239.497 123.858 236.747 116.683 236.122 115.364L248.835 104.838C248.835 104.838 258.661 111.714 260.236 114.327C261.53 116.558 263.305 121.44 262.255 123.152Z" fill="#AD6359"/>
<path d="M259.661 123.971C258.811 121.29 257.211 119.002 255.748 116.633C255.717 116.577 255.636 116.633 255.667 116.683C257.149 119.027 258.167 121.627 259.536 124.027C259.574 124.09 259.68 124.04 259.661 123.971Z" fill="#263238"/>
<path d="M255.455 126.521C255.203 125.93 254.873 125.375 254.474 124.871C254.092 124.315 253.692 123.758 253.292 123.215C252.486 122.121 251.648 121.039 250.792 119.989C250.755 119.946 250.673 119.989 250.711 120.039C251.519 121.135 252.303 122.244 253.061 123.365C253.436 123.927 253.811 124.496 254.18 125.065C254.495 125.623 254.87 126.144 255.299 126.621C255.315 126.633 255.334 126.639 255.354 126.64C255.374 126.64 255.394 126.635 255.411 126.624C255.427 126.613 255.441 126.598 255.448 126.579C255.456 126.561 255.459 126.541 255.455 126.521Z" fill="#263238"/>
<path d="M250.367 129.284C250.131 128.755 249.807 128.269 249.411 127.846C249.029 127.353 248.654 126.865 248.286 126.365C247.536 125.377 246.792 124.384 246.079 123.371C246.048 123.321 245.96 123.371 245.998 123.421C246.717 124.459 247.417 125.502 248.148 126.546C248.504 127.053 248.861 127.553 249.223 128.053C249.508 128.546 249.881 128.982 250.323 129.34C250.331 129.346 250.34 129.349 250.35 129.347C250.359 129.346 250.367 129.341 250.373 129.334C250.379 129.326 250.382 129.317 250.38 129.308C250.379 129.298 250.374 129.29 250.367 129.284Z" fill="#263238"/>
<path d="M249.98 104.307L234.766 115.72C234.766 115.72 224.103 96.2941 224.69 86.4747C224.934 82.4244 237.191 67.7234 242.679 62.098C248.167 56.4726 253.555 55.3913 248.736 66.1858C243.917 76.9803 239.985 86.7434 240.36 87.4372C240.735 88.131 249.98 104.307 249.98 104.307Z" fill="#D82E1D"/>
<path d="M247.086 102.107C245.961 102.758 244.87 103.465 243.817 104.226C242.698 104.982 241.61 105.77 240.516 106.551C239.423 107.332 235.154 110.608 234.085 111.42C234.041 111.458 234.085 111.533 234.141 111.495C235.26 110.745 239.685 107.745 240.754 106.995C241.823 106.245 242.898 105.457 243.948 104.657C245.045 103.88 246.101 103.046 247.111 102.157C247.111 102.157 247.117 102.088 247.086 102.107Z" fill="#263238"/>
<path d="M235.76 114.97L234.797 115.758L234.76 115.789L234.722 115.739C234.205 115.078 233.757 114.366 233.384 113.614C232.99 112.87 232.688 112.081 232.484 111.264C232.975 111.943 233.413 112.657 233.797 113.402C234.195 114.136 234.534 114.901 234.81 115.689H234.735L235.76 114.97Z" fill="#263238"/>
<path d="M249.023 105.026L249.967 104.301C248.248 101.632 246.586 98.9379 244.967 96.2253C244.142 94.8689 243.348 93.4938 242.554 92.125C241.76 90.7561 240.973 89.3873 240.298 87.9122C240.254 87.8123 240.217 87.7101 240.185 87.6059C240.154 87.4807 240.154 87.3499 240.185 87.2247C240.211 87.0129 240.255 86.8037 240.316 86.5996C240.423 86.2058 240.548 85.8308 240.673 85.4495C240.929 84.6995 241.204 83.9494 241.485 83.2119C242.054 81.7305 242.629 80.2492 243.248 78.7928C244.467 75.8614 245.748 72.9549 247.054 70.0735L243.579 78.9241C243.017 80.4054 242.429 81.8743 241.885 83.3619C241.61 84.0994 241.341 84.8432 241.098 85.5933C240.973 85.9683 240.854 86.3433 240.754 86.7184C240.705 86.8992 240.668 87.0829 240.641 87.2684C240.622 87.3358 240.622 87.4072 240.641 87.4747C240.641 87.5372 240.704 87.6372 240.729 87.7184C241.354 89.131 242.173 90.5186 242.935 91.9L245.292 96.0253L250.017 104.27L249.023 105.026Z" fill="#263238"/>
<path d="M245.686 73.2488C245.929 72.955 246.179 72.6738 246.398 72.3675C246.617 72.0612 246.836 71.7425 247.023 71.4299C246.914 71.8034 246.736 72.1532 246.498 72.4612C246.274 72.768 245.999 73.0344 245.686 73.2488Z" fill="#263238"/>
<path d="M257.599 62.4919C255.392 62.9044 251.348 59.0854 249.998 56.3102C249.911 56.1227 250.286 54.1851 250.623 51.8037C250.83 50.3598 251.03 48.7472 251.098 47.2659L260.299 49.9848C259.678 51.8049 259.281 53.694 259.118 55.6102C259.11 55.8193 259.122 56.0286 259.155 56.2352C259.155 56.2665 259.155 56.2977 259.155 56.3352C259.305 57.5166 259.736 62.0981 257.599 62.4919Z" fill="#AD6359"/>
<path d="M260.312 49.9848C259.798 51.5158 259.43 53.0916 259.211 54.6914C254.911 57.3228 250.267 54.1476 250.267 54.1476C250.38 53.4663 250.505 52.6662 250.636 51.8037C250.842 50.3661 251.042 48.7472 251.111 47.2659L260.312 49.9848Z" fill="#263238"/>
<path d="M261.643 36.6276C262.837 39.9528 261.53 49.7534 259.236 52.0599C255.911 55.3726 250.236 55.9539 247.361 51.9036C244.573 47.9783 246.504 35.2087 249.086 33.1086C252.892 30.0084 259.886 31.7272 261.643 36.6276Z" fill="#AD6359"/>
<path d="M252.386 43.2156C252.386 43.2156 252.436 43.2531 252.429 43.2781C252.323 43.9406 252.317 44.7094 252.886 45.0094C252.886 45.0094 252.886 45.0532 252.886 45.047C252.154 44.8282 252.179 43.8031 252.386 43.2156Z" fill="#263238"/>
<path d="M253.061 42.5904C254.136 42.6467 253.948 44.7968 252.948 44.7406C251.948 44.6843 252.161 42.5342 253.061 42.5904Z" fill="#263238"/>
<path d="M248.692 42.8093C248.692 42.8093 248.636 42.8093 248.636 42.8593C248.598 43.5281 248.442 44.2844 247.823 44.4532V44.4907C248.567 44.4657 248.761 43.4469 248.692 42.8093Z" fill="#263238"/>
<path d="M248.161 42.0593C247.098 41.8842 246.823 44.0219 247.811 44.1844C248.798 44.3469 249.048 42.2093 248.161 42.0593Z" fill="#263238"/>
<path d="M253.998 41.6717C253.724 41.5649 253.455 41.4439 253.192 41.3092C252.891 41.2181 252.628 41.0317 252.442 40.7779C252.4 40.6867 252.389 40.5843 252.411 40.4862C252.432 40.3881 252.485 40.2996 252.561 40.2341C252.734 40.1312 252.931 40.0769 253.133 40.0769C253.334 40.0769 253.532 40.1312 253.705 40.2341C254.092 40.3792 254.412 40.6648 254.599 41.0342C254.633 41.1196 254.643 41.2132 254.626 41.3039C254.609 41.3946 254.567 41.4785 254.503 41.5457C254.44 41.6129 254.359 41.6605 254.269 41.6828C254.18 41.7052 254.086 41.7013 253.998 41.6717Z" fill="#263238"/>
<path d="M247.429 40.9092C247.721 40.875 248.011 40.8249 248.298 40.7592C248.613 40.7546 248.918 40.6421 249.16 40.4404C249.221 40.3617 249.254 40.2649 249.254 40.1654C249.254 40.0659 249.221 39.9692 249.16 39.8904C249.02 39.7448 248.844 39.639 248.65 39.5841C248.455 39.5292 248.25 39.527 248.054 39.5779C247.644 39.6184 247.264 39.8127 246.992 40.1217C246.932 40.1972 246.895 40.2888 246.887 40.3849C246.879 40.481 246.9 40.5773 246.947 40.6616C246.994 40.746 247.065 40.8145 247.151 40.8585C247.236 40.9026 247.333 40.9202 247.429 40.9092Z" fill="#263238"/>
<path d="M252.63 49.2973C252.455 49.4348 252.28 49.6348 252.036 49.6348C251.788 49.6103 251.549 49.5313 251.336 49.4036C251.336 49.4036 251.292 49.4036 251.304 49.4036C251.387 49.5435 251.507 49.6582 251.65 49.7353C251.793 49.8124 251.955 49.849 252.117 49.8411C252.256 49.8174 252.385 49.7532 252.487 49.6564C252.589 49.5596 252.661 49.4346 252.692 49.2973C252.705 49.2911 252.655 49.2723 252.63 49.2973Z" fill="#263238"/>
<path d="M252.111 47.2408C251.919 47.4889 251.677 47.6946 251.402 47.8452C251.127 47.9957 250.823 48.0879 250.511 48.1159C250.237 48.144 249.961 48.1313 249.692 48.0784C249.638 48.0776 249.585 48.067 249.536 48.0471H249.392C249.357 48.0364 249.327 48.0148 249.306 47.9855C249.284 47.9562 249.273 47.9208 249.273 47.8846C249.27 47.8618 249.27 47.8387 249.273 47.8158V47.7533C249.304 47.2408 249.423 46.4657 249.423 46.4657C249.229 46.547 248.236 46.8908 248.273 46.622C248.538 44.3211 249.037 42.053 249.761 39.8528C249.765 39.8403 249.773 39.8294 249.783 39.8217C249.794 39.814 249.807 39.8098 249.82 39.8098C249.833 39.8098 249.846 39.814 249.857 39.8217C249.867 39.8294 249.875 39.8403 249.879 39.8528C249.648 41.9842 249.042 44.0593 248.779 46.1907C249.132 46.0645 249.5 45.9867 249.873 45.9595C249.948 45.9595 249.617 47.4533 249.623 47.6846C250.038 47.7655 250.466 47.7613 250.88 47.6721C251.293 47.5829 251.684 47.4107 252.029 47.1658C252.105 47.147 252.155 47.1908 252.111 47.2408Z" fill="#263238"/>
<path d="M249.992 48.0097C250.26 48.3729 250.618 48.6613 251.029 48.8472C251.256 48.9433 251.508 48.9652 251.748 48.9097C252.273 48.7847 252.298 48.2847 252.211 47.8909C252.163 47.6746 252.089 47.4648 251.992 47.2659C251.421 47.7201 250.721 47.9806 249.992 48.0097Z" fill="#263238"/>
<path d="M251.029 48.8408C251.256 48.937 251.508 48.9588 251.748 48.9033C252.273 48.7783 252.298 48.2783 252.211 47.8845C251.936 47.892 251.671 47.9897 251.458 48.1625C251.244 48.3354 251.094 48.5738 251.029 48.8408Z" fill="#FF98B9"/>
<path d="M262.305 45.0907C259.736 45.3407 258.311 42.3093 258.842 39.8216C258.842 39.8216 252.03 40.9154 251.554 35.4463C251.025 36.2168 250.33 36.8588 249.52 37.3251C248.709 37.7913 247.805 38.0698 246.873 38.1402L246.46 40.0779C245.754 39.8966 244.954 37.9215 246.629 36.3276C246.706 34.6437 247.429 33.0542 248.648 31.8898C249.181 31.4053 249.842 31.0846 250.553 30.966C251.263 30.8474 251.993 30.9359 252.655 31.221C253.814 30.3002 255.289 29.8735 256.761 30.0334C257.521 30.1321 258.246 30.4104 258.876 30.8452C259.506 31.28 260.024 31.8588 260.386 32.5336C260.386 32.5336 263.793 33.0899 264.437 35.4838C264.633 36.1582 264.684 36.8662 264.589 37.5619C264.493 38.2576 264.251 38.9253 263.88 39.5216C263.88 39.5216 264.755 40.4466 264.38 42.5155C264.13 43.8406 263.074 44.9969 262.305 45.0907Z" fill="#263238"/>
<path d="M251.692 34.9211C251.645 35.3658 251.645 35.8141 251.692 36.2587C251.734 36.6996 251.829 37.1339 251.973 37.5526C252.269 38.3754 252.862 39.0577 253.636 39.4652C254.429 39.8474 255.3 40.04 256.18 40.0277C256.617 40.0277 257.067 40.0277 257.511 39.959C257.955 39.8902 258.399 39.834 258.849 39.784C258.417 39.9027 257.974 40.0027 257.536 40.109C257.099 40.2152 256.636 40.2153 256.18 40.2715C255.251 40.3239 254.325 40.1412 253.486 39.7402C252.657 39.2821 252.042 38.5165 251.773 37.6088C251.522 36.7338 251.494 35.8097 251.692 34.9211Z" fill="#263238"/>
<path d="M248.248 38.2152C248.99 37.9402 249.681 37.543 250.292 37.0401C250.59 36.7918 250.853 36.5037 251.073 36.1838C251.296 35.8547 251.479 35.5001 251.617 35.1274C251.593 35.5412 251.477 35.9445 251.28 36.3088C251.087 36.6831 250.822 37.0147 250.498 37.2838C250.179 37.5432 249.823 37.7539 249.442 37.9089C249.062 38.0725 248.66 38.1758 248.248 38.2152Z" fill="#263238"/>
<path d="M252.736 46.6094C252.001 46.4024 251.378 45.9126 251.003 45.2473C250.628 44.5819 250.532 43.7952 250.736 43.0592C250.881 42.5412 251.168 42.0744 251.565 41.7117C251.963 41.349 252.454 41.105 252.983 41.0074C253.512 40.9098 254.057 40.9626 254.558 41.1597C255.058 41.3568 255.493 41.6904 255.814 42.1225C256.134 42.5546 256.327 43.0678 256.37 43.604C256.413 44.1402 256.305 44.6777 256.058 45.1555C255.811 45.6333 255.435 46.0322 254.973 46.3069C254.51 46.5816 253.98 46.7211 253.442 46.7094C253.203 46.7064 252.966 46.6728 252.736 46.6094ZM251.136 43.1654C251.001 43.642 251.011 44.1478 251.164 44.6187C251.318 45.0896 251.607 45.5044 251.997 45.8104C252.386 46.1164 252.857 46.3 253.351 46.3377C253.845 46.3754 254.339 46.2656 254.77 46.0223C255.202 45.779 255.551 45.4131 255.774 44.9709C255.997 44.5288 256.084 44.0304 256.023 43.5389C255.963 43.0474 255.757 42.585 255.434 42.2102C255.11 41.8355 254.682 41.5654 254.205 41.4341C254.001 41.377 253.791 41.3455 253.58 41.3403C253.028 41.3323 252.489 41.5069 252.047 41.837C251.605 42.1671 251.285 42.6342 251.136 43.1654Z" fill="#D82E1D"/>
<path d="M246.717 45.7469C245.548 45.5844 244.779 44.1718 244.998 42.6217C245.086 41.9101 245.394 41.2438 245.879 40.7153C246.08 40.4856 246.335 40.3086 246.62 40.1997C246.906 40.0908 247.213 40.0532 247.517 40.0903C247.819 40.1427 248.104 40.2672 248.347 40.4533C248.591 40.6394 248.786 40.8815 248.917 41.1591C249.242 41.7923 249.362 42.511 249.26 43.2155C249.048 44.7031 248.01 45.8094 246.923 45.7844L246.717 45.7469ZM246.154 40.9591C245.725 41.4291 245.454 42.0213 245.379 42.653C245.185 44.0156 245.81 45.2281 246.773 45.3657C247.735 45.5032 248.648 44.5031 248.86 43.1405C248.961 42.5116 248.862 41.8671 248.579 41.2966C248.477 41.0735 248.322 40.8782 248.128 40.727C247.935 40.5758 247.708 40.4733 247.467 40.4278H247.317C247.093 40.4287 246.873 40.4765 246.669 40.568C246.466 40.6596 246.284 40.7928 246.135 40.9591H246.154Z" fill="#D82E1D"/>
<path d="M250.785 43.4031L251.067 43.1468C250.685 42.7218 249.754 42.0968 248.954 42.7406L249.198 43.0406C249.917 42.4593 250.748 43.3656 250.785 43.4031Z" fill="#D82E1D"/>
<path d="M262.805 45.9407L263.168 45.8157C263.105 45.6469 262.543 44.1531 261.73 43.8968C260.918 43.6405 256.355 43.3968 256.136 43.3843V43.7718C257.977 43.8337 259.814 43.9985 261.637 44.2656C262.168 44.4656 262.662 45.5344 262.805 45.9407Z" fill="#D82E1D"/>
<path d="M259.349 44.6656C259.349 44.6656 261.462 41.4529 262.912 42.1967C264.362 42.9405 262.837 47.5596 261.18 48.2284C260.973 48.3295 260.747 48.3877 260.517 48.3996C260.287 48.4114 260.056 48.3766 259.84 48.2972C259.623 48.2178 259.425 48.0955 259.257 47.9376C259.089 47.7797 258.954 47.5895 258.861 47.3783L259.349 44.6656Z" fill="#AD6359"/>
<path d="M262.443 43.5093C262.443 43.5093 262.474 43.5093 262.443 43.553C261.274 44.0656 260.686 45.1719 260.286 46.3157C260.351 46.1963 260.441 46.0923 260.55 46.0109C260.659 45.9296 260.785 45.8727 260.918 45.8442C261.05 45.8157 261.188 45.8163 261.321 45.8459C261.453 45.8755 261.578 45.9334 261.686 46.0157C261.693 46.0186 261.699 46.0234 261.703 46.0295C261.707 46.0356 261.709 46.0428 261.709 46.0501C261.709 46.0574 261.707 46.0645 261.703 46.0706C261.699 46.0767 261.693 46.0815 261.686 46.0844C261.477 46.0224 261.253 46.0276 261.047 46.0994C260.841 46.1712 260.662 46.3058 260.536 46.4845C260.327 46.7812 260.151 47.0997 260.011 47.4345C259.961 47.5408 259.768 47.4908 259.805 47.3658C259.73 45.8407 260.836 43.703 262.443 43.5093Z" fill="#263238"/>
<path d="M259.217 56.654L256.973 62.1731L250.129 55.1414L248.173 57.379C248.173 57.379 254.842 68.5298 254.886 68.0047L257.192 63.2482L260.467 66.5796L260.236 58.2478L259.217 56.654Z" fill="#EBEBEB"/>
<path d="M260.587 62.4792C260.505 61.1104 260.455 59.7228 260.311 58.354C260.311 58.304 260.23 58.2789 260.218 58.354C259.936 59.679 260.28 64.9294 260.268 66.192C260.13 66.0482 257.23 63.2605 257.205 63.3043C256.705 64.0606 255.011 67.5233 254.899 67.8358C253.842 66.067 249.798 59.6228 248.548 57.9477C248.546 57.9401 248.543 57.933 248.537 57.9271C248.532 57.9212 248.526 57.9165 248.519 57.9136C248.511 57.9106 248.503 57.9094 248.496 57.9101C248.488 57.9107 248.48 57.9132 248.474 57.9173C248.467 57.9214 248.461 57.9271 248.457 57.9338C248.453 57.9405 248.451 57.948 248.45 57.9558C248.449 57.9637 248.45 57.9715 248.453 57.9788C248.456 57.9861 248.461 57.9925 248.467 57.9977C249.398 59.8728 254.749 68.5359 254.83 68.5171C255.719 66.8831 256.522 65.2036 257.236 63.4855C257.73 64.1106 260.655 67.2358 260.668 67.0358C260.72 65.5166 260.693 63.9956 260.587 62.4792Z" fill="#263238"/>
<path d="M40.1962 51.6847C52.2817 51.6847 62.0789 41.8874 62.0789 29.8019C62.0789 17.7164 52.2817 7.91919 40.1962 7.91919C28.1107 7.91919 18.3135 17.7164 18.3135 29.8019C18.3135 41.8874 28.1107 51.6847 40.1962 51.6847Z" fill="#D82E1D"/>
<path opacity="0.1" d="M43.6968 51.0203C55.1472 49.6407 63.3112 39.24 61.9316 27.7896C60.5521 16.3392 50.1514 8.17525 38.701 9.55481C27.2506 10.9344 19.0866 21.3351 20.4662 32.7855C21.8457 44.2358 32.2465 52.3998 43.6968 51.0203Z" fill="black"/>
<path d="M48.4829 48.4487C58.5101 44.4239 63.376 33.0325 59.3512 23.0053C55.3264 12.9781 43.935 8.11219 33.9078 12.137C23.8806 16.1618 19.0147 27.5532 23.0395 37.5804C27.0643 47.6076 38.4557 52.4735 48.4829 48.4487Z" fill="white"/>
<path opacity="0.5" d="M60.3168 26.1391C51.4099 31.5332 36.7652 40.3901 28.5834 45.2467C26.2708 43.2956 24.4416 40.8353 23.2393 38.0587L50.3036 12.9695C52.8313 14.3027 55.0371 16.1721 56.7667 18.4469C58.4963 20.7217 59.7079 23.347 60.3168 26.1391Z" fill="#EBEBEB"/>
<path opacity="0.5" d="M60.748 30.9707C60.675 33.147 60.2377 35.2957 59.4542 37.3274L35.0776 48.8719C34.0148 48.5181 32.9839 48.0748 31.9961 47.5468C39.3403 43.284 52.81 35.5335 60.748 30.9707Z" fill="#EBEBEB"/>
<path d="M41.3838 12.1445H41.0088V15.1072H41.3838V12.1445Z" fill="#C7C7C7"/>
<path d="M32.2921 14.4817L31.9619 14.6724L33.4433 17.2381L33.7735 17.0475L32.2921 14.4817Z" fill="#C7C7C7"/>
<path d="M25.5757 21.0527L25.3882 21.3774L27.954 22.8588L28.1415 22.534L25.5757 21.0527Z" fill="#C7C7C7"/>
<path d="M26.0145 30.1021H23.0518V30.4771H26.0145V30.1021Z" fill="#C7C7C7"/>
<path d="M27.9608 37.7144L25.395 39.1958L25.5825 39.5206L28.1483 38.0392L27.9608 37.7144Z" fill="#C7C7C7"/>
<path d="M33.4434 43.3502L31.9634 45.9167L32.2937 46.1072L33.7737 43.5407L33.4434 43.3502Z" fill="#C7C7C7"/>
<path d="M41.3838 45.4656H41.0088V48.4283H41.3838V45.4656Z" fill="#C7C7C7"/>
<path d="M49.2516 43.6411L48.9199 43.8318L50.4013 46.4093L50.733 46.2187L49.2516 43.6411Z" fill="#C7C7C7"/>
<path d="M54.7124 37.3932L54.5249 37.7195L57.1025 39.2008L57.29 38.8746L54.7124 37.3932Z" fill="#C7C7C7"/>
<path d="M59.3353 30.1021H56.3726V30.4771H59.3353V30.1021Z" fill="#C7C7C7"/>
<path d="M56.8099 21.0643L54.2441 22.5457L54.4317 22.8704L56.9974 21.3891L56.8099 21.0643Z" fill="#C7C7C7"/>
<path d="M50.107 14.483L48.627 17.0496L48.9572 17.24L50.4373 14.6735L50.107 14.483Z" fill="#C7C7C7"/>
<path d="M52.8283 18.0261L39.5649 30.3832L40.89 31.6833L53.1909 18.3762L52.8283 18.0261Z" fill="#455A64"/>
<path d="M37.4399 17.4575L40.5589 31.5772L42.334 31.0522L37.9212 17.3137L37.4399 17.4575Z" fill="#263238"/>
<path d="M40.7463 29.8395C40.6612 29.9278 40.6039 30.0392 40.5817 30.1598C40.5594 30.2804 40.5731 30.4049 40.6211 30.5177C40.6691 30.6306 40.7492 30.7269 40.8515 30.7945C40.9538 30.8622 41.0737 30.8983 41.1963 30.8983C41.319 30.8983 41.4389 30.8622 41.5412 30.7945C41.6435 30.7269 41.7236 30.6306 41.7716 30.5177C41.8195 30.4049 41.8333 30.2804 41.811 30.1598C41.7887 30.0392 41.7315 29.9278 41.6464 29.8395C41.5881 29.779 41.5182 29.7309 41.4408 29.698C41.3635 29.6651 41.2804 29.6482 41.1963 29.6482C41.1123 29.6482 41.0292 29.6651 40.9518 29.698C40.8745 29.7309 40.8046 29.779 40.7463 29.8395Z" fill="#D82E1D"/>
</svg>
